<svg xmlns="http://www.w3.org/2000/svg" xmlns:xlink="http://www.w3.org/1999/xlink" viewBox="0 0 157.85 148.98"><defs><style>.cls-1{fill:url(#linear-gradient);}.cls-2{fill:url(#linear-gradient-2);}.cls-3{fill:#d9e1ee;}.cls-4{fill:#3857cc;}.cls-5{fill:none;}.cls-6{fill:url(#linear-gradient-3);}.cls-7{fill:url(#linear-gradient-4);}.cls-8{fill:url(#linear-gradient-5);}.cls-9{fill:#b4c5e2;}.cls-10{isolation:isolate;}.cls-11{fill:url(#linear-gradient-6);}.cls-100,.cls-118,.cls-12,.cls-136{mix-blend-mode:screen;}.cls-13{fill:url(#linear-gradient-7);}.cls-14{fill:url(#linear-gradient-8);}.cls-15{fill:url(#linear-gradient-9);}.cls-16{fill:url(#linear-gradient-10);}.cls-17{fill:url(#linear-gradient-11);}.cls-18{fill:url(#linear-gradient-12);}.cls-19{fill:url(#linear-gradient-13);}.cls-20{fill:url(#linear-gradient-14);}.cls-21{fill:url(#linear-gradient-15);}.cls-22{fill:url(#linear-gradient-16);}.cls-23{fill:url(#linear-gradient-17);}.cls-24{fill:url(#linear-gradient-18);}.cls-25{fill:url(#linear-gradient-19);}.cls-26{fill:url(#linear-gradient-20);}.cls-27{fill:url(#linear-gradient-21);}.cls-28{fill:url(#linear-gradient-22);}.cls-29{fill:url(#linear-gradient-23);}.cls-30{fill:url(#linear-gradient-24);}.cls-31{fill:url(#linear-gradient-25);}.cls-32{fill:url(#linear-gradient-26);}.cls-33{fill:url(#linear-gradient-27);}.cls-34{fill:url(#linear-gradient-28);}.cls-35{clip-path:url(#clip-path);}.cls-36{fill:url(#linear-gradient-30);}.cls-37{fill:url(#linear-gradient-31);}.cls-38{fill:url(#linear-gradient-32);}.cls-39{fill:#0eb5e3;}.cls-40{clip-path:url(#clip-path-2);}.cls-41{fill:url(#linear-gradient-34);}.cls-42{fill:url(#linear-gradient-35);}.cls-43{fill:url(#linear-gradient-36);}.cls-44{fill:url(#linear-gradient-37);}.cls-45{fill:url(#linear-gradient-38);}.cls-46{clip-path:url(#clip-path-3);}.cls-47{fill:url(#linear-gradient-40);}.cls-48{fill:url(#linear-gradient-41);}.cls-49{fill:url(#linear-gradient-42);}.cls-50{clip-path:url(#clip-path-4);}.cls-51{fill:url(#linear-gradient-44);}.cls-52{fill:url(#linear-gradient-45);}.cls-53{fill:url(#linear-gradient-46);}.cls-54{fill:url(#linear-gradient-47);}.cls-55{fill:url(#linear-gradient-48);}.cls-56{clip-path:url(#clip-path-5);}.cls-57{fill:url(#linear-gradient-50);}.cls-58{fill:url(#linear-gradient-51);}.cls-59{fill:#e08910;}.cls-60{fill:#f2a92e;}.cls-61{fill:#9cb5cc;}.cls-62{fill:#d7e7f7;}.cls-63{fill:#f8f9fc;}.cls-64{fill:#ffca00;}.cls-65{fill:url(#linear-gradient-52);}.cls-66{fill:url(#linear-gradient-53);}.cls-67{fill:url(#linear-gradient-54);}.cls-68{fill:url(#linear-gradient-55);}.cls-69{fill:#15c5f3;}.cls-70{fill:url(#linear-gradient-56);}.cls-71{fill:url(#linear-gradient-57);}.cls-72{fill:url(#linear-gradient-58);}.cls-73{fill:url(#linear-gradient-59);}.cls-74{fill:#96aac9;}.cls-75{fill:#19f7fb;}.cls-76{fill:url(#linear-gradient-60);}.cls-77{fill:url(#linear-gradient-61);}.cls-78{fill:url(#linear-gradient-62);}.cls-79{fill:url(#linear-gradient-63);}.cls-80{fill:url(#linear-gradient-64);}.cls-81{fill:url(#linear-gradient-65);}.cls-82{fill:url(#linear-gradient-66);}.cls-83{fill:url(#linear-gradient-67);}.cls-84{fill:url(#linear-gradient-68);}.cls-85{fill:url(#linear-gradient-69);}.cls-86{fill:url(#linear-gradient-70);}.cls-87{fill:#d4d0c8;}.cls-88{fill:url(#linear-gradient-71);}.cls-89{fill:url(#linear-gradient-72);}.cls-90{fill:url(#linear-gradient-73);}.cls-91{fill:#303030;}.cls-92{fill:#5c697c;}.cls-93{fill:#f2f2f2;}.cls-94{fill:#b3b3b3;}.cls-95{fill:#7c93b8;}.cls-96{fill:#1b1823;}.cls-97{fill:url(#linear-gradient-74);}.cls-145,.cls-98{fill:#30273b;}.cls-99{fill:#404040;}.cls-100{fill:#b6ccdf;}.cls-100,.cls-142{opacity:0.2;}.cls-101{fill:#4a4e57;}.cls-102{fill:#393c41;}.cls-103{fill:#1b2029;}.cls-104{clip-path:url(#clip-path-6);}.cls-105{clip-path:url(#clip-path-7);}.cls-106{clip-path:url(#clip-path-8);}.cls-107{clip-path:url(#clip-path-9);}.cls-108{fill:#e8edf5;}.cls-109,.cls-119{fill:#f1f5fa;}.cls-110{clip-path:url(#clip-path-10);}.cls-111{fill:#aabad6;}.cls-112{clip-path:url(#clip-path-11);}.cls-113{fill:#c3cee1;}.cls-114{clip-path:url(#clip-path-12);}.cls-115{clip-path:url(#clip-path-13);}.cls-116{fill:#4767db;}.cls-117{fill:#2744ac;}.cls-118{fill:#51cfe3;}.cls-118,.cls-145{opacity:0.5;}.cls-119,.cls-136{opacity:0.3;}.cls-120{fill:#fff;}.cls-121{fill:#ffc89f;}.cls-122,.cls-136{fill:#2b0d04;}.cls-123{fill:#ffdfcd;}.cls-124{fill:#171d23;}.cls-125{fill:#021c30;}.cls-126{fill:#5338b8;}.cls-127{fill:#e9d3c8;}.cls-128{fill:#154902;}.cls-129{fill:#283033;}.cls-130{fill:#83cff2;}.cls-131{fill:#ffd6bf;}.cls-132{fill:#eeeff0;}.cls-133{fill:#f4f5f6;}.cls-134{fill:#0b0c0d;}.cls-135{fill:#ad7e6c;}.cls-137{fill:#393244;}.cls-138{fill:#e6e6e6;}.cls-139{fill:#521894;}.cls-140{fill:#997efa;}.cls-141{fill:#ffc6a6;}.cls-142{fill:#191c22;mix-blend-mode:multiply;}.cls-143{fill:#ccc;}.cls-144{fill:#f5c2a6;}.cls-146{fill:#c8d3e5;}.cls-147{fill:#171716;}.cls-148{fill:#1b5fb8;}.cls-149{fill:#1d68ca;}.cls-150{fill:#bd825a;}.cls-151{fill:#fcfdfd;}.cls-152{fill:#292b34;}.cls-153{clip-path:url(#clip-path-14);}.cls-154{fill:#22232c;}.cls-155{clip-path:url(#clip-path-15);}.cls-156{fill:#1d2027;}.cls-157{fill:#1e2129;}.cls-158{fill:#23262f;}.cls-159{fill:#0b0b0b;}.cls-160{fill:#451d2e;}.cls-161{fill:#381523;}</style><linearGradient id="linear-gradient" x1="83.21" y1="124.72" x2="87.06" y2="124.72" gradientUnits="userSpaceOnUse"><stop offset="0.01" stop-color="#e4e9f2"/><stop offset="1" stop-color="#b4c2da"/></linearGradient><linearGradient id="linear-gradient-2" x1="83.38" y1="117.6" x2="86.88" y2="117.6" gradientUnits="userSpaceOnUse"><stop offset="0" stop-color="#21deff"/><stop offset="1" stop-color="#0ab4ef"/></linearGradient><linearGradient id="linear-gradient-3" x1="83.21" y1="112.56" x2="87.06" y2="112.56" xlink:href="#linear-gradient"/><linearGradient id="linear-gradient-4" x1="83.38" y1="105.43" x2="86.88" y2="105.43" xlink:href="#linear-gradient-2"/><linearGradient id="linear-gradient-5" x1="83.21" y1="100.62" x2="87.06" y2="100.62" xlink:href="#linear-gradient"/><linearGradient id="linear-gradient-6" x1="54.95" y1="144.12" x2="181.3" y2="144.12" xlink:href="#linear-gradient-2"/><linearGradient id="linear-gradient-7" x1="103.53" y1="186.05" x2="146.87" y2="186.05" xlink:href="#linear-gradient-2"/><linearGradient id="linear-gradient-8" x1="57.13" y1="188.9" x2="88.09" y2="188.9" xlink:href="#linear-gradient-2"/><linearGradient id="linear-gradient-9" x1="49.62" y1="177.33" x2="80.58" y2="177.33" xlink:href="#linear-gradient-2"/><linearGradient id="linear-gradient-10" x1="42.09" y1="137.99" x2="65.82" y2="137.99" xlink:href="#linear-gradient-2"/><linearGradient id="linear-gradient-11" x1="84.89" y1="184.13" x2="88.54" y2="184.13" xlink:href="#linear-gradient-2"/><linearGradient id="linear-gradient-12" x1="81.08" y1="190.36" x2="93.38" y2="190.36" xlink:href="#linear-gradient-2"/><linearGradient id="linear-gradient-13" x1="-11236.7" y1="157.3" x2="-11197.2" y2="157.3" gradientTransform="matrix(-1, 0, 0, 1, -11100.62, -26.27)" xlink:href="#linear-gradient-2"/><linearGradient id="linear-gradient-14" x1="64.54" y1="122.46" x2="104.05" y2="122.46" xlink:href="#linear-gradient-2"/><linearGradient id="linear-gradient-15" x1="145.06" y1="170.95" x2="188" y2="170.95" xlink:href="#linear-gradient-2"/><linearGradient id="linear-gradient-16" x1="45.7" y1="167.77" x2="68.16" y2="167.77" xlink:href="#linear-gradient-2"/><linearGradient id="linear-gradient-17" x1="153.4" y1="173.07" x2="196.74" y2="173.07" xlink:href="#linear-gradient-2"/><linearGradient id="linear-gradient-18" x1="38.89" y1="162.13" x2="62.62" y2="162.13" xlink:href="#linear-gradient-2"/><linearGradient id="linear-gradient-19" x1="171.75" y1="160.17" x2="195.47" y2="160.17" xlink:href="#linear-gradient-2"/><linearGradient id="linear-gradient-20" x1="155.15" y1="115.37" x2="178.88" y2="115.37" xlink:href="#linear-gradient-2"/><linearGradient id="linear-gradient-21" x1="125.01" y1="123.7" x2="128.66" y2="123.7" xlink:href="#linear-gradient-2"/><linearGradient id="linear-gradient-22" x1="83.51" y1="128.79" x2="87.16" y2="128.79" xlink:href="#linear-gradient-2"/><linearGradient id="linear-gradient-23" x1="138.16" y1="67.33" x2="141.81" y2="67.33" xlink:href="#linear-gradient-2"/><linearGradient id="linear-gradient-24" x1="21.54" y1="114.82" x2="25.19" y2="114.82" xlink:href="#linear-gradient-2"/><linearGradient id="linear-gradient-25" x1="173.41" y1="128.16" x2="193.81" y2="128.16" xlink:href="#linear-gradient-2"/><linearGradient id="linear-gradient-26" x1="65.82" y1="113.29" x2="66.63" y2="113.29" xlink:href="#linear-gradient"/><linearGradient id="linear-gradient-27" x1="86.1" y1="113.41" x2="100.4" y2="121.11" xlink:href="#linear-gradient"/><linearGradient id="linear-gradient-28" x1="65.82" y1="118.57" x2="83.23" y2="118.57" gradientUnits="userSpaceOnUse"><stop offset="0" stop-color="#aabad6"/><stop offset="1" stop-color="#96aac9"/></linearGradient><clipPath id="clip-path" transform="translate(-38.89 -52.1)"><path class="cls-1" d="M87.06,123.62v1.71a3.92,3.92,0,0,1-3.84,0l0-1.71A3.9,3.9,0,0,0,87.06,123.62Z"/></clipPath><linearGradient id="linear-gradient-30" x1="82.69" y1="121.09" x2="86.62" y2="126.52" xlink:href="#linear-gradient"/><linearGradient id="linear-gradient-31" x1="72.34" y1="107.56" x2="159.53" y2="136.7" xlink:href="#linear-gradient"/><linearGradient id="linear-gradient-32" x1="93.34" y1="111.39" x2="130.34" y2="128.46" gradientUnits="userSpaceOnUse"><stop offset="0" stop-color="#21deff"/><stop offset="0.29" stop-color="#1ad2fa"/><stop offset="1" stop-color="#0ab4ef"/></linearGradient><clipPath id="clip-path-2" transform="translate(-38.89 -52.1)"><path class="cls-2" d="M86.88,112.55l0,9.64a3.54,3.54,0,0,1-3.48,0l0-9.64A3.54,3.54,0,0,0,86.88,112.55Z"/></clipPath><linearGradient id="linear-gradient-34" x1="82.55" y1="114.57" x2="91.28" y2="124.04" xlink:href="#linear-gradient-2"/><linearGradient id="linear-gradient-35" x1="67.62" y1="101.85" x2="102.55" y2="101.85" xlink:href="#linear-gradient-2"/><linearGradient id="linear-gradient-36" x1="65.82" y1="101.12" x2="66.63" y2="101.12" xlink:href="#linear-gradient"/><linearGradient id="linear-gradient-37" x1="86.1" y1="101.24" x2="100.4" y2="108.95" xlink:href="#linear-gradient"/><linearGradient id="linear-gradient-38" x1="65.82" y1="106.4" x2="83.23" y2="106.4" xlink:href="#linear-gradient-28"/><clipPath id="clip-path-3" transform="translate(-38.89 -52.1)"><path class="cls-6" d="M87.06,111.45v1.71a3.92,3.92,0,0,1-3.84,0l0-1.71A3.9,3.9,0,0,0,87.06,111.45Z"/></clipPath><linearGradient id="linear-gradient-40" x1="82.69" y1="108.92" x2="86.62" y2="114.35" xlink:href="#linear-gradient"/><linearGradient id="linear-gradient-41" x1="72.34" y1="95.4" x2="159.53" y2="124.53" xlink:href="#linear-gradient"/><linearGradient id="linear-gradient-42" x1="93.34" y1="99.23" x2="130.34" y2="116.3" xlink:href="#linear-gradient-32"/><clipPath id="clip-path-4" transform="translate(-38.89 -52.1)"><path class="cls-7" d="M86.88,100.38l0,9.65a3.54,3.54,0,0,1-3.48,0l0-9.65A3.54,3.54,0,0,0,86.88,100.38Z"/></clipPath><linearGradient id="linear-gradient-44" x1="82.55" y1="102.41" x2="91.28" y2="111.87" xlink:href="#linear-gradient-2"/><linearGradient id="linear-gradient-45" x1="67.62" y1="89.68" x2="102.55" y2="89.68" xlink:href="#linear-gradient-2"/><linearGradient id="linear-gradient-46" x1="65.82" y1="89.18" x2="66.63" y2="89.18" xlink:href="#linear-gradient"/><linearGradient id="linear-gradient-47" x1="86.1" y1="89.3" x2="100.4" y2="97.01" xlink:href="#linear-gradient"/><linearGradient id="linear-gradient-48" x1="65.82" y1="94.47" x2="83.23" y2="94.47" xlink:href="#linear-gradient-28"/><clipPath id="clip-path-5" transform="translate(-38.89 -52.1)"><path class="cls-8" d="M87.06,99.51v1.71a3.87,3.87,0,0,1-3.84,0l0-1.71A3.85,3.85,0,0,0,87.06,99.51Z"/></clipPath><linearGradient id="linear-gradient-50" x1="82.69" y1="96.99" x2="86.62" y2="102.42" xlink:href="#linear-gradient"/><linearGradient id="linear-gradient-51" x1="72.34" y1="83.46" x2="159.53" y2="112.6" gradientUnits="userSpaceOnUse"><stop offset="0.01" stop-color="#fcfdff"/><stop offset="1" stop-color="#cedaed"/></linearGradient><linearGradient id="linear-gradient-52" x1="105.93" y1="85.3" x2="131.58" y2="85.3" gradientUnits="userSpaceOnUse"><stop offset="0.01" stop-color="#d9e1ee"/><stop offset="1" stop-color="#aabad6"/></linearGradient><linearGradient id="linear-gradient-53" x1="87.3" y1="104.48" x2="87.3" y2="43.19" xlink:href="#linear-gradient-28"/><linearGradient id="linear-gradient-54" x1="93.36" y1="57.45" x2="236.66" y2="74.49" xlink:href="#linear-gradient"/><linearGradient id="linear-gradient-55" x1="111.17" y1="65.12" x2="129.59" y2="72.6" xlink:href="#linear-gradient-2"/><linearGradient id="linear-gradient-56" x1="105.93" y1="61.81" x2="131.58" y2="61.81" xlink:href="#linear-gradient-52"/><linearGradient id="linear-gradient-57" x1="87.3" y1="72" x2="87.3" y2="34.84" xlink:href="#linear-gradient-28"/><linearGradient id="linear-gradient-58" x1="87.22" y1="38.54" x2="87.22" y2="68.13" xlink:href="#linear-gradient-28"/><linearGradient id="linear-gradient-59" x1="93.36" y1="44.62" x2="236.66" y2="61.66" xlink:href="#linear-gradient"/><linearGradient id="linear-gradient-60" x1="111.17" y1="52.56" x2="129.59" y2="60.04" xlink:href="#linear-gradient-2"/><linearGradient id="linear-gradient-61" x1="105.93" y1="49.26" x2="131.58" y2="49.26" xlink:href="#linear-gradient-52"/><linearGradient id="linear-gradient-62" x1="87.3" y1="59.44" x2="87.3" y2="22.28" xlink:href="#linear-gradient-28"/><linearGradient id="linear-gradient-63" x1="87.22" y1="25.99" x2="87.22" y2="55.58" xlink:href="#linear-gradient-28"/><linearGradient id="linear-gradient-64" x1="93.36" y1="32.06" x2="236.66" y2="49.1" xlink:href="#linear-gradient"/><linearGradient id="linear-gradient-65" x1="111.17" y1="39.81" x2="129.59" y2="47.29" xlink:href="#linear-gradient-2"/><linearGradient id="linear-gradient-66" x1="105.93" y1="36.5" x2="131.58" y2="36.5" xlink:href="#linear-gradient-52"/><linearGradient id="linear-gradient-67" x1="87.3" y1="46.68" x2="87.3" y2="9.53" xlink:href="#linear-gradient-28"/><linearGradient id="linear-gradient-68" x1="87.22" y1="13.23" x2="87.22" y2="42.82" xlink:href="#linear-gradient-28"/><linearGradient id="linear-gradient-69" x1="93.36" y1="19.3" x2="236.66" y2="36.34" xlink:href="#linear-gradient"/><linearGradient id="linear-gradient-70" x1="-6653.09" y1="123.64" x2="-6594.68" y2="154.83" gradientTransform="matrix(-1, 0, 0, 1, -6534.97, 0)" gradientUnits="userSpaceOnUse"><stop offset="0.01" stop-color="#e4e9f2"/><stop offset="0.27" stop-color="#dfe5ef"/><stop offset="0.6" stop-color="#d0d9e8"/><stop offset="0.95" stop-color="#b8c5dc"/><stop offset="1" stop-color="#b4c2da"/></linearGradient><linearGradient id="linear-gradient-71" x1="-6659.4" y1="156.43" x2="-6595.94" y2="156.43" gradientTransform="matrix(-1, 0, 0, 1, -6534.97, 0)" xlink:href="#linear-gradient-28"/><linearGradient id="linear-gradient-72" x1="-6659.4" y1="154.06" x2="-6595.94" y2="154.06" xlink:href="#linear-gradient-70"/><linearGradient id="linear-gradient-73" x1="-6662.12" y1="129.25" x2="-6623.23" y2="129.25" gradientTransform="matrix(-1, 0, 0, 1, -6534.97, 0)" xlink:href="#linear-gradient-28"/><linearGradient id="linear-gradient-74" x1="-6649.62" y1="127.27" x2="-6623.01" y2="137.59" gradientTransform="matrix(-1, 0, 0, 1, -6573.86, -52.1)" xlink:href="#linear-gradient-2"/><clipPath id="clip-path-6" transform="translate(-38.89 -52.1)"><path class="cls-9" d="M134.61,82.61l2.73-1.75c-1.52,1-2.47,3-2.47,6,0,5.94,3.76,13.16,8.45,16.15l-2.73,1.74c-4.68-3-8.47-10.21-8.45-16.14C132.15,85.66,133.09,83.58,134.61,82.61Z"/></clipPath><clipPath id="clip-path-7" transform="translate(-38.89 -52.1)"><path class="cls-9" d="M149.35,103.66l-2.72,1.75c-1.54,1-3.68.84-6-.66l2.73-1.74C145.68,104.51,147.81,104.65,149.35,103.66Z"/></clipPath><clipPath id="clip-path-8" transform="translate(-38.89 -52.1)"><path class="cls-3" d="M132.07,77.78,134.8,76c2.19-1.41,5.23-1.21,8.59.92l-2.73,1.75C137.31,76.57,134.27,76.38,132.07,77.78Z"/></clipPath><clipPath id="clip-path-9" transform="translate(-38.89 -52.1)"><path class="cls-3" d="M151.9,108.48l-2.73,1.75c2.17-1.39,3.51-4.34,3.52-8.54,0-8.45-5.36-18.74-12-23L143.39,77c6.66,4.25,12.05,14.54,12,23C155.41,104.14,154.06,107.1,151.9,108.48Z"/></clipPath><clipPath id="clip-path-10" transform="translate(-38.89 -52.1)"><path class="cls-3" d="M155.9,100.36l5,3.18a1.23,1.23,0,0,0-1.32.14l-5-3.18A1.18,1.18,0,0,1,155.9,100.36Z"/></clipPath><clipPath id="clip-path-11" transform="translate(-38.89 -52.1)"><path class="cls-3" d="M158.26,108.49l-5-3.18a1.47,1.47,0,0,1-.54-1.3,4.58,4.58,0,0,1,1.84-3.51l5,3.18a4.61,4.61,0,0,0-1.83,3.51A1.47,1.47,0,0,0,158.26,108.49Z"/></clipPath><clipPath id="clip-path-12" transform="translate(-38.89 -52.1)"><path class="cls-4" d="M162.59,101.63,182,114.1a2.35,2.35,0,0,0-2.59.28L160,101.91A2.38,2.38,0,0,1,162.59,101.63Z"/></clipPath><clipPath id="clip-path-13" transform="translate(-38.89 -52.1)"><path class="cls-4" d="M176.87,123.9l-19.44-12.46a2.91,2.91,0,0,1-1.07-2.58,9.05,9.05,0,0,1,3.64-7l19.45,12.47a9,9,0,0,0-3.64,6.94A2.93,2.93,0,0,0,176.87,123.9Z"/></clipPath><clipPath id="clip-path-14" transform="translate(-38.89 -52.1)"><path class="cls-5" d="M70,111.58v-.06a.05.05,0,0,1,0,0v.05S70,111.6,70,111.58Z"/></clipPath><clipPath id="clip-path-15" transform="translate(-38.89 -52.1)"><path class="cls-5" d="M69.6,111.63v.06s0,0,0,0a.12.12,0,0,0,.14,0v0a.17.17,0,0,1-.14,0A.05.05,0,0,1,69.6,111.63Z"/></clipPath></defs><g class="cls-10"><g id="Layer_1" data-name="Layer 1"><path class="cls-11" d="M99.29,182.45A8,8,0,0,1,95,181.16l-37.6-24.22a5.67,5.67,0,0,1,0-9.3l65.34-41.85,31.64,20.51,24.4,15.53A6.09,6.09,0,0,1,181.3,147a6,6,0,0,1-2.68,5L143.4,174.65a11.37,11.37,0,0,1-12.6-.1l-4.19-2.78a7.37,7.37,0,0,0-8.12-.08l-14.91,9.49A7.94,7.94,0,0,1,99.29,182.45Zm23.43-75.91-65,41.66a5,5,0,0,0,0,8.18l37.6,24.22a7.34,7.34,0,0,0,8,0l14.91-9.49a7.9,7.9,0,0,1,8.72.08L131.1,174a10.83,10.83,0,0,0,12,.1l35.23-22.63a5.36,5.36,0,0,0,2.38-4.49,5.41,5.41,0,0,0-2.25-4.58l-24.4-15.53Z" transform="translate(-38.89 -52.1)"/><g class="cls-12"><path class="cls-13" d="M121.47,191.41a6.26,6.26,0,0,1-3.3-.87l-14.64-9.32.27-.52L118.44,190a6.12,6.12,0,0,0,6.06,0l10.62-6.76a6.67,6.67,0,0,1,6.59,0l5.16,3.29-.27.52-5.16-3.29a6.15,6.15,0,0,0-6.05,0l-10.62,6.76A6.23,6.23,0,0,1,121.47,191.41Z" transform="translate(-38.89 -52.1)"/><path class="cls-14" d="M81.08,187.68a6.88,6.88,0,0,1-5.68-.5,6.28,6.28,0,0,0-6.17,0L57.4,194.72l-.27-.52L69,186.67a6.8,6.8,0,0,1,6.71,0,6.26,6.26,0,0,0,6.16,0l3.23-2.06,2.41-1.53a2.14,2.14,0,0,1,.54.23l.08.06L85.52,185l-3.42,2.17a5.08,5.08,0,0,1-1,.5Z" transform="translate(-38.89 -52.1)"/><path class="cls-15" d="M73.57,176.11a6.88,6.88,0,0,1-5.68-.49,6.28,6.28,0,0,0-6.17,0l-11.83,7.53-.27-.51,11.83-7.54a6.85,6.85,0,0,1,6.71,0,6.21,6.21,0,0,0,6.16,0l3.22-2L80,171.51a1.94,1.94,0,0,1,.53.23l.09.06L78,173.44l-3.42,2.18a5.05,5.05,0,0,1-1,.49Z" transform="translate(-38.89 -52.1)"/><path class="cls-16" d="M65.55,142.79l-8.45-5.38a4.43,4.43,0,0,0-4.32,0,4.92,4.92,0,0,1-4.87,0l-5.82-3.7.27-.52,5.83,3.71a4.38,4.38,0,0,0,4.32,0,4.9,4.9,0,0,1,4.86,0l8.45,5.38Z" transform="translate(-38.89 -52.1)"/><path class="cls-17" d="M88,185a2.62,2.62,0,0,1-2.49.06l-.09-.06a1.11,1.11,0,0,1-.37-.34.87.87,0,0,1,.37-1.3,2.61,2.61,0,0,1,2-.23,2.14,2.14,0,0,1,.54.23l.08.06A.88.88,0,0,1,88,185Z" transform="translate(-38.89 -52.1)"/><path class="cls-18" d="M93.26,192.13a2.78,2.78,0,0,1-1.47,2.3l-10.44,6.66-.27-.52,10.44-6.65a1.94,1.94,0,0,0,0-3.58l-4.09-2.61a2.54,2.54,0,0,1,0-4.61l5.41-3.48.54.34-5.68,3.66a1.94,1.94,0,0,0,0,3.58l4.09,2.6A2.78,2.78,0,0,1,93.26,192.13Z" transform="translate(-38.89 -52.1)"/></g><g class="cls-12"><path class="cls-19" d="M95.79,190.47l.26.52,11.87-7.47a6.24,6.24,0,0,1,6.16,0,6.81,6.81,0,0,0,6.7,0l4-2.54a2.48,2.48,0,0,0-.16.8,2.8,2.8,0,0,0,1.46,2.31l4.08,2.63a2.23,2.23,0,0,1,1.19,1.8,2.2,2.2,0,0,1-1.21,1.78L119.7,197l.27.52,10.47-6.59a2.54,2.54,0,0,0,0-4.61l-4.08-2.63a1.94,1.94,0,0,1,0-3.58l8.09-5.09-.54-.35-5.25,3.3h0l-8.18,5.15a6.24,6.24,0,0,1-6.16,0,6.81,6.81,0,0,0-6.7,0Z" transform="translate(-38.89 -52.1)"/><path class="cls-20" d="M104.05,127l-.27.52L92,120a6.21,6.21,0,0,0-6.16,0,6.85,6.85,0,0,1-6.71,0l-4-2.56a2.22,2.22,0,0,1,.15.8,2.8,2.8,0,0,1-1.47,2.31l-4.09,2.6a1.94,1.94,0,0,0,0,3.58l10.44,6.65-.27.52-10.44-6.65A2.8,2.8,0,0,1,67.92,125a2.76,2.76,0,0,1,1.47-2.3l4.09-2.61a1.94,1.94,0,0,0,0-3.58l-8.07-5.14L66,111l5.24,3.33h0l8.15,5.19a6.28,6.28,0,0,0,6.17,0,6.78,6.78,0,0,1,6.7,0Z" transform="translate(-38.89 -52.1)"/><path class="cls-21" d="M157.58,180.27a6.33,6.33,0,0,1-3.35-.89l-9.17-5.84.27-.51,9.17,5.84a6.26,6.26,0,0,0,6.16,0l27.07-17.24.27.52-27.07,17.23A6.33,6.33,0,0,1,157.58,180.27Z" transform="translate(-38.89 -52.1)"/><path class="cls-22" d="M52.27,172.76a3.4,3.4,0,0,1-1.8-.49l-4.77-3,.27-.52,4.77,3a3.11,3.11,0,0,0,3.07,0l14.07-9,.28.52-14.08,9A3.46,3.46,0,0,1,52.27,172.76Z" transform="translate(-38.89 -52.1)"/><path class="cls-23" d="M171.34,178.42a6.22,6.22,0,0,1-3.3-.86l-14.64-9.32.27-.52L168.31,177a6.17,6.17,0,0,0,6.06,0L185,170.28a6.69,6.69,0,0,1,6.6,0l5.16,3.29-.27.51-5.16-3.28a6.12,6.12,0,0,0-6.06,0l-10.61,6.76A6.25,6.25,0,0,1,171.34,178.42Z" transform="translate(-38.89 -52.1)"/><path class="cls-24" d="M62.35,166.93l-8.45-5.38a4.38,4.38,0,0,0-4.32,0,5,5,0,0,1-4.87,0l-5.82-3.71.27-.52L45,161a4.4,4.4,0,0,0,4.33,0,5,5,0,0,1,4.86,0l8.45,5.38Z" transform="translate(-38.89 -52.1)"/><path class="cls-25" d="M195.2,165l-8.44-5.38a4.4,4.4,0,0,0-4.33,0,5,5,0,0,1-4.86,0l-5.82-3.71.27-.52,5.82,3.71a4.38,4.38,0,0,0,4.32,0,5,5,0,0,1,4.87,0l8.44,5.38Z" transform="translate(-38.89 -52.1)"/><path class="cls-26" d="M178.61,120.17l-8.45-5.37a4.38,4.38,0,0,0-4.32,0,5,5,0,0,1-4.86,0l-5.83-3.71.27-.52,5.83,3.71a4.38,4.38,0,0,0,4.32,0,5,5,0,0,1,4.86,0l8.45,5.38Z" transform="translate(-38.89 -52.1)"/><ellipse class="cls-27" cx="126.84" cy="123.7" rx="1.82" ry="1.16"/><ellipse class="cls-28" cx="85.34" cy="128.79" rx="1.82" ry="1.16"/><ellipse class="cls-29" cx="139.99" cy="67.33" rx="1.82" ry="1.16"/><ellipse class="cls-30" cx="23.36" cy="114.82" rx="1.82" ry="1.16"/><path class="cls-31" d="M176,140.08l-.27-.52,7.47-4.76a1.67,1.67,0,0,0,0-3.08l-8.43-5.37a2.27,2.27,0,0,1,0-4.12L182.9,117a6,6,0,0,1,5.92,0l5,3.18-.27.52-5-3.18a5.43,5.43,0,0,0-5.38,0L175,122.75a1.66,1.66,0,0,0,0,3.08l8.43,5.37a2.28,2.28,0,0,1,0,4.12Z" transform="translate(-38.89 -52.1)"/></g><g class="cls-10"><path class="cls-32" d="M65.82,113.53v-1.71a1.52,1.52,0,0,0,.8,1.23v1.71A1.5,1.5,0,0,1,65.82,113.53Z" transform="translate(-38.89 -52.1)"/><path class="cls-33" d="M103.55,113.05,87.06,123.62v1.71l16.49-10.57a1.5,1.5,0,0,0,.78-1.22l0-1.71A1.51,1.51,0,0,1,103.55,113.05Z" transform="translate(-38.89 -52.1)"/><path class="cls-34" d="M66.63,113.05a1.52,1.52,0,0,1-.8-1.23v1.71a1.5,1.5,0,0,0,.8,1.23l16.59,10.57,0-1.71Z" transform="translate(-38.89 -52.1)"/><g class="cls-10"><path class="cls-1" d="M87.06,123.62v1.71a3.92,3.92,0,0,1-3.84,0l0-1.71A3.9,3.9,0,0,0,87.06,123.62Z" transform="translate(-38.89 -52.1)"/><g class="cls-35"><g class="cls-10"><path class="cls-36" d="M87.06,123.62v1.71a3.92,3.92,0,0,1-3.84,0l0-1.71a3.9,3.9,0,0,0,3.83,0Z" transform="translate(-38.89 -52.1)"/></g></g></g><path class="cls-37" d="M103.54,110.6a1.34,1.34,0,0,1,0,2.45L87.06,123.62a3.9,3.9,0,0,1-3.83,0l-16.6-10.57a1.34,1.34,0,0,1,0-2.45L83.11,100a3.9,3.9,0,0,1,3.83,0Z" transform="translate(-38.89 -52.1)"/></g><g class="cls-10"><path class="cls-38" d="M101.84,103l-15,9.59,0,9.64,15-9.58a1.35,1.35,0,0,0,.71-1.11l0-9.64A1.35,1.35,0,0,1,101.84,103Z" transform="translate(-38.89 -52.1)"/><path class="cls-39" d="M68.34,103a1.35,1.35,0,0,1-.72-1.12l0,9.65a1.38,1.38,0,0,0,.72,1.12l15.06,9.58,0-9.64Z" transform="translate(-38.89 -52.1)"/><g class="cls-10"><path class="cls-2" d="M86.88,112.55l0,9.64a3.54,3.54,0,0,1-3.48,0l0-9.64A3.54,3.54,0,0,0,86.88,112.55Z" transform="translate(-38.89 -52.1)"/><g class="cls-40"><g class="cls-10"><path class="cls-41" d="M86.88,112.55l0,9.64a3.54,3.54,0,0,1-3.48,0l0-9.64a3.54,3.54,0,0,0,3.48,0Z" transform="translate(-38.89 -52.1)"/></g></g></g><path class="cls-42" d="M101.83,100.74a1.22,1.22,0,0,1,0,2.22l-15,9.59a3.54,3.54,0,0,1-3.48,0L68.34,103a1.22,1.22,0,0,1,0-2.22l15-9.59a3.54,3.54,0,0,1,3.48,0Z" transform="translate(-38.89 -52.1)"/></g><g class="cls-10"><path class="cls-43" d="M65.82,101.36V99.65a1.51,1.51,0,0,0,.8,1.23v1.71A1.48,1.48,0,0,1,65.82,101.36Z" transform="translate(-38.89 -52.1)"/><path class="cls-44" d="M103.55,100.88,87.06,111.45v1.71l16.49-10.57a1.47,1.47,0,0,0,.78-1.22l0-1.71A1.49,1.49,0,0,1,103.55,100.88Z" transform="translate(-38.89 -52.1)"/><path class="cls-45" d="M66.63,100.88a1.51,1.51,0,0,1-.8-1.23v1.71a1.48,1.48,0,0,0,.8,1.23l16.59,10.57,0-1.71Z" transform="translate(-38.89 -52.1)"/><g class="cls-10"><path class="cls-6" d="M87.06,111.45v1.71a3.92,3.92,0,0,1-3.84,0l0-1.71A3.9,3.9,0,0,0,87.06,111.45Z" transform="translate(-38.89 -52.1)"/><g class="cls-46"><g class="cls-10"><path class="cls-47" d="M87.06,111.45v1.71a3.92,3.92,0,0,1-3.84,0l0-1.71a3.9,3.9,0,0,0,3.83,0Z" transform="translate(-38.89 -52.1)"/></g></g></g><path class="cls-48" d="M103.54,98.43a1.34,1.34,0,0,1,0,2.45L87.06,111.45a3.9,3.9,0,0,1-3.83,0l-16.6-10.57a1.34,1.34,0,0,1,0-2.45L83.11,87.86a3.9,3.9,0,0,1,3.83,0Z" transform="translate(-38.89 -52.1)"/></g><g class="cls-10"><path class="cls-49" d="M101.84,90.8l-15,9.58,0,9.65,15-9.59a1.35,1.35,0,0,0,.71-1.11l0-9.64A1.37,1.37,0,0,1,101.84,90.8Z" transform="translate(-38.89 -52.1)"/><path class="cls-39" d="M68.34,90.8a1.38,1.38,0,0,1-.72-1.12l0,9.64a1.37,1.37,0,0,0,.72,1.12L83.38,110l0-9.65Z" transform="translate(-38.89 -52.1)"/><g class="cls-10"><path class="cls-7" d="M86.88,100.38l0,9.65a3.54,3.54,0,0,1-3.48,0l0-9.65A3.54,3.54,0,0,0,86.88,100.38Z" transform="translate(-38.89 -52.1)"/><g class="cls-50"><g class="cls-10"><path class="cls-51" d="M86.88,100.38l0,9.65a3.54,3.54,0,0,1-3.48,0l0-9.65a3.54,3.54,0,0,0,3.48,0Z" transform="translate(-38.89 -52.1)"/></g></g></g><path class="cls-52" d="M101.83,88.57a1.23,1.23,0,0,1,0,2.23l-15,9.58a3.54,3.54,0,0,1-3.48,0L68.34,90.8a1.22,1.22,0,0,1,0-2.23l15-9.59a3.54,3.54,0,0,1,3.48,0Z" transform="translate(-38.89 -52.1)"/></g><g class="cls-10"><path class="cls-53" d="M65.82,89.42V87.71a1.52,1.52,0,0,0,.8,1.24v1.71A1.5,1.5,0,0,1,65.82,89.42Z" transform="translate(-38.89 -52.1)"/><path class="cls-54" d="M103.55,88.94,87.06,99.51v1.71l16.49-10.57a1.47,1.47,0,0,0,.78-1.21l0-1.71A1.49,1.49,0,0,1,103.55,88.94Z" transform="translate(-38.89 -52.1)"/><path class="cls-55" d="M66.63,89a1.52,1.52,0,0,1-.8-1.24v1.71a1.5,1.5,0,0,0,.8,1.24l16.59,10.56,0-1.71Z" transform="translate(-38.89 -52.1)"/><g class="cls-10"><path class="cls-8" d="M87.06,99.51v1.71a3.87,3.87,0,0,1-3.84,0l0-1.71A3.85,3.85,0,0,0,87.06,99.51Z" transform="translate(-38.89 -52.1)"/><g class="cls-56"><g class="cls-10"><path class="cls-57" d="M87.06,99.51v1.71a3.87,3.87,0,0,1-3.84,0l0-1.71a3.85,3.85,0,0,0,3.83,0Z" transform="translate(-38.89 -52.1)"/></g></g></g><path class="cls-58" d="M103.54,86.49a1.34,1.34,0,0,1,0,2.45L87.06,99.51a3.85,3.85,0,0,1-3.83,0L66.63,89a1.35,1.35,0,0,1,0-2.46L83.11,75.93a3.85,3.85,0,0,1,3.83,0Z" transform="translate(-38.89 -52.1)"/></g><g class="cls-10"><g class="cls-10"><path class="cls-59" d="M111.46,56.14l-1.09-.68a.64.64,0,0,1,.24-.11l1.09.68a1.22,1.22,0,0,0-.24.11Z" transform="translate(-38.89 -52.1)"/><path class="cls-59" d="M111.7,56l-1.09-.68a.39.39,0,0,1,.32,0l1.1.68a.45.45,0,0,0-.33,0Z" transform="translate(-38.89 -52.1)"/></g><g class="cls-10"><path class="cls-60" d="M94.67,79.15l-1.1-.68a.62.62,0,0,1-.22-.54l1.09.69a.6.6,0,0,0,.23.53Z" transform="translate(-38.89 -52.1)"/></g><polygon class="cls-59" points="62.71 10.48 61.61 9.8 71.48 3.35 72.57 4.04 62.71 10.48"/><g class="cls-10"><path class="cls-59" d="M100.22,61.47l-1.1-.68a.93.93,0,0,1,.29-.13l1.1.68a1.08,1.08,0,0,0-.29.13Z" transform="translate(-38.89 -52.1)"/><path class="cls-59" d="M100.51,61.34l-1.1-.68a.63.63,0,0,1,.51.07l1.09.68a.66.66,0,0,0-.5-.07Z" transform="translate(-38.89 -52.1)"/></g><polygon class="cls-59" points="55.55 26.51 54.46 25.83 53.95 13.73 55.05 14.41 55.55 26.51"/><polygon class="cls-59" points="55.83 12.89 54.73 12.21 60.23 8.68 61.33 9.37 55.83 12.89"/><g class="cls-10"><path class="cls-59" d="M93.94,66.52l-1.09-.69a2,2,0,0,1,.39-1.14l1.09.68a2.06,2.06,0,0,0-.39,1.15Z" transform="translate(-38.89 -52.1)"/><path class="cls-59" d="M94.33,65.37l-1.09-.68a1.37,1.37,0,0,1,.38-.38l1.1.69a1.69,1.69,0,0,0-.39.37Z" transform="translate(-38.89 -52.1)"/></g><path class="cls-60" d="M94.72,65l5.5-3.53a.65.65,0,0,1,1,.23l.35.88,9.86-6.44c.44-.28.8-.06.8.49l-.21,10.46a1.86,1.86,0,0,1-.74,1.45L95.21,79.08c-.42.28-.76.07-.77-.46l-.5-12.1A1.94,1.94,0,0,1,94.72,65Z" transform="translate(-38.89 -52.1)"/></g><g class="cls-10"><polygon class="cls-61" points="55.62 21.16 55.12 21.16 54.59 15.96 55.14 16.3 55.62 21.16"/><polygon class="cls-62" points="55.14 16.3 54.59 15.96 71.49 3.64 72.04 3.98 55.14 16.3"/><polygon class="cls-63" points="72.04 3.98 72.51 8.84 55.62 21.16 55.14 16.3 72.04 3.98"/></g><path class="cls-60" d="M101.31,68.75a2.58,2.58,0,0,1,.45-.89,2.65,2.65,0,0,1,.62-.63L112,60.84a.81.81,0,0,1,.29-.13.42.42,0,0,1,.35,0l-1.1-.69a.45.45,0,0,0-.35,0,1.09,1.09,0,0,0-.29.14l-9.64,6.39a2.21,2.21,0,0,0-.63.63,3.06,3.06,0,0,0-.45.88l-.34,1.22-6.44,4.23A1.78,1.78,0,0,0,93,74a1.87,1.87,0,0,0-.37,1l.49,9a.5.5,0,0,0,.19.44l1.1.68a.47.47,0,0,1-.2-.43l-.48-9a1.72,1.72,0,0,1,.37-1,1.64,1.64,0,0,1,.46-.45L101,70Z" transform="translate(-38.89 -52.1)"/><path class="cls-64" d="M112,60.84c.46-.3.84-.14.85.36l-.22,11.33a1.91,1.91,0,0,1-.8,1.39L95,85c-.44.29-.81.13-.82-.34l-.48-9a1.93,1.93,0,0,1,.83-1.45L101,70l.34-1.21a3,3,0,0,1,1.07-1.52Z" transform="translate(-38.89 -52.1)"/><g class="cls-10"><polygon class="cls-65" points="131.58 61.93 131.57 92.23 105.93 108.67 105.94 78.36 131.58 61.93"/><polygon class="cls-66" points="105.94 78.36 105.93 108.67 68.66 84.89 68.67 54.59 105.94 78.36"/><polygon class="cls-67" points="131.58 61.93 105.94 78.36 68.67 54.59 94.31 38.15 131.58 61.93"/></g><g class="cls-10"><polygon class="cls-68" points="129.99 58.77 129.99 61.55 105.93 76.98 105.93 74.2 129.99 58.77"/><polygon class="cls-39" points="105.93 74.2 105.93 76.98 70.24 54.21 70.24 51.43 105.93 74.2"/><polygon class="cls-69" points="129.99 58.77 105.93 74.2 70.24 51.43 90.85 38.22 129.99 58.77"/></g><g class="cls-10"><polygon class="cls-70" points="131.58 49.09 131.57 58.1 105.93 74.53 105.94 65.53 131.58 49.09"/><polygon class="cls-71" points="105.94 65.53 105.93 74.53 68.66 50.75 68.67 41.75 105.94 65.53"/><polygon class="cls-72" points="69.64 50.12 69.81 43.92 104.79 66.25 104.63 72.45 69.64 50.12"/><polygon class="cls-73" points="131.58 49.09 105.94 65.53 68.67 41.75 94.31 25.31 131.58 49.09"/></g><polygon class="cls-3" points="106.67 66.13 131.12 50.55 131.12 57.59 106.67 73.17 106.67 66.13"/><polygon class="cls-74" points="107.28 66.32 116.09 60.68 116.09 66.68 107.28 72.32 107.28 66.32"/><polygon class="cls-75" points="110.11 66.26 107.72 67.78 107.72 70.86 110.11 69.34 110.11 66.26"/><polygon class="cls-75" points="112.91 64.48 110.52 66.01 110.52 69.08 112.91 67.56 112.91 64.48"/><polygon class="cls-75" points="115.65 62.73 113.25 64.25 113.25 67.33 115.65 65.8 115.65 62.73"/><polygon class="cls-74" points="123.16 62.27 123.7 61.93 123.7 55.81 123.16 56.16 123.16 62.27"/><polygon class="cls-74" points="122.05 62.98 122.59 62.63 122.59 56.52 122.05 56.86 122.05 62.98"/><polygon class="cls-74" points="120.94 63.68 121.49 63.34 121.49 57.22 120.94 57.57 120.94 63.68"/><polygon class="cls-74" points="119.84 64.39 120.38 64.04 120.38 57.92 119.84 58.27 119.84 64.39"/><polygon class="cls-74" points="118.73 65.09 119.28 64.74 119.28 58.63 118.73 58.98 118.73 65.09"/><polygon class="cls-74" points="117.62 65.8 118.17 65.45 118.17 59.33 117.62 59.68 117.62 65.8"/><polygon class="cls-74" points="116.52 66.5 117.06 66.15 117.06 60.04 116.52 60.38 116.52 66.5"/><g class="cls-10"><polygon class="cls-76" points="129.99 46.22 129.99 49 105.93 64.43 105.93 61.64 129.99 46.22"/><polygon class="cls-39" points="105.93 61.64 105.93 64.43 70.24 41.65 70.24 38.87 105.93 61.64"/><polygon class="cls-69" points="129.99 46.22 105.93 61.64 70.24 38.87 90.85 25.67 129.99 46.22"/></g><g class="cls-10"><polygon class="cls-77" points="131.58 36.54 131.57 45.54 105.93 61.98 105.94 52.97 131.58 36.54"/><polygon class="cls-78" points="105.94 52.97 105.93 61.98 68.66 38.2 68.67 29.19 105.94 52.97"/><polygon class="cls-79" points="69.64 37.56 69.81 31.37 104.79 53.7 104.63 59.89 69.64 37.56"/><polygon class="cls-80" points="131.58 36.54 105.94 52.97 68.67 29.19 94.31 12.76 131.58 36.54"/></g><polygon class="cls-3" points="106.67 53.58 131.12 37.99 131.12 45.03 106.67 60.61 106.67 53.58"/><polygon class="cls-74" points="107.28 53.76 116.09 48.13 116.09 54.13 107.28 59.77 107.28 53.76"/><polygon class="cls-75" points="110.11 53.7 107.72 55.23 107.72 58.31 110.11 56.78 110.11 53.7"/><polygon class="cls-75" points="112.91 51.93 110.52 53.45 110.52 56.53 112.91 55 112.91 51.93"/><polygon class="cls-75" points="115.65 50.17 113.25 51.7 113.25 54.77 115.65 53.25 115.65 50.17"/><polygon class="cls-74" points="123.16 49.72 123.7 49.37 123.7 43.25 123.16 43.6 123.16 49.72"/><polygon class="cls-74" points="122.05 50.42 122.59 50.08 122.59 43.96 122.05 44.31 122.05 50.42"/><polygon class="cls-74" points="120.94 51.13 121.49 50.78 121.49 44.66 120.94 45.01 120.94 51.13"/><polygon class="cls-74" points="119.84 51.83 120.38 51.48 120.38 45.37 119.84 45.72 119.84 51.83"/><polygon class="cls-74" points="118.73 52.54 119.28 52.19 119.28 46.07 118.73 46.42 118.73 52.54"/><polygon class="cls-74" points="117.62 53.24 118.17 52.89 118.17 46.78 117.62 47.13 117.62 53.24"/><polygon class="cls-74" points="116.52 53.95 117.06 53.6 117.06 47.48 116.52 47.83 116.52 53.95"/><g class="cls-10"><polygon class="cls-81" points="129.99 33.46 129.99 36.24 105.93 51.67 105.93 48.89 129.99 33.46"/><polygon class="cls-39" points="105.93 48.89 105.93 51.67 70.24 28.9 70.24 26.11 105.93 48.89"/><polygon class="cls-69" points="129.99 33.46 105.93 48.89 70.24 26.11 90.85 12.91 129.99 33.46"/></g><g class="cls-10"><polygon class="cls-82" points="131.58 23.78 131.57 32.78 105.93 49.22 105.94 40.22 131.58 23.78"/><polygon class="cls-83" points="105.94 40.22 105.93 49.22 68.66 25.44 68.67 16.43 105.94 40.22"/><polygon class="cls-84" points="69.64 24.81 69.81 18.61 104.79 40.94 104.63 47.14 69.64 24.81"/><polygon class="cls-85" points="131.58 23.78 105.94 40.22 68.67 16.44 94.31 0 131.58 23.78"/></g><polygon class="cls-3" points="106.67 40.82 131.12 25.24 131.12 32.27 106.67 47.86 106.67 40.82"/><polygon class="cls-74" points="107.28 41.01 116.09 35.37 116.09 41.37 107.28 47.01 107.28 41.01"/><polygon class="cls-75" points="110.11 40.95 107.72 42.47 107.72 45.55 110.11 44.02 110.11 40.95"/><polygon class="cls-75" points="112.91 39.17 110.52 40.7 110.52 43.77 112.91 42.25 112.91 39.17"/><polygon class="cls-75" points="115.65 37.41 113.25 38.94 113.25 42.01 115.65 40.49 115.65 37.41"/><polygon class="cls-74" points="123.16 36.96 123.7 36.62 123.7 30.5 123.16 30.85 123.16 36.96"/><polygon class="cls-74" points="122.05 37.67 122.59 37.32 122.59 31.2 122.05 31.55 122.05 37.67"/><polygon class="cls-74" points="120.94 38.37 121.49 38.02 121.49 31.91 120.94 32.26 120.94 38.37"/><polygon class="cls-74" points="119.84 39.08 120.38 38.73 120.38 32.61 119.84 32.96 119.84 39.08"/><polygon class="cls-74" points="118.73 39.78 119.28 39.43 119.28 33.32 118.73 33.66 118.73 39.78"/><polygon class="cls-74" points="117.62 40.48 118.17 40.13 118.17 34.02 117.62 34.37 117.62 40.48"/><polygon class="cls-74" points="116.52 41.19 117.06 40.84 117.06 34.72 116.52 35.07 116.52 41.19"/><path class="cls-86" d="M124.25,124.87,89.5,102.61c-1-.6-1.73-.12-1.73,1.08l-.13,27.53a4.35,4.35,0,0,0,1.71,3.28l34.75,22.26c1,.61,1.72.12,1.73-1.08l.13-27.52A4.32,4.32,0,0,0,124.25,124.87Z" transform="translate(-38.89 -52.1)"/><rect class="cls-87" x="52.57" y="84.38" width="1" height="1.51"/><path class="cls-88" d="M124.43,157.62h-.92v1.12L89,136.62a3.44,3.44,0,0,0-3.43,0L61,150.51V153h0a1.35,1.35,0,0,0,.7,1l34.75,22.26a3.52,3.52,0,0,0,3.43,0l23.86-15.18a1.41,1.41,0,0,0,.71-1h0Z" transform="translate(-38.89 -52.1)"/><path class="cls-89" d="M123.72,158.7,99.86,173.89a3.52,3.52,0,0,1-3.43,0L61.68,151.62a1.2,1.2,0,0,1,0-2.19l23.85-15.19a3.44,3.44,0,0,1,3.43,0l3.49,2.24-.66.42L117,153l.58-.37,6.1,3.91A1.2,1.2,0,0,1,123.72,158.7Z" transform="translate(-38.89 -52.1)"/><path class="cls-90" d="M89,102l.49-.32a1.16,1.16,0,0,1,1.23.14l34.75,22.26a4.31,4.31,0,0,1,1.69,3.28L127,154.9a1.37,1.37,0,0,1-.5,1.22l-1.23.78a1.35,1.35,0,0,0,.5-1.21l.13-27.52a4.29,4.29,0,0,0-1.71-3.29L89.48,102.63a1.14,1.14,0,0,0-1.23-.14Z" transform="translate(-38.89 -52.1)"/><path class="cls-91" d="M119.27,162.58a1.57,1.57,0,0,1-.58,1.22c-.32.21-.58,0-.58-.48a1.57,1.57,0,0,1,.58-1.22C119,161.9,119.27,162.11,119.27,162.58Z" transform="translate(-38.89 -52.1)"/><path class="cls-92" d="M118.18,163.46a1.59,1.59,0,0,0,.58-1.22.88.88,0,0,0,0-.17c.3-.14.53.07.53.51a1.57,1.57,0,0,1-.58,1.22c-.28.18-.51,0-.57-.32Z" transform="translate(-38.89 -52.1)"/><path class="cls-93" d="M118.53,163.71a1.59,1.59,0,0,0,.58-1.23A.71.71,0,0,0,119,162c.17,0,.29.24.29.55a1.57,1.57,0,0,1-.58,1.22.31.31,0,0,1-.45,0A.4.4,0,0,0,118.53,163.71Z" transform="translate(-38.89 -52.1)"/><path class="cls-91" d="M117.22,163.9a1.59,1.59,0,0,1-.58,1.22c-.32.2-.58,0-.58-.49a1.59,1.59,0,0,1,.58-1.22C117,163.21,117.22,163.43,117.22,163.9Z" transform="translate(-38.89 -52.1)"/><path class="cls-92" d="M116.13,164.77a1.59,1.59,0,0,0,.58-1.22.81.81,0,0,0,0-.16c.29-.15.52.06.52.51a1.59,1.59,0,0,1-.58,1.22c-.28.18-.51,0-.56-.32Z" transform="translate(-38.89 -52.1)"/><path class="cls-93" d="M116.48,165a1.59,1.59,0,0,0,.58-1.22.67.67,0,0,0-.13-.45c.17,0,.29.23.29.55a1.59,1.59,0,0,1-.58,1.22.31.31,0,0,1-.44,0A.38.38,0,0,0,116.48,165Z" transform="translate(-38.89 -52.1)"/><path class="cls-94" d="M120.12,157.67a2.36,2.36,0,0,1-1,1.17l-12.19,7.81a4.52,4.52,0,0,1-4.45.2L71.61,147.23l0,0a1.61,1.61,0,0,1-.66-.78c-.24-.67.11-1.45,1-2l12.19-7.82a4.58,4.58,0,0,1,4.45-.2L119.42,156a1.62,1.62,0,0,1,.65.71A1.27,1.27,0,0,1,120.12,157.67Z" transform="translate(-38.89 -52.1)"/><path class="cls-93" d="M120.12,157.67a2.36,2.36,0,0,1-1,1.17l-12.19,7.81a4.52,4.52,0,0,1-4.45.2L71.61,147.23l0,0a1.61,1.61,0,0,1-.66-.78,2.33,2.33,0,0,1,1-1.18l12.19-7.81a4.52,4.52,0,0,1,4.45-.2l30.85,19.62a1.65,1.65,0,0,1,.65.7A.61.61,0,0,1,120.12,157.67Z" transform="translate(-38.89 -52.1)"/><polygon class="cls-92" points="49.65 89.66 47.23 91.19 49.72 92.79 52.13 91.26 49.65 89.66"/><polygon class="cls-92" points="45.79 90.95 43.39 92.48 45.88 94.08 48.29 92.56 45.79 90.95"/><polygon class="cls-92" points="42.33 88.92 39.54 90.69 37.93 91.7 37.12 92.22 41.32 94.92 43.74 93.4 42.45 92.57 45.23 90.78 42.33 88.92"/><polygon class="cls-92" points="48.6 92.75 46.19 94.29 48.68 95.89 51.09 94.36 48.6 92.75"/><polygon class="cls-92" points="36.56 92.57 34.15 94.1 39.29 97.41 41.7 95.88 36.56 92.57"/><polygon class="cls-92" points="41.95 96.04 39.54 97.56 43.43 100.07 45.85 98.54 41.95 96.04"/><polygon class="cls-92" points="49.63 97.2 47.22 98.73 49.71 100.33 52.12 98.8 49.63 97.2"/><polygon class="cls-92" points="48.39 85.08 45.98 86.61 48.48 88.21 50.89 86.68 48.39 85.08"/><polygon class="cls-92" points="51.36 86.98 48.95 88.51 51.44 90.12 53.85 88.59 51.36 86.98"/><polygon class="cls-92" points="45.44 86.95 43.02 88.47 46.88 90.97 49.3 89.43 45.44 86.95"/><polygon class="cls-92" points="54.32 88.89 51.91 90.42 54.4 92.03 56.82 90.5 54.32 88.89"/><polygon class="cls-92" points="57.29 90.81 54.88 92.34 57.37 93.94 59.78 92.42 57.29 90.81"/><polygon class="cls-92" points="52.48 91.48 50.06 93 52.56 94.62 54.97 93.08 52.48 91.48"/><polygon class="cls-92" points="60.26 92.72 57.84 94.24 60.33 95.85 62.75 94.32 60.26 92.72"/><polygon class="cls-92" points="55.32 93.31 52.91 94.84 55.4 96.44 57.81 94.91 55.32 93.31"/><polygon class="cls-92" points="44.06 93.6 41.65 95.13 44.14 96.74 46.55 95.21 44.06 93.6"/><polygon class="cls-92" points="63.22 94.62 60.81 96.16 63.3 97.76 65.72 96.23 63.22 94.62"/><polygon class="cls-92" points="51.4 94.56 48.99 96.09 51.48 97.69 53.89 96.17 51.4 94.56"/><polygon class="cls-92" points="58.15 95.13 55.74 96.66 58.23 98.27 60.64 96.74 58.15 95.13"/><polygon class="cls-92" points="46.86 95.41 44.45 96.94 46.94 98.54 49.36 97.02 46.86 95.41"/><polygon class="cls-92" points="54.2 96.36 51.79 97.89 54.28 99.5 56.7 97.97 54.2 96.36"/><polygon class="cls-92" points="66.19 96.54 63.77 98.07 66.26 99.67 68.68 98.14 66.19 96.54"/><polygon class="cls-92" points="60.99 96.96 58.57 98.49 61.06 100.09 63.48 98.56 60.99 96.96"/><polygon class="cls-92" points="57.01 98.17 54.6 99.7 57.09 101.31 59.5 99.78 57.01 98.17"/><polygon class="cls-92" points="69.15 98.45 66.74 99.98 69.24 101.58 71.64 100.06 69.15 98.45"/><polygon class="cls-92" points="63.82 98.78 61.41 100.31 63.9 101.92 66.32 100.39 63.82 98.78"/><polygon class="cls-92" points="52.53 99.06 50.12 100.59 52.61 102.19 55.02 100.66 52.53 99.06"/><polygon class="cls-92" points="59.81 99.97 57.4 101.5 59.89 103.12 62.31 101.58 59.81 99.97"/><polygon class="cls-92" points="72.12 100.36 69.71 101.89 72.2 103.5 74.61 101.96 72.12 100.36"/><polygon class="cls-92" points="66.66 100.61 64.24 102.14 66.74 103.75 69.15 102.21 66.66 100.61"/><polygon class="cls-92" points="55.3 100.85 52.88 102.38 55.38 103.98 57.79 102.45 55.3 100.85"/><polygon class="cls-92" points="62.62 101.78 60.2 103.31 62.7 104.91 65.11 103.39 62.62 101.78"/><polygon class="cls-92" points="58.1 102.65 55.69 104.18 58.19 105.78 60.59 104.25 58.1 102.65"/><polygon class="cls-92" points="76.21 103 73.8 104.52 76.3 106.13 78.7 104.6 76.21 103"/><polygon class="cls-92" points="65.42 103.59 63 105.12 65.5 106.72 67.91 105.19 65.42 103.59"/><polygon class="cls-92" points="46.09 98.71 43.68 100.24 54.63 107.28 57.03 105.75 46.09 98.71"/><polygon class="cls-92" points="60.87 104.43 58.46 105.96 60.95 107.57 63.37 106.04 60.87 104.43"/><polygon class="cls-92" points="69.62 102.52 67.2 104.04 73.34 108 75.75 106.48 69.62 102.52"/><polygon class="cls-92" points="68.23 105.4 65.82 106.92 70.39 109.87 72.8 108.34 68.23 105.4"/><polygon class="cls-92" points="57.39 105.98 54.98 107.52 58.88 110.02 61.29 108.49 57.39 105.98"/><polygon class="cls-92" points="63.7 106.26 61.3 107.79 67.43 111.74 69.84 110.21 63.7 106.26"/><polygon class="cls-92" points="61.6 108.7 59.18 110.22 64.47 113.62 66.87 112.09 61.6 108.7"/><path class="cls-95" d="M88.61,160.71a1.78,1.78,0,0,1-.68.73l-2.16,1.42a3.24,3.24,0,0,1-3.18.14L77,159.44a1.23,1.23,0,0,1-.46-.48c-.25-.49,0-1.11.69-1.55L79.37,156a3.24,3.24,0,0,1,3.18-.14l5.61,3.56A1,1,0,0,1,88.61,160.71Z" transform="translate(-38.89 -52.1)"/><path class="cls-93" d="M88.61,160.71a1.78,1.78,0,0,1-.68.73l-2.16,1.42a3.24,3.24,0,0,1-3.18.14L77,159.44a1.23,1.23,0,0,1-.46-.48,1.74,1.74,0,0,1,.69-.72l2.15-1.43a3.26,3.26,0,0,1,3.18-.14l5.61,3.57A1.25,1.25,0,0,1,88.61,160.71Z" transform="translate(-38.89 -52.1)"/><path class="cls-96" d="M107,116a1.72,1.72,0,0,0,.62,1.32c.35.22.63,0,.63-.52a1.72,1.72,0,0,0-.63-1.33C107.23,115.26,107,115.5,107,116Z" transform="translate(-38.89 -52.1)"/><polygon class="cls-97" points="50.6 80.06 84.71 102.18 84.71 76.56 50.6 54.44 50.6 80.06"/><polygon class="cls-94" points="51.19 54.81 51.19 79.71 84.71 101.46 84.71 102.18 50.6 80.06 50.6 54.44 51.19 54.81"/><polygon class="cls-93" points="84.71 102.18 50.6 80.06 51.19 79.71 84.71 101.46 84.71 102.18"/><polygon class="cls-93" points="81.11 111 83.32 109.61 83.32 107.89 81.11 109.27 81.11 111"/><polygon class="cls-92" points="82.87 109.32 81.2 110.36 81.2 110.82 83.23 109.55 83.23 109.55 82.87 109.32"/><polygon class="cls-91" points="81.2 109.33 81.2 110.36 82.87 109.32 82.87 108.29 82.78 108.35 81.2 109.33"/><polygon class="cls-98" points="81.2 109.49 81.2 110.22 82.78 109.23 82.78 108.5 81.2 109.49"/><polygon class="cls-99" points="83.23 109.09 83.23 108.06 82.87 108.29 82.87 109.32 83.23 109.55 83.23 109.09"/><path class="cls-100" d="M106.94,117.86a194.3,194.3,0,0,0-17.45,9.22v5.09l1.64,1.06c7.43-3.79,15-7.36,22.54-11Z" transform="translate(-38.89 -52.1)"/><path class="cls-100" d="M99.22,112.85c-3.31,1.82-6.56,3.74-9.73,5.79v1.75a122.27,122.27,0,0,1,11.39-6.46Z" transform="translate(-38.89 -52.1)"/><polygon class="cls-93" points="63.83 121.94 64.64 121.42 64.64 119.72 63.83 120.23 63.83 121.94"/><polygon class="cls-101" points="64.2 121.14 63.92 121.32 63.92 121.77 64.56 121.36 64.56 121.36 64.2 121.14"/><polygon class="cls-102" points="63.92 120.29 63.92 121.32 64.2 121.14 64.2 120.11 64.11 120.17 63.92 120.29"/><polygon class="cls-103" points="63.92 120.44 63.92 121.17 64.11 121.05 64.11 120.32 63.92 120.44"/><polygon class="cls-103" points="64.56 120.91 64.56 119.89 64.2 120.11 64.2 121.14 64.56 121.36 64.56 120.91"/><polygon class="cls-93" points="65.06 121.23 65.88 120.71 65.88 119 65.06 119.52 65.06 121.23"/><polygon class="cls-101" points="65.43 120.42 65.15 120.6 65.15 121.06 65.79 120.65 65.79 120.65 65.43 120.42"/><polygon class="cls-102" points="65.15 119.58 65.15 120.6 65.43 120.42 65.43 119.4 65.34 119.46 65.15 119.58"/><polygon class="cls-103" points="65.15 119.73 65.15 120.46 65.34 120.33 65.34 119.61 65.15 119.73"/><polygon class="cls-103" points="65.79 120.2 65.79 119.17 65.43 119.4 65.43 120.42 65.79 120.65 65.79 120.2"/><g class="cls-10"><g class="cls-10"><path class="cls-9" d="M134.61,82.61l2.73-1.75c-1.52,1-2.47,3-2.47,6,0,5.94,3.76,13.16,8.45,16.15l-2.73,1.74c-4.68-3-8.47-10.21-8.45-16.14C132.15,85.66,133.09,83.58,134.61,82.61Z" transform="translate(-38.89 -52.1)"/><g class="cls-104"><g class="cls-10"><path class="cls-9" d="M134.61,82.61l2.73-1.75c-1.39.89-2.29,2.69-2.45,5.23l-2.73,1.74c.16-2.54,1.07-4.33,2.45-5.22Z" transform="translate(-38.89 -52.1)"/><path class="cls-9" d="M132.16,87.83l2.73-1.74c0,.25,0,.5,0,.77a15.67,15.67,0,0,0,.3,3.08l-2.73,1.74a16.36,16.36,0,0,1-.3-3.07c0-.27,0-.53,0-.78Z" transform="translate(-38.89 -52.1)"/><path class="cls-9" d="M132.44,91.68l2.73-1.74c.92,4.86,3.87,10,7.47,12.6l-2.73,1.75c-3.59-2.65-6.54-7.74-7.47-12.61Z" transform="translate(-38.89 -52.1)"/><path class="cls-9" d="M139.91,104.29l2.73-1.75.68.47-2.73,1.74c-.23-.14-.45-.3-.68-.46Z" transform="translate(-38.89 -52.1)"/></g></g></g><g class="cls-10"><path class="cls-9" d="M149.35,103.66l-2.72,1.75c-1.54,1-3.68.84-6-.66l2.73-1.74C145.68,104.51,147.81,104.65,149.35,103.66Z" transform="translate(-38.89 -52.1)"/><g class="cls-105"><path class="cls-9" d="M140.59,104.75l2.73-1.74a9.11,9.11,0,0,0,2.21,1l-2.72,1.74a8.47,8.47,0,0,1-2.22-1Z" transform="translate(-38.89 -52.1)"/><path class="cls-9" d="M142.81,105.79l2.72-1.74a4.52,4.52,0,0,0,3.82-.39l-2.72,1.75a4.52,4.52,0,0,1-3.82.38Z" transform="translate(-38.89 -52.1)"/></g></g><path class="cls-3" d="M132.07,77.78,134.8,76c2.19-1.41,5.23-1.21,8.59.92l-2.73,1.75C137.31,76.57,134.27,76.38,132.07,77.78Z" transform="translate(-38.89 -52.1)"/><g class="cls-106"><g class="cls-10"><path class="cls-3" d="M132.07,77.78,134.8,76a6.43,6.43,0,0,1,5.43-.56l-2.72,1.75a6.42,6.42,0,0,0-5.44.55Z" transform="translate(-38.89 -52.1)"/><path class="cls-3" d="M137.51,77.23l2.72-1.75A12.91,12.91,0,0,1,143.39,77l-2.73,1.75a12.85,12.85,0,0,0-3.15-1.48Z" transform="translate(-38.89 -52.1)"/></g></g><g class="cls-10"><path class="cls-3" d="M151.9,108.48l-2.73,1.75c2.17-1.39,3.51-4.34,3.52-8.54,0-8.45-5.36-18.74-12-23L143.39,77c6.66,4.25,12.05,14.54,12,23C155.41,104.14,154.06,107.1,151.9,108.48Z" transform="translate(-38.89 -52.1)"/><g class="cls-107"><g class="cls-10"><path class="cls-3" d="M140.66,78.71,143.39,77c.32.21.64.43,1,.67l-2.72,1.74c-.32-.23-.64-.45-1-.66Z" transform="translate(-38.89 -52.1)"/><path class="cls-108" d="M141.63,79.37l2.72-1.74c5.12,3.77,9.32,11,10.64,17.94l-2.73,1.74c-1.31-6.92-5.52-14.16-10.63-17.94Z" transform="translate(-38.89 -52.1)"/><path class="cls-3" d="M152.26,97.31,155,95.57a23.71,23.71,0,0,1,.43,4.38c0,.37,0,.74,0,1.1l-2.72,1.74c0-.35,0-.72,0-1.1a22.18,22.18,0,0,0-.43-4.38Z" transform="translate(-38.89 -52.1)"/><path class="cls-3" d="M152.66,102.79l2.72-1.74c-.22,3.61-1.51,6.17-3.48,7.43l-2.73,1.75c2-1.26,3.26-3.82,3.49-7.44Z" transform="translate(-38.89 -52.1)"/></g></g></g><path class="cls-109" d="M140.66,78.71c6.67,4.24,12.05,14.53,12,23s-5.44,11.86-12.11,7.61-12.05-14.53-12-23S134,74.47,140.66,78.71Zm-.07,26c4.69,3,8.5.59,8.51-5.34s-3.77-13.17-8.45-16.15-8.49-.59-8.51,5.35,3.77,13.16,8.45,16.14Z" transform="translate(-38.89 -52.1)"/></g><g class="cls-10"><g class="cls-10"><path class="cls-3" d="M155.9,100.36l5,3.18a1.23,1.23,0,0,0-1.32.14l-5-3.18A1.18,1.18,0,0,1,155.9,100.36Z" transform="translate(-38.89 -52.1)"/><g class="cls-110"><g class="cls-10"><path class="cls-111" d="M159.55,103.68l-5-3.18a2,2,0,0,1,.38-.2l5,3.19a2.3,2.3,0,0,0-.39.19Z" transform="translate(-38.89 -52.1)"/><path class="cls-111" d="M159.94,103.49l-5-3.19a1.34,1.34,0,0,1,.54-.08l5,3.19a1.17,1.17,0,0,0-.54.08Z" transform="translate(-38.89 -52.1)"/><path class="cls-111" d="M160.48,103.41l-5-3.19a.92.92,0,0,1,.39.14l5,3.18a.9.9,0,0,0-.39-.13Z" transform="translate(-38.89 -52.1)"/></g></g></g><g class="cls-10"><path class="cls-3" d="M158.26,108.49l-5-3.18a1.47,1.47,0,0,1-.54-1.3,4.58,4.58,0,0,1,1.84-3.51l5,3.18a4.61,4.61,0,0,0-1.83,3.51A1.47,1.47,0,0,0,158.26,108.49Z" transform="translate(-38.89 -52.1)"/><g class="cls-112"><g class="cls-10"><path class="cls-111" d="M158.26,108.49l-5-3.18a1.47,1.47,0,0,1-.54-1.3c0-.11,0-.22,0-.33l5,3.18c0,.11,0,.22,0,.33a1.47,1.47,0,0,0,.54,1.3Z" transform="translate(-38.89 -52.1)"/><path class="cls-111" d="M157.73,106.86l-5-3.18a4,4,0,0,1,.16-.81l5,3.19a4.77,4.77,0,0,0-.17.8Z" transform="translate(-38.89 -52.1)"/><path class="cls-113" d="M157.9,106.06l-5-3.19a5.62,5.62,0,0,1,.44-1l5,3.18a4.84,4.84,0,0,0-.44,1Z" transform="translate(-38.89 -52.1)"/><path class="cls-3" d="M158.34,105l-5-3.18a4.19,4.19,0,0,1,.87-1.1l5,3.18a4.36,4.36,0,0,0-.87,1.1Z" transform="translate(-38.89 -52.1)"/><path class="cls-113" d="M159.21,103.94l-5-3.18a2.11,2.11,0,0,1,.35-.26l5,3.18a3.85,3.85,0,0,0-.34.26Z" transform="translate(-38.89 -52.1)"/></g></g></g><path class="cls-3" d="M159.55,103.68c1-.65,1.85-.13,1.85,1.16a4.58,4.58,0,0,1-1.83,3.51c-1,.65-1.85.13-1.85-1.16A4.61,4.61,0,0,1,159.55,103.68Z" transform="translate(-38.89 -52.1)"/></g><g class="cls-10"><path class="cls-4" d="M162.59,101.63,182,114.1a2.35,2.35,0,0,0-2.59.28L160,101.91A2.38,2.38,0,0,1,162.59,101.63Z" transform="translate(-38.89 -52.1)"/><g class="cls-114"><g class="cls-10"><path class="cls-4" d="M179.45,114.38,160,101.91a4.15,4.15,0,0,1,.76-.38L180.21,114a3.66,3.66,0,0,0-.76.39Z" transform="translate(-38.89 -52.1)"/><path class="cls-4" d="M180.21,114l-19.45-12.46a2.45,2.45,0,0,1,1.07-.16l19.45,12.46a2.45,2.45,0,0,0-1.07.16Z" transform="translate(-38.89 -52.1)"/><path class="cls-4" d="M181.28,113.83l-19.45-12.46a1.76,1.76,0,0,1,.76.26L182,114.1a1.65,1.65,0,0,0-.76-.27Z" transform="translate(-38.89 -52.1)"/></g></g><path class="cls-4" d="M176.87,123.9l-19.44-12.46a2.91,2.91,0,0,1-1.07-2.58,9.05,9.05,0,0,1,3.64-7l19.45,12.47a9,9,0,0,0-3.64,6.94A2.93,2.93,0,0,0,176.87,123.9Z" transform="translate(-38.89 -52.1)"/><g class="cls-115"><g class="cls-10"><path class="cls-4" d="M176.87,123.9l-19.44-12.46a2.91,2.91,0,0,1-1.07-2.58c0-.21,0-.43,0-.64l19.45,12.46c0,.22,0,.43,0,.64a2.93,2.93,0,0,0,1.06,2.58Z" transform="translate(-38.89 -52.1)"/><path class="cls-4" d="M175.84,120.68l-19.45-12.46a8.28,8.28,0,0,1,.33-1.6l19.45,12.46a7.86,7.86,0,0,0-.33,1.6Z" transform="translate(-38.89 -52.1)"/><path class="cls-116" d="M176.17,119.08l-19.45-12.46a10.14,10.14,0,0,1,.86-2L177,117.08a9.81,9.81,0,0,0-.86,2Z" transform="translate(-38.89 -52.1)"/><path class="cls-116" d="M177,117.08l-19.45-12.47a8.81,8.81,0,0,1,1.73-2.18l19.45,12.46a8.68,8.68,0,0,0-1.73,2.19Z" transform="translate(-38.89 -52.1)"/><path class="cls-4" d="M178.76,114.89l-19.45-12.46a5.42,5.42,0,0,1,.69-.52l19.45,12.47a6.45,6.45,0,0,0-.69.51Z" transform="translate(-38.89 -52.1)"/></g></g><path class="cls-117" d="M179.45,114.38c2-1.29,3.65-.26,3.66,2.3a9,9,0,0,1-3.64,6.94c-2,1.29-3.65.26-3.66-2.3A9,9,0,0,1,179.45,114.38Z" transform="translate(-38.89 -52.1)"/></g><path class="cls-118" d="M141.41,104.37c4.68,3,8.49.59,8.5-5.35s-3.76-13.16-8.45-16.15S133,82.29,133,88.22s3.77,13.17,8.46,16.15Z" transform="translate(-38.89 -52.1)"/><path class="cls-118" d="M141.46,82.87,141,82.6a12.84,12.84,0,0,1,3.37,3.83c1.7,3.76,1.86,10.76-2.17,12.13-3,1-5.2-2.55-7.94-3.73,1.5,4,4.14,7.62,7.15,9.54,4.68,3,8.49.59,8.5-5.35S146.15,85.86,141.46,82.87Z" transform="translate(-38.89 -52.1)"/><path class="cls-119" d="M138.28,89.6c0,2-.92,3.11-2.06,2.38s-2.06-3-2.06-5,.92-3.11,2.06-2.38S138.28,87.56,138.28,89.6Z" transform="translate(-38.89 -52.1)"/><path class="cls-120" d="M167.93,149.9l-2.07,3.18c.55.54,1.33,1.21,1.89,1.74l2.07-2.86a1.85,1.85,0,0,0,.18-1.78A1.26,1.26,0,0,0,167.93,149.9Z" transform="translate(-38.89 -52.1)"/><path class="cls-121" d="M166.81,151.5h0a1.16,1.16,0,0,0,1.1-1.21v-3a1.15,1.15,0,0,0-1.1-1.2h0a1.15,1.15,0,0,0-1.09,1.2v3A1.15,1.15,0,0,0,166.81,151.5Z" transform="translate(-38.89 -52.1)"/><path class="cls-121" d="M168.66,148.87a2.5,2.5,0,0,1-2.09.77h0a3.25,3.25,0,0,1-.47,0l-.73-.16a.77.77,0,0,1-.19-.08,1.09,1.09,0,0,1-.31-.45s0,0,0,0a.38.38,0,0,1,0-.1c0-.13.09-.17.06-.31a1.14,1.14,0,0,0-.1-.19.36.36,0,0,1,0-.25c-.06,0-.1-.13-.11-.21a2.4,2.4,0,0,0,0-.24.9.9,0,0,0-.24-.31.16.16,0,0,1,0-.14.81.81,0,0,1,.18-.33.37.37,0,0,0,.14-.32c0-.1-.06-.21-.08-.31a1.92,1.92,0,0,1,0-.47s0-.38,0-.52,0-.09,0-.12a4.57,4.57,0,0,1,.16-.61l.07-.14.15-.25.1-.11a1.86,1.86,0,0,1,.69-.49,1.69,1.69,0,0,1,.45-.14h0a2.85,2.85,0,0,1,1.75.21,3.18,3.18,0,0,1,1.58,2A4.48,4.48,0,0,1,168.66,148.87Z" transform="translate(-38.89 -52.1)"/><path class="cls-122" d="M168.66,148.87a2.5,2.5,0,0,1-2.09.77h0l0,0,0,0v0a0,0,0,0,1,0,0,1.64,1.64,0,0,1,.1-.28l.07-.18,0-.11v0h0a.66.66,0,0,0,.33-.56,1.09,1.09,0,0,0-.1-.65.45.45,0,0,0-.4-.27c-.11,0-.18.12-.22.27h0a2,2,0,0,0,0,.5s-.12,0-.19,0a2.54,2.54,0,0,1,0-.29,3,3,0,0,1,.11-.93.61.61,0,0,0,0-.15.93.93,0,0,0-.25-1.24c-.4-.27-1.74,0-1.74-.07a1.71,1.71,0,0,1,.94-1.51,1.86,1.86,0,0,1,.69-.49,1.69,1.69,0,0,1,.45-.14h0a2.85,2.85,0,0,1,1.75.21,3.18,3.18,0,0,1,1.58,2A4.48,4.48,0,0,1,168.66,148.87Z" transform="translate(-38.89 -52.1)"/><path class="cls-123" d="M157.68,152.13c0-.18.44-.12.54-.09l.69.14a4.3,4.3,0,0,1-.79-.26c-.06,0-.18-.07-.16-.16s.71,0,.84,0l.25.06a.55.55,0,0,1,.14.38,1.72,1.72,0,0,1-.1.64,2.19,2.19,0,0,1-.21.4l-.79-.26a.26.26,0,0,1-.15-.09c-.13-.18.58-.07.8-.11a4.94,4.94,0,0,1-.85-.18c-.07,0-.2-.08-.16-.19s.17-.09.24-.08l.42,0a2.5,2.5,0,0,1-.65-.17A.09.09,0,0,1,157.68,152.13Z" transform="translate(-38.89 -52.1)"/><path class="cls-123" d="M159.36,153.62h-.21a2.45,2.45,0,0,1-.19-.85,4.16,4.16,0,0,1,.12-1.28c.54.23.92.87,1,.85l.34-.1h0c.94-.3,4.13-1,4.13-1,.65.08-.11,1.22-.26,1.92s-2.61.5-4.39.31C159.76,153.47,159.65,153.64,159.36,153.62Z" transform="translate(-38.89 -52.1)"/><path class="cls-121" d="M168.94,152.31a1.86,1.86,0,0,0,.19-1.78,1.26,1.26,0,0,0-2.07-.28l-2.74,4.48a1.23,1.23,0,0,0,0,1.61h0a1,1,0,0,0,1.46-.06Z" transform="translate(-38.89 -52.1)"/><path class="cls-124" d="M170.07,177.66s.25,1.31-.16,1.73a1.45,1.45,0,0,1-1.08-.06,10.29,10.29,0,0,0-1-.46,3,3,0,0,1-1.89-1.53c-.78-1.36.78-.83,1.79-.33A7.65,7.65,0,0,0,170.07,177.66Z" transform="translate(-38.89 -52.1)"/><path class="cls-125" d="M167.28,178l-1.19-15.58a1.72,1.72,0,0,1,1.32-2c.89-.1,2.37,1.36,2.41,2.35.11,2.41-.39,4.08.13,7.21.34,2.07.44,8.27.44,8.3C169.82,178.84,167.64,178.76,167.28,178Z" transform="translate(-38.89 -52.1)"/><path class="cls-124" d="M166.1,179.2s.79,1.06.6,1.66a1.51,1.51,0,0,1-1,.51c-.36.08-.79,0-1.13.13a2.76,2.76,0,0,1-2.38-.39c-1.31-.84.35-1.18,1.48-1.25A8,8,0,0,0,166.1,179.2Z" transform="translate(-38.89 -52.1)"/><path class="cls-98" d="M164,179.92l-.1-14.63c0-1,.4-3.19,1.2-3.21s2.93-.5,3,1.52c0,2.44-1.26,4.79-1,8.32a65.61,65.61,0,0,1-.29,8.55C166.45,180.84,164.19,180.39,164,179.92Z" transform="translate(-38.89 -52.1)"/><path class="cls-126" d="M163.86,151.68c.06-.59,1.82-1.38,1.83-1.38a1.82,1.82,0,0,0,1.55.16c.21-.1.66-.29.65-.64,1.16-.16,1.15-.3,1.68.29s.44,1.81.45,2.36c0,.94-.33,3.51-.32,5.74,0,1.86.46,3.61.45,4.94,0,2.09-5.53,2.28-6.46,1-.1-.13.22-3,.36-5.16a25.84,25.84,0,0,0-.41-5.25A6.69,6.69,0,0,1,163.86,151.68Z" transform="translate(-38.89 -52.1)"/><path class="cls-127" d="M163.28,154.45h2.49l-.92,3.7a1.19,1.19,0,0,1-1.46.95,1.35,1.35,0,0,1-.86-1.63Z" transform="translate(-38.89 -52.1)"/><path class="cls-120" d="M164.58,151.06a1.46,1.46,0,0,1,1.08.63c.74,1.22-.19,4-.19,4a10.6,10.6,0,0,1-1.6-.51,6,6,0,0,1-.68-.32l.5-2.84C163.78,151.57,164.14,151,164.58,151.06Z" transform="translate(-38.89 -52.1)"/><path class="cls-128" d="M158.93,153.06h0a.09.09,0,0,0,0,.06l0,0s0,0,0-.07Z" transform="translate(-38.89 -52.1)"/><path class="cls-61" d="M158.87,153.79s0,0,0,0V154a.11.11,0,0,1,0,.07l-.12.08s0,0,0,0v-.15a.07.07,0,0,1,0-.06Z" transform="translate(-38.89 -52.1)"/><polygon class="cls-61" points="119.99 99.11 119.99 99.15 119.68 99.36 119.68 99.33 119.99 99.11"/><path class="cls-129" d="M159.24,151s.06,0,.06,0l.08,2.26a.17.17,0,0,1-.06.12l-1,.7s-.06,0-.06,0l-.08-2.25a.16.16,0,0,1,.06-.13Z" transform="translate(-38.89 -52.1)"/><path class="cls-63" d="M159.2,150.87c.08-.06.15,0,.15.09l.09,2.57a.37.37,0,0,1-.14.29l-1,.66c-.08.06-.15,0-.15-.09l-.09-2.57a.34.34,0,0,1,.14-.29Zm.15,2.43-.08-2.14s0-.06-.06,0l-1,.67a.13.13,0,0,0-.06.12l.07,2.14s0,.06.06,0l1-.66a.2.2,0,0,0,.06-.12Zm-.44.66v-.15s0,0,0,0l-.12.09a.07.07,0,0,0,0,.06v.15s0,0,0,0l.12-.08a.11.11,0,0,0,0-.07Zm-.34-2.53v0l.31-.21v0l-.31.21Z" transform="translate(-38.89 -52.1)"/><path class="cls-62" d="M159.16,150.76h-.06l0,0-1,.66a.46.46,0,0,0-.07.07.47.47,0,0,0-.07.22l.09,2.58a.1.1,0,0,0,.05.1l.14.09a.14.14,0,0,1,0-.11l-.09-2.57a.36.36,0,0,1,.07-.22.16.16,0,0,1,.07-.07l1-.66s0,0,0,0h.07Z" transform="translate(-38.89 -52.1)"/><path class="cls-130" d="M159.26,151.79s0,0,0,0l-.48.33-.47.32a.11.11,0,0,0,0,.05l0,1s0,0,0,0l.47-.32.47-.33s0,0,0,0Z" transform="translate(-38.89 -52.1)"/><path class="cls-120" d="M159.25,151.29s0,0,0,0l-.47.33-.47.32a.05.05,0,0,0,0,.05v.34s0,0,0,0l.47-.33.47-.32a.07.07,0,0,0,0-.06Z" transform="translate(-38.89 -52.1)"/><path class="cls-120" d="M159.3,152.92s0,0,0,0l-.47.33-.47.33s0,0,0,.05v.33s0,0,0,0l.47-.32.48-.33a.08.08,0,0,0,0-.05Z" transform="translate(-38.89 -52.1)"/><path class="cls-123" d="M159.6,151.63l-.63-.53s-.1-.1-.11,0a.59.59,0,0,0,.21.51c.07,0,.28.27.28.27a3.11,3.11,0,0,0,.21.78s.21.43.34.34a.33.33,0,0,0,.12-.35l-.11-.34Z" transform="translate(-38.89 -52.1)"/><path class="cls-127" d="M158.76,153.68a1.94,1.94,0,0,1,.48-.76c.08,0,.17,0,.23,0a6.83,6.83,0,0,1,1,.77c.1.12.13.27.24.42l3.42,2.53c.51.62,1.11.85.55,1.41s-1.06,1.26-1.74.76c-.95-.7-1.88-2.55-3-3.78a6.53,6.53,0,0,0-.85-.5A1,1,0,0,1,158.76,153.68Z" transform="translate(-38.89 -52.1)"/><path class="cls-127" d="M158.6,152.53c0-.05-.06-.11,0-.16s.67.37.78.48.46.34.66.52a1.86,1.86,0,0,1,.39.28c.13.14.06.29.14.42l0,0a1.94,1.94,0,0,1-.51.73l-.17.15,0-.06a3.92,3.92,0,0,1-.53-.29c-1-.83-.53-1-.22-1.48C159.17,153.1,158.63,152.55,158.6,152.53Z" transform="translate(-38.89 -52.1)"/><path class="cls-131" d="M137.21,166.72l-.63.39c0,.46,0,.92,0,1.37s-.07.75-.06,1.13-.26.49-.06.8a2.84,2.84,0,0,0,.79-1.24,3.4,3.4,0,0,0,.35-1.12A2.78,2.78,0,0,0,137.21,166.72Z" transform="translate(-38.89 -52.1)"/><path class="cls-132" d="M137.57,168.3a.29.29,0,0,1-.24,0,8.37,8.37,0,0,1-.93-.3,1.64,1.64,0,0,0,.21-.82c0,.09.27.28.33.32a2.42,2.42,0,0,0,.4.25c.09.05.28.08.33.19A.33.33,0,0,1,137.57,168.3Z" transform="translate(-38.89 -52.1)"/><path class="cls-96" d="M136.55,166.59a5.74,5.74,0,0,0,.27,1.37c.13.2.68.2.89.1s.71-11,.43-12.15a3.37,3.37,0,0,0-.58-1.31,1.67,1.67,0,0,0-.48-.44,3.69,3.69,0,0,0-.71-.3c.06,0,.15.17.18.22a.38.38,0,0,1,.07.24,3.77,3.77,0,0,1,0,.48c0,.19-.07.4-.1.6-.06,1.82-.09,3.65-.11,5.47v1.46a2.63,2.63,0,0,0,0,.48,2.33,2.33,0,0,0-.1.92A25,25,0,0,0,136.55,166.59Z" transform="translate(-38.89 -52.1)"/><path class="cls-98" d="M136.55,154.08c0-.05-.14-.2-.2-.22a3.87,3.87,0,0,1,.73.3,1.42,1.42,0,0,1,.35.29,4.92,4.92,0,0,1,0,2.09c-.42,2.24.07,9.79.3,11.44a.14.14,0,0,1,0,.08c-.21.1-.76.1-.89-.1a5.74,5.74,0,0,1-.27-1.37,25,25,0,0,1-.19-2.86,2.33,2.33,0,0,1,.1-.92,2.63,2.63,0,0,1,0-.48v-1.46c0-1.82,0-3.65.11-5.47,0-.2.09-.41.1-.6a3.77,3.77,0,0,0,0-.48A.38.38,0,0,0,136.55,154.08Z" transform="translate(-38.89 -52.1)"/><path class="cls-131" d="M122.52,156.83l.61.4a7.11,7.11,0,0,1-.68-.55c0-.05-.14-.13-.1-.21s.67.27.79.35l.3.21c-.18-.19-.39-.43-.21-.69a.08.08,0,0,1,.06,0c.09,0,.24.28.3.36.19.25.45.42.63.68,0,0,.16.29.19.35a.81.81,0,0,0,.23.21l-.09.1.31.34a3.51,3.51,0,0,1-.42.76l-.34-.08-.41-.2-.43-.24a2.66,2.66,0,0,1-.45-.29c-.28-.22-.44-.36-.73-.58a.35.35,0,0,1-.11-.15c0-.05,0-.06,0-.06h0a6.46,6.46,0,0,1,.73.26,7.34,7.34,0,0,1-.75-.48c-.06-.05-.16-.16-.08-.25s.18,0,.24,0a3.55,3.55,0,0,1,.39.2,3.22,3.22,0,0,1-.56-.41.11.11,0,0,1,0-.13C122.05,156.55,122.42,156.77,122.52,156.83Z" transform="translate(-38.89 -52.1)"/><path class="cls-131" d="M132.51,152.93v.13l0,1.18a1.71,1.71,0,0,0,.26.33h.09c.78-.1,1.75-.28,1.74-.91,0,0,0,0,0,0l0-.9h-.1l-1.4.13Z" transform="translate(-38.89 -52.1)"/><path class="cls-133" d="M134.88,153.49a5.33,5.33,0,0,1,.05,1.5c0,.49-.11-.2-.52,0a2,2,0,0,1-1.31.08.74.74,0,0,1-.53-.28c-.17-.2-.17-1,0-1a4.85,4.85,0,0,1,.66,0,2.32,2.32,0,0,0,1.07-.2C134.52,153.46,134.62,153.21,134.88,153.49Z" transform="translate(-38.89 -52.1)"/><path class="cls-134" d="M136.47,182.19s.14,1.28-.26,1.65c-.11.1-.51.06-1-.15-.29-.13-.59-.41-.89-.52-.86-.31-1-.81-1.31-1.45-.62-1.38.75-.74,1.63-.18A4.2,4.2,0,0,0,136.47,182.19Z" transform="translate(-38.89 -52.1)"/><path class="cls-134" d="M135.56,183.27l0-.24.85-.11v0l.2.31-.05.51s-.44.45-.54.44H136l-.79-.41,0-.18c-.16,0-.6-.75-.6-.75Z" transform="translate(-38.89 -52.1)"/><path class="cls-96" d="M133.31,168.57c0,.11,0,.22,0,.33s0,.22,0,.32c0,.36.06.71.09,1.07,0,.17,0,.34,0,.51.08.71.15,1.42.23,2.12s.21,1.45.31,2.17c.07.42,0,.73.11,1.15.13.83.1,4.7.1,6,0,.17,1,.56,1.78.74.49.11.89.15.92,0a33.64,33.64,0,0,0,.11-4.72c0-.32-.08-1.6-.13-3.14,0-.15,0-.31,0-.47-.07-2.64-.13-5.79-.1-6.12,0-.14,0-.3,0-.47a5.83,5.83,0,0,0,0-.72,2.3,2.3,0,0,0-.68-1.66,1.16,1.16,0,0,0-1.1-.06,2.64,2.64,0,0,0-.86.68l-.06.07a2.79,2.79,0,0,0-.58.85A3.47,3.47,0,0,0,133.31,168.57Z" transform="translate(-38.89 -52.1)"/><path class="cls-134" d="M133.55,183.62s.43,1.18.13,1.66a1.2,1.2,0,0,1-1,.16c-.32,0-.67-.21-1-.23-.9,0-1.17-.46-1.6-1-.9-1.13.56-.94,1.54-.67A4.08,4.08,0,0,0,133.55,183.62Z" transform="translate(-38.89 -52.1)"/><path class="cls-134" d="M132.76,185l0-.24.84-.11v0l.2.3,0,.52s-.45.45-.55.43h0l-.79-.4,0-.1-.47-.14h0l-.21-.07,0,0Z" transform="translate(-38.89 -52.1)"/><path class="cls-98" d="M130.55,172.42h0s0,.38.09.89h0c.16,1.5.47,4.43.48,5.43,0,1.7,0,3.38,0,5.07a.43.43,0,0,0,.06.28.33.33,0,0,0,.21.09l.29.05.7.12a2.71,2.71,0,0,0,.75,0,1,1,0,0,0,.66-.38,1.92,1.92,0,0,0,.22-1c0-1,0-2.06,0-3.1s-.11-1.87-.2-2.8c0-.26-.06-.5-.1-.73a8.68,8.68,0,0,0-.36-1.51c-.16-.51-.42-1-.87-1a4.77,4.77,0,0,1-1.3-.89C130.81,172.66,130.55,172.42,130.55,172.42Z" transform="translate(-38.89 -52.1)"/><path class="cls-98" d="M130.37,167.55c.07,1.83.08,3.6.17,4.87h0c0,.33,0,.63.09.89h0a4.51,4.51,0,0,0,.14.62c.13.39.31.73.45,1.09a3.93,3.93,0,0,1,.19.58,1.82,1.82,0,0,0,.38.91.78.78,0,0,0,1,0c.3-.2.69,1.37.8,1a8.38,8.38,0,0,0,.11-1.07v-.11c0-.29,0-.58,0-.84s0-.41,0-.55v-.15l0-.32a27.83,27.83,0,0,1,.65-3.14,14.07,14.07,0,0,0,.41-2.57,7.21,7.21,0,0,0,0-1.14C134.8,167.54,130.37,167.55,130.37,167.55Z" transform="translate(-38.89 -52.1)"/><path class="cls-98" d="M130.3,162.13c0,1.15-.14,4.31-.19,5.31a.56.56,0,0,0,.22.49,3.09,3.09,0,0,0,1.27.52,5.67,5.67,0,0,0,.65.09,9.83,9.83,0,0,0,2.76-.13,3.66,3.66,0,0,0,1.78-.83.55.55,0,0,0,.19-.42h0c0-1.08-.5-4.06-.5-5.23,0-2,.65-5.34.61-6.45,0-.94-.35-2.07-2.19-1.81l-2.42.61c-.5.31-2.61.73-2.81,2.08,0,0,.07.49.16,1.2.14,1.06.33,2.6.42,3.7C130.28,161.6,130.3,161.9,130.3,162.13Z" transform="translate(-38.89 -52.1)"/><path class="cls-131" d="M131.79,152.14a1.81,1.81,0,0,0,.72.92,1.07,1.07,0,0,0,.39.14H133a.71.71,0,0,0,.38-.06c.22-.13,1,0,1.12-.23a1.13,1.13,0,0,0,0-.18,9.29,9.29,0,0,0-.43-2.35,2.79,2.79,0,0,0-.84-1.55,3.44,3.44,0,0,0-1.21-.76l-.23.3-.18.25a8.72,8.72,0,0,1,0,1.77A4.4,4.4,0,0,0,131.79,152.14Z" transform="translate(-38.89 -52.1)"/><path class="cls-131" d="M131.61,150.4a8.72,8.72,0,0,0,0-1.77l.18-.25.07.39a6.82,6.82,0,0,0,0,2.81,2.16,2.16,0,0,0,.41,1,.77.77,0,0,0,.89.27l-.05,0a.7.7,0,0,0-.2.33,1,1,0,0,0-.06.34v.21a.82.82,0,0,0-.27,0h0l0-.7a1.81,1.81,0,0,1-.72-.92A4.4,4.4,0,0,1,131.61,150.4Z" transform="translate(-38.89 -52.1)"/><path class="cls-135" d="M131.31,148.49c0,.36.32.33.49.64s.21.67.4,1c.07.13.11.44.45.23s.18,2,1.07,2.56a1.6,1.6,0,0,0,.75,0,.51.51,0,0,0,.24-.2h0a10.69,10.69,0,0,0,1.39-1.76,3.89,3.89,0,0,0,.2-1.45,3.11,3.11,0,0,0-1.33-2.07,3.26,3.26,0,0,0-2.09-.32l-.27,0a4,4,0,0,0-.46.13l-.2.11c-.66.41-.65.82-.65.85A1.85,1.85,0,0,0,131.31,148.49Z" transform="translate(-38.89 -52.1)"/><path class="cls-131" d="M132.65,150.38a.57.57,0,0,0,0,.74c.17.15.46.06.64-.2a.57.57,0,0,0,0-.74C133.12,150,132.83,150.12,132.65,150.38Z" transform="translate(-38.89 -52.1)"/><path class="cls-131" d="M132.82,150.53a.26.26,0,0,0,0,.34c.08.06.21,0,.29-.1a.24.24,0,0,0,0-.33C133,150.37,132.9,150.41,132.82,150.53Z" transform="translate(-38.89 -52.1)"/><path class="cls-98" d="M132.7,154a2.16,2.16,0,0,0-.43.14.39.39,0,0,0-.2.31,6.56,6.56,0,0,0,2.19-.22,1.93,1.93,0,0,0,1-.57c.2-.36-1,0-1.12.06-.48.15-1,.16-1.48.28Z" transform="translate(-38.89 -52.1)"/><path class="cls-136" d="M136,149.71a3.35,3.35,0,0,1-1,2.59.78.78,0,0,0-.26.34s0,.05,0,.07a10.69,10.69,0,0,0,1.39-1.76,3.89,3.89,0,0,0,.2-1.45,3.11,3.11,0,0,0-1.33-2.07,3.26,3.26,0,0,0-2.09-.32,4.29,4.29,0,0,1,1.64.33A2.78,2.78,0,0,1,136,149.71Z" transform="translate(-38.89 -52.1)"/><path class="cls-132" d="M124.62,157.65s-.86.94-1.17,1.24c.21.18.42.44.62.61.25-.37.72-.89.92-1.28C125.06,158.07,124.62,157.65,124.62,157.65Z" transform="translate(-38.89 -52.1)"/><path class="cls-137" d="M127.19,161a1.14,1.14,0,0,0,.3.39,1.27,1.27,0,0,0,1,.37h0l3.43-3.85h0a2.06,2.06,0,0,0-.22-2.49,1.44,1.44,0,0,0-.51-.3c-.47-.18-.9.1-1.23.55l-2.32,3.3-.13.18-.14.19,0,0-.16.23h0a1.21,1.21,0,0,1,0,.18A2.08,2.08,0,0,0,127.19,161Z" transform="translate(-38.89 -52.1)"/><path class="cls-137" d="M123.63,159.22h0c.14.12,3,2.47,4.38,2.65a.71.71,0,0,0,.5-.09s-.06-.35-.1-.63-.08-.66-.09-.7l.38-.65-.77-.41-.4-.22-.13-.06-2.56-1.36a7.53,7.53,0,0,0-1.06,1.24Z" transform="translate(-38.89 -52.1)"/><path class="cls-131" d="M127.39,150.56c-.1-.14.13-.2.2-.36.15-.34.08-.71.54-1.11l.18-.16a2.4,2.4,0,0,1,.37-.28c.07,0,.1.12.09.19,0,.29-.42.45-.42.68.49-.18,1.65-1.54,1.74-1,0,.24-.79.79-.93.95,0,0,.27-.16.31-.19s.4-.26.45,0-.09.27-.21.37-.21.17-.17.16.37-.26.42,0a.27.27,0,0,1-.11.25l-.18.16c.21-.07.36.16.15.34a3.76,3.76,0,0,1-1.8.85s0,0,0,0,0,0,0,0l0-.08c0-.08-.07-.05-.11-.14S127.49,150.71,127.39,150.56Z" transform="translate(-38.89 -52.1)"/><path class="cls-96" d="M120,146.53c.18-.21.1-.32.35-.26a2.23,2.23,0,0,1,1.64,1.38c.18.44.9,4.13,1.39,4.26.92.25,4.1-2,4.1-2a5.8,5.8,0,0,1,1,1.42s-4.89,4.94-6.8,3c-1.17-1.18-1.09-4.51-1.46-5.75a6.42,6.42,0,0,1-.35-1.5A.76.76,0,0,1,120,146.53Z" transform="translate(-38.89 -52.1)"/><path class="cls-98" d="M117.56,177.06a7.83,7.83,0,0,0,.49,1l0,.08a2.63,2.63,0,0,1,.22.55,1,1,0,0,1-.06.67.76.76,0,0,1-.53.38,1.17,1.17,0,0,1-.64-.09,2,2,0,0,1-1-.9,3.89,3.89,0,0,1-.3-.89,3.68,3.68,0,0,0-.19-.81Z" transform="translate(-38.89 -52.1)"/><path class="cls-98" d="M119.92,175.05s-1.21-.6-1.33,1.16c0,.46.48.64.72.67a.52.52,0,0,1,.39.13,2.71,2.71,0,0,1,.3.39,1.58,1.58,0,0,0,2,.41c.48-.44-.28-1.11-1-1.75A7.9,7.9,0,0,1,119.92,175.05Z" transform="translate(-38.89 -52.1)"/><path class="cls-96" d="M118.22,159.52c0,1.44-.07,2.37-.11,5.83,0,0,.22,2.75.22,3,0,1.14-.5,5.65.29,7.28.18.37,1.59.26,2,.13.15,0,.81-11.06.69-16.3,0-.37,0-.59,0-.59C120.61,158.82,118.23,158.71,118.22,159.52Z" transform="translate(-38.89 -52.1)"/><path class="cls-98" d="M115.14,169.64c0,2-.59,4.57.48,7.62.2.56,1.91.17,2-.25.12-1.12.4-4.43.49-7.67,0-.37,0-3.6.13-4.53h0c.06-.51.69-2.6.78-3.32.07-.56.1-1.16.12-1.8,0,0-4.48-.49-4.6-.11C113.83,161.75,115.14,169.17,115.14,169.64Z" transform="translate(-38.89 -52.1)"/><path class="cls-138" d="M116.38,149.3l-1.7-.1a2.7,2.7,0,0,1,.31-1.66c.36-.6,2.51-1.36,3-1.41.89-.09,1.63-.5,2.52.73a5.63,5.63,0,0,1,.68,2.61l-.32,0-.43,8.7-4-.24.24-4.72-.49,0Z" transform="translate(-38.89 -52.1)"/><path class="cls-139" d="M118,151.18a17.39,17.39,0,0,0,1,2.69,20.85,20.85,0,0,0,.45-2.52,30.39,30.39,0,0,0-.78-4h-.54A21,21,0,0,1,118,151.18Z" transform="translate(-38.89 -52.1)"/><path class="cls-140" d="M118.59,146.89l-.48.07-.28.51.42.46a.24.24,0,0,0,.41-.06l.24-.5Z" transform="translate(-38.89 -52.1)"/><path class="cls-141" d="M117.71,146.86c-.32-.1-.69-.29-.69-.52,0-.6,0-1.83,0-1.83l2,.84a9.69,9.69,0,0,1,0,1.29C118.93,147,118.18,147,117.71,146.86Z" transform="translate(-38.89 -52.1)"/><path class="cls-98" d="M119,153.63c.39-.73,1.1-3,.45-7.17a1.12,1.12,0,0,0-.3-.55l.67.17.5.17a1.48,1.48,0,0,1,.62.4c.61.84.39,3,.38,3.53,0,.36,0,.85-.1,1.44s-.11,1.08-.15,1.68a17.52,17.52,0,0,0,.1,2.49c.08.86.53,4.27.52,4.41s.14.58-1.43.78c-.95.11-.84-.68-.93-.67h0A55.44,55.44,0,0,0,119,153.63Z" transform="translate(-38.89 -52.1)"/><path class="cls-98" d="M114.6,158.38a13.92,13.92,0,0,0,.51-3.31,12.73,12.73,0,0,0-.57-4,11.57,11.57,0,0,1-.39-3.13,1.84,1.84,0,0,1,.94-.81,7.28,7.28,0,0,0,1.77-1.12c-.78,3.67,2.09,7.67,2.09,7.67a46.89,46.89,0,0,1,.33,6.68c-.09,0,0,.51-.39.73-.79.5-3.62.73-4.54-.38A5.88,5.88,0,0,1,114.6,158.38Z" transform="translate(-38.89 -52.1)"/><path class="cls-98" d="M115.11,155.07a12.73,12.73,0,0,0-.57-4,11.57,11.57,0,0,1-.39-3.13,1.71,1.71,0,0,1,.79-.74s.1.08.16,0c.6,2.67-.15,5.25.37,8,.53,2.42,2.27,3.67,3.56,5.59a.59.59,0,0,1,0,.08.62.62,0,0,1-.18.18l-.16.09c-1.27-1.34-2.57-2.59-3.87-3.81A22.11,22.11,0,0,0,115.11,155.07Z" transform="translate(-38.89 -52.1)"/><path class="cls-120" d="M118.69,146.74a.6.6,0,0,0,.19-.36,3,3,0,0,0,0-.51l.18,0,.16.2h.17l0,.5h.17a8.4,8.4,0,0,1-.46,1.13s-.68-.78-.77-.81A1.76,1.76,0,0,0,118.69,146.74Z" transform="translate(-38.89 -52.1)"/><path class="cls-142" d="M119.43,146.09a15.05,15.05,0,0,1,1.23,1.93l-.51.85.47,1.28L119,153.64s1.09-4,.38-7a2.15,2.15,0,0,0-.53-1A4.89,4.89,0,0,1,119.43,146.09Z" transform="translate(-38.89 -52.1)"/><path class="cls-137" d="M119.43,146.09a12.23,12.23,0,0,1,1.11,1.73l-.39.89.4,1.3-1.6,3.63s1.09-4,.38-7a2.15,2.15,0,0,0-.53-1A4.89,4.89,0,0,1,119.43,146.09Z" transform="translate(-38.89 -52.1)"/><path class="cls-120" d="M116.73,146.4s.13-.41.13-.44a1.5,1.5,0,0,1,.16-.2,1.53,1.53,0,0,0,.12.38,1.43,1.43,0,0,0,.24.31,1.79,1.79,0,0,0,.44.34,1.28,1.28,0,0,0,.49.16s-.72,1-.73.93S116.57,146.8,116.73,146.4Z" transform="translate(-38.89 -52.1)"/><path class="cls-142" d="M116.71,149.29l-.84-1.19s.9-2,1-2.14a1.61,1.61,0,0,0,0,.79c.4,2.15,2,6.74,2,6.89a20.26,20.26,0,0,1-2.33-3.52Z" transform="translate(-38.89 -52.1)"/><path class="cls-137" d="M116.88,149.1l-.93-1.28s.82-1.76.91-1.86a1.61,1.61,0,0,0,0,.79c.4,2.15,2,6.74,2,6.89a12.24,12.24,0,0,1-2.2-3.72Z" transform="translate(-38.89 -52.1)"/><path class="cls-131" d="M119.51,146.15a1.15,1.15,0,0,1-.94.24,2.36,2.36,0,0,1-1.24-.59.45.45,0,0,1-.09-.1h0a6.74,6.74,0,0,1-.89-1.86,2,2,0,0,1,0-.24c-.17-1.34.93-1.67,1.77-2.38a1.33,1.33,0,0,1,1.44-.33,1.57,1.57,0,0,1,.68,1.36C120.3,143.83,120.28,145.47,119.51,146.15Z" transform="translate(-38.89 -52.1)"/><path class="cls-143" d="M116.18,141.2c.59-.94,1.23-1.09,2.56-1a2.42,2.42,0,0,1,.48.21c1.28.73,1.09,1.78,1,1.78s-.2-.84-.64-.81c-.17,0-.38.29-.64.57s-1-.6-1.6-.15.85,2.44.53,2.81-.4,0-.48.14a1.35,1.35,0,0,0-.09,1,4.73,4.73,0,0,1-1.5-2.5C115.62,142.05,115.59,142.13,116.18,141.2Z" transform="translate(-38.89 -52.1)"/><path class="cls-143" d="M116.61,140.94l0-.06a5,5,0,0,1,.65.65h-.39v3.54h.32a1.26,1.26,0,0,0,0,.66,4.73,4.73,0,0,1-1.5-2.5C115.52,141.14,116.61,140.94,116.61,140.94Z" transform="translate(-38.89 -52.1)"/><path class="cls-131" d="M117.72,145.33c-.17.16-.49,0-.72-.26s-.29-.67-.12-.82.49,0,.72.25S117.89,145.17,117.72,145.33Z" transform="translate(-38.89 -52.1)"/><path class="cls-144" d="M117.5,145c-.08.08-.23,0-.34-.12s-.14-.31-.06-.38.23,0,.34.12S117.57,145,117.5,145Z" transform="translate(-38.89 -52.1)"/><path class="cls-131" d="M119.75,160.49l-.49-.6c.2.23.42.44.64.65,0,0,.15.13.22.07s-.39-.7-.48-.82l-.25-.29c.2.16.47.35.67.1a.11.11,0,0,0,0-.07c0-.11-.31-.23-.39-.27-.26-.17-.48-.42-.75-.58l-.36-.14a.93.93,0,0,1-.24-.22l-.07.12-.37-.29a4,4,0,0,0-.62.62l.14.37c.09.16.19.31.26.42l.31.44a3,3,0,0,0,.35.45c.26.26.42.42.68.7a.29.29,0,0,0,.15.09s.06,0,0-.07h0a7.8,7.8,0,0,0-.37-.78,5.41,5.41,0,0,0,.59.75c0,.06.17.16.24.05s0-.21-.06-.27l-.26-.4a3.16,3.16,0,0,0,.48.55.09.09,0,0,0,.13,0C120.1,161,119.83,160.58,119.75,160.49Z" transform="translate(-38.89 -52.1)"/><path class="cls-137" d="M114.8,147.23c.09,0,.42.17.42,1.57a36,36,0,0,0,0,4.84c.86,1.54,2.06,2.42,3.34,4.62,0,.58-.86,1.11-1.11,1.27,0,0-3.92-4.34-4-4.58-.87-1.87-.55-5.64-.34-6.35A2,2,0,0,1,114.8,147.23Z" transform="translate(-38.89 -52.1)"/><path class="cls-145" d="M113.19,148.6a2,2,0,0,1,1.61-1.37.12.12,0,0,1,.09,0c-2.34,1.41-2.06,5.44-1,7.43.91,1.72,2.27,2.82,3.76,4.74l-.16.1s-3.92-4.34-4-4.58C112.66,153.08,113,149.31,113.19,148.6Z" transform="translate(-38.89 -52.1)"/><path class="cls-146" d="M67.8,103.86a1.4,1.4,0,0,1,1.4.91c.74,1.88.9,2.55,1.48,3.73L74.54,110h-.37v1.28l-3.27-.45a1.69,1.69,0,0,1,0,.23,2.9,2.9,0,0,1-2.19-1.43A6.55,6.55,0,0,1,68,108c-.42-1.45-.76-2.87-.82-3.24C67,104.14,67,104.23,67.8,103.86Z" transform="translate(-38.89 -52.1)"/><path class="cls-147" d="M63,134.21a.68.68,0,0,0,0,.4,3.52,3.52,0,0,1-.17,1,3.83,3.83,0,0,0-.12,1,2.56,2.56,0,0,0,.52,1.37,1.39,1.39,0,0,0,.57.43.73.73,0,0,0,.66-.07,1,1,0,0,0,.36-.61,3.44,3.44,0,0,0,0-.64V137a8.82,8.82,0,0,1,0-1.36c0-.32.15-.63.17-1a.86.86,0,0,0,0-.39.41.41,0,0,0-.05-.09l-.13-.17a2.42,2.42,0,0,0-.32-.32s-.59-.34-.59-.36a1,1,0,0,1-.5.62,1.85,1.85,0,0,0-.29.13A.41.41,0,0,0,63,134.21Z" transform="translate(-38.89 -52.1)"/><path class="cls-147" d="M68.29,132.14s-1.29-.64-1.42,1.25c0,.49.52.68.77.71a.59.59,0,0,1,.42.13,2.26,2.26,0,0,1,.32.42,1.71,1.71,0,0,0,2.13.44c.51-.48-.31-1.19-1.1-1.87A9,9,0,0,1,68.29,132.14Z" transform="translate(-38.89 -52.1)"/><path class="cls-148" d="M69.46,120.36c0-.12,0-.24,0-.36,0-.66,0-1.25-.08-1.75H66c0,.24,0,.5,0,.79v.16c0,.27,0,.56,0,.86,0,.51,0,1.06,0,1.64s0,1.18,0,1.79v.28h0c0,.75.05,1.51.08,2.26.14,3.21,0,7.11.54,7.46a3.91,3.91,0,0,0,2.55-.14,2.46,2.46,0,0,0,.13-1c.07-1.74-.05-4-.08-5.66C69.26,125.3,69.51,121.54,69.46,120.36Z" transform="translate(-38.89 -52.1)"/><path class="cls-149" d="M69.37,118.49c-.08.23-3.21,1.92-3.22,2.07,0,.78-.17,4.22-.2,5h0c0,.07,0,.14,0,.19,0,.42-.2,2.29-.25,2.77-.34,2.93-.4,4.74-.52,7.07l-.06,0a.53.53,0,0,1-.15.05l-.17,0a9,9,0,0,1-1.44.14h-.55l-.26,0s0-.23,0-.54a13.55,13.55,0,0,0-.07-1.87,1.89,1.89,0,0,1-.07-.39h0c-.06-.41-.11-.84-.14-1.35a13.71,13.71,0,0,1,.39-4.31c0-.07,0-.13.05-.2s0-.28,0-.43c-.14-2-.43-8-.3-9.56l.34.51,0,.09h.08l.73,0h.61l1.26,0v0Z" transform="translate(-38.89 -52.1)"/><path class="cls-108" d="M69.37,118.49s-7,1.26-7,.38c0-.17,0-.34,0-.51a.66.66,0,0,0,0-.14,30.52,30.52,0,0,1,.18-3.51c0-.37,0-.75.08-1.16,0-.18,0-.37,0-.57a10.61,10.61,0,0,0-.22-2.65,6.19,6.19,0,0,0-.15-.65.13.13,0,0,0,0-.06c0-.19-.1-.39-.14-.58v0l-.06-.25a1.24,1.24,0,0,0,0-.16c0-.25-.1-.51-.13-.79a.38.38,0,0,1,0-.1,8.13,8.13,0,0,1-.1-1.29,2.18,2.18,0,0,1,.24-1,1.18,1.18,0,0,1,.48-.34l.4-.2.84-.4.05,0,.2-.09.3-.12h0c.09,0,1-.3,1.15-.33l.35-.07c.2,0,.39-.09.59-.12h.51a4.69,4.69,0,0,1,.48.06h0a1.9,1.9,0,0,1,1.06.49,3.66,3.66,0,0,1,.52,1.86h0c0,.25,0,.51,0,.74,0,.41,0,.76,0,1V108c0,.35,0,.78,0,1.28s0,1.12-.06,1.74c0,.78-.09,1.61,0,2.43l0,.14c0,.19.06.53.11.94C69.18,116,69.37,118.38,69.37,118.49Z" transform="translate(-38.89 -52.1)"/><path class="cls-149" d="M68.44,109.2c-.12.55-.84.06-1.18-.11.1-3.43-.54-4.87-.91-5.41h.51a4.69,4.69,0,0,1,.48.06A16.53,16.53,0,0,1,68.44,109.2Z" transform="translate(-38.89 -52.1)"/><path class="cls-149" d="M69.37,118.49s-7,1.26-7,.38c0-.17,0-.34,0-.51a.66.66,0,0,0,0-.14,30.52,30.52,0,0,1,.18-3.51c0-.27,0-.54.06-.83l.12,0a2.83,2.83,0,0,0,.52-.08,1.54,1.54,0,0,0,.78-1.07c0-.17.07-.34.1-.51.22-1.49,0-3,.5-4.4a.86.86,0,0,1,.69-.52c.94-.24,2.25-.72,2.78.28s.29,2.38.57,3.63a1.51,1.51,0,0,0,.24.53c0,.07,0,.15,0,.23a13.19,13.19,0,0,0,0,1.54s0,.09,0,.14,0,.09,0,.15.06.47.1.79C69.18,116,69.37,118.38,69.37,118.49Z" transform="translate(-38.89 -52.1)"/><path class="cls-149" d="M65.09,109.44c-.06.55-.53,1.21-.89,1.07a12.57,12.57,0,0,0-1.35-5.67l.84-.4A13.24,13.24,0,0,1,65.09,109.44Z" transform="translate(-38.89 -52.1)"/><path class="cls-150" d="M68.45,113.13a2.11,2.11,0,0,1-.16-1.64,5.57,5.57,0,0,1,1-.28,2.33,2.33,0,0,1,1.7.14c.8.63.6,1,.3,1.37C70.85,113.23,69,112.59,68.45,113.13Z" transform="translate(-38.89 -52.1)"/><path class="cls-151" d="M69.36,113l-4.79,1.62a1.22,1.22,0,0,1-.33,0,.63.63,0,0,1-.43-.11A4.1,4.1,0,0,1,62.74,113c-.72-1.5-1.16-5.9-1.2-6.58s0-1.2.88-1.45a.63.63,0,0,1,.36.06h0a1.5,1.5,0,0,1,.73.86,19.22,19.22,0,0,1,1.3,5.12c0,.28,0,.79.64.68,1.48-.27,3.44-.81,3.44-.81l.13.59Z" transform="translate(-38.89 -52.1)"/><path class="cls-152" d="M69.24,111.81l5.11-3.34a.17.17,0,0,1,.18,0l.26.16a.15.15,0,0,0-.18,0l-.27.17h0l.15.1.11.06a.16.16,0,0,1,0,.11l0,3.45a.34.34,0,0,1-.14.29l-.13-.07h0l.13.07L69.65,116a.11.11,0,0,1-.11,0l-.25-.16v.34a.22.22,0,0,0,.07.18l-.13-.08-.12-.08a.19.19,0,0,1-.08-.18L69,112.29A.64.64,0,0,1,69.24,111.81Z" transform="translate(-38.89 -52.1)"/><g class="cls-10"><g class="cls-10"><g class="cls-153"><path class="cls-96" d="M69.94,111.57v.05s0,0,0,0v-.06a.05.05,0,0,1,0,0Z" transform="translate(-38.89 -52.1)"/></g></g><polygon class="cls-154" points="30.88 59.57 30.88 59.63 31.05 59.52 31.05 59.46 30.88 59.57"/><g class="cls-10"><g class="cls-155"><g class="cls-10"><path class="cls-96" d="M69.6,111.63v.06s0,0,0,0v-.06s0,0,0,0Z" transform="translate(-38.89 -52.1)"/><path class="cls-156" d="M69.61,111.66v.06h0l.05,0v-.06h-.05l0,0Z" transform="translate(-38.89 -52.1)"/><path class="cls-96" d="M69.68,111.69v.06a.15.15,0,0,0,.09,0v0a.14.14,0,0,1-.09,0Z" transform="translate(-38.89 -52.1)"/></g></g></g><path class="cls-157" d="M69.63,111.59s0,.06,0,.09a.17.17,0,0,0,.14,0l.17-.11s0-.07,0-.09a.15.15,0,0,0-.13,0Z" transform="translate(-38.89 -52.1)"/></g><path class="cls-158" d="M69.5,112l5.11-3.34c.13-.09.25,0,.25.16l0,3.77a.66.66,0,0,1-.25.49l-5.11,3.33c-.14.09-.25,0-.25-.16l0-3.77A.64.64,0,0,1,69.5,112Z" transform="translate(-38.89 -52.1)"/><path class="cls-159" d="M69.65,112.56a.58.58,0,0,1,.23-.43c.12-.08.22,0,.22.14a.57.57,0,0,1-.22.43C69.76,112.78,69.65,112.72,69.65,112.56Z" transform="translate(-38.89 -52.1)"/><polygon class="cls-159" points="30.31 61.32 30.18 61.23 30.18 60.74 30.31 60.83 30.31 61.32"/><polygon class="cls-159" points="30.31 61.98 30.18 61.89 30.18 61.4 30.31 61.48 30.31 61.98"/><path class="cls-159" d="M70.14,111.29a.17.17,0,0,1,.14,0s0,.07,0,.09a.12.12,0,0,1-.14,0S70.1,111.32,70.14,111.29Z" transform="translate(-38.89 -52.1)"/><path class="cls-159" d="M70.47,111.08a.12.12,0,0,1,.14,0s0,.06,0,.09a.17.17,0,0,1-.14,0S70.43,111.1,70.47,111.08Z" transform="translate(-38.89 -52.1)"/><polygon class="cls-159" points="31.9 58.77 32.02 58.84 32.3 58.67 32.17 58.59 31.9 58.77"/><path class="cls-150" d="M74.15,110.87l.14-.14c-.07,0-.16,0-.18-.09a.14.14,0,0,1,0-.15.42.42,0,0,1,.13-.07c.21-.08.46-.22.67-.29s.37.68.39.83a.89.89,0,0,1-.11.68l-.25,0-.18,0s-.06-.08-.07-.08a.28.28,0,0,1,0-.09.07.07,0,0,0-.06-.09c-.1,0-.31,0-.29-.2a0,0,0,0,0,0-.05C74.16,111.19,74.14,111,74.15,110.87Z" transform="translate(-38.89 -52.1)"/><path class="cls-141" d="M65,104.87c-.35-.11-.76-.33-.75-.57,0-.66,0-2,0-2l2.15.92a11.6,11.6,0,0,1,0,1.41C66.34,105,65.51,105,65,104.87Z" transform="translate(-38.89 -52.1)"/><path class="cls-131" d="M67,104.09a1.26,1.26,0,0,1-1,.26,2.6,2.6,0,0,1-1.37-.64l-.09-.11s0,0,0,0a7.11,7.11,0,0,1-1-2c0-.09,0-.18,0-.26-.18-1.48,1-1.84,1.94-2.62A1.45,1.45,0,0,1,67,98.32a1.68,1.68,0,0,1,.74,1.48C67.84,101.54,67.82,103.34,67,104.09Z" transform="translate(-38.89 -52.1)"/><path class="cls-160" d="M67.71,99.72c-.09,0,0-.68-1.13-.25-.79.31-1.14-.09-1.36.24a2.3,2.3,0,0,0-.17,1.38c0,.24.2,1.6-.2,1.25-.25-.22-.16,0-.24.2a1.39,1.39,0,0,0-.11,1.08,5.16,5.16,0,0,1-1.64-2.73c-.27-2.29.93-2.51.93-2.51a2.18,2.18,0,0,1,2.84-.79C68,98.38,67.85,99.72,67.71,99.72Z" transform="translate(-38.89 -52.1)"/><path class="cls-161" d="M63.79,98.38a.28.28,0,0,1,0-.07A4.22,4.22,0,0,1,65.11,100a2.65,2.65,0,0,0-.06,1.13c0,.24.2,1.6-.2,1.25-.25-.22-.16,0-.24.2a1.39,1.39,0,0,0-.11,1.08,5.16,5.16,0,0,1-1.64-2.73C62.59,98.6,63.79,98.38,63.79,98.38Z" transform="translate(-38.89 -52.1)"/><path class="cls-131" d="M65,103.19c-.19.17-.54,0-.79-.28s-.31-.74-.13-.91.54,0,.79.28S65.19,103,65,103.19Z" transform="translate(-38.89 -52.1)"/><path class="cls-144" d="M64.76,102.87c-.08.08-.25,0-.37-.13s-.14-.34-.06-.42.26,0,.37.13S64.85,102.79,64.76,102.87Z" transform="translate(-38.89 -52.1)"/></g></g></svg>