<svg xmlns="http://www.w3.org/2000/svg" xmlns:xlink="http://www.w3.org/1999/xlink" viewBox="0 0 164.89 210.04"><defs><style>.cls-1{fill:url(#linear-gradient);}.cls-2{fill:url(#linear-gradient-2);}.cls-3{fill:#3857cc;}.cls-4{fill:#d9e1ee;}.cls-5{fill:url(#linear-gradient-3);}.cls-6{fill:#96aac9;}.cls-7{isolation:isolate;}.cls-100,.cls-8{opacity:0.7;}.cls-103,.cls-8,.cls-84{mix-blend-mode:screen;}.cls-25,.cls-9{fill:#fcfdfd;}.cls-9{opacity:0;}.cls-10{fill:#e7fcfd;opacity:0.09;}.cls-11{fill:#d3fcfd;opacity:0.18;}.cls-12{fill:#befbfc;opacity:0.27;}.cls-13{fill:#a9fbfc;opacity:0.36;}.cls-14{fill:#95fafc;opacity:0.45;}.cls-15{fill:#80fafc;opacity:0.55;}.cls-16{fill:#6cf9fc;opacity:0.64;}.cls-17{fill:#57f9fc;opacity:0.73;}.cls-18{fill:#42f8fb;opacity:0.82;}.cls-19{fill:#2ef8fb;opacity:0.91;}.cls-20{fill:#19f7fb;}.cls-21{fill:#171716;}.cls-22{fill:#bcc0d2;}.cls-22,.cls-30{mix-blend-mode:multiply;}.cls-23{fill:#ffd6bf;}.cls-24{fill:#30273b;}.cls-26{fill:#263b51;}.cls-27{fill:#f5c2a6;}.cls-28{fill:#eeb04a;}.cls-29{fill:#cc963e;}.cls-103,.cls-30{opacity:0.2;}.cls-31{fill:#fff;}.cls-32{fill:#ebeaf8;}.cls-33{fill:#d6d5f2;}.cls-34{fill:#c2bfeb;}.cls-35{fill:#adaae4;}.cls-36{fill:#9995dd;}.cls-37{fill:#8480d7;}.cls-38{fill:#706bd0;}.cls-39{fill:#5b56c9;}.cls-40{fill:#4740c2;}.cls-41{fill:#322bbc;}.cls-42{fill:#1e16b5;}.cls-43{fill:url(#linear-gradient-4);}.cls-44{fill:url(#linear-gradient-5);}.cls-45{fill:url(#linear-gradient-6);}.cls-46{clip-path:url(#clip-path);}.cls-47{fill:url(#linear-gradient-8);}.cls-48{fill:url(#linear-gradient-9);}.cls-49{fill:url(#linear-gradient-10);}.cls-50{fill:#0eb5e3;}.cls-51{clip-path:url(#clip-path-2);}.cls-52{fill:url(#linear-gradient-12);}.cls-53{fill:url(#linear-gradient-13);}.cls-54{fill:url(#linear-gradient-14);}.cls-55{fill:url(#linear-gradient-15);}.cls-56{fill:url(#linear-gradient-16);}.cls-57{clip-path:url(#clip-path-3);}.cls-58{fill:url(#linear-gradient-18);}.cls-59{fill:url(#linear-gradient-19);}.cls-60{clip-path:url(#clip-path-4);}.cls-61{clip-path:url(#clip-path-5);}.cls-62{fill:#e8ecf2;}.cls-63{fill:#18e8f9;}.cls-64{fill:#16d9f6;}.cls-65{fill:#15caf4;}.cls-66{fill:#14baf2;}.cls-67{fill:#12abef;}.cls-68{fill:#119ced;}.cls-69{clip-path:url(#clip-path-6);}.cls-70{clip-path:url(#clip-path-7);}.cls-71{clip-path:url(#clip-path-8);}.cls-72{clip-path:url(#clip-path-9);}.cls-73{clip-path:url(#clip-path-10);}.cls-74{clip-path:url(#clip-path-11);}.cls-75{fill:#4767db;}.cls-76{fill:#2744ac;}.cls-77{clip-path:url(#clip-path-12);}.cls-78{fill:#aabad6;}.cls-79{clip-path:url(#clip-path-13);}.cls-80{fill:#c3cee1;}.cls-81{clip-path:url(#clip-path-14);}.cls-82{fill:#b4c5e2;}.cls-83{clip-path:url(#clip-path-15);}.cls-84{fill:#51cfe3;opacity:0.8;}.cls-85{opacity:0.4;}.cls-86{fill:#8ef5f3;}.cls-87{fill:#60d4d2;}.cls-88{fill:#b6fffe;}.cls-89,.cls-97{fill:#46c7c7;}.cls-89,.cls-90,.cls-91,.cls-94,.cls-95{opacity:0.6;}.cls-90,.cls-99{fill:#025a82;}.cls-91,.cls-93{fill:#ff5454;}.cls-92{opacity:0.5;}.cls-94,.cls-98{fill:#ffc104;}.cls-96{fill:#fff9fc;}.cls-100{fill:#ebf1f5;}.cls-101{fill:#ebb091;}.cls-102{fill:#42395a;}.cls-103{fill:#bf66a4;}.cls-104{fill:#f02031;}.cls-105{fill:#995033;}.cls-106{fill:#66311c;}.cls-107{fill:#951616;}.cls-108{fill:#3c3f53;}.cls-109{fill:#ffc89f;}.cls-110{fill:#2b0d04;}.cls-111{fill:#ffdfcd;}.cls-112{fill:#171d23;}.cls-113{fill:#021c30;}.cls-114{fill:#5338b8;}.cls-115{fill:#e9d3c8;}.cls-116{fill:#154902;}.cls-117{fill:#9cb5cc;}.cls-118{fill:#283033;}.cls-119{fill:#f8f9fc;}.cls-120{fill:#d7e7f7;}.cls-121{fill:#83cff2;}</style><linearGradient id="linear-gradient" x1="122.9" y1="196.01" x2="132.22" y2="196.01" gradientUnits="userSpaceOnUse"><stop offset="0.01" stop-color="#e4e9f2"/><stop offset="1" stop-color="#b4c2da"/></linearGradient><linearGradient id="linear-gradient-2" x1="123.31" y1="186.64" x2="131.77" y2="186.64" gradientUnits="userSpaceOnUse"><stop offset="0" stop-color="#21deff"/><stop offset="1" stop-color="#0ab4ef"/></linearGradient><linearGradient id="linear-gradient-3" x1="122.9" y1="181.52" x2="132.22" y2="181.52" xlink:href="#linear-gradient"/><linearGradient id="linear-gradient-4" x1="80.85" y1="168.98" x2="82.81" y2="168.98" xlink:href="#linear-gradient"/><linearGradient id="linear-gradient-5" x1="129.66" y1="168.86" x2="164.56" y2="187.67" xlink:href="#linear-gradient"/><linearGradient id="linear-gradient-6" x1="80.85" y1="181.46" x2="122.94" y2="181.46" gradientUnits="userSpaceOnUse"><stop offset="0" stop-color="#aabad6"/><stop offset="1" stop-color="#96aac9"/></linearGradient><clipPath id="clip-path" transform="translate(-46.35 -22.53)"><path class="cls-1" d="M132.22,193.39l0,4a9.62,9.62,0,0,1-9.28,0l0-4A9.62,9.62,0,0,0,132.22,193.39Z"/></clipPath><linearGradient id="linear-gradient-8" x1="121.69" y1="187.3" x2="131.12" y2="200.32" xlink:href="#linear-gradient"/><linearGradient id="linear-gradient-9" x1="96.62" y1="155.22" x2="307.4" y2="225.66" xlink:href="#linear-gradient"/><linearGradient id="linear-gradient-10" x1="147.91" y1="172.18" x2="223.44" y2="207.02" gradientUnits="userSpaceOnUse"><stop offset="0" stop-color="#21deff"/><stop offset="0.29" stop-color="#1ad2fa"/><stop offset="1" stop-color="#0ab4ef"/></linearGradient><clipPath id="clip-path-2" transform="translate(-46.35 -22.53)"><path class="cls-2" d="M131.77,181l0,10.28a8.69,8.69,0,0,1-8.42,0l0-10.28A8.69,8.69,0,0,0,131.77,181Z"/></clipPath><linearGradient id="linear-gradient-12" x1="123.92" y1="182.18" x2="136.17" y2="195.46" xlink:href="#linear-gradient-2"/><linearGradient id="linear-gradient-13" x1="85.2" y1="155.67" x2="169.66" y2="155.67" xlink:href="#linear-gradient-2"/><linearGradient id="linear-gradient-14" x1="80.85" y1="154.49" x2="82.81" y2="154.49" xlink:href="#linear-gradient"/><linearGradient id="linear-gradient-15" x1="129.66" y1="154.37" x2="164.56" y2="173.18" xlink:href="#linear-gradient"/><linearGradient id="linear-gradient-16" x1="80.85" y1="166.98" x2="122.94" y2="166.98" xlink:href="#linear-gradient-6"/><clipPath id="clip-path-3" transform="translate(-46.35 -22.53)"><path class="cls-5" d="M132.22,178.9l0,4a9.57,9.57,0,0,1-9.28,0l0-4A9.57,9.57,0,0,0,132.22,178.9Z"/></clipPath><linearGradient id="linear-gradient-18" x1="121.69" y1="172.82" x2="131.12" y2="185.84" xlink:href="#linear-gradient"/><linearGradient id="linear-gradient-19" x1="96.62" y1="140.73" x2="307.4" y2="211.17" gradientUnits="userSpaceOnUse"><stop offset="0.01" stop-color="#fcfdff"/><stop offset="1" stop-color="#cedaed"/></linearGradient><clipPath id="clip-path-4" transform="translate(-46.35 -22.53)"><path class="cls-3" d="M148.78,141.66l0,8.21c0-3.35-2-6.7-6.14-9.26-8.15-5.07-21.33-5.07-29.43,0-4,2.53-6,5.82-6,9.13l0-8.21c0-3.3,2-6.6,6-9.12,8.1-5.08,21.28-5.08,29.43,0C146.74,135,148.79,138.31,148.78,141.66Z"/></clipPath><clipPath id="clip-path-5" transform="translate(-46.35 -22.53)"><path class="cls-6" d="M155.27,141.68l0,7.64c0,4.33-2.66,8.66-7.93,12-10.63,6.65-27.91,6.65-38.61,0-5.38-3.35-8.07-7.75-8-12.14l0-7.64c0,4.39,2.67,8.79,8.06,12.14,10.69,6.66,28,6.66,38.6,0C152.62,150.34,155.26,146,155.27,141.68Z"/></clipPath><clipPath id="clip-path-6" transform="translate(-46.35 -22.53)"><path class="cls-3" d="M148.78,119.8l0,8.21c0-3.35-2-6.7-6.14-9.26-8.15-5.07-21.33-5.07-29.43,0-4,2.53-6,5.82-6,9.13l0-8.21c0-3.3,2-6.6,6-9.12,8.1-5.08,21.28-5.08,29.43,0C146.74,113.1,148.79,116.45,148.78,119.8Z"/></clipPath><clipPath id="clip-path-7" transform="translate(-46.35 -22.53)"><path class="cls-6" d="M155.27,119.82l0,7.64c0,4.33-2.66,8.66-7.93,12-10.63,6.66-27.91,6.66-38.61,0-5.38-3.35-8.07-7.75-8-12.14l0-7.64c0,4.39,2.67,8.79,8.06,12.14,10.69,6.66,28,6.66,38.6,0C152.62,128.48,155.26,124.16,155.27,119.82Z"/></clipPath><clipPath id="clip-path-8" transform="translate(-46.35 -22.53)"><path class="cls-3" d="M148.78,98.08l0,8.2c0-3.35-2-6.7-6.14-9.25C134.47,92,121.29,92,113.19,97c-4,2.52-6,5.82-6,9.12l0-8.2c0-3.31,2-6.61,6-9.13,8.1-5.07,21.28-5.07,29.43,0C146.74,91.38,148.79,94.73,148.78,98.08Z"/></clipPath><clipPath id="clip-path-9" transform="translate(-46.35 -22.53)"><path class="cls-6" d="M155.27,98.1l0,7.63c0,4.33-2.66,8.66-7.93,12-10.63,6.66-27.91,6.66-38.61,0-5.38-3.35-8.07-7.75-8-12.14l0-7.63c0,4.39,2.67,8.79,8.06,12.13,10.69,6.66,28,6.66,38.6,0C152.62,106.76,155.26,102.43,155.27,98.1Z"/></clipPath><clipPath id="clip-path-10" transform="translate(-46.35 -22.53)"><path class="cls-3" d="M64.14,23,94.71,42.1c-1-.65-2.49-.56-4.08.43L60.06,23.38C61.66,22.39,63.1,22.3,64.14,23Z"/></clipPath><clipPath id="clip-path-11" transform="translate(-46.35 -22.53)"><path class="cls-3" d="M86.58,57.17,56,38c-1-.65-1.67-2-1.67-4,0-3.92,2.55-8.7,5.71-10.67L90.63,42.53c-3.17,2-5.73,6.75-5.72,10.67C84.92,55.15,85.56,56.52,86.58,57.17Z"/></clipPath><clipPath id="clip-path-12" transform="translate(-46.35 -22.53)"><path class="cls-4" d="M93.16,45.25l8.92,5.59a2.18,2.18,0,0,0-2.35.25L90.81,45.5A2.2,2.2,0,0,1,93.16,45.25Z"/></clipPath><clipPath id="clip-path-13" transform="translate(-46.35 -22.53)"><path class="cls-4" d="M97.4,59.53l-8.92-5.59a2.56,2.56,0,0,1-1-2.28,8,8,0,0,1,3.29-6.16l8.92,5.59a7.94,7.94,0,0,0-3.3,6.15A2.56,2.56,0,0,0,97.4,59.53Z"/></clipPath><clipPath id="clip-path-14" transform="translate(-46.35 -22.53)"><path class="cls-4" d="M155.89,65.14l0,11.11c0-4.53-2.77-9.07-8.32-12.53-11-6.88-28.9-6.88-39.87,0-5.45,3.41-8.18,7.88-8.19,12.36l0-11.12c0-4.47,2.74-8.94,8.19-12.36,11-6.87,28.82-6.87,39.87,0C153.12,56.06,155.9,60.6,155.89,65.14Z"/></clipPath><clipPath id="clip-path-15" transform="translate(-46.35 -22.53)"><path class="cls-4" d="M164.67,65.16l0,11.12c0,5.87-3.6,11.73-10.75,16.21-14.39,9-37.81,9-52.29,0C94.32,88,90.67,82,90.69,76.05l0-11.11c0,5.94,3.62,11.9,10.92,16.44,14.48,9,37.9,9,52.29,0C161.08,76.9,164.66,71,164.67,65.16Z"/></clipPath></defs><g class="cls-7"><g id="Layer_1" data-name="Layer 1"><g class="cls-8"><path class="cls-9" d="M70.37,217.69c31.87,19.84,83.37,19.84,115,0s31.5-52-.37-71.83-83.38-19.84-115,0-31.49,52,.38,71.83Z" transform="translate(-46.35 -22.53)"/><path class="cls-10" d="M73.44,205.15c30.16,18.78,78.9,18.78,108.87,0s29.8-49.2-.36-68-78.9-18.77-108.86,0-29.81,49.21.35,68Z" transform="translate(-46.35 -22.53)"/><path class="cls-11" d="M76.52,192.62c28.45,17.71,74.43,17.71,102.69,0s28.12-46.42-.33-64.13-74.43-17.71-102.7,0-28.11,46.42.34,64.13Z" transform="translate(-46.35 -22.53)"/><path class="cls-12" d="M79.59,180.08c26.74,16.64,70,16.64,96.53,0s26.42-43.63-.32-60.28-70-16.64-96.52,0-26.43,43.63.31,60.28Z" transform="translate(-46.35 -22.53)"/><path class="cls-13" d="M82.67,167.54c25,15.58,65.48,15.58,90.35,0s24.74-40.84-.29-56.42-65.49-15.58-90.36,0-24.74,40.84.3,56.42Z" transform="translate(-46.35 -22.53)"/><path class="cls-14" d="M85.74,155c23.33,14.52,61,14.52,84.19,0s23-38-.28-52.57-61-14.51-84.18,0-23,38.06.27,52.57Z" transform="translate(-46.35 -22.53)"/><path class="cls-15" d="M88.82,142.47c21.61,13.45,56.54,13.45,78,0s21.36-35.26-.25-48.71-56.54-13.45-78,0S67.2,129,88.82,142.47Z" transform="translate(-46.35 -22.53)"/><path class="cls-16" d="M91.89,129.93c19.91,12.39,52.07,12.39,71.85,0s19.67-32.48-.24-44.87-52.07-12.38-71.84,0-19.67,32.48.23,44.87Z" transform="translate(-46.35 -22.53)"/><path class="cls-17" d="M95,117.39c18.19,11.32,47.59,11.32,65.67,0s18-29.69-.21-41-47.6-11.33-65.68,0-18,29.68.22,41Z" transform="translate(-46.35 -22.53)"/><path class="cls-18" d="M98,104.85c16.49,10.26,43.13,10.26,59.51,0s16.29-26.89-.2-37.16-43.12-10.26-59.5,0-16.29,26.9.19,37.16Z" transform="translate(-46.35 -22.53)"/><path class="cls-19" d="M101.12,92.31c14.77,9.2,38.65,9.2,53.33,0s14.6-24.1-.17-33.3-38.66-9.2-53.34,0-14.6,24.11.18,33.3Z" transform="translate(-46.35 -22.53)"/><path class="cls-20" d="M104.19,79.78c13.07,8.13,34.18,8.13,47.16,0s12.92-21.32-.15-29.46S117,42.19,104,50.33s-12.91,21.31.15,29.45Z" transform="translate(-46.35 -22.53)"/></g><path d="M197,141.15a1,1,0,0,1,0,.53,4.31,4.31,0,0,0,.23,1.28,5.07,5.07,0,0,1,.16,1.34,3.17,3.17,0,0,1-.71,1.83,1.79,1.79,0,0,1-.77.57,1,1,0,0,1-.91-.09,1.36,1.36,0,0,1-.49-.81,4,4,0,0,1-.05-.85v-.13a10.94,10.94,0,0,0,0-1.81c-.05-.42-.2-.84-.24-1.27a1.26,1.26,0,0,1,.06-.51.75.75,0,0,1,.07-.12,1.3,1.3,0,0,1,.18-.23,2.91,2.91,0,0,1,.43-.43c.07,0,.82-.45.81-.48a1.3,1.3,0,0,0,.68.82,2.09,2.09,0,0,1,.4.19A.34.34,0,0,1,197,141.15Z" transform="translate(-46.35 -22.53)"/><path class="cls-21" d="M194.47,142.67c0,.17,0,.35,0,.53,0,.42,0,.86,0,1.28a.49.49,0,0,0,0,.12,4.1,4.1,0,0,0,.06.86,1.31,1.31,0,0,0,.49.81,1,1,0,0,0,.91.09,1.85,1.85,0,0,0,.77-.57,3.31,3.31,0,0,0,.71-1.83,4.29,4.29,0,0,0,0-.62c0-.24-.08-.48-.13-.72s-.19-.65-.23-1a1.5,1.5,0,0,1,0-.3,1.09,1.09,0,0,0,0-.54.61.61,0,0,0-.15-.17,2.87,2.87,0,0,0-.4-.18,1.3,1.3,0,0,1-.68-.82s-.74.43-.8.48a3,3,0,0,0-.44.43,1.84,1.84,0,0,0-.17.22l0,0a.31.31,0,0,0-.05.1,1.09,1.09,0,0,0-.06.51C194.26,141.83,194.41,142.24,194.47,142.67Z" transform="translate(-46.35 -22.53)"/><path class="cls-22" d="M194.23,141.4c0,.43.18.84.24,1.27,0,.17,0,.35,0,.53l2.86.14c0-.24-.08-.48-.13-.72s-.19-.65-.23-1a5.86,5.86,0,0,0-2.61-.84h-.06a.31.31,0,0,0-.05.1A1.09,1.09,0,0,0,194.23,141.4Z" transform="translate(-46.35 -22.53)"/><path d="M189.71,138.41s1.76-.85,1.94,1.66c0,.66-.72.91-1.06,1a.86.86,0,0,0-.58.18,2.47,2.47,0,0,0-.42.57,2.37,2.37,0,0,1-2.91.57c-.7-.63.41-1.59,1.5-2.49A11.9,11.9,0,0,0,189.71,138.41Z" transform="translate(-46.35 -22.53)"/><path class="cls-21" d="M186.68,142a2.35,2.35,0,0,0,2.9-.58,3.44,3.44,0,0,1,.43-.56.86.86,0,0,1,.58-.18,1.48,1.48,0,0,0,.85-.39.7.7,0,0,0,.2-.56,2.84,2.84,0,0,0-.28-1.15,1.12,1.12,0,0,0-1.28-.63,1.89,1.89,0,0,0-.38.11,11.37,11.37,0,0,1-1.53,1.45l-.59.5C186.74,140.72,186.11,141.45,186.68,142Z" transform="translate(-46.35 -22.53)"/><path class="cls-22" d="M187.58,140a1.75,1.75,0,0,0,.52.24,3.73,3.73,0,0,0,.67.09l1,.07a6.91,6.91,0,0,0,.91,0,4.26,4.26,0,0,0,.78-.14.7.7,0,0,0,.2-.56,2.84,2.84,0,0,0-.28-1.15,13.82,13.82,0,0,0-1.28-.63,1.89,1.89,0,0,0-.38.11,11.37,11.37,0,0,1-1.53,1.45Z" transform="translate(-46.35 -22.53)"/><path class="cls-23" d="M187.66,102.63c.32-.51.82,0,1.13-.1a.43.43,0,0,1,.33,0l.29.33c.31.4.62.7.49,1.29a27.2,27.2,0,0,1-2.64,6.85l-1.91-1q0-.22.06-.48c0-.07-.55,0-.52-.1A35.75,35.75,0,0,1,187.66,102.63Z" transform="translate(-46.35 -22.53)"/><path class="cls-24" d="M191.08,118.34c0,.07,0,.13.07.2a1.43,1.43,0,0,1,.08.22c.09.22.17.46.26.7s.14.39.22.59l.27.77a2.77,2.77,0,0,1,.1.26,16.76,16.76,0,0,1,.69,2.18v0c0,1,.09,3.16.13,4.13h0c0,.1,0,.18,0,.26,0,.55.27,3.06.34,3.69.47,3.92.54,8.09.72,11.21l.07,0,.21.06.23.06a14.47,14.47,0,0,0,2,.19h.75a2.8,2.8,0,0,0,.36,0,6.51,6.51,0,0,1,0-.71,17.53,17.53,0,0,1,.1-2.5c0-.18.07-.36.1-.53h0a16.71,16.71,0,0,0,.19-1.79,30.36,30.36,0,0,0-.53-7.53,2,2,0,0,0-.07-.26c0-.18,0-.37,0-.58.14-2,.28-5.13.4-7.75,0-.77.07-1.51.1-2.17,0-.25,0-.49,0-.72Z" transform="translate(-46.35 -22.53)"/><path class="cls-22" d="M192.94,122.64a11.35,11.35,0,0,1,.31,1.54c.16,1.26.16,2.54.25,3.81.2,2.75.82,5.47.86,8.23a15.75,15.75,0,0,0,.21,3.37,3.13,3.13,0,0,0,2,2.4c.33.08.67.08,1,.18a6.51,6.51,0,0,0,0,.71,2.8,2.8,0,0,1-.36,0h-.75a14.47,14.47,0,0,1-2-.19l-.23-.06-.21-.06-.07,0c-.18-3.12-.25-7.29-.72-11.21-.07-.63-.31-3.14-.34-3.69,0-.08,0-.16,0-.26h0c0-1-.09-3.12-.13-4.16a2.69,2.69,0,0,0-.1-.43,1.06,1.06,0,0,0,0-.19Z" transform="translate(-46.35 -22.53)"/><path class="cls-24" d="M188.2,135.62c0,1,0,2,0,2.69a3.23,3.23,0,0,0,.18,1.35c.55.33,2.86.61,3.48.19.17-.12.29-.61.37-1.36.27-2.34.22-7.13.36-10.38,0-1,.08-2,.11-3h0c0-.13,0-.25,0-.38l0-1.43c0-.33,0-.64,0-1s0-.87,0-1.28,0-.62,0-.91,0-.79,0-1.15v-.22s0-.21,0-.44c0-.58.14-1.51.14-1.61l-4.77.31c0,.52-.09,2.4-.11,3,0,.15,0,.31,0,.48-.07,1.57.26,6.59.23,8.42,0,1.49-.11,4.05-.13,6.29C188.2,135.38,188.2,135.5,188.2,135.62Z" transform="translate(-46.35 -22.53)"/><path class="cls-22" d="M188.2,135.62c0,1,0,2,0,2.69a3.23,3.23,0,0,0,.18,1.35c.55.33,2.86.61,3.48.19.17-.12.29-.61.37-1.36-.3.1-.6.32-.9.45a2.16,2.16,0,0,1-2.49-.92A4.43,4.43,0,0,1,188.2,135.62Z" transform="translate(-46.35 -22.53)"/><path class="cls-25" d="M186.31,105a2.75,2.75,0,0,0,.88,1.34,1.61,1.61,0,0,0,.48.27,2.06,2.06,0,0,0,.44.14,4.34,4.34,0,0,0,.88.06,55.41,55.41,0,0,0,2.19-5.68c.09-.34-.48-.47-.45-.57s0-.12,0-.18a1,1,0,0,0-.37-1.08l-.09-.09A.75.75,0,0,0,190,99a1.22,1.22,0,0,0-.38-.07h-.1a1.81,1.81,0,0,0-1.57,1c-.18.36-.76,2.16-1.3,3.93C186.54,104.24,186.43,104.62,186.31,105Z" transform="translate(-46.35 -22.53)"/><path class="cls-4" d="M188.07,117.8c.07.71,3.39,2,6.14,1.89,1.87,0,3.49-.25,3.67-.63.72-1.51-.26-5.18-.35-7.61-.12-3.22,1.26-4.6,1.57-6.76,0,0,0,0,0-.06s0-.07,0-.11a7.44,7.44,0,0,0,0-2.74.26.26,0,0,0,0-.08c0-.16.35-.17.27-.32a5.19,5.19,0,0,0-1.13-.59l-.33-.16c-.47-.21-4-1.45-4.3-1.5-.59-.09-1.74-.35-1.84-.33a14.81,14.81,0,0,0-2.07.06,2,2,0,0,0-.91.51c-.92,1.11-.09,4.35-.12,5.13,0,.5,0,1.19.06,2s.07,1.5.08,2.35a27.9,27.9,0,0,1-.34,3.47A17.43,17.43,0,0,0,188.07,117.8Z" transform="translate(-46.35 -22.53)"/><path class="cls-23" d="M197.52,104.51c.06-.61.71-.45.95-.66s.24-.17.3-.15a3.09,3.09,0,0,1,.4.14c.45.19.85.3,1,.89a25.85,25.85,0,0,1,.9,7.45h-2.39c-.05-.15-.1-.29-.15-.46s-.15,0-.18-.08A17,17,0,0,1,197.52,104.51Z" transform="translate(-46.35 -22.53)"/><path class="cls-25" d="M200.28,108.58a2.6,2.6,0,0,1-1.59.36,3.56,3.56,0,0,1-1.19-.26,22.74,22.74,0,0,1-.35-6,2,2,0,0,1,1.26-1.61,1.13,1.13,0,0,1,.41,0c.69.12,1.08.76,1.33,1.69.14.49.5,2.85.75,5.23A3,3,0,0,1,200.28,108.58Z" transform="translate(-46.35 -22.53)"/><path class="cls-23" d="M187,108.77c2.35,1.94,2.6,2.81,2.6,2.81,0,.34.37.88.2,1.12a1.89,1.89,0,0,1-.55.48c-.93-.5-2.91-1.06-3.84-2a1.67,1.67,0,0,1-.25-2.28A1.37,1.37,0,0,1,187,108.77Z" transform="translate(-46.35 -22.53)"/><path class="cls-26" d="M190.18,114.53c0-.08,0-.17,0-.25a.29.29,0,0,1-.28-.13.59.59,0,0,1,0-.13,22.41,22.41,0,0,1,.16-3.57c0-.28.25-.63.3-.17a10.6,10.6,0,0,1,0,1.38C190.26,112.6,190.13,113.6,190.18,114.53Z" transform="translate(-46.35 -22.53)"/><path class="cls-23" d="M188.19,113.22a.85.85,0,0,1,.26-.91,1.47,1.47,0,0,1,.47-.49c.07,0,.16,0,.22-.08a1.37,1.37,0,0,0,.16-.18.42.42,0,0,1,.43-.19l.14,0a1.26,1.26,0,0,1,.57-.14,3,3,0,0,1,.57.6.4.4,0,0,1,.05.44,1.58,1.58,0,0,1,.19.58.77.77,0,0,1-.07.16c-.13.21-.22.12-.34.27s-.27.35-.43.53-.19.32-.36.44-.37.22-.49.15a1.51,1.51,0,0,0-.12-.26.38.38,0,0,1-.15,0,3.6,3.6,0,0,1-1.1-.91Z" transform="translate(-46.35 -22.53)"/><path class="cls-25" d="M183.32,111.54c.11,0,6,4.12,6,4.12l6.72,1.89-6.21-4.69Z" transform="translate(-46.35 -22.53)"/><path class="cls-23" d="M193.31,113.71c.17,0,.33-.17.44-.14.41-.25,3.19-2.39,5.05-3,.06,0,.51.09.56.08l.24,0h.21a1.33,1.33,0,0,1,1.22,1,1.53,1.53,0,0,1,0,1s0,0,0,0a1.39,1.39,0,0,1-.6.69h0a1.24,1.24,0,0,1-.2.1l-.34.11-6,1.77c-.46.26-.88.62-1.36.84a3.51,3.51,0,0,1-1.79.13.65.65,0,0,1-.19,0,.19.19,0,0,1-.1-.18c0-.1.11-.15.2-.18-.21-.14-.9-.36-.32-.57a3.63,3.63,0,0,1,1,0,1,1,0,0,0,.85-.64,1,1,0,0,0-.56,0,1,1,0,0,1-.4.1.3.3,0,0,1-.31-.24C190.91,114.29,192.44,113.77,193.31,113.71Z" transform="translate(-46.35 -22.53)"/><path class="cls-27" d="M194.13,100.69c.54-.15,1.2-.43,1.21-.8,0-1,.2-3,.2-3L192.14,98a18.34,18.34,0,0,0-.16,2.14C192.05,100.71,193.32,100.9,194.13,100.69Z" transform="translate(-46.35 -22.53)"/><path class="cls-23" d="M191.19,99.7a1.88,1.88,0,0,0,1.52.37,3.86,3.86,0,0,0,2-.93l.14-.16a0,0,0,0,1,0,0A10.23,10.23,0,0,0,196.31,96c0-.13.05-.26.07-.38.26-2.13-1.52-2.64-2.88-3.76a2.17,2.17,0,0,0-2.32-.51,2.44,2.44,0,0,0-1.1,2.15C189.9,96,189.94,98.63,191.19,99.7Z" transform="translate(-46.35 -22.53)"/><path class="cls-28" d="M195.87,91.23s-1.74-2.55-4.2-1.17c-2.06,1.16-1.8,3.35-1.58,3.35s0-1,1.66-.37c1.17.44,1.95-.52,2.28-.05a3.27,3.27,0,0,1,.26,2c0,.35-.3,2.31.29,1.8.29-.25.27-.07.31.13a1.82,1.82,0,0,1,.59,1.09,4.41,4.41,0,0,0,.55-.44,5,5,0,0,0,.6-.78,7.92,7.92,0,0,0,.78-1.9C198.19,91.66,195.87,91.23,195.87,91.23Z" transform="translate(-46.35 -22.53)"/><path class="cls-29" d="M194,93a.32.32,0,0,0-.09-.08l.16-.1a7.85,7.85,0,0,1,1.58-1,1.91,1.91,0,0,1,1-.12c.57.46,1.13,1.39.69,3.23a7.92,7.92,0,0,1-.78,1.9,5,5,0,0,1-.6.78,4.41,4.41,0,0,1-.55.44,1.82,1.82,0,0,0-.59-1.09c0-.2,0-.38-.31-.13-.59.51-.34-1.45-.29-1.8A3.27,3.27,0,0,0,194,93Z" transform="translate(-46.35 -22.53)"/><path class="cls-23" d="M194.54,97.7c.23.3.77.22,1.22-.18s.62-1,.39-1.25-.77-.21-1.21.18S194.32,97.41,194.54,97.7Z" transform="translate(-46.35 -22.53)"/><path class="cls-27" d="M195,97.32c.11.14.36.1.57-.08s.29-.45.19-.59-.37-.1-.57.09S194.86,97.18,195,97.32Z" transform="translate(-46.35 -22.53)"/><g class="cls-30"><ellipse class="cls-31" cx="130.49" cy="179.03" rx="37.99" ry="61.04" transform="translate(-95.72 285.85) rotate(-89.64)"/><ellipse class="cls-32" cx="130.49" cy="179.03" rx="35.89" ry="57.66" transform="translate(-95.72 285.85) rotate(-89.64)"/><ellipse class="cls-33" cx="130.49" cy="179.03" rx="33.78" ry="54.28" transform="translate(-95.72 285.85) rotate(-89.64)"/><ellipse class="cls-34" cx="130.5" cy="179.03" rx="31.68" ry="50.9" transform="translate(-95.71 285.85) rotate(-89.64)"/><ellipse class="cls-35" cx="130.5" cy="179.03" rx="29.57" ry="47.52" transform="translate(-95.71 285.85) rotate(-89.64)"/><path class="cls-36" d="M161.81,198.51c-17.19,10.7-45.13,10.64-62.42-.12s-17.38-28.15-.2-38.85,45.13-10.64,62.42.12S179,187.82,161.81,198.51Z" transform="translate(-46.35 -22.53)"/><path class="cls-37" d="M159.41,197c-15.87,9.87-41.67,9.82-57.64-.11s-16-26-.18-35.88,41.67-9.82,57.64.11S175.28,187.14,159.41,197Z" transform="translate(-46.35 -22.53)"/><path class="cls-38" d="M157,195.53c-14.55,9.05-38.22,9-52.86-.11s-14.72-23.84-.17-32.9,38.22-9,52.86.11S171.57,186.47,157,195.53Z" transform="translate(-46.35 -22.53)"/><path class="cls-39" d="M154.62,194c-13.23,8.24-34.76,8.2-48.08-.09s-13.38-21.69-.15-29.92,34.76-8.2,48.08.09S167.85,185.8,154.62,194Z" transform="translate(-46.35 -22.53)"/><path class="cls-40" d="M152.22,192.54c-11.91,7.42-31.3,7.38-43.29-.08s-12.05-19.53-.14-27,31.31-7.38,43.3.08S164.14,185.12,152.22,192.54Z" transform="translate(-46.35 -22.53)"/><path class="cls-41" d="M149.83,191.05c-10.6,6.59-27.85,6.56-38.51-.08s-10.73-17.37-.13-24,27.85-6.57,38.52.07S160.43,184.45,149.83,191.05Z" transform="translate(-46.35 -22.53)"/><path class="cls-42" d="M147.43,189.55c-9.28,5.78-24.39,5.75-33.73-.06s-9.39-15.22-.11-21,24.39-5.75,33.74.07S156.72,183.77,147.43,189.55Z" transform="translate(-46.35 -22.53)"/></g><g class="cls-7"><path class="cls-43" d="M80.85,169.54l0-4a3.53,3.53,0,0,0,1.92,2.91l0,4.05A3.56,3.56,0,0,1,80.85,169.54Z" transform="translate(-46.35 -22.53)"/><path class="cls-44" d="M172.08,168.41l-39.86,25,0,4,39.87-25a3.53,3.53,0,0,0,1.9-2.87l0-4A3.49,3.49,0,0,1,172.08,168.41Z" transform="translate(-46.35 -22.53)"/><path class="cls-45" d="M82.81,168.41a3.53,3.53,0,0,1-1.92-2.91l0,4a3.56,3.56,0,0,0,1.93,2.92l40.12,25,0-4Z" transform="translate(-46.35 -22.53)"/><g class="cls-7"><path class="cls-1" d="M132.22,193.39l0,4a9.62,9.62,0,0,1-9.28,0l0-4A9.62,9.62,0,0,0,132.22,193.39Z" transform="translate(-46.35 -22.53)"/><g class="cls-46"><g class="cls-7"><path class="cls-47" d="M132.22,193.39l0,4a9.62,9.62,0,0,1-9.28,0l0-4a9.62,9.62,0,0,0,9.28,0Z" transform="translate(-46.35 -22.53)"/></g></g></g><path class="cls-48" d="M172.05,162.62c2.56,1.59,2.58,4.2,0,5.79l-39.86,25a9.62,9.62,0,0,1-9.28,0l-40.13-25c-2.56-1.59-2.57-4.2,0-5.79l39.87-25a9.62,9.62,0,0,1,9.28,0Z" transform="translate(-46.35 -22.53)"/></g><g class="cls-7"><path class="cls-49" d="M167.94,158.3,131.77,181l0,10.28,36.17-22.66a3.17,3.17,0,0,0,1.72-2.61l0-10.28A3.17,3.17,0,0,1,167.94,158.3Z" transform="translate(-46.35 -22.53)"/><path class="cls-50" d="M87,158.3a3.18,3.18,0,0,1-1.75-2.64l0,10.28a3.19,3.19,0,0,0,1.75,2.64l36.4,22.66,0-10.28Z" transform="translate(-46.35 -22.53)"/><g class="cls-7"><path class="cls-2" d="M131.77,181l0,10.28a8.69,8.69,0,0,1-8.42,0l0-10.28A8.69,8.69,0,0,0,131.77,181Z" transform="translate(-46.35 -22.53)"/><g class="cls-51"><g class="cls-7"><path class="cls-52" d="M131.77,181l0,10.28a8.69,8.69,0,0,1-8.42,0l0-10.28a8.69,8.69,0,0,0,8.42,0Z" transform="translate(-46.35 -22.53)"/></g></g></g><path class="cls-53" d="M167.92,153.05c2.32,1.44,2.33,3.81,0,5.25L131.77,181a8.69,8.69,0,0,1-8.42,0L87,158.3c-2.33-1.44-2.34-3.81,0-5.25l36.17-22.66a8.69,8.69,0,0,1,8.42,0Z" transform="translate(-46.35 -22.53)"/></g><g class="cls-7"><path class="cls-54" d="M80.85,155.05l0-4a3.53,3.53,0,0,0,1.92,2.92l0,4A3.54,3.54,0,0,1,80.85,155.05Z" transform="translate(-46.35 -22.53)"/><path class="cls-55" d="M172.08,153.93l-39.86,25,0,4,39.87-25a3.55,3.55,0,0,0,1.9-2.88l0-4A3.5,3.5,0,0,1,172.08,153.93Z" transform="translate(-46.35 -22.53)"/><path class="cls-56" d="M82.81,153.93A3.53,3.53,0,0,1,80.89,151l0,4A3.54,3.54,0,0,0,82.78,158l40.12,25,0-4Z" transform="translate(-46.35 -22.53)"/><g class="cls-7"><path class="cls-5" d="M132.22,178.9l0,4a9.57,9.57,0,0,1-9.28,0l0-4A9.57,9.57,0,0,0,132.22,178.9Z" transform="translate(-46.35 -22.53)"/><g class="cls-57"><g class="cls-7"><path class="cls-58" d="M132.22,178.9l0,4a9.57,9.57,0,0,1-9.28,0l0-4a9.57,9.57,0,0,0,9.28,0Z" transform="translate(-46.35 -22.53)"/></g></g></g><path class="cls-59" d="M172.05,148.13c2.56,1.6,2.58,4.2,0,5.8l-39.86,25a9.57,9.57,0,0,1-9.28,0l-40.13-25c-2.56-1.6-2.57-4.2,0-5.8l39.87-25a9.57,9.57,0,0,1,9.28,0Z" transform="translate(-46.35 -22.53)"/></g><g class="cls-7"><g class="cls-7"><path class="cls-3" d="M148.78,141.66l0,8.21c0-3.35-2-6.7-6.14-9.26-8.15-5.07-21.33-5.07-29.43,0-4,2.53-6,5.82-6,9.13l0-8.21c0-3.3,2-6.6,6-9.12,8.1-5.08,21.28-5.08,29.43,0C146.74,135,148.79,138.31,148.78,141.66Z" transform="translate(-46.35 -22.53)"/><g class="cls-60"><g class="cls-7"><path class="cls-3" d="M148.78,141.66l0,8.21c0-3.35-2-6.7-6.14-9.26a21.06,21.06,0,0,0-2.49-1.32l0-8.21a22.71,22.71,0,0,1,2.49,1.33c4.1,2.55,6.15,5.9,6.14,9.25Z" transform="translate(-46.35 -22.53)"/><path class="cls-3" d="M140.15,131.08l0,8.21a28.57,28.57,0,0,0-8.58-2.28l0-8.2a28.27,28.27,0,0,1,8.58,2.27Z" transform="translate(-46.35 -22.53)"/><path class="cls-3" d="M131.57,128.81l0,8.2a30.77,30.77,0,0,0-16.25,2.45l0-8.21a30.76,30.76,0,0,1,16.25-2.44Z" transform="translate(-46.35 -22.53)"/><path class="cls-3" d="M115.32,131.25l0,8.21a22.35,22.35,0,0,0-2.11,1.15,15.41,15.41,0,0,0-3.87,3.36l0-8.21a15.39,15.39,0,0,1,3.87-3.35,20.35,20.35,0,0,1,2.11-1.16Z" transform="translate(-46.35 -22.53)"/><path class="cls-3" d="M109.34,135.76l0,8.21a9.26,9.26,0,0,0-2.18,5.77l0-8.21a9.32,9.32,0,0,1,2.18-5.77Z" transform="translate(-46.35 -22.53)"/></g></g></g><g class="cls-7"><path class="cls-6" d="M155.27,141.68l0,7.64c0,4.33-2.66,8.66-7.93,12-10.63,6.65-27.91,6.65-38.61,0-5.38-3.35-8.07-7.75-8-12.14l0-7.64c0,4.39,2.67,8.79,8.06,12.14,10.69,6.66,28,6.66,38.6,0C152.62,150.34,155.26,146,155.27,141.68Z" transform="translate(-46.35 -22.53)"/><g class="cls-61"><g class="cls-7"><path class="cls-6" d="M155.27,141.68l0,7.64a12.15,12.15,0,0,1-2.86,7.57l0-7.64a12.13,12.13,0,0,0,2.86-7.57Z" transform="translate(-46.35 -22.53)"/><path class="cls-6" d="M152.41,149.25l0,7.64a20.4,20.4,0,0,1-5.07,4.4,28.3,28.3,0,0,1-2.77,1.51l0-7.63a27.25,27.25,0,0,0,2.77-1.52,20,20,0,0,0,5.07-4.4Z" transform="translate(-46.35 -22.53)"/><path class="cls-4" d="M144.57,155.17l0,7.63A40.34,40.34,0,0,1,123.23,166l0-7.63a40.44,40.44,0,0,0,21.32-3.21Z" transform="translate(-46.35 -22.53)"/><path class="cls-6" d="M123.25,158.38l0,7.63A37.55,37.55,0,0,1,112,163l0-7.64a37.34,37.34,0,0,0,11.25,3Z" transform="translate(-46.35 -22.53)"/><path class="cls-6" d="M112,155.39l0,7.64a29.94,29.94,0,0,1-3.27-1.74c-5.38-3.35-8.07-7.75-8-12.14l0-7.64c0,4.39,2.67,8.79,8.06,12.14a28.9,28.9,0,0,0,3.26,1.74Z" transform="translate(-46.35 -22.53)"/></g></g></g><path class="cls-62" d="M147.21,129.55c10.7,6.65,10.75,17.44.13,24.1s-27.91,6.66-38.6,0-10.76-17.45-.13-24.1S136.52,122.89,147.21,129.55Z" transform="translate(-46.35 -22.53)"/></g><path class="cls-20" d="M146.84,128.3c10.5,6.53,10.55,17.12.12,23.66s-27.38,6.53-37.88,0S98.54,134.83,109,128.3,136.35,121.77,146.84,128.3Z" transform="translate(-46.35 -22.53)"/><path class="cls-63" d="M146.84,126.49c10.5,6.54,10.55,17.13.12,23.66s-27.38,6.53-37.88,0S98.54,133,109,126.49,136.35,120,146.84,126.49Z" transform="translate(-46.35 -22.53)"/><path class="cls-64" d="M146.84,124.69c10.5,6.53,10.55,17.12.12,23.65s-27.38,6.53-37.88,0-10.54-17.12-.12-23.65S136.35,118.15,146.84,124.69Z" transform="translate(-46.35 -22.53)"/><path class="cls-65" d="M146.84,122.88c10.5,6.53,10.55,17.12.12,23.65s-27.38,6.53-37.88,0-10.54-17.12-.12-23.65S136.35,116.35,146.84,122.88Z" transform="translate(-46.35 -22.53)"/><path class="cls-66" d="M146.84,121.07c10.5,6.53,10.55,17.12.12,23.65s-27.38,6.54-37.88,0S98.54,127.6,109,121.07,136.35,114.54,146.84,121.07Z" transform="translate(-46.35 -22.53)"/><path class="cls-67" d="M146.84,119.26c10.5,6.53,10.55,17.12.12,23.66s-27.38,6.53-37.88,0-10.54-17.13-.12-23.66S136.35,112.73,146.84,119.26Z" transform="translate(-46.35 -22.53)"/><path class="cls-68" d="M146.84,117.45c10.5,6.54,10.55,17.13.12,23.66s-27.38,6.53-37.88,0S98.54,124,109,117.45,136.35,110.92,146.84,117.45Z" transform="translate(-46.35 -22.53)"/><g class="cls-7"><g class="cls-7"><path class="cls-3" d="M148.78,119.8l0,8.21c0-3.35-2-6.7-6.14-9.26-8.15-5.07-21.33-5.07-29.43,0-4,2.53-6,5.82-6,9.13l0-8.21c0-3.3,2-6.6,6-9.12,8.1-5.08,21.28-5.08,29.43,0C146.74,113.1,148.79,116.45,148.78,119.8Z" transform="translate(-46.35 -22.53)"/><g class="cls-69"><g class="cls-7"><path class="cls-3" d="M148.78,119.8l0,8.21c0-3.35-2-6.7-6.14-9.26a21.06,21.06,0,0,0-2.49-1.32l0-8.21a22.71,22.71,0,0,1,2.49,1.33c4.1,2.55,6.15,5.9,6.14,9.25Z" transform="translate(-46.35 -22.53)"/><path class="cls-3" d="M140.15,109.22l0,8.21a28.57,28.57,0,0,0-8.58-2.28l0-8.21a28.57,28.57,0,0,1,8.58,2.28Z" transform="translate(-46.35 -22.53)"/><path class="cls-3" d="M131.57,106.94l0,8.21a30.77,30.77,0,0,0-16.25,2.45l0-8.21a30.86,30.86,0,0,1,16.25-2.45Z" transform="translate(-46.35 -22.53)"/><path class="cls-3" d="M115.32,109.39l0,8.21a20.29,20.29,0,0,0-2.11,1.15,15.41,15.41,0,0,0-3.87,3.36l0-8.21a15.39,15.39,0,0,1,3.87-3.35,20.35,20.35,0,0,1,2.11-1.16Z" transform="translate(-46.35 -22.53)"/><path class="cls-3" d="M109.34,113.9l0,8.21a9.26,9.26,0,0,0-2.18,5.77l0-8.21a9.32,9.32,0,0,1,2.18-5.77Z" transform="translate(-46.35 -22.53)"/></g></g></g><g class="cls-7"><path class="cls-6" d="M155.27,119.82l0,7.64c0,4.33-2.66,8.66-7.93,12-10.63,6.66-27.91,6.66-38.61,0-5.38-3.35-8.07-7.75-8-12.14l0-7.64c0,4.39,2.67,8.79,8.06,12.14,10.69,6.66,28,6.66,38.6,0C152.62,128.48,155.26,124.16,155.27,119.82Z" transform="translate(-46.35 -22.53)"/><g class="cls-70"><g class="cls-7"><path class="cls-6" d="M155.27,119.82l0,7.64a12.15,12.15,0,0,1-2.86,7.57l0-7.64a12.13,12.13,0,0,0,2.86-7.57Z" transform="translate(-46.35 -22.53)"/><path class="cls-6" d="M152.41,127.39l0,7.64a20.17,20.17,0,0,1-5.07,4.39,26.4,26.4,0,0,1-2.77,1.52l0-7.64a25.37,25.37,0,0,0,2.77-1.51,20,20,0,0,0,5.07-4.4Z" transform="translate(-46.35 -22.53)"/><path class="cls-4" d="M144.57,133.3l0,7.64a40.34,40.34,0,0,1-21.32,3.21l0-7.63a40.34,40.34,0,0,0,21.32-3.22Z" transform="translate(-46.35 -22.53)"/><path class="cls-6" d="M123.25,136.52l0,7.63a37.55,37.55,0,0,1-11.25-3l0-7.64a37.34,37.34,0,0,0,11.25,3Z" transform="translate(-46.35 -22.53)"/><path class="cls-6" d="M112,133.53l0,7.64a29.94,29.94,0,0,1-3.27-1.74c-5.38-3.35-8.07-7.75-8-12.14l0-7.64c0,4.39,2.67,8.79,8.06,12.14a28.9,28.9,0,0,0,3.26,1.74Z" transform="translate(-46.35 -22.53)"/></g></g></g><path class="cls-62" d="M147.21,107.69c10.7,6.65,10.75,17.44.13,24.1s-27.91,6.66-38.6,0-10.76-17.45-.13-24.1S136.52,101,147.21,107.69Z" transform="translate(-46.35 -22.53)"/></g><path class="cls-20" d="M146.84,106.65c10.5,6.53,10.55,17.12.12,23.65s-27.38,6.54-37.88,0-10.54-17.12-.12-23.65S136.35,100.12,146.84,106.65Z" transform="translate(-46.35 -22.53)"/><path class="cls-63" d="M146.84,104.84c10.5,6.53,10.55,17.12.12,23.65s-27.38,6.54-37.88,0-10.54-17.12-.12-23.65S136.35,98.31,146.84,104.84Z" transform="translate(-46.35 -22.53)"/><path class="cls-64" d="M146.84,103c10.5,6.53,10.55,17.12.12,23.66s-27.38,6.53-37.88,0S98.54,109.56,109,103,136.35,96.5,146.84,103Z" transform="translate(-46.35 -22.53)"/><path class="cls-65" d="M146.84,101.22c10.5,6.54,10.55,17.13.12,23.66s-27.38,6.53-37.88,0-10.54-17.12-.12-23.66S136.35,94.69,146.84,101.22Z" transform="translate(-46.35 -22.53)"/><path class="cls-66" d="M146.84,99.42c10.5,6.53,10.55,17.12.12,23.65s-27.38,6.53-37.88,0S98.54,106,109,99.42,136.35,92.88,146.84,99.42Z" transform="translate(-46.35 -22.53)"/><path class="cls-67" d="M146.84,97.61c10.5,6.53,10.55,17.12.12,23.65s-27.38,6.53-37.88,0S98.54,104.14,109,97.61,136.35,91.08,146.84,97.61Z" transform="translate(-46.35 -22.53)"/><path class="cls-68" d="M146.84,95.8c10.5,6.53,10.55,17.12.12,23.65s-27.38,6.54-37.88,0S98.54,102.33,109,95.8,136.35,89.27,146.84,95.8Z" transform="translate(-46.35 -22.53)"/><g class="cls-7"><g class="cls-7"><path class="cls-3" d="M148.78,98.08l0,8.2c0-3.35-2-6.7-6.14-9.25C134.47,92,121.29,92,113.19,97c-4,2.52-6,5.82-6,9.12l0-8.2c0-3.31,2-6.61,6-9.13,8.1-5.07,21.28-5.07,29.43,0C146.74,91.38,148.79,94.73,148.78,98.08Z" transform="translate(-46.35 -22.53)"/><g class="cls-71"><g class="cls-7"><path class="cls-3" d="M148.78,98.08l0,8.2c0-3.35-2-6.7-6.14-9.25a22.71,22.71,0,0,0-2.49-1.33l0-8.2a21.06,21.06,0,0,1,2.49,1.32c4.1,2.56,6.15,5.91,6.14,9.26Z" transform="translate(-46.35 -22.53)"/><path class="cls-3" d="M140.15,87.5l0,8.2a28.57,28.57,0,0,0-8.58-2.28l0-8.2a28.57,28.57,0,0,1,8.58,2.28Z" transform="translate(-46.35 -22.53)"/><path class="cls-3" d="M131.57,85.22l0,8.2a30.86,30.86,0,0,0-16.25,2.45l0-8.2a30.77,30.77,0,0,1,16.25-2.45Z" transform="translate(-46.35 -22.53)"/><path class="cls-3" d="M115.32,87.67l0,8.2A20.35,20.35,0,0,0,113.19,97a15.39,15.39,0,0,0-3.87,3.35l0-8.2a15.41,15.41,0,0,1,3.87-3.36,20.29,20.29,0,0,1,2.11-1.15Z" transform="translate(-46.35 -22.53)"/><path class="cls-3" d="M109.34,92.18l0,8.2a9.26,9.26,0,0,0-2.18,5.77l0-8.2a9.32,9.32,0,0,1,2.18-5.77Z" transform="translate(-46.35 -22.53)"/></g></g></g><g class="cls-7"><path class="cls-6" d="M155.27,98.1l0,7.63c0,4.33-2.66,8.66-7.93,12-10.63,6.66-27.91,6.66-38.61,0-5.38-3.35-8.07-7.75-8-12.14l0-7.63c0,4.39,2.67,8.79,8.06,12.13,10.69,6.66,28,6.66,38.6,0C152.62,106.76,155.26,102.43,155.27,98.1Z" transform="translate(-46.35 -22.53)"/><g class="cls-72"><g class="cls-7"><path class="cls-6" d="M155.27,98.1l0,7.63a12.13,12.13,0,0,1-2.86,7.57l0-7.63a12.15,12.15,0,0,0,2.86-7.57Z" transform="translate(-46.35 -22.53)"/><path class="cls-6" d="M152.41,105.67l0,7.63a20,20,0,0,1-5.07,4.4,28.3,28.3,0,0,1-2.77,1.51l0-7.63a27.25,27.25,0,0,0,2.77-1.52,20.17,20.17,0,0,0,5.07-4.39Z" transform="translate(-46.35 -22.53)"/><path class="cls-4" d="M144.57,111.58l0,7.63a40.44,40.44,0,0,1-21.32,3.22l0-7.64a40.34,40.34,0,0,0,21.32-3.21Z" transform="translate(-46.35 -22.53)"/><path class="cls-6" d="M123.25,114.79l0,7.64a37.56,37.56,0,0,1-11.25-3l0-7.63a37.63,37.63,0,0,0,11.25,3Z" transform="translate(-46.35 -22.53)"/><path class="cls-6" d="M112,111.81l0,7.63a29.94,29.94,0,0,1-3.27-1.74c-5.38-3.35-8.07-7.75-8-12.14l0-7.63c0,4.39,2.67,8.79,8.06,12.13a27.43,27.43,0,0,0,3.26,1.75Z" transform="translate(-46.35 -22.53)"/></g></g></g><path class="cls-62" d="M147.21,86c10.7,6.66,10.75,17.45.13,24.1s-27.91,6.66-38.6,0S98,92.62,108.61,86,136.52,79.3,147.21,86Z" transform="translate(-46.35 -22.53)"/></g><g class="cls-7"><path class="cls-3" d="M64.14,23,94.71,42.1c-1-.65-2.49-.56-4.08.43L60.06,23.38C61.66,22.39,63.1,22.3,64.14,23Z" transform="translate(-46.35 -22.53)"/><g class="cls-73"><g class="cls-7"><path class="cls-3" d="M90.63,42.53,60.06,23.38a6,6,0,0,1,1.2-.59L91.83,41.94a6,6,0,0,0-1.2.59Z" transform="translate(-46.35 -22.53)"/><path class="cls-3" d="M91.83,41.94,61.26,22.79a3.81,3.81,0,0,1,1.68-.24L93.5,41.7a3.75,3.75,0,0,0-1.67.24Z" transform="translate(-46.35 -22.53)"/><path class="cls-3" d="M93.5,41.7,62.94,22.55a2.71,2.71,0,0,1,1.2.4L94.71,42.1a2.63,2.63,0,0,0-1.21-.4Z" transform="translate(-46.35 -22.53)"/></g></g><path class="cls-3" d="M86.58,57.17,56,38c-1-.65-1.67-2-1.67-4,0-3.92,2.55-8.7,5.71-10.67L90.63,42.53c-3.17,2-5.73,6.75-5.72,10.67C84.92,55.15,85.56,56.52,86.58,57.17Z" transform="translate(-46.35 -22.53)"/><g class="cls-74"><g class="cls-7"><path class="cls-3" d="M86.58,57.17,56,38c-1-.65-1.67-2-1.67-4a8.42,8.42,0,0,1,0-1L85,52.21c0,.34,0,.67,0,1,0,1.95.65,3.32,1.67,4Z" transform="translate(-46.35 -22.53)"/><path class="cls-3" d="M85,52.21,54.4,33.06a12.16,12.16,0,0,1,.51-2.45L85.47,49.76A12.88,12.88,0,0,0,85,52.21Z" transform="translate(-46.35 -22.53)"/><path class="cls-75" d="M85.47,49.76,54.91,30.61a14.81,14.81,0,0,1,1.36-3.08L86.83,46.68a15.36,15.36,0,0,0-1.36,3.08Z" transform="translate(-46.35 -22.53)"/><path class="cls-75" d="M86.83,46.68,56.27,27.53A13.18,13.18,0,0,1,59,24.17L89.55,43.32a13.39,13.39,0,0,0-2.72,3.36Z" transform="translate(-46.35 -22.53)"/><path class="cls-3" d="M89.55,43.32,59,24.17a9.48,9.48,0,0,1,1.07-.79L90.63,42.53a8.75,8.75,0,0,0-1.08.79Z" transform="translate(-46.35 -22.53)"/></g></g><ellipse class="cls-76" cx="90.65" cy="49.63" rx="8.57" ry="4.76" transform="translate(-40.72 85.86) rotate(-63.35)"/></g><g class="cls-7"><g class="cls-7"><path class="cls-4" d="M93.16,45.25l8.92,5.59a2.18,2.18,0,0,0-2.35.25L90.81,45.5A2.2,2.2,0,0,1,93.16,45.25Z" transform="translate(-46.35 -22.53)"/><g class="cls-77"><g class="cls-7"><path class="cls-78" d="M99.73,51.09,90.81,45.5a3.66,3.66,0,0,1,.69-.34l8.92,5.59a3.15,3.15,0,0,0-.69.34Z" transform="translate(-46.35 -22.53)"/><path class="cls-78" d="M100.42,50.75,91.5,45.16a2.29,2.29,0,0,1,1-.14l8.92,5.59a2.12,2.12,0,0,0-1,.14Z" transform="translate(-46.35 -22.53)"/><path class="cls-78" d="M101.39,50.61,92.47,45a1.57,1.57,0,0,1,.69.23l8.92,5.59a1.53,1.53,0,0,0-.69-.23Z" transform="translate(-46.35 -22.53)"/></g></g></g><g class="cls-7"><path class="cls-4" d="M97.4,59.53l-8.92-5.59a2.56,2.56,0,0,1-1-2.28,8,8,0,0,1,3.29-6.16l8.92,5.59a7.94,7.94,0,0,0-3.3,6.15A2.56,2.56,0,0,0,97.4,59.53Z" transform="translate(-46.35 -22.53)"/><g class="cls-79"><g class="cls-7"><path class="cls-78" d="M97.4,59.53l-8.92-5.59a2.56,2.56,0,0,1-1-2.28c0-.19,0-.38,0-.57l8.92,5.58a5.44,5.44,0,0,0,0,.57,2.56,2.56,0,0,0,1,2.29Z" transform="translate(-46.35 -22.53)"/><path class="cls-78" d="M96.46,56.67l-8.92-5.58a7.19,7.19,0,0,1,.3-1.42l8.91,5.59a8,8,0,0,0-.29,1.41Z" transform="translate(-46.35 -22.53)"/><path class="cls-80" d="M96.75,55.26l-8.91-5.59a9.34,9.34,0,0,1,.78-1.78l8.92,5.59a8.33,8.33,0,0,0-.79,1.78Z" transform="translate(-46.35 -22.53)"/><path class="cls-4" d="M97.54,53.48l-8.92-5.59A7.75,7.75,0,0,1,90.19,46l8.92,5.58a7.38,7.38,0,0,0-1.57,1.94Z" transform="translate(-46.35 -22.53)"/><path class="cls-80" d="M99.11,51.54,90.19,46a5.22,5.22,0,0,1,.62-.46l8.92,5.59a4.44,4.44,0,0,0-.62.45Z" transform="translate(-46.35 -22.53)"/></g></g></g><path class="cls-4" d="M99.73,51.09c1.82-1.14,3.31-.23,3.31,2a8,8,0,0,1-3.29,6.16c-1.83,1.14-3.31.22-3.32-2A7.94,7.94,0,0,1,99.73,51.09Z" transform="translate(-46.35 -22.53)"/></g><g class="cls-7"><g class="cls-7"><path class="cls-4" d="M155.89,65.14l0,11.11c0-4.53-2.77-9.07-8.32-12.53-11-6.88-28.9-6.88-39.87,0-5.45,3.41-8.18,7.88-8.19,12.36l0-11.12c0-4.47,2.74-8.94,8.19-12.36,11-6.87,28.82-6.87,39.87,0C153.12,56.06,155.9,60.6,155.89,65.14Z" transform="translate(-46.35 -22.53)"/><g class="cls-81"><g class="cls-7"><path class="cls-78" d="M155.89,65.14l0,11.11c0-4.53-2.77-9.07-8.32-12.53a31,31,0,0,0-3.38-1.8l0-11.11a29.34,29.34,0,0,1,3.38,1.79c5.55,3.46,8.33,8,8.32,12.54Z" transform="translate(-46.35 -22.53)"/><path class="cls-78" d="M144.19,50.81l0,11.11a38.39,38.39,0,0,0-11.61-3.08l0-11.12a38.67,38.67,0,0,1,11.62,3.09Z" transform="translate(-46.35 -22.53)"/><path class="cls-82" d="M132.57,47.72l0,11.12a41.74,41.74,0,0,0-22,3.31l0-11.11a41.72,41.72,0,0,1,22-3.32Z" transform="translate(-46.35 -22.53)"/><path class="cls-78" d="M110.55,51l0,11.11a30.07,30.07,0,0,0-2.85,1.57,20.8,20.8,0,0,0-5.24,4.54l0-11.12a21,21,0,0,1,5.24-4.54A26.9,26.9,0,0,1,110.55,51Z" transform="translate(-46.35 -22.53)"/><path class="cls-78" d="M102.46,57.14l0,11.12a12.5,12.5,0,0,0-3,7.82l0-11.12a12.52,12.52,0,0,1,2.95-7.82Z" transform="translate(-46.35 -22.53)"/></g></g></g><g class="cls-7"><path class="cls-4" d="M164.67,65.16l0,11.12c0,5.87-3.6,11.73-10.75,16.21-14.39,9-37.81,9-52.29,0C94.32,88,90.67,82,90.69,76.05l0-11.11c0,5.94,3.62,11.9,10.92,16.44,14.48,9,37.9,9,52.29,0C161.08,76.9,164.66,71,164.67,65.16Z" transform="translate(-46.35 -22.53)"/><g class="cls-83"><g class="cls-7"><path class="cls-82" d="M164.67,65.16l0,11.12a16.48,16.48,0,0,1-3.88,10.26l0-11.12a16.39,16.39,0,0,0,3.87-10.26Z" transform="translate(-46.35 -22.53)"/><path class="cls-82" d="M160.8,75.42l0,11.12a27.15,27.15,0,0,1-6.87,5.95,38.45,38.45,0,0,1-3.74,2.06l0-11.12a37.41,37.41,0,0,0,3.75-2.05,27.18,27.18,0,0,0,6.87-6Z" transform="translate(-46.35 -22.53)"/><path class="cls-4" d="M150.18,83.43l0,11.12c-8.4,4-18.93,5.46-28.89,4.35l0-11.12c10,1.11,20.49-.34,28.88-4.35Z" transform="translate(-46.35 -22.53)"/><path class="cls-82" d="M121.3,87.78l0,11.12A50.69,50.69,0,0,1,106,94.85l0-11.11a51,51,0,0,0,15.24,4Z" transform="translate(-46.35 -22.53)"/><path class="cls-82" d="M106.06,83.74l0,11.11a37.18,37.18,0,0,1-4.42-2.36C94.32,88,90.67,82,90.69,76.05l0-11.11c0,5.94,3.62,11.9,10.92,16.44a38.69,38.69,0,0,0,4.42,2.36Z" transform="translate(-46.35 -22.53)"/></g></g></g><path class="cls-25" d="M153.76,48.72c14.49,9,14.56,23.64.17,32.66s-37.81,9-52.29,0-14.57-23.64-.18-32.66S139.27,39.71,153.76,48.72ZM107.83,77.5c11,6.87,28.89,6.87,39.87,0s10.91-18-.13-24.9-28.9-6.87-39.87,0-10.92,18,.13,24.9Z" transform="translate(-46.35 -22.53)"/></g><path class="cls-84" d="M155.71,67.07c-.68,3.81-3.35,7.51-8,10.43-11,6.87-28.82,6.87-39.86,0-4.74-3-7.46-6.69-8.15-10.54.68-3.81,3.35-7.5,8-10.42,11-6.87,28.82-6.87,39.87,0C152.31,59.49,155,63.23,155.71,67.07Z" transform="translate(-46.35 -22.53)"/><path class="cls-84" d="M148.46,57.12c1,8.39-8.5,16.13-16.82,18.25-7.94,2.14-14.11-2.79-20.46-7.5a13.77,13.77,0,0,0-9.94-2.15,3,3,0,0,0-1.44.68l-.12.56c.69,3.85,3.41,7.59,8.15,10.54,11,6.87,28.89,6.87,39.86,0,4.67-2.92,7.34-6.62,8-10.43C155.07,63.47,152.65,60,148.46,57.12Z" transform="translate(-46.35 -22.53)"/><ellipse class="cls-84" cx="71.89" cy="37.37" rx="9.3" ry="5.79"/><g class="cls-85"><polygon class="cls-86" points="164.89 93.75 164.89 139.17 111.37 172.53 111.37 127.11 164.89 93.75"/><polygon class="cls-87" points="111.37 172.53 108.84 170.95 108.84 125.52 111.37 127.11 111.37 172.53"/><polygon class="cls-88" points="108.84 125.52 111.37 127.11 164.89 93.75 162.37 92.16 108.84 125.52"/></g><path class="cls-89" d="M185.54,156c0-.4-.26-.56-.58-.36a1.4,1.4,0,0,0-.58,1.08c0,.4.26.56.58.36A1.4,1.4,0,0,0,185.54,156Z" transform="translate(-46.35 -22.53)"/><path class="cls-90" d="M162.65,174c0-.39-.25-.55-.57-.35a1.38,1.38,0,0,0-.58,1.07c0,.4.26.56.58.36A1.39,1.39,0,0,0,162.65,174Z" transform="translate(-46.35 -22.53)"/><path class="cls-91" d="M162.65,180.36c0-.39-.25-.55-.57-.35a1.38,1.38,0,0,0-.58,1.07c0,.4.26.56.58.36A1.39,1.39,0,0,0,162.65,180.36Z" transform="translate(-46.35 -22.53)"/><path class="cls-91" d="M166.67,171.73c0-.4-.25-.56-.57-.36a1.4,1.4,0,0,0-.58,1.08c0,.4.26.56.58.36A1.39,1.39,0,0,0,166.67,171.73Z" transform="translate(-46.35 -22.53)"/><path class="cls-91" d="M171,165.49c0-.4-.26-.56-.58-.36a1.4,1.4,0,0,0-.58,1.08c0,.39.26.55.58.36A1.4,1.4,0,0,0,171,165.49Z" transform="translate(-46.35 -22.53)"/><path class="cls-91" d="M181.62,159.56c0-.39-.26-.56-.58-.36a1.39,1.39,0,0,0-.57,1.08c0,.4.25.56.57.36A1.4,1.4,0,0,0,181.62,159.56Z" transform="translate(-46.35 -22.53)"/><path class="cls-91" d="M177.88,151.43c0-.4-.26-.56-.58-.36a1.38,1.38,0,0,0-.58,1.07c0,.4.26.56.58.36A1.4,1.4,0,0,0,177.88,151.43Z" transform="translate(-46.35 -22.53)"/><g class="cls-92"><path class="cls-93" d="M189.7,154.88c0-.4-.26-.56-.58-.36a1.4,1.4,0,0,0-.58,1.08c0,.39.26.55.58.36A1.4,1.4,0,0,0,189.7,154.88Z" transform="translate(-46.35 -22.53)"/></g><path class="cls-89" d="M190.48,164.48c0-.4-.26-.56-.58-.36a1.42,1.42,0,0,0-.57,1.08c0,.4.26.56.57.36A1.4,1.4,0,0,0,190.48,164.48Z" transform="translate(-46.35 -22.53)"/><path class="cls-89" d="M176.19,175.3c0-.4-.26-.56-.58-.36A1.4,1.4,0,0,0,175,176c0,.4.26.56.58.36A1.4,1.4,0,0,0,176.19,175.3Z" transform="translate(-46.35 -22.53)"/><path class="cls-89" d="M162.6,185.55c0-.4-.26-.56-.58-.36a1.39,1.39,0,0,0-.57,1.08c0,.39.25.55.57.35A1.38,1.38,0,0,0,162.6,185.55Z" transform="translate(-46.35 -22.53)"/><path class="cls-94" d="M162.65,169.25c0-.39-.25-.55-.57-.36a1.42,1.42,0,0,0-.58,1.08c0,.4.26.56.58.36A1.39,1.39,0,0,0,162.65,169.25Z" transform="translate(-46.35 -22.53)"/><path class="cls-94" d="M167.83,179.53c0-.4-.26-.56-.58-.36a1.4,1.4,0,0,0-.58,1.08c0,.39.26.55.58.36A1.42,1.42,0,0,0,167.83,179.53Z" transform="translate(-46.35 -22.53)"/><path class="cls-94" d="M173.18,163.72c0-.39-.26-.55-.58-.36a1.42,1.42,0,0,0-.58,1.08c0,.4.26.56.58.36A1.4,1.4,0,0,0,173.18,163.72Z" transform="translate(-46.35 -22.53)"/><path class="cls-94" d="M183.35,169.15c0-.4-.26-.56-.57-.36a1.4,1.4,0,0,0-.58,1.07c0,.4.26.56.58.36A1.4,1.4,0,0,0,183.35,169.15Z" transform="translate(-46.35 -22.53)"/><g class="cls-95"><polygon class="cls-96" points="114.19 166.57 114.19 131.36 114.63 131.36 114.63 165.77 160.17 137.42 160.39 137.82 114.19 166.57"/></g><g class="cls-95"><path class="cls-97" d="M162.24,185.77h-.11l-.25.16c0-.11,0-.45,5.53-11.76l.1-.22,8.09,1.6L185,155.94l5,8.66L200.38,149l1-15.14.37-.19-1,15.36-.07.11-10.83,16.2-4.92-8.56-9.25,19.33-8.09-1.6C165.55,178.69,162.39,185.24,162.24,185.77Z" transform="translate(-46.35 -22.53)"/></g><g class="cls-95"><path class="cls-98" d="M167.25,180.6c-.19.13-.61-.36-5.23-10.82l.35-.4c1.66,3.76,4.13,9.24,4.83,10.49.74-2.71,4.43-13.47,5.23-15.81l.12-.34,10.11,5.48,8.23-24.71,10.33,10.25-.3.47-10-9.9-8.18,24.59-10.12-5.49c-2.11,6.14-5.15,15.18-5.2,15.82v.19l-.16.16Z" transform="translate(-46.35 -22.53)"/></g><g class="cls-95"><path class="cls-99" d="M187.06,168.15,185,153.78l-2.84-2.22-4.77,10.6-7.84-4.9c-2.83,6.53-7,16.21-7.09,16.91l-.37.21c0-.63,5.1-12.46,7.29-17.51l.13-.3,7.85,4.9,4.78-10.63,3.22,2.51,1.91,13.32,5.28-14.58,12-12.68.12.36L192.8,152.31Z" transform="translate(-46.35 -22.53)"/></g><g class="cls-95"><polygon class="cls-93" points="153.08 137.58 142.69 133.05 134.43 137.81 130.88 129.67 124.08 143.43 119.94 149.6 115.92 158.27 115.63 158.16 119.7 149.39 123.84 143.21 131 128.74 134.68 137.2 142.84 132.5 142.89 132.52 153.03 136.94 161.29 118.58 161.58 118.68 153.08 137.58"/></g><g class="cls-95"><path class="cls-93" d="M200,159.38c0-.4-.25-.56-.57-.36a1.4,1.4,0,0,0-.58,1.08c0,.4.26.56.58.36A1.39,1.39,0,0,0,200,159.38Z" transform="translate(-46.35 -22.53)"/></g><g class="cls-95"><path class="cls-93" d="M208.28,140.86c0-.4-.26-.56-.58-.36a1.4,1.4,0,0,0-.58,1.08c0,.39.26.56.58.36A1.4,1.4,0,0,0,208.28,140.86Z" transform="translate(-46.35 -22.53)"/></g><g class="cls-95"><path class="cls-97" d="M201,148.89c0-.4-.26-.56-.58-.36a1.4,1.4,0,0,0-.58,1.08c0,.4.26.56.58.36A1.4,1.4,0,0,0,201,148.89Z" transform="translate(-46.35 -22.53)"/></g><g class="cls-95"><path class="cls-97" d="M202.16,133.77c0-.39-.26-.55-.57-.36a1.42,1.42,0,0,0-.58,1.08c0,.4.26.56.58.36A1.42,1.42,0,0,0,202.16,133.77Z" transform="translate(-46.35 -22.53)"/></g><g class="cls-95"><path class="cls-98" d="M201.41,154.42c0-.4-.26-.56-.58-.36a1.42,1.42,0,0,0-.57,1.08c0,.39.26.55.57.36A1.42,1.42,0,0,0,201.41,154.42Z" transform="translate(-46.35 -22.53)"/></g><g class="cls-95"><path class="cls-98" d="M191.45,144.75c0-.4-.26-.56-.58-.36a1.4,1.4,0,0,0-.58,1.08c0,.39.26.55.58.36A1.42,1.42,0,0,0,191.45,144.75Z" transform="translate(-46.35 -22.53)"/></g><path class="cls-90" d="M178,161.13c0-.4-.26-.56-.58-.36a1.39,1.39,0,0,0-.57,1.08c0,.39.25.55.57.36A1.4,1.4,0,0,0,178,161.13Z" transform="translate(-46.35 -22.53)"/><path class="cls-90" d="M170.17,156.83c0-.39-.25-.55-.57-.35a1.38,1.38,0,0,0-.58,1.07c0,.4.26.56.58.36A1.39,1.39,0,0,0,170.17,156.83Z" transform="translate(-46.35 -22.53)"/><path class="cls-90" d="M182.78,151c0-.39-.26-.56-.58-.36a1.4,1.4,0,0,0-.58,1.08c0,.4.26.56.58.36A1.4,1.4,0,0,0,182.78,151Z" transform="translate(-46.35 -22.53)"/><path class="cls-90" d="M185.7,153c0-.39-.25-.56-.57-.36a1.4,1.4,0,0,0-.58,1.08c0,.4.26.56.58.36A1.39,1.39,0,0,0,185.7,153Z" transform="translate(-46.35 -22.53)"/><path class="cls-90" d="M187.82,167c0-.4-.25-.56-.57-.36a1.4,1.4,0,0,0-.58,1.08c0,.4.26.56.58.36A1.39,1.39,0,0,0,187.82,167Z" transform="translate(-46.35 -22.53)"/><g class="cls-92"><path class="cls-99" d="M193.3,151.77c0-.4-.26-.56-.58-.36a1.4,1.4,0,0,0-.58,1.08c0,.39.26.55.58.35A1.38,1.38,0,0,0,193.3,151.77Z" transform="translate(-46.35 -22.53)"/></g><path class="cls-90" d="M166.44,147.48c-.91-.57-2.4.36-3.31,2.07s-.92,3.55,0,4.12,2.4-.35,3.31-2.06S167.36,148.05,166.44,147.48Z" transform="translate(-46.35 -22.53)"/><path class="cls-91" d="M172.7,143.59c-.92-.57-2.4.35-3.32,2.06s-.91,3.56,0,4.13,2.4-.36,3.32-2.07S173.61,144.16,172.7,143.59Z" transform="translate(-46.35 -22.53)"/><path class="cls-94" d="M179,139.69c-.92-.57-2.4.36-3.32,2.07s-.91,3.55,0,4.12,2.4-.35,3.32-2.06S179.87,140.26,179,139.69Z" transform="translate(-46.35 -22.53)"/><path class="cls-89" d="M185.21,135.8c-.91-.57-2.4.35-3.31,2.06s-.92,3.56,0,4.13,2.4-.36,3.31-2.07S186.13,136.37,185.21,135.8Z" transform="translate(-46.35 -22.53)"/><polygon class="cls-100" points="161.78 104.8 143.21 116.36 143.21 110.54 161.78 98.98 161.78 104.8"/><path class="cls-27" d="M195.12,194.7c-.26,0-.27-4.27-.84-5.45-.93-1.9-2.42-5.93-3.11-7.37a10.17,10.17,0,0,1,0-4.73l4.1-.63c.08,1.36-1,3-.83,4.06,1.27,1.77,1.45,4.75,1.67,6.72a21.64,21.64,0,0,1,.11,2.21C196,190,195.83,194.81,195.12,194.7Z" transform="translate(-46.35 -22.53)"/><path class="cls-101" d="M191.17,181.88a10.17,10.17,0,0,1,0-4.73l4.1-.63a10.87,10.87,0,0,1-.74,3c-2.42.43-3,3.17-1.88,5.33,1.22,2.42,2.89,5.55,2.19,8.28a15.44,15.44,0,0,0-.6-3.89C193.35,187.35,191.86,183.32,191.17,181.88Z" transform="translate(-46.35 -22.53)"/><path class="cls-23" d="M187.54,192.37c.56.23,1.09.28,1.21-.53.51-3.51-.24-4.29-.52-7.81,0-.39-.75-3.23-1.15-6.65l5.62-.29a22.88,22.88,0,0,1-1.07,4.68c.89,3.35-.52,8.95-.86,10.63,0,.24.55.95.1,1.52-.18.22-5.47-.51-4.72-1.46C186.35,192.2,187,192.18,187.54,192.37Z" transform="translate(-46.35 -22.53)"/><path class="cls-27" d="M186.15,192.46c.2-.26.89-.28,1.39-.09s1.09.28,1.21-.53c.51-3.51-.24-4.29-.52-7.81,0-.39-.75-3.23-1.15-6.65l5.62-.29a24.76,24.76,0,0,1-.62,3.21c-1.12.4-2.3.3-3.54.62-.17,0-.25.36-.17.54a74,74,0,0,1,1,11.2c0,.27.5,1,.83.71a2.28,2.28,0,0,0,.63-.73c.13.33.38.85,0,1.28C190.69,194.14,185.4,193.41,186.15,192.46Z" transform="translate(-46.35 -22.53)"/><path class="cls-102" d="M191.21,194.37s0,0,0,0a.87.87,0,0,1-.53.65,1.19,1.19,0,0,1-.32,0,1.34,1.34,0,0,1-.35,0,2.07,2.07,0,0,1-.34-.15,2.69,2.69,0,0,1-.33-.26,1.7,1.7,0,0,0-1-.3,3.09,3.09,0,0,1-1.09-.14c-.16-.07-1.28-.49-1.53-1.11a1.14,1.14,0,0,1,0-.75.71.71,0,0,1,.6-.47,1.76,1.76,0,0,1,.75.11c.38.11.66.23,1,.34a1.1,1.1,0,0,0,.44.07c-.16.22-.92.09-1.35.14a.23.23,0,0,0-.18.07.3.3,0,0,0,.07.36,1,1,0,0,0,.32.22,4.75,4.75,0,0,0,2,.35c.23,0,1.45.22,1.53-.81a1.23,1.23,0,0,1,.32.76A2.37,2.37,0,0,1,191.21,194.37Z" transform="translate(-46.35 -22.53)"/><path class="cls-24" d="M195.25,163.23h0Z" transform="translate(-46.35 -22.53)"/><path class="cls-102" d="M185.84,176.34c.11-1.78.41-3.54.48-5.32a12.74,12.74,0,0,1,1.2-5.77c.45-1.07.87-2,2-2.27,1.39-.31,3.34-.78,4.65.05a5.43,5.43,0,0,1,1.47,2c1.5,2.68,1.3,6,1.33,10.51a3.45,3.45,0,0,1-1.46,3.41,5.92,5.92,0,0,1-1.73.42c-3.6,1-4.89.37-6.53-.51A2.18,2.18,0,0,1,185.84,176.34Z" transform="translate(-46.35 -22.53)"/><path class="cls-4" d="M187.88,156.87c-1.41-4.31-.46-3.71,2.32-5.4l3-.57c2.79-.41,3.39,2.69,3,4.54a35.6,35.6,0,0,0-1,8.74c.1,1.82-5.83,2.2-7.28.64C187.44,164.28,188,157.36,187.88,156.87Z" transform="translate(-46.35 -22.53)"/><path class="cls-103" d="M198.63,157.08l-.17,0A.32.32,0,0,1,198.63,157.08Z" transform="translate(-46.35 -22.53)"/><path class="cls-23" d="M187.78,145.52c0,5.8,1.76,4.16,2.07,5.21,0,.15,0,.14-.08,1.25,0,.76,3.24.38,3.1-.69l-.23-1.61a20.39,20.39,0,0,1-.16-2.73c.26-2-.95-2.12-2-3S187.78,143.43,187.78,145.52Z" transform="translate(-46.35 -22.53)"/><path class="cls-104" d="M192.94,149.51a2,2,0,0,1-.79.37,3.43,3.43,0,0,1-1-.06,2.52,2.52,0,0,1-.95-.34c-.63-.51-.6-1.2-.8-1.55-.33-.6-1-.48-1.48-1.33a3.83,3.83,0,0,1-.4-1.56,4.35,4.35,0,0,1,.12-1.26,2,2,0,0,1,.58-.73,3.7,3.7,0,0,1,4.47-.6,4,4,0,0,1,1.9,2.27.31.31,0,0,1,0,.13C195.27,146.92,193,149.43,192.94,149.51Z" transform="translate(-46.35 -22.53)"/><path class="cls-105" d="M188.26,143.05a3.7,3.7,0,0,1,4.47-.6,4,4,0,0,1,1.9,2.27.31.31,0,0,1,0,.13,3.16,3.16,0,0,1-.07,1.85,1.14,1.14,0,0,1-1.06-.23c-1.7-1.4-3.48-2.8-5.66-2.36l-.28.1a1.88,1.88,0,0,1,.09-.43A2,2,0,0,1,188.26,143.05Z" transform="translate(-46.35 -22.53)"/><path class="cls-106" d="M193.53,146.47a1.14,1.14,0,0,0,1.06.23,8,8,0,0,1-1.65,2.81,2,2,0,0,1-.79.37,3.43,3.43,0,0,1-1-.06,2.52,2.52,0,0,1-.95-.34c-.63-.51-.6-1.2-.8-1.55-.33-.6-1-.48-1.48-1.33a3.83,3.83,0,0,1-.4-1.56,6.23,6.23,0,0,1,0-.83l.28-.1C190.05,143.67,191.83,145.07,193.53,146.47Z" transform="translate(-46.35 -22.53)"/><path class="cls-23" d="M189.87,148.17c-.26.44-.53.67-.8.56s-.35-.47-.18-1,.66-.74.93-.63S190.16,147.68,189.87,148.17Z" transform="translate(-46.35 -22.53)"/><path class="cls-27" d="M189.62,148c-.11.19-.23.29-.35.24s-.15-.21-.08-.42.29-.32.41-.27S189.75,147.82,189.62,148Z" transform="translate(-46.35 -22.53)"/><path class="cls-105" d="M193.56,143.9c.31-.71,1.38.06,1.86.74a8.18,8.18,0,0,1,1.16,3.57,12.86,12.86,0,0,1,0,3.56,17.13,17.13,0,0,0-.49,2.49,3.12,3.12,0,0,0,.14,1.33A2.17,2.17,0,0,0,198,157c-.26-.1-.53.12-.79.21a5.22,5.22,0,0,1-1.29.23,3.31,3.31,0,0,1-1.4,0,4.18,4.18,0,0,1-1.62-1.61,5,5,0,0,1-.66-3,4.51,4.51,0,0,1,.54-2.37,6.74,6.74,0,0,0,.91-2.39,9.94,9.94,0,0,0,.22-1.19c0-.25,0-.49,0-.74C194,145.49,193.22,144.69,193.56,143.9Z" transform="translate(-46.35 -22.53)"/><path class="cls-107" d="M198,157l-.16,0A.47.47,0,0,1,198,157Z" transform="translate(-46.35 -22.53)"/><path class="cls-106" d="M192.21,152.9a4.51,4.51,0,0,1,.54-2.37,6.74,6.74,0,0,0,.91-2.39,9.94,9.94,0,0,0,.22-1.19c0-.25,0-.49,0-.74.08-.72-.67-1.52-.33-2.31h0c1.41,1.25.94,3.85.46,5.3-.83,2.69-1.49,6.28,1.08,7.62a4.07,4.07,0,0,0,2.28.34l-.2.08a5.22,5.22,0,0,1-1.29.23,3.31,3.31,0,0,1-1.4,0,4.18,4.18,0,0,1-1.62-1.61A5,5,0,0,1,192.21,152.9Z" transform="translate(-46.35 -22.53)"/><path class="cls-102" d="M194.9,193.33a5,5,0,0,0,.27,1.74,1,1,0,0,0,.29.34c.14.13.34-.11.46-.26,1.69-2.05.8-2.75,1-3.55.08-.4.42-.74.38-1.16a1.33,1.33,0,0,0-.23-.64,1,1,0,0,0-1.1-.49c-.35.08-.61.63-.7.9a3.88,3.88,0,0,0-.12,1.48,14.21,14.21,0,0,1-.19,1.46C194.91,193.21,194.91,193.27,194.9,193.33Z" transform="translate(-46.35 -22.53)"/><path class="cls-108" d="M195.2,194.78a2,2,0,0,0,0,.25,1,1,0,0,0,.28.35c.15.12.35-.12.47-.27,1.68-2,.8-2.75,1-3.54.08-.41.42-.75.38-1.16a1.36,1.36,0,0,0-.23-.65,1.23,1.23,0,0,0-.37-.08.6.6,0,0,0-.53.18.71.71,0,0,0-.13.4c0,.44.1.89.06,1.33a3.76,3.76,0,0,1-.17.66l-.4,1.27c-.08.22-.15.45-.23.67a1.6,1.6,0,0,0-.1.31A2.62,2.62,0,0,0,195.2,194.78Z" transform="translate(-46.35 -22.53)"/><path class="cls-27" d="M179.83,146.27l-.54-1.57-.72-1.08c-.08-.1-.43-.61-.76-.56s-1.44.35-1.27.78c.12.28,1.3,2.2,1.3,2.2a2.29,2.29,0,0,1,.86.84l.12.71Z" transform="translate(-46.35 -22.53)"/><path class="cls-25" d="M183,150.13a1.5,1.5,0,0,0-2.16.38h0a1.72,1.72,0,0,0,.66,2.23l5.54,3.69a1.87,1.87,0,0,0,2.59-.87h0a2.14,2.14,0,0,0-.82-2.78Z" transform="translate(-46.35 -22.53)"/><path class="cls-25" d="M179.91,145.92c-.46-.67-2.21-.09-1.85.5l2.29,5.34a1.62,1.62,0,0,0,2.27.75h0c.82-.46.94-1.06.5-1.94Z" transform="translate(-46.35 -22.53)"/><path class="cls-31" d="M84,160.88l2.83,4.25c-.74.74-1.81,1.62-2.58,2.34l-2.83-3.83a2.45,2.45,0,0,1-.25-2.39A1.75,1.75,0,0,1,84,160.88Z" transform="translate(-46.35 -22.53)"/><path class="cls-109" d="M85.5,163h0a1.56,1.56,0,0,1-1.5-1.61v-4a1.57,1.57,0,0,1,1.5-1.62h0a1.57,1.57,0,0,1,1.5,1.62v4A1.56,1.56,0,0,1,85.5,163Z" transform="translate(-46.35 -22.53)"/><path class="cls-109" d="M83,159.5a3.43,3.43,0,0,0,2.87,1h0a3.13,3.13,0,0,0,.65,0l1-.22a.7.7,0,0,0,.26-.1,1.39,1.39,0,0,0,.42-.61l0,0a.33.33,0,0,0,0-.13c0-.18-.13-.23-.08-.42s.1-.17.14-.26a.46.46,0,0,0,0-.33.36.36,0,0,0,.16-.28,1.81,1.81,0,0,1,0-.31,1.37,1.37,0,0,1,.33-.43.19.19,0,0,0,.06-.18,1.31,1.31,0,0,0-.25-.45.49.49,0,0,1-.2-.42c0-.13.08-.28.11-.42a1.79,1.79,0,0,0-.07-.62s0-.51,0-.7a1.1,1.1,0,0,0,0-.16,7.62,7.62,0,0,0-.22-.82,1.74,1.74,0,0,0-.1-.19,3,3,0,0,0-.21-.33l-.13-.15a2.59,2.59,0,0,0-.94-.66,3.07,3.07,0,0,0-.61-.18h0a4,4,0,0,0-2.4.28,4.32,4.32,0,0,0-2.17,2.72A5.89,5.89,0,0,0,83,159.5Z" transform="translate(-46.35 -22.53)"/><path class="cls-110" d="M83,159.5a3.43,3.43,0,0,0,2.87,1h0l0,0,0,0v0a.07.07,0,0,0,0,0,2.32,2.32,0,0,0-.14-.37l-.09-.25a.78.78,0,0,1-.05-.14.14.14,0,0,0,0-.06s0,0,0,0a.82.82,0,0,1-.45-.74,1.52,1.52,0,0,1,.13-.87.64.64,0,0,1,.55-.36c.16,0,.25.16.3.35v0a2.88,2.88,0,0,1,0,.67s.17,0,.27,0,0-.25.06-.39a3.74,3.74,0,0,0-.16-1.24l0-.2a1.24,1.24,0,0,1,.35-1.66c.55-.37,2.38,0,2.38-.09a2.29,2.29,0,0,0-1.29-2,2.59,2.59,0,0,0-.94-.66,3.07,3.07,0,0,0-.61-.18h0a4,4,0,0,0-2.4.28,4.32,4.32,0,0,0-2.17,2.72A5.89,5.89,0,0,0,83,159.5Z" transform="translate(-46.35 -22.53)"/><path class="cls-111" d="M98,163.86c0-.24-.61-.15-.75-.12l-1,.2a8.14,8.14,0,0,0,1.09-.35c.08,0,.24-.1.22-.22s-1,0-1.16,0l-.34.08a.72.72,0,0,0-.19.51,2.28,2.28,0,0,0,.14.86,3.06,3.06,0,0,0,.29.53l1.08-.34c.08,0,.16-.05.2-.12.18-.24-.79-.1-1.09-.16a5.91,5.91,0,0,0,1.17-.23c.09,0,.27-.11.21-.26s-.23-.12-.32-.11l-.59.06a4,4,0,0,0,.89-.22A.18.18,0,0,0,98,163.86Z" transform="translate(-46.35 -22.53)"/><path class="cls-111" d="M95.71,165.86l.29,0a3.06,3.06,0,0,0,.26-1.13A5.78,5.78,0,0,0,96.1,163c-.74.31-1.27,1.16-1.41,1.14l-.48-.13h0c-1.28-.4-5.65-1.38-5.65-1.38-.89.1.15,1.64.36,2.57s3.57.67,6,.41C95.16,165.66,95.32,165.89,95.71,165.86Z" transform="translate(-46.35 -22.53)"/><path class="cls-109" d="M82.58,164.11a2.45,2.45,0,0,1-.24-2.39,1.75,1.75,0,0,1,2.83-.38l3.75,6a1.6,1.6,0,0,1-.06,2.15h0a1.34,1.34,0,0,1-2-.08Z" transform="translate(-46.35 -22.53)"/><path class="cls-112" d="M81.05,198s-.34,1.75.22,2.31a2,2,0,0,0,1.47-.08c.46-.15.94-.5,1.39-.61a4,4,0,0,0,2.59-2c1.07-1.83-1.07-1.12-2.45-.45A11,11,0,0,1,81.05,198Z" transform="translate(-46.35 -22.53)"/><path class="cls-113" d="M84.86,198.53l1.63-20.86a2.3,2.3,0,0,0-1.8-2.68c-1.22-.14-3.24,1.82-3.31,3.14-.15,3.23.55,5.47-.17,9.65-.47,2.78-.6,11.08-.6,11.11C81.39,199.62,84.37,199.51,84.86,198.53Z" transform="translate(-46.35 -22.53)"/><path class="cls-112" d="M86.49,200.1s-1.09,1.42-.83,2.22A2.07,2.07,0,0,0,87,203c.49.1,1.08,0,1.54.16a3.85,3.85,0,0,0,3.27-.52c1.78-1.11-.48-1.57-2-1.67A11,11,0,0,1,86.49,200.1Z" transform="translate(-46.35 -22.53)"/><path class="cls-24" d="M89.32,201.06l.13-19.58c0-1.31-.54-4.27-1.64-4.29s-4-.68-4.08,2c-.07,3.26,1.72,6.41,1.34,11.14a86,86,0,0,0,.39,11.44C86,202.29,89.1,201.69,89.32,201.06Z" transform="translate(-46.35 -22.53)"/><path class="cls-114" d="M89.55,163.26c-.09-.78-2.5-1.85-2.51-1.84a2.55,2.55,0,0,1-2.11.21c-.29-.14-.91-.39-.91-.86-1.58-.21-1.56-.4-2.29.39s-.61,2.43-.61,3.15c0,1.27.44,4.71.43,7.7,0,2.49-.62,4.83-.61,6.61,0,2.79,7.56,3,8.84,1.38.13-.18-.31-4-.5-6.91a33.8,33.8,0,0,1,.57-7A9.23,9.23,0,0,0,89.55,163.26Z" transform="translate(-46.35 -22.53)"/><path class="cls-115" d="M90.34,167h-3.4l1.24,4.94a1.65,1.65,0,0,0,2,1.27A1.79,1.79,0,0,0,91.36,171Z" transform="translate(-46.35 -22.53)"/><path class="cls-31" d="M88.56,162.44a1.94,1.94,0,0,0-1.48.84c-1,1.63.26,5.3.26,5.3a15.4,15.4,0,0,0,2.19-.68c.4-.16.55-.25.94-.43l-.69-3.81C89.65,163.12,89.16,162.35,88.56,162.44Z" transform="translate(-46.35 -22.53)"/><path class="cls-116" d="M96.3,165.12l0,0s0,.07,0,.08l0,0a.09.09,0,0,0,0-.08Z" transform="translate(-46.35 -22.53)"/><path class="cls-117" d="M96.38,166.09s0,0,0,0v.2a.15.15,0,0,0,0,.09l.16.1s0,0,0,0v-.2a.12.12,0,0,0,0-.09Z" transform="translate(-46.35 -22.53)"/><polygon class="cls-117" points="50.02 140.12 50.02 140.16 50.43 140.45 50.44 140.4 50.02 140.12"/><path class="cls-118" d="M95.88,162.41s-.09,0-.09.05l-.11,3a.23.23,0,0,0,.08.16l1.4.94s.09,0,.09-.05l.1-3a.17.17,0,0,0-.08-.16Z" transform="translate(-46.35 -22.53)"/><path class="cls-119" d="M97.24,163.06a.52.52,0,0,1,.2.39l-.12,3.45c0,.14-.1.19-.22.12l-1.31-.89a.48.48,0,0,1-.19-.39l.12-3.45c0-.14.1-.19.21-.12Zm-1.51,2.37a.19.19,0,0,0,.08.16l1.32.89s.08,0,.08,0l.1-2.86a.22.22,0,0,0-.07-.16l-1.33-.89s-.08,0-.08,0l-.1,2.86Zm.6.89a.15.15,0,0,0,0,.09l.16.1s0,0,0,0v-.2a.12.12,0,0,0,0-.09l-.16-.11s0,0,0,0v.2Zm.46-3.39-.42-.28v0l.42.28v0Z" transform="translate(-46.35 -22.53)"/><path class="cls-120" d="M96,162a.08.08,0,0,1,.08,0,.09.09,0,0,1,.06,0l1.31.88a.32.32,0,0,1,.1.1.53.53,0,0,1,.1.29l-.12,3.45a.15.15,0,0,1-.07.14l-.2.12s.06-.07.07-.14l.12-3.45a.51.51,0,0,0-.1-.29.32.32,0,0,0-.1-.1l-1.31-.89-.06,0h-.09Z" transform="translate(-46.35 -22.53)"/><path class="cls-121" d="M95.84,163.41s0,0,0,0l.64.43.65.44a.08.08,0,0,1,0,.07l0,1.31s0,0,0,0l-.64-.43-.65-.44a.08.08,0,0,1,0-.07Z" transform="translate(-46.35 -22.53)"/><path class="cls-31" d="M95.86,162.74s0,0,0,0l.65.44.64.43a.13.13,0,0,1,0,.07l0,.46s0,0,0,0l-.64-.44-.65-.43a.11.11,0,0,1,0-.07Z" transform="translate(-46.35 -22.53)"/><path class="cls-31" d="M95.79,164.92s0,0,0,0l.64.44.65.43s0,0,0,.07v.45s0,0,0,0l-.64-.44-.65-.44a.07.07,0,0,1,0-.06Z" transform="translate(-46.35 -22.53)"/><path class="cls-111" d="M95.38,163.2l.87-.71s.12-.13.15,0a.81.81,0,0,1-.3.67l-.38.36a4.32,4.32,0,0,1-.29,1.05s-.28.57-.47.46a.47.47,0,0,1-.16-.47l.15-.46S95.32,163.31,95.38,163.2Z" transform="translate(-46.35 -22.53)"/><path class="cls-115" d="M96.52,165.94a2.33,2.33,0,0,0-.65-1c-.1,0-.22,0-.32,0a10.92,10.92,0,0,0-1.34,1c-.14.16-.17.36-.32.56,0,0-4.68,3.39-4.68,3.39-.7.83-1.53,1.14-.76,1.89s1.45,1.68,2.39,1c1.3-.93,2.57-3.4,4.13-5.06a9.4,9.4,0,0,1,1.16-.66A1.25,1.25,0,0,0,96.52,165.94Z" transform="translate(-46.35 -22.53)"/><path class="cls-115" d="M96.74,164.4c.05-.07.09-.15,0-.22s-.92.51-1.07.64-.63.47-.9.71a2.13,2.13,0,0,0-.53.37c-.19.18-.09.39-.2.56l-.07,0a2.67,2.67,0,0,0,.69,1l.24.2.06-.08a6.48,6.48,0,0,0,.73-.39c1.35-1.11.72-1.36.29-2C96,165.16,96.71,164.43,96.74,164.4Z" transform="translate(-46.35 -22.53)"/></g></g></svg>