<svg xmlns="http://www.w3.org/2000/svg" xmlns:xlink="http://www.w3.org/1999/xlink" viewBox="0 0 136.73 222.66"><defs><style>.cls-1{mask:url(#mask);}.cls-12,.cls-2,.cls-4,.cls-48,.cls-53{mix-blend-mode:multiply;}.cls-2{fill:url(#linear-gradient);}.cls-3{mask:url(#mask-2);}.cls-4{fill:url(#linear-gradient-2);}.cls-5{fill:#96aac9;}.cls-6{fill:none;}.cls-7{fill:#7156d3;}.cls-8{fill:#b4c5e2;}.cls-9{fill:#d9e1ee;}.cls-10{fill:#3857cc;}.cls-11{isolation:isolate;}.cls-12{opacity:0.2;}.cls-13{fill:#fff;}.cls-14{fill:#ebeaf8;}.cls-15{fill:#d6d5f2;}.cls-16{fill:#c2bfeb;}.cls-17{fill:#adaae4;}.cls-18{fill:#9995dd;}.cls-19{fill:#8480d7;}.cls-20{fill:#706bd0;}.cls-21{fill:#5b56c9;}.cls-22{fill:#4740c2;}.cls-23{fill:#322bbc;}.cls-24{fill:#1e16b5;}.cls-25{fill:#f4fafa;}.cls-26{clip-path:url(#clip-path);}.cls-27{fill:#19f7fb;}.cls-28{fill:#18e8f9;}.cls-29{fill:#16d9f6;}.cls-30{fill:#15caf4;}.cls-31{fill:#14baf2;}.cls-32{fill:#12abef;}.cls-33{fill:#119ced;}.cls-34{clip-path:url(#clip-path-2);}.cls-35{clip-path:url(#clip-path-3);}.cls-36{clip-path:url(#clip-path-4);}.cls-37{fill:#8a4b32;}.cls-38{fill:#d4d0c8;}.cls-39{fill:#f2f2f2;}.cls-40{fill:#25a2c4;}.cls-41{fill:#1b1823;}.cls-42{fill:#30273b;}.cls-43{fill:#079;}.cls-44{fill:#005b75;}.cls-45{fill:#ffc6a6;}.cls-46{fill:#050505;}.cls-47,.cls-48{fill:#ffd6bf;}.cls-103,.cls-48,.cls-53{opacity:0.3;}.cls-49{fill:#9174fa;}.cls-50{fill:#393244;}.cls-51{fill:#f5c2a6;}.cls-52,.cls-53{fill:#19100d;}.cls-54{fill:#2b0d04;}.cls-55{fill:#42395a;}.cls-56{fill:#262837;}.cls-57{fill:#f8f9fc;}.cls-58{fill:#e1e6ec;}.cls-59{fill:#5338b8;}.cls-60{fill:#abc99e;}.cls-61{fill:#ebcd8f;}.cls-62{fill:#badbac;}.cls-63{fill:#49bdf2;}.cls-64{fill:#83cff2;}.cls-65{fill:#b8bcc6;}.cls-66{fill:#cfcfd2;}.cls-67{fill:#f0ebeb;}.cls-68{fill:#c2c3c5;}.cls-69{clip-path:url(#clip-path-5);}.cls-70{fill:#1b1d26;}.cls-71{clip-path:url(#clip-path-6);}.cls-72{clip-path:url(#clip-path-7);}.cls-73{clip-path:url(#clip-path-8);}.cls-74{clip-path:url(#clip-path-9);}.cls-75{clip-path:url(#clip-path-10);}.cls-76{clip-path:url(#clip-path-11);}.cls-77{fill:#d4dbdd;}.cls-78{fill:#0c93bd;}.cls-79{fill:#0fb4e7;}.cls-80{clip-path:url(#clip-path-12);}.cls-81{fill:#f1f2f2;}.cls-82{fill:#4f221d;}.cls-83{fill:#474747;}.cls-102,.cls-83{mix-blend-mode:screen;}.cls-84{fill:#caced5;}.cls-85{fill:#ccbaba;}.cls-86{fill:#f2eae6;}.cls-87{fill:#e9e5e5;}.cls-88{clip-path:url(#clip-path-13);}.cls-89{clip-path:url(#clip-path-14);}.cls-90{clip-path:url(#clip-path-15);}.cls-91{clip-path:url(#clip-path-16);}.cls-92{fill:#e8edf5;}.cls-103,.cls-93{fill:#f1f5fa;}.cls-94{clip-path:url(#clip-path-17);}.cls-95{fill:#aabad6;}.cls-96{clip-path:url(#clip-path-18);}.cls-97{fill:#c3cee1;}.cls-98{clip-path:url(#clip-path-19);}.cls-99{clip-path:url(#clip-path-20);}.cls-100{fill:#4767db;}.cls-101{fill:#2744ac;}.cls-102{fill:#51cfe3;opacity:0.5;}.cls-104,.cls-117{opacity:0.9;}.cls-104{mix-blend-mode:overlay;}.cls-105{fill:#fcfdfd;opacity:0;}.cls-106{fill:#e6fafd;opacity:0.09;}.cls-107{fill:#d1f7fd;opacity:0.18;}.cls-108{fill:#bbf4fd;opacity:0.27;}.cls-109{fill:#a5f1fd;opacity:0.36;}.cls-110{fill:#90eefd;opacity:0.45;}.cls-111{fill:#7aeafc;opacity:0.55;}.cls-112{fill:#65e7fc;opacity:0.64;}.cls-113{fill:#4fe4fc;opacity:0.73;}.cls-114{fill:#39e1fc;opacity:0.82;}.cls-115{fill:#24defc;opacity:0.91;}.cls-116{fill:#0edbfc;}.cls-118{mask:url(#mask-3);}.cls-119{fill:url(#linear-gradient-3);}.cls-120{mask:url(#mask-4);}.cls-121{fill:url(#linear-gradient-4);}.cls-122{opacity:0.8;}.cls-123{fill:url(#linear-gradient-5);}.cls-124{filter:url(#luminosity-noclip-4);}.cls-125{filter:url(#luminosity-noclip-3);}.cls-126{filter:url(#luminosity-noclip-2);}.cls-127{filter:url(#luminosity-noclip);}</style><filter id="luminosity-noclip" x="123.78" y="-8317" width="11.17" height="32766" filterUnits="userSpaceOnUse" color-interpolation-filters="sRGB"><feFlood flood-color="#fff" result="bg"/><feBlend in="SourceGraphic" in2="bg"/></filter><mask id="mask" x="123.78" y="-8317" width="11.17" height="32766" maskUnits="userSpaceOnUse"><g class="cls-127"/></mask><linearGradient id="linear-gradient" x1="134.7" y1="35.96" x2="128.47" y2="30.57" gradientUnits="userSpaceOnUse"><stop offset="0.23" stop-color="#fff"/><stop offset="0.42" stop-color="#fbfbfb"/><stop offset="0.59" stop-color="#f0f0f0"/><stop offset="0.76" stop-color="#ddd"/><stop offset="0.92" stop-color="#c2c2c2"/><stop offset="1" stop-color="#b3b3b3"/></linearGradient><filter id="luminosity-noclip-2" x="96.31" y="-8317" width="28.44" height="32766" filterUnits="userSpaceOnUse" color-interpolation-filters="sRGB"><feFlood flood-color="#fff" result="bg"/><feBlend in="SourceGraphic" in2="bg"/></filter><mask id="mask-2" x="96.31" y="-8317" width="28.44" height="32766" maskUnits="userSpaceOnUse"><g class="cls-126"/></mask><linearGradient id="linear-gradient-2" x1="116.51" y1="49.03" x2="105.95" y2="38.91" xlink:href="#linear-gradient"/><clipPath id="clip-path" transform="translate(-58.56 -16.04)"><path class="cls-5" d="M179.41,182.14l0,4.8c0,7.35-5.1,14.68-15.24,20.29-20.42,11.28-53.64,11.28-74.19,0-10.35-5.68-15.51-13.13-15.49-20.58l0-4.8c0,7.45,5.15,14.9,15.49,20.58,20.55,11.28,53.77,11.28,74.19,0C174.3,196.82,179.38,189.49,179.41,182.14Z"/></clipPath><clipPath id="clip-path-2" transform="translate(-58.56 -16.04)"><path class="cls-5" d="M179.41,158l0,4.8c0,7.35-5.1,14.68-15.24,20.29-20.42,11.28-53.64,11.28-74.19,0C79.58,177.4,74.42,170,74.44,162.51l0-4.8c0,7.44,5.15,14.89,15.49,20.57,20.55,11.28,53.77,11.28,74.19,0C174.3,172.67,179.38,165.34,179.41,158Z"/></clipPath><clipPath id="clip-path-3" transform="translate(-58.56 -16.04)"><path class="cls-5" d="M179.41,133.13l0,4.8c0,7.34-5.1,14.68-15.24,20.28-20.42,11.29-53.64,11.29-74.19,0-10.35-5.67-15.51-13.13-15.49-20.57l0-4.8c0,7.44,5.15,14.9,15.49,20.57,20.55,11.29,53.77,11.29,74.19,0C174.3,147.81,179.38,140.47,179.41,133.13Z"/></clipPath><clipPath id="clip-path-4" transform="translate(-58.56 -16.04)"><path class="cls-5" d="M179.41,109.39l0,4.8c0,7.35-5.1,14.68-15.24,20.29-20.42,11.28-53.64,11.28-74.19,0-10.35-5.68-15.51-13.13-15.49-20.57l0-4.8c0,7.44,5.15,14.89,15.49,20.57,20.55,11.28,53.77,11.28,74.19,0C174.3,124.07,179.38,116.74,179.41,109.39Z"/></clipPath><clipPath id="clip-path-5" transform="translate(-58.56 -16.04)"><path class="cls-6" d="M131.35,81.44V81a.26.26,0,0,0,.16.22v.42A.26.26,0,0,1,131.35,81.44Z"/></clipPath><clipPath id="clip-path-6" transform="translate(-58.56 -16.04)"><path class="cls-6" d="M143.54,83.17v.42a.26.26,0,0,1-.16.21v-.42A.26.26,0,0,0,143.54,83.17Z"/></clipPath><clipPath id="clip-path-7" transform="translate(-58.56 -16.04)"><path class="cls-6" d="M139.79,85.36v.42a.87.87,0,0,1-.77,0v-.42A.87.87,0,0,0,139.79,85.36Z"/></clipPath><clipPath id="clip-path-8" transform="translate(-58.56 -16.04)"><path class="cls-6" d="M135,74.27l.88-.48a.7.7,0,0,0-.31.66,2.23,2.23,0,0,0,1.08,1.79l-.88.48a2.27,2.27,0,0,1-1.09-1.78A.73.73,0,0,1,135,74.27Z"/></clipPath><clipPath id="clip-path-9" transform="translate(-58.56 -16.04)"><path class="cls-6" d="M137.47,76.31l-.89.49a.79.79,0,0,1-.77-.08l.88-.48A.83.83,0,0,0,137.47,76.31Z"/></clipPath><clipPath id="clip-path-10" transform="translate(-58.56 -16.04)"><path class="cls-6" d="M134.4,72.77l.88-.48a1.45,1.45,0,0,1,1.42.12l-.88.49A1.48,1.48,0,0,0,134.4,72.77Z"/></clipPath><clipPath id="clip-path-11" transform="translate(-58.56 -16.04)"><path class="cls-6" d="M135.82,72.9l.88-.49a4.14,4.14,0,0,1,2,3.28l-.88.49A4.15,4.15,0,0,0,135.82,72.9Z"/></clipPath><clipPath id="clip-path-12" transform="translate(-58.56 -16.04)"><path class="cls-7" d="M159.23,80.22V83a.78.78,0,0,1-.46.61,2.61,2.61,0,0,1-2.22,0,.74.74,0,0,1-.46-.62V80.21a.74.74,0,0,0,.46.61,2.54,2.54,0,0,0,2.22,0A.73.73,0,0,0,159.23,80.22Z"/></clipPath><clipPath id="clip-path-13" transform="translate(-58.56 -16.04)"><path class="cls-8" d="M72.29,144.8l4.81-2.65c-2.69,1.48-4.36,4.64-4.37,9.13,0,9,6.66,20.05,14.93,24.59l-4.81,2.66c-8.27-4.54-15-15.55-14.93-24.59C67.93,149.45,69.6,146.29,72.29,144.8Z"/></clipPath><clipPath id="clip-path-14" transform="translate(-58.56 -16.04)"><path class="cls-8" d="M98.32,176.86l-4.81,2.66c-2.72,1.51-6.5,1.3-10.66-1l4.81-2.66C91.83,178.16,95.6,178.37,98.32,176.86Z"/></clipPath><clipPath id="clip-path-15" transform="translate(-58.56 -16.04)"><path class="cls-9" d="M67.8,137.46l4.81-2.66c3.88-2.14,9.25-1.84,15.17,1.41L83,138.87C77,135.62,71.67,135.31,67.8,137.46Z"/></clipPath><clipPath id="clip-path-16" transform="translate(-58.56 -16.04)"><path class="cls-9" d="M102.82,184.21,98,186.87c3.83-2.11,6.2-6.61,6.22-13,0-12.86-9.47-28.54-21.25-35l4.81-2.66c11.78,6.46,21.29,22.14,21.26,35C109,177.6,106.64,182.1,102.82,184.21Z"/></clipPath><clipPath id="clip-path-17" transform="translate(-58.56 -16.04)"><path class="cls-9" d="M109.89,171.83l8.77,4.85a2.4,2.4,0,0,0-2.31.22l-8.78-4.85A2.42,2.42,0,0,1,109.89,171.83Z"/></clipPath><clipPath id="clip-path-18" transform="translate(-58.56 -16.04)"><path class="cls-9" d="M114.05,184.23l-8.78-4.85a2.14,2.14,0,0,1-.94-2,6.73,6.73,0,0,1,3.24-5.34l8.78,4.85a6.74,6.74,0,0,0-3.25,5.34A2.15,2.15,0,0,0,114.05,184.23Z"/></clipPath><clipPath id="clip-path-19" transform="translate(-58.56 -16.04)"><path class="cls-10" d="M121.71,173.78l34.36,19c-1.17-.65-2.79-.56-4.59.43l-34.35-19C118.92,173.22,120.54,173.13,121.71,173.78Z"/></clipPath><clipPath id="clip-path-20" transform="translate(-58.56 -16.04)"><path class="cls-10" d="M146.94,207.7l-34.36-19c-1.15-.63-1.87-2-1.88-3.93,0-3.88,2.87-8.62,6.43-10.57l34.35,19c-3.56,1.95-6.43,6.69-6.42,10.58C145.07,205.7,145.78,207.06,146.94,207.7Z"/></clipPath><filter id="luminosity-noclip-3" x="123.78" y="28.84" width="11.17" height="4.51" filterUnits="userSpaceOnUse" color-interpolation-filters="sRGB"><feFlood flood-color="#fff" result="bg"/><feBlend in="SourceGraphic" in2="bg"/></filter><mask id="mask-3" x="65.22" y="12.8" width="11.17" height="4.51" maskUnits="userSpaceOnUse"><g class="cls-125"><g transform="translate(-58.56 -16.04)"><g class="cls-1"><path class="cls-2" d="M131.49,29.33a4.58,4.58,0,0,0-3.13-.37,7.87,7.87,0,0,0-2.34.88,12.45,12.45,0,0,0-2.24,1.6l3.46,1.91a12.45,12.45,0,0,1,2.24-1.6,8.16,8.16,0,0,1,2.34-.88,4.58,4.58,0,0,1,3.13.37Z"/></g></g></g></mask><linearGradient id="linear-gradient-3" x1="134.7" y1="35.96" x2="128.47" y2="30.57" gradientUnits="userSpaceOnUse"><stop offset="0.23" stop-color="#19f7fb"/><stop offset="0.34" stop-color="#1df7fb"/><stop offset="0.45" stop-color="#28f8fb"/><stop offset="0.54" stop-color="#3bf8fc"/><stop offset="0.64" stop-color="#56f9fc"/><stop offset="0.74" stop-color="#78fafd"/><stop offset="0.83" stop-color="#a3fcfd"/><stop offset="0.93" stop-color="#d4fdfe"/><stop offset="1" stop-color="#fff"/></linearGradient><filter id="luminosity-noclip-4" x="96.31" y="26.85" width="28.44" height="34.3" filterUnits="userSpaceOnUse" color-interpolation-filters="sRGB"><feFlood flood-color="#fff" result="bg"/><feBlend in="SourceGraphic" in2="bg"/></filter><mask id="mask-4" x="37.75" y="10.81" width="28.44" height="34.3" maskUnits="userSpaceOnUse"><g class="cls-124"><g transform="translate(-58.56 -16.04)"><g class="cls-3"><path class="cls-4" d="M121.29,27.42a5.24,5.24,0,0,0-3.62-.43,9.73,9.73,0,0,0-2.7,1,15.81,15.81,0,0,0-4.31,3.59,18.81,18.81,0,0,0-4.45,9.48A8.19,8.19,0,0,0,104,42,13.84,13.84,0,0,0,100.25,45a15.45,15.45,0,0,0-3.94,9.52c0,2.3.86,3.92,2.24,4.68L102,61.15c-1.38-.76-2.24-2.38-2.24-4.68A15.5,15.5,0,0,1,103.7,47a14,14,0,0,1,3.73-3.09,8.52,8.52,0,0,1,2.24-.87,18.81,18.81,0,0,1,4.45-9.48,15.81,15.81,0,0,1,4.31-3.59,9.73,9.73,0,0,1,2.7-1,5.24,5.24,0,0,1,3.62.43Z"/></g></g></g></mask><linearGradient id="linear-gradient-4" x1="116.51" y1="49.03" x2="105.95" y2="38.91" xlink:href="#linear-gradient-3"/><linearGradient id="linear-gradient-5" x1="120.96" y1="58.04" x2="115.23" y2="30.73" gradientUnits="userSpaceOnUse"><stop offset="0.01" stop-color="#19f7fb"/><stop offset="1" stop-color="#b5dff2"/></linearGradient></defs><g class="cls-11"><g id="Layer_1" data-name="Layer 1"><g class="cls-12"><ellipse class="cls-13" cx="126.92" cy="201.18" rx="37.52" ry="68.36" transform="translate(-133.44 311.07) rotate(-89.72)"/><ellipse class="cls-14" cx="126.93" cy="201.18" rx="35.45" ry="64.58" transform="translate(-133.44 311.07) rotate(-89.72)"/><ellipse class="cls-15" cx="126.93" cy="201.18" rx="33.37" ry="60.79" transform="translate(-133.44 311.08) rotate(-89.72)"/><ellipse class="cls-16" cx="126.93" cy="201.18" rx="31.29" ry="57" transform="matrix(0, -1, 1, 0, -133.43, 311.08)"/><ellipse class="cls-17" cx="126.93" cy="201.18" rx="29.21" ry="53.22" transform="translate(-133.43 311.08) rotate(-89.72)"/><ellipse class="cls-18" cx="126.94" cy="201.18" rx="27.13" ry="49.43" transform="translate(-133.43 311.08) rotate(-89.72)"/><ellipse class="cls-19" cx="126.94" cy="201.18" rx="25.06" ry="45.65" transform="matrix(0, -1, 1, 0, -133.42, 311.08)"/><ellipse class="cls-20" cx="126.94" cy="201.18" rx="22.98" ry="41.86" transform="translate(-133.42 311.08) rotate(-89.72)"/><ellipse class="cls-21" cx="126.94" cy="201.18" rx="20.9" ry="38.07" transform="translate(-133.42 311.09) rotate(-89.72)"/><ellipse class="cls-22" cx="126.95" cy="201.18" rx="18.82" ry="34.29" transform="matrix(0, -1, 1, 0, -133.41, 311.09)"/><ellipse class="cls-23" cx="126.95" cy="201.18" rx="16.74" ry="30.5" transform="translate(-133.41 311.09) rotate(-89.72)"/><path class="cls-24" d="M145.9,211.58c-10.4,5.7-27.31,5.68-37.78-.07s-10.52-15-.12-20.74,27.32-5.68,37.78.07S156.3,205.87,145.9,211.58Z" transform="translate(-58.56 -16.04)"/></g><path class="cls-25" d="M163.92,161.57c20.55,11.28,20.66,29.57.24,40.86s-53.64,11.28-74.19,0-20.66-29.58-.24-40.86S143.36,150.29,163.92,161.57Z" transform="translate(-58.56 -16.04)"/><g class="cls-11"><g class="cls-11"><path class="cls-5" d="M179.41,182.14l0,4.8c0,7.35-5.1,14.68-15.24,20.29-20.42,11.28-53.64,11.28-74.19,0-10.35-5.68-15.51-13.13-15.49-20.58l0-4.8c0,7.45,5.15,14.9,15.49,20.58,20.55,11.28,53.77,11.28,74.19,0C174.3,196.82,179.38,189.49,179.41,182.14Z" transform="translate(-58.56 -16.04)"/><g class="cls-26"><g class="cls-11"><path class="cls-5" d="M179.41,182.14l0,4.8c0,4.41-1.84,8.81-5.49,12.83l0-4.8c3.65-4,5.48-8.42,5.5-12.83Z" transform="translate(-58.56 -16.04)"/><path class="cls-5" d="M173.91,195l0,4.8a37.77,37.77,0,0,1-9.75,7.46,56.65,56.65,0,0,1-5.31,2.56l0-4.8a56.65,56.65,0,0,0,5.31-2.56,37.77,37.77,0,0,0,9.75-7.46Z" transform="translate(-58.56 -16.04)"/><path class="cls-9" d="M158.85,205l0,4.8c-11.91,5-26.86,6.83-41,5.45l.05-4.8c14.13,1.38,29.07-.43,41-5.45Z" transform="translate(-58.56 -16.04)"/><path class="cls-5" d="M117.87,210.44l-.05,4.8a79.79,79.79,0,0,1-21.61-5.06l0-4.8a79.78,79.78,0,0,0,21.62,5.06Z" transform="translate(-58.56 -16.04)"/><path class="cls-5" d="M96.25,205.38l0,4.8a58.49,58.49,0,0,1-6.28-3c-10.35-5.68-15.51-13.13-15.49-20.58l0-4.8c0,7.45,5.15,14.9,15.49,20.58a58.49,58.49,0,0,0,6.28,2.95Z" transform="translate(-58.56 -16.04)"/></g></g></g></g><path class="cls-27" d="M163.92,158.77c20.55,11.29,20.66,29.58.24,40.86s-53.64,11.28-74.19,0-20.66-29.57-.24-40.86S143.36,147.49,163.92,158.77Z" transform="translate(-58.56 -16.04)"/><path class="cls-28" d="M163.92,156.48c20.55,11.28,20.66,29.57.24,40.86s-53.64,11.28-74.19,0-20.66-29.58-.24-40.86S143.36,145.2,163.92,156.48Z" transform="translate(-58.56 -16.04)"/><path class="cls-29" d="M163.92,154.18c20.55,11.29,20.66,29.58.24,40.86S110.52,206.32,90,195s-20.66-29.57-.24-40.86S143.36,142.9,163.92,154.18Z" transform="translate(-58.56 -16.04)"/><path class="cls-30" d="M163.92,151.89c20.55,11.28,20.66,29.57.24,40.86S110.52,204,90,192.75s-20.66-29.58-.24-40.86S143.36,140.61,163.92,151.89Z" transform="translate(-58.56 -16.04)"/><path class="cls-31" d="M163.92,149.59c20.55,11.29,20.66,29.58.24,40.86s-53.64,11.28-74.19,0-20.66-29.57-.24-40.86S143.36,138.31,163.92,149.59Z" transform="translate(-58.56 -16.04)"/><path class="cls-32" d="M163.92,147.3c20.55,11.28,20.66,29.57.24,40.86s-53.64,11.28-74.19,0-20.66-29.58-.24-40.86S143.36,136,163.92,147.3Z" transform="translate(-58.56 -16.04)"/><path class="cls-33" d="M163.92,145c20.55,11.28,20.66,29.58.24,40.86s-53.64,11.28-74.19,0S69.31,156.29,89.73,145,143.36,133.72,163.92,145Z" transform="translate(-58.56 -16.04)"/><path class="cls-25" d="M163.92,137.42c20.55,11.28,20.66,29.58.24,40.86s-53.64,11.28-74.19,0-20.66-29.58-.24-40.86S143.36,126.14,163.92,137.42Z" transform="translate(-58.56 -16.04)"/><g class="cls-11"><g class="cls-11"><path class="cls-5" d="M179.41,158l0,4.8c0,7.35-5.1,14.68-15.24,20.29-20.42,11.28-53.64,11.28-74.19,0C79.58,177.4,74.42,170,74.44,162.51l0-4.8c0,7.44,5.15,14.89,15.49,20.57,20.55,11.28,53.77,11.28,74.19,0C174.3,172.67,179.38,165.34,179.41,158Z" transform="translate(-58.56 -16.04)"/><g class="cls-34"><g class="cls-11"><path class="cls-5" d="M179.41,158l0,4.8c0,4.41-1.84,8.81-5.49,12.84l0-4.8c3.65-4,5.48-8.43,5.5-12.84Z" transform="translate(-58.56 -16.04)"/><path class="cls-5" d="M173.91,170.83l0,4.8a37.53,37.53,0,0,1-9.75,7.45,56.7,56.7,0,0,1-5.31,2.57l0-4.8a56.7,56.7,0,0,0,5.31-2.57,37.53,37.53,0,0,0,9.75-7.45Z" transform="translate(-58.56 -16.04)"/><path class="cls-9" d="M158.85,180.85l0,4.8c-11.91,5-26.86,6.83-41,5.44l.05-4.8c14.13,1.39,29.07-.43,41-5.44Z" transform="translate(-58.56 -16.04)"/><path class="cls-5" d="M117.87,186.29l-.05,4.8A79.79,79.79,0,0,1,96.21,186l0-4.8a79.78,79.78,0,0,0,21.62,5.06Z" transform="translate(-58.56 -16.04)"/><path class="cls-5" d="M96.25,181.23l0,4.8a56.63,56.63,0,0,1-6.28-2.95C79.58,177.4,74.42,170,74.44,162.51l0-4.8c0,7.44,5.15,14.89,15.49,20.57a56.63,56.63,0,0,0,6.28,2.95Z" transform="translate(-58.56 -16.04)"/></g></g></g></g><path class="cls-27" d="M163.92,134.63c20.55,11.28,20.66,29.57.24,40.85s-53.64,11.29-74.19,0-20.66-29.57-.24-40.85S143.36,123.34,163.92,134.63Z" transform="translate(-58.56 -16.04)"/><path class="cls-28" d="M163.92,132.33c20.55,11.28,20.66,29.58.24,40.86s-53.64,11.28-74.19,0-20.66-29.58-.24-40.86S143.36,121.05,163.92,132.33Z" transform="translate(-58.56 -16.04)"/><path class="cls-29" d="M163.92,130c20.55,11.28,20.66,29.57.24,40.85s-53.64,11.29-74.19,0S69.31,141.32,89.73,130,143.36,118.75,163.92,130Z" transform="translate(-58.56 -16.04)"/><path class="cls-30" d="M163.92,127.74c20.55,11.28,20.66,29.58.24,40.86s-53.64,11.28-74.19,0S69.31,139,89.73,127.74,143.36,116.46,163.92,127.74Z" transform="translate(-58.56 -16.04)"/><path class="cls-31" d="M163.92,125.45c20.55,11.28,20.66,29.57.24,40.85s-53.64,11.29-74.19,0-20.66-29.57-.24-40.85S143.36,114.16,163.92,125.45Z" transform="translate(-58.56 -16.04)"/><path class="cls-32" d="M163.92,123.15c20.55,11.28,20.66,29.58.24,40.86S110.52,175.29,90,164s-20.66-29.58-.24-40.86S143.36,111.87,163.92,123.15Z" transform="translate(-58.56 -16.04)"/><path class="cls-33" d="M163.92,120.86c20.55,11.28,20.66,29.57.24,40.85S110.52,173,90,161.71s-20.66-29.57-.24-40.85S143.36,109.57,163.92,120.86Z" transform="translate(-58.56 -16.04)"/><path class="cls-25" d="M163.92,112.56c20.55,11.28,20.66,29.57.24,40.85s-53.64,11.29-74.19,0-20.66-29.57-.24-40.85S143.36,101.27,163.92,112.56Z" transform="translate(-58.56 -16.04)"/><g class="cls-11"><g class="cls-11"><path class="cls-5" d="M179.41,133.13l0,4.8c0,7.34-5.1,14.68-15.24,20.28-20.42,11.29-53.64,11.29-74.19,0-10.35-5.67-15.51-13.13-15.49-20.57l0-4.8c0,7.44,5.15,14.9,15.49,20.57,20.55,11.29,53.77,11.29,74.19,0C174.3,147.81,179.38,140.47,179.41,133.13Z" transform="translate(-58.56 -16.04)"/><g class="cls-35"><g class="cls-11"><path class="cls-5" d="M179.41,133.13l0,4.8c0,4.4-1.84,8.8-5.49,12.83l0-4.8c3.65-4,5.48-8.43,5.5-12.83Z" transform="translate(-58.56 -16.04)"/><path class="cls-5" d="M173.91,146l0,4.8a37.53,37.53,0,0,1-9.75,7.45,54.31,54.31,0,0,1-5.31,2.57l0-4.8a54.31,54.31,0,0,0,5.31-2.57,37.53,37.53,0,0,0,9.75-7.45Z" transform="translate(-58.56 -16.04)"/><path class="cls-9" d="M158.85,156l0,4.8c-11.91,5-26.86,6.83-41,5.45l.05-4.81c14.13,1.39,29.07-.43,41-5.44Z" transform="translate(-58.56 -16.04)"/><path class="cls-5" d="M117.87,161.42l-.05,4.81a79.43,79.43,0,0,1-21.61-5.07l0-4.8a79,79,0,0,0,21.62,5.06Z" transform="translate(-58.56 -16.04)"/><path class="cls-5" d="M96.25,156.36l0,4.8a56.63,56.63,0,0,1-6.28-2.95c-10.35-5.67-15.51-13.13-15.49-20.57l0-4.8c0,7.44,5.15,14.9,15.49,20.57a56.63,56.63,0,0,0,6.28,3Z" transform="translate(-58.56 -16.04)"/></g></g></g></g><path class="cls-27" d="M163.92,109.76c20.55,11.28,20.66,29.57.24,40.86s-53.64,11.28-74.19,0S69.31,121,89.73,109.76,143.36,98.48,163.92,109.76Z" transform="translate(-58.56 -16.04)"/><path class="cls-28" d="M163.92,107.46c20.55,11.29,20.66,29.58.24,40.86s-53.64,11.29-74.19,0-20.66-29.57-.24-40.86S143.36,96.18,163.92,107.46Z" transform="translate(-58.56 -16.04)"/><path class="cls-29" d="M163.92,105.17c20.55,11.28,20.66,29.57.24,40.86S110.52,157.31,90,146s-20.66-29.58-.24-40.86S143.36,93.89,163.92,105.17Z" transform="translate(-58.56 -16.04)"/><path class="cls-30" d="M163.92,102.87c20.55,11.29,20.66,29.58.24,40.86S110.52,155,90,143.73s-20.66-29.57-.24-40.86S143.36,91.59,163.92,102.87Z" transform="translate(-58.56 -16.04)"/><path class="cls-31" d="M163.92,100.58c20.55,11.28,20.66,29.57.24,40.86s-53.64,11.28-74.19,0-20.66-29.58-.24-40.86S143.36,89.3,163.92,100.58Z" transform="translate(-58.56 -16.04)"/><path class="cls-32" d="M163.92,98.28c20.55,11.29,20.66,29.58.24,40.86s-53.64,11.28-74.19,0-20.66-29.57-.24-40.86S143.36,87,163.92,98.28Z" transform="translate(-58.56 -16.04)"/><path class="cls-33" d="M163.92,96c20.55,11.28,20.66,29.57.24,40.86s-53.64,11.28-74.19,0S69.31,107.27,89.73,96,143.36,84.71,163.92,96Z" transform="translate(-58.56 -16.04)"/><path class="cls-25" d="M163.92,88.82c20.55,11.28,20.66,29.57.24,40.86S110.52,141,90,129.68s-20.66-29.58-.24-40.86S143.36,77.54,163.92,88.82Z" transform="translate(-58.56 -16.04)"/><g class="cls-11"><g class="cls-11"><path class="cls-5" d="M179.41,109.39l0,4.8c0,7.35-5.1,14.68-15.24,20.29-20.42,11.28-53.64,11.28-74.19,0-10.35-5.68-15.51-13.13-15.49-20.57l0-4.8c0,7.44,5.15,14.89,15.49,20.57,20.55,11.28,53.77,11.28,74.19,0C174.3,124.07,179.38,116.74,179.41,109.39Z" transform="translate(-58.56 -16.04)"/><g class="cls-36"><g class="cls-11"><path class="cls-5" d="M179.41,109.39l0,4.8c0,4.41-1.84,8.81-5.49,12.83l0-4.8c3.65-4,5.48-8.42,5.5-12.83Z" transform="translate(-58.56 -16.04)"/><path class="cls-5" d="M173.91,122.22l0,4.8a37.77,37.77,0,0,1-9.75,7.46,56.65,56.65,0,0,1-5.31,2.56l0-4.8a56.65,56.65,0,0,0,5.31-2.56,37.77,37.77,0,0,0,9.75-7.46Z" transform="translate(-58.56 -16.04)"/><path class="cls-9" d="M158.85,132.24l0,4.8c-11.91,5-26.86,6.83-41,5.45l.05-4.8c14.13,1.38,29.07-.43,41-5.45Z" transform="translate(-58.56 -16.04)"/><path class="cls-5" d="M117.87,137.69l-.05,4.8a79.79,79.79,0,0,1-21.61-5.06l0-4.8a79.78,79.78,0,0,0,21.62,5.06Z" transform="translate(-58.56 -16.04)"/><path class="cls-5" d="M96.25,132.63l0,4.8a56.63,56.63,0,0,1-6.28-3c-10.35-5.68-15.51-13.13-15.49-20.57l0-4.8c0,7.44,5.15,14.89,15.49,20.57a56.63,56.63,0,0,0,6.28,2.95Z" transform="translate(-58.56 -16.04)"/></g></g></g></g><polygon class="cls-37" points="58.74 62.01 78.34 51.18 76.44 50.14 56.84 60.96 58.74 62.01"/><g class="cls-11"><polygon class="cls-38" points="78.34 52.65 58.74 63.48 58.73 74.35 58.74 74.34 58.73 80.73 78.33 69.91 78.34 59.04 78.33 59.04 78.34 52.65"/><polygon class="cls-39" points="58.74 63.48 56.84 62.44 56.84 73.3 56.84 73.3 56.84 79.69 58.73 80.73 58.74 69.87 58.74 69.87 58.74 63.48"/></g><polygon class="cls-40" points="97.67 37.08 98.56 36.3 99.85 37.02 98.6 37.72 97.67 37.08"/><polygon class="cls-41" points="97.68 67.12 95.57 81.81 96.46 81.32 98.5 67.12 97.68 67.12"/><polygon class="cls-41" points="109.56 62.97 108.59 62.97 110.53 74.35 111.42 73.86 109.56 62.97"/><polygon class="cls-42" points="96.86 67.12 94.81 81.39 95.57 81.81 97.68 67.12 96.86 67.12"/><polygon class="cls-42" points="108.59 62.97 107.9 62.97 109.78 73.93 110.53 74.35 108.59 62.97"/><polygon class="cls-41" points="86.47 62.67 84.58 75.79 85.47 75.3 87.29 62.67 86.47 62.67"/><polygon class="cls-42" points="85.65 62.67 83.82 75.37 84.58 75.79 86.47 62.67 85.65 62.67"/><g class="cls-11"><path class="cls-40" d="M168.93,65.84l.49-6.8a.72.72,0,0,0-.38-.68L158,52.29a.78.78,0,0,0-1.16.53l-1.93,13Z" transform="translate(-58.56 -16.04)"/><path class="cls-40" d="M148.35,76.1l-2,1.12-2.7.09v1.91h0a.73.73,0,0,0,.39.55L155.4,86l.93.51a.81.81,0,0,0,.77,0l1.42-.79V76.1Z" transform="translate(-58.56 -16.04)"/><path class="cls-43" d="M153.09,71.58a.7.7,0,0,1-.24.21L144,76.67A.72.72,0,0,0,144,78l12.31,6.75a.76.76,0,0,0,.77,0L167,79.22Z" transform="translate(-58.56 -16.04)"/><path class="cls-43" d="M167.58,78.91a.72.72,0,0,0,0-1.27.73.73,0,0,1-.39-.69l1.25-17.06a.74.74,0,0,0-.38-.69L157,53.13a.79.79,0,0,0-1.16.53l-2.61,17.6a.7.7,0,0,1-.14.32L167,79.22Z" transform="translate(-58.56 -16.04)"/><path class="cls-44" d="M168.47,59.43l-1.35,17.62a4.18,4.18,0,0,1-2.18,3.33l-7.39,4.08h0v1.81l9-5a4.19,4.19,0,0,0,2.2-3.51l.6-18.86Z" transform="translate(-58.56 -16.04)"/></g><path class="cls-41" d="M150.12,64.77c0-2.76.33-6.78,1.21-9a2.08,2.08,0,0,1,1.44-1.28c1.59-.46,2.4,1.69,2.42,2.68a49.88,49.88,0,0,1-1.63,8.93c0,.12-.08.22-.11.32s-4.92,5-4.92,5a15.22,15.22,0,0,1-1.63-1.28,2.8,2.8,0,0,1-.43-.41Z" transform="translate(-58.56 -16.04)"/><path class="cls-45" d="M150.67,95.44a2.76,2.76,0,0,1-.7-1.27,21.69,21.69,0,0,0-.5-5.47c-.52-2-2.3-5.15-2.72-6.57-.06-.4-.16-.78-.25-1.17a10.45,10.45,0,0,0-1.85.45,5.68,5.68,0,0,0-2.36,1.28l.16.44a8.14,8.14,0,0,0,.61,1.53c.29.56.68.9,1,1.47a62.12,62.12,0,0,1,4,9.07,13.53,13.53,0,0,1-.28,1.82l-.12.9s0,1.39.06,1.41a1.83,1.83,0,0,0,1.38-.3,3.07,3.07,0,0,0,.69-.54A4.07,4.07,0,0,0,150.67,95.44Z" transform="translate(-58.56 -16.04)"/><path class="cls-45" d="M150.67,95.44a2.76,2.76,0,0,1-.7-1.27,21.69,21.69,0,0,0-.5-5.47c-.52-2-2.3-5.15-2.72-6.57-.06-.4-.16-.78-.25-1.17a10.45,10.45,0,0,0-1.85.45,5.68,5.68,0,0,0-2.36,1.28l.16.44a8.86,8.86,0,0,0,.5,1.33c1,.55,2.26,1,2.49,1.61a4,4,0,0,1-.39,2.17A52.41,52.41,0,0,1,147.6,94c.62-.63,1.19-1.65,1.32-1.41a6.33,6.33,0,0,1-.16,6.63l.29-.15a3.07,3.07,0,0,0,.69-.54A4.07,4.07,0,0,0,150.67,95.44Z" transform="translate(-58.56 -16.04)"/><path class="cls-46" d="M151.69,98.19a1.86,1.86,0,0,1-.35.22c-.14-.32-.3-.77-.69-1.67l.73-.73c.19.83.29,1.4.48,2A1.45,1.45,0,0,1,151.69,98.19Z" transform="translate(-58.56 -16.04)"/><path class="cls-42" d="M147.69,97.28s-.05.8,0,1a.68.68,0,0,0,1,.45c1.16-.48,2.46-2.87,1.67-3.72a1.67,1.67,0,0,1,.87.6c.57,1.08-.21,1.2-.4,1.53s0,1.23-.12,1.74a4.17,4.17,0,0,1-3.57,2.07c-.15,0-.32-.05-.4-.16C146.32,100.24,147.62,97.74,147.69,97.28Z" transform="translate(-58.56 -16.04)"/><path class="cls-47" d="M149.48,81.15c-.52-.05-1.38-.32-1.73.08s-.28,1-.41,1.37a9.06,9.06,0,0,1-.52,1.2,12.38,12.38,0,0,0-.84,2.65c-.49,1.9-1,3.8-1.46,5.7a62.58,62.58,0,0,1-2.92,7.17l-.33.57s-.53,1.29-.5,1.32a1.85,1.85,0,0,0,1.4.22,3.82,3.82,0,0,0,.84-.25,4.9,4.9,0,0,0,2.21-2.26c.15-.54-.28-.57-.26-.77,0-1.19,3.86-6,5.4-9,.6-1.18,1-4.06,1.37-5.33.25-.79.49-1.59.74-2.39Z" transform="translate(-58.56 -16.04)"/><path class="cls-48" d="M149.48,81.15c-.52-.05-1.38-.32-1.73.08s-.28,1-.41,1.37a9.06,9.06,0,0,1-.52,1.2,11.56,11.56,0,0,0-.8,2.5c1.7.71,5.09.65,3.77,2.67a74.93,74.93,0,0,0-5.08,8.68,2.09,2.09,0,0,0,.27,1.77,1.77,1.77,0,0,0,.24-.5c.15-.54-.28-.57-.26-.77,0-1.19,3.86-6,5.4-9,.6-1.18,1-4.06,1.37-5.33.25-.79.49-1.59.74-2.39Z" transform="translate(-58.56 -16.04)"/><path class="cls-46" d="M144.94,101.59a2,2,0,0,1-.41.09c0-.36,0-.83,0-1.8l1-.42c-.15.83-.28,1.4-.35,2A1,1,0,0,1,144.94,101.59Z" transform="translate(-58.56 -16.04)"/><path class="cls-42" d="M141.6,99.32s-.37.72-.41.89c-.12.44.24.79.75.78,1.26,0,3.41-1.78,3-2.84a1.57,1.57,0,0,1,.57.87c.09,1.2-.67,1-1,1.27s-.45,1.15-.8,1.56a4.27,4.27,0,0,1-4.13.64c-.12-.08-.27-.15-.3-.28C139.16,101.57,141.35,99.72,141.6,99.32Z" transform="translate(-58.56 -16.04)"/><path class="cls-41" d="M163.43,73.83a22.06,22.06,0,0,1-6.8-.68c-.57-.15-1.46.21-2.1,0a1.94,1.94,0,0,1-1.31-1.38,12.46,12.46,0,0,1-2.53,2.09,30.1,30.1,0,0,0-7,4.48,4.41,4.41,0,0,0-1.56,4.93c.15.58,5.94,3.69,8.91,3.59,1.59,0,2.08-1.46,2.77-2.72s6.54-1.17,8.58-3.27C164.92,78.27,164.43,76.18,163.43,73.83Z" transform="translate(-58.56 -16.04)"/><path class="cls-38" d="M152.79,65.29l7.23-.07s1.18-7.82-.57-9.89c-.74-.86-3.91-1-3.91-1l-2.48,1.79Z" transform="translate(-58.56 -16.04)"/><polygon class="cls-49" points="98.88 45.36 96.1 49.54 96.14 44.93 97.61 41.1 98.39 41.17 98.88 45.36"/><path class="cls-42" d="M152.4,66.11c0,.25,0,1.36,0,2.66a13.39,13.39,0,0,1-.41,3.55s2.23,2.51,4.68.7c.12-.08.14-.24.19-.38-.23-.48-2.1-1.67-2.14-2.19V69.9a36.35,36.35,0,0,1,0-5.62,17.35,17.35,0,0,1-.44-2.17c0-.21,0-.41,0-.61a19.83,19.83,0,0,1,1.21-7.16l-2.44.09-.12,0a1.34,1.34,0,0,0-.84.7c-.09.18-1.31,4.41-1.41,5.28a5.55,5.55,0,0,0,.46,2.24A22.46,22.46,0,0,1,152.4,66.11Z" transform="translate(-58.56 -16.04)"/><path class="cls-42" d="M154.77,69.9v.55a5.07,5.07,0,0,0,.52,2,6.81,6.81,0,0,0,.72,1.2,3.38,3.38,0,0,0,1,.91,6.76,6.76,0,0,0,.87.3,16,16,0,0,0,6.61.16c0-.55-1.1-3.16-1.43-5.41a5.75,5.75,0,0,1,0-2.16l.15-.62A58.65,58.65,0,0,0,164.37,61c.55-3.91-.11-4.43-.42-4.56-.7-.31-1.42-.64-2.06-.95-1.35-.66-2.39-1.21-2.39-1.21a6.28,6.28,0,0,1-.16,2.13,5.72,5.72,0,0,1-.49,1.27c-.8,1.5-3.39,6.51-3.92,7.23a5,5,0,0,0-.14-.66A36.35,36.35,0,0,0,154.77,69.9Z" transform="translate(-58.56 -16.04)"/><path class="cls-50" d="M154.93,65s4.36-2.53,4.79-4c.24-.78-.95-3.06-.95-3.06a5.28,5.28,0,0,0,1.9-1c1.46-2-1-3-1-3Z" transform="translate(-58.56 -16.04)"/><path class="cls-51" d="M156.34,56.68A2.13,2.13,0,0,0,158,56.6a5.14,5.14,0,0,0,1.73-1.44l.36-4.15-3.73.37s-.4,2.89-.42,3.91C155.91,55.94,155.86,56.44,156.34,56.68Z" transform="translate(-58.56 -16.04)"/><path class="cls-51" d="M155.92,55.29c0-1,.42-3.91.42-3.91l3.73-.37-.27,3.16c-1,.6-2.3.64-3.27,1.47-.12.11,0,.65.22.65l1.12.35a2,2,0,0,1-1.53,0C155.86,56.44,155.91,55.94,155.92,55.29Z" transform="translate(-58.56 -16.04)"/><path class="cls-7" d="M156.32,56.2l1,.2.18.91s-.19.57-1.06.38c-.53-.12-.67-.87-.67-.87Z" transform="translate(-58.56 -16.04)"/><path class="cls-13" d="M156,54.93a.59.59,0,0,0-.13-.6,15,15,0,0,0-1.41.69c-.08.11,0,.25,0,.39,0,.32.08.63.13,1a4.13,4.13,0,0,0,.16,1.17c.08-.05,2-1.19,2.13-1.24a2.66,2.66,0,0,1-.71-.42A1.08,1.08,0,0,1,156,54.93Z" transform="translate(-58.56 -16.04)"/><path class="cls-13" d="M160,55.06a6.34,6.34,0,0,0-.23-.65,3.31,3.31,0,0,1-.43.69,3,3,0,0,1-.58.49,3.94,3.94,0,0,1-.94.52,2.34,2.34,0,0,1-1,.18s1.27,1.51,1.29,1.48C158.21,57.59,160.19,56.05,160,55.06Z" transform="translate(-58.56 -16.04)"/><path class="cls-41" d="M154.93,64.94s-2.83-3.65-2.61-5.22c.1-.72,1.77-2.34,1.77-2.34s-1.1-.81-.83-1.37a2.41,2.41,0,0,1,2.32-1.49Z" transform="translate(-58.56 -16.04)"/><path class="cls-50" d="M154.93,65s-2.5-3.83-2.28-5.4c.1-.71,1.77-2.33,1.77-2.33s-1.1-.81-.83-1.38a2.41,2.41,0,0,1,2.32-1.49Z" transform="translate(-58.56 -16.04)"/><path class="cls-52" d="M164.65,48.72a2.09,2.09,0,0,1-1.84.6A3.05,3.05,0,0,1,162,49a11.09,11.09,0,0,1-1.87-1.29l-.7-3.09a1.88,1.88,0,0,1,.87-1.35h0a2.6,2.6,0,0,1,.79-.33,3.38,3.38,0,0,1,2.52.55,4.14,4.14,0,0,1,1.9,3.3,2.49,2.49,0,0,1,0,.47A2.75,2.75,0,0,1,164.65,48.72Z" transform="translate(-58.56 -16.04)"/><path class="cls-53" d="M160.25,43.24h0a2.6,2.6,0,0,1,.79-.33,3,3,0,0,1,1.16,0c-.74,0-1.33.11-1,.46a7.34,7.34,0,0,1,2.16,6,2.4,2.4,0,0,1-.53,0A3.05,3.05,0,0,1,162,49a11.09,11.09,0,0,1-1.87-1.29l-.7-3.09A1.88,1.88,0,0,1,160.25,43.24Z" transform="translate(-58.56 -16.04)"/><path class="cls-47" d="M155.07,54.67a3.25,3.25,0,0,0,2.8,0,8,8,0,0,0,1.54-.72c.68-.43,1.44-2.9,1.62-3.74a5.8,5.8,0,0,0,.1-.63c.13-2.08-1.77-2.34-3.41-3.48-1.81-1.26-4-.85-4.17,1.88S153.51,53.55,155.07,54.67Z" transform="translate(-58.56 -16.04)"/><path class="cls-47" d="M155.07,54.67a3.25,3.25,0,0,0,2.8,0,3.83,3.83,0,0,1-2.15,0,2.75,2.75,0,0,1-1-.81,5.74,5.74,0,0,1-.9-3.73.44.44,0,0,1,.46-.38,6.45,6.45,0,0,1,2.48.43,6.26,6.26,0,0,0,2.5.46c.49-.07.32-.66.34-1.14l1.54.07c.13-2.08-1.77-2.34-3.41-3.48-1.81-1.26-4-.85-4.17,1.88S153.51,53.55,155.07,54.67Z" transform="translate(-58.56 -16.04)"/><path class="cls-54" d="M154.47,45c1.25-1.34,3-1.33,4.78-1.05a4.26,4.26,0,0,1,3.41,2.88,5.58,5.58,0,0,1-2.11,5.85c-.81.53.37-1.68-.8-1.63-.37,0-.17-.42-.45-.49-.18.11-2.15-.56-3.8-.86-.12,0-.41-.91-.52-.93s-.15.81-.3.78a6.35,6.35,0,0,1-1.5-.47C152.63,47.77,153.58,46,154.47,45Z" transform="translate(-58.56 -16.04)"/><path class="cls-47" d="M159.25,50.69c-.3.63-.21,1.28.19,1.45s1-.21,1.26-.85.2-1.28-.19-1.45S159.54,50.05,159.25,50.69Z" transform="translate(-58.56 -16.04)"/><path class="cls-47" d="M159.6,50.83c-.15.33-.11.67.1.75s.49-.11.65-.43.1-.67-.1-.75S159.75,50.51,159.6,50.83Z" transform="translate(-58.56 -16.04)"/><path class="cls-45" d="M147.62,69.59l.45-.18a1.3,1.3,0,0,1,.31.31,1.55,1.55,0,0,1-.19,1.74,1.3,1.3,0,0,0-.2.27c0,.1-.19.52-.22.59-.25.44-.65.8-.9,1.24-.07.13-.25.58-.42.63a.16.16,0,0,1-.11,0c-.4-.33-.1-.76.15-1.1l-.46.41c-.18.16-1.07,1-1.27.79s0-.27.11-.35a11.11,11.11,0,0,1,1-1c-.32.27-.62.54-.94.8-.14.12-.73.58-.92.36a.18.18,0,0,1,0-.22,5.93,5.93,0,0,1,.86-.79c-.2.15-.41.29-.62.43s-.29.2-.42.1,0-.3.07-.39a8.28,8.28,0,0,1,1.16-1c-.29.11-.93.57-1.2.62a0,0,0,0,1,0,0c-.08,0-.12,0-.11-.08a.41.41,0,0,1,.15-.25c.43-.43.67-.69,1.09-1.13a6.33,6.33,0,0,1,.69-.57c.26-.17.46-.32.69-.5s.41-.28.66-.43Z" transform="translate(-58.56 -16.04)"/><path class="cls-38" d="M146.44,70.07a.09.09,0,0,0,0,.06,6.37,6.37,0,0,0,1.39,1.45.18.18,0,0,0,.09,0s.19.07.22.06a3.15,3.15,0,0,0,.53-.87s-1.19-.59-1.29-.65l-.24-.19c-.07-.06-.16-.18-.25-.21A.64.64,0,0,0,146.44,70.07Z" transform="translate(-58.56 -16.04)"/><g class="cls-11"><polygon class="cls-37" points="91.55 80.91 111.15 70.08 109.25 69.03 89.66 79.86 91.55 80.91"/><polygon class="cls-39" points="89.66 79.86 89.65 97.73 91.55 98.78 91.55 80.91 89.66 79.86"/></g><g class="cls-11"><polygon class="cls-38" points="111.15 69.1 91.55 79.93 91.55 81.61 91.55 81.61 91.55 98.78 111.14 87.95 111.15 70.08 111.15 70.08 111.15 69.1"/><polygon class="cls-55" points="111.15 69.1 91.55 79.93 56.72 60.81 76.31 49.98 87.16 55.94 97.58 61.65 101.05 63.56 101.52 63.82 111.15 69.1"/><polygon class="cls-39" points="56.72 60.81 56.71 62.49 91.55 81.61 91.55 79.93 56.72 60.81"/></g><path class="cls-42" d="M157.14,79.17v.16l-13.2-7.44a1.53,1.53,0,0,0-1.32,0l-6,3.2v0h-.75v.66h0a.47.47,0,0,0,.27.34l13.33,7.5a1.49,1.49,0,0,0,1.32,0l6.44-3.46a.42.42,0,0,0,.27-.38h0v-.57Z" transform="translate(-58.56 -16.04)"/><path class="cls-50" d="M157.26,78.81l-13.32-7.5a1.53,1.53,0,0,0-1.32,0l-6.44,3.46c-.37.2-.37.53,0,.73L149.5,83a1.53,1.53,0,0,0,1.32,0l6.44-3.47C157.62,79.34,157.63,79,157.26,78.81Z" transform="translate(-58.56 -16.04)"/><path class="cls-56" d="M150.17,82.88a1.07,1.07,0,0,1-.53-.12l-13.33-7.5c-.09-.05-.14-.11-.14-.14s.05-.09.14-.14l6.44-3.46a1.13,1.13,0,0,1,.51-.11,1.11,1.11,0,0,1,.54.12L157.12,79c.1,0,.14.11.14.14s0,.09-.13.14l-6.45,3.46a1.1,1.1,0,0,1-.51.11Z" transform="translate(-58.56 -16.04)"/><polygon class="cls-57" points="87.42 57.48 86.39 58.04 85.33 57.44 86.36 56.89 87.42 57.48"/><polygon class="cls-57" points="85.97 58.05 84.94 58.61 82.33 57.15 83.36 56.59 85.97 58.05"/><polygon class="cls-57" points="92.47 60.32 91.45 60.87 86.59 58.15 87.62 57.59 92.47 60.32"/><polygon class="cls-57" points="84.05 58.36 83.02 58.92 81.07 57.83 82.1 57.27 84.05 58.36"/><polygon class="cls-57" points="89.95 58.9 88.92 59.45 87.86 58.86 88.89 58.3 89.95 58.9"/><polygon class="cls-57" points="85.24 59.03 84.22 59.59 83.16 58.99 84.18 58.44 85.24 59.03"/><polygon class="cls-57" points="88.44 59.44 87.41 59.99 86.35 59.4 87.38 58.84 88.44 59.44"/><polygon class="cls-57" points="83.45 59.42 82.43 59.97 79.81 58.51 80.84 57.95 83.45 59.42"/><polygon class="cls-57" points="91.21 59.6 90.18 60.16 89.12 59.57 90.15 59.01 91.21 59.6"/><polygon class="cls-57" points="86.44 59.7 85.41 60.26 84.35 59.66 85.38 59.11 86.44 59.7"/><polygon class="cls-57" points="89.65 60.11 88.62 60.67 87.56 60.08 88.59 59.52 89.65 60.11"/><polygon class="cls-57" points="84.66 60.09 83.64 60.65 82.58 60.05 83.6 59.5 84.66 60.09"/><polygon class="cls-57" points="87.63 60.37 86.61 60.93 85.54 60.33 86.57 59.78 87.63 60.37"/><polygon class="cls-57" points="85.84 60.75 84.82 61.31 83.76 60.72 84.78 60.16 85.84 60.75"/><polygon class="cls-57" points="93.74 61.02 92.71 61.58 91.65 60.98 92.68 60.42 93.74 61.02"/><polygon class="cls-57" points="88.83 61.04 87.8 61.59 86.74 61 87.77 60.44 88.83 61.04"/><polygon class="cls-57" points="87.04 61.42 86.01 61.98 84.95 61.38 85.98 60.83 87.04 61.42"/><polygon class="cls-57" points="95 61.73 93.97 62.28 92.91 61.69 93.94 61.13 95 61.73"/><polygon class="cls-57" points="90.02 61.71 88.99 62.26 87.93 61.67 88.96 61.11 90.02 61.71"/><polygon class="cls-57" points="93.27 62.14 92.25 62.7 91.18 62.11 92.21 61.55 93.27 62.14"/><polygon class="cls-57" points="88.22 62.08 87.19 62.64 86.13 62.05 87.16 61.49 88.22 62.08"/><polygon class="cls-57" points="96.27 62.44 95.24 62.99 94.18 62.4 95.2 61.84 96.27 62.44"/><polygon class="cls-57" points="97.53 63.14 96.5 63.7 95.44 63.1 96.47 62.55 97.53 63.14"/><polygon class="cls-57" points="91.21 62.38 90.19 62.93 89.13 62.34 90.15 61.78 91.21 62.38"/><polygon class="cls-57" points="94.48 62.82 93.45 63.38 92.39 62.78 93.42 62.23 94.48 62.82"/><polygon class="cls-57" points="89.45 62.77 88.43 63.33 87.36 62.74 88.39 62.18 89.45 62.77"/><polygon class="cls-57" points="92.41 63.05 91.38 63.6 90.32 63.01 91.35 62.45 92.41 63.05"/><polygon class="cls-57" points="90.64 63.44 89.61 63.99 88.55 63.4 89.57 62.84 90.64 63.44"/><polygon class="cls-57" points="93.83 63.84 92.8 64.4 91.51 63.67 92.54 63.12 93.83 63.84"/><polygon class="cls-57" points="96.27 63.82 95.25 64.38 93.6 63.46 94.63 62.9 96.27 63.82"/><polygon class="cls-57" points="93.69 65.2 92.67 65.75 90.89 64.76 91.92 64.2 93.69 65.2"/><polygon class="cls-57" points="91.83 64.11 90.8 64.66 89.74 64.07 90.77 63.51 91.83 64.11"/><polygon class="cls-57" points="85.67 56.51 84.65 57.06 83.59 56.47 84.61 55.91 85.67 56.51"/><polygon class="cls-57" points="87.23 58.76 86.2 59.32 85.14 58.72 86.17 58.17 87.23 58.76"/><polygon class="cls-57" points="92.47 60.31 91.45 60.87 90.39 60.27 91.41 59.72 92.47 60.31"/><polygon class="cls-57" points="82.41 60.18 81.38 60.74 80.32 60.14 81.34 59.59 82.41 60.18"/><polygon class="cls-57" points="83.67 60.89 82.64 61.45 81.58 60.85 82.61 60.3 83.67 60.89"/><polygon class="cls-57" points="84.93 61.6 83.91 62.15 82.84 61.56 83.87 61 84.93 61.6"/><polygon class="cls-57" points="86.2 62.3 85.17 62.86 84.11 62.27 85.13 61.71 86.2 62.3"/><polygon class="cls-57" points="88.72 63.72 87.7 64.28 86.63 63.68 87.66 63.13 88.72 63.72"/><polygon class="cls-57" points="89.99 64.43 88.96 64.98 87.9 64.39 88.93 63.83 89.99 64.43"/><polygon class="cls-57" points="91.25 65.14 90.22 65.69 89.16 65.1 90.19 64.54 91.25 65.14"/><polygon class="cls-57" points="92.53 65.83 91.5 66.38 90.44 65.79 91.47 65.23 92.53 65.83"/><polygon class="cls-57" points="94.94 64.53 93.91 65.08 92.85 64.49 93.87 63.93 94.94 64.53"/><polygon class="cls-57" points="80.66 59.21 79.63 59.76 78.57 59.17 79.6 58.61 80.66 59.21"/><polygon class="cls-57" points="87.46 63.01 86.43 63.57 85.37 62.97 86.4 62.42 87.46 63.01"/><polygon class="cls-57" points="90.86 60.79 89.83 61.35 88.77 60.75 89.79 60.2 90.86 60.79"/><polygon class="cls-57" points="92.06 61.47 91.04 62.02 89.97 61.43 91 60.87 92.06 61.47"/><path class="cls-42" d="M129.53,60.73h0Z" transform="translate(-58.56 -16.04)"/><path class="cls-42" d="M129.47,60.78h0Z" transform="translate(-58.56 -16.04)"/><path class="cls-42" d="M129.37,61s0,0,0,0S129.38,61,129.37,61Z" transform="translate(-58.56 -16.04)"/><path class="cls-42" d="M129.41,60.87l0,0Z" transform="translate(-58.56 -16.04)"/><g class="cls-11"><polygon class="cls-39" points="98.98 72.13 98.98 72.26 91.52 76.4 91.52 76.27 98.98 72.13"/><polygon class="cls-39" points="91.52 76.27 91.52 76.4 85.86 73.28 85.86 73.15 91.52 76.27"/><polygon class="cls-58" points="98.98 72.13 91.52 76.27 85.86 73.15 93.32 69.01 98.98 72.13"/></g><g class="cls-11"><polygon class="cls-39" points="98.98 71.69 98.98 71.81 91.52 75.96 91.52 75.83 98.98 71.69"/><polygon class="cls-39" points="91.52 75.83 91.52 75.96 85.86 72.83 85.86 72.7 91.52 75.83"/><polygon class="cls-57" points="98.98 71.69 91.52 75.83 85.86 72.7 93.32 68.56 98.98 71.69"/></g><path class="cls-57" d="M149.49,93.29h0a1,1,0,0,0,.87,0V94a1,1,0,0,1-.87,0v-.08h0l-4-2.14v-.74Z" transform="translate(-58.56 -16.04)"/><path class="cls-42" d="M149.35,93.22l.14.08a1,1,0,0,0,.87,0l6.45-3.56c.24-.13.24-.35,0-.48l-.15-.08Z" transform="translate(-58.56 -16.04)"/><path class="cls-42" d="M145.15,90.41c-.24.13-.24.35,0,.48l3.21,1.78.6.34.39.21,7.32-4,.15.08c.23.13.23.35,0,.48l-6.45,3.56a1,1,0,0,1-.87,0,1,1,0,0,0,.87,0l6.45-3.56c.24-.13.24-.35,0-.48l-4.35-2.41a1,1,0,0,0-.86,0Z" transform="translate(-58.56 -16.04)"/><path class="cls-57" d="M145,90.64v.75a.31.31,0,0,0,.18.24v-.75A.3.3,0,0,1,145,90.64Z" transform="translate(-58.56 -16.04)"/><polygon class="cls-49" points="86.58 74.83 86.89 75 94.21 70.96 93.91 70.8 86.58 74.83"/><path class="cls-42" d="M150.36,93.29l6.45-3.56q.18-.11.18-.24v.75a.31.31,0,0,1-.18.24L150.36,94a.94.94,0,0,1-.48.09v-.74A1.06,1.06,0,0,0,150.36,93.29Z" transform="translate(-58.56 -16.04)"/><path class="cls-42" d="M145.15,90.88l3.21,1.78.6.34.39.21.14.08a1,1,0,0,0,.87,0l6.45-3.56q.18-.11.18-.24v.16a.28.28,0,0,1-.18.24l-6.45,3.57a1,1,0,0,1-.87,0l-.14-.08-.39-.22-.6-.33L145.15,91a.28.28,0,0,1-.18-.23v-.17Q145,90.78,145.15,90.88Z" transform="translate(-58.56 -16.04)"/><path class="cls-50" d="M145.15,90.88l3.21,1.78.6.34.39.21.14.08a.89.89,0,0,0,.41.1v.16a.88.88,0,0,1-.41-.09l-.14-.08-.39-.22-.6-.33L145.15,91a.28.28,0,0,1-.18-.23v-.17Q145,90.78,145.15,90.88Z" transform="translate(-58.56 -16.04)"/><path class="cls-50" d="M145.15,91.46l3.21,1.78.6.34.39.21.14.08a.78.78,0,0,0,.41.1v.17a1,1,0,0,1-.41-.1l-.14-.08-.39-.22-.6-.33-3.21-1.78a.31.31,0,0,1-.18-.24v-.17A.28.28,0,0,0,145.15,91.46Z" transform="translate(-58.56 -16.04)"/><polygon class="cls-59" points="89.14 76.94 89.14 77.11 89.63 77.17 89.63 77 89.14 76.94"/><polygon class="cls-59" points="89.63 77 89.63 77.17 89.74 77.44 89.74 77.27 89.63 77"/><polygon class="cls-59" points="89.74 77.27 89.74 77.44 90.15 77.22 90.15 77.05 89.74 77.27"/><polygon class="cls-49" points="89.14 76.94 89.63 77 89.74 77.27 90.15 77.05 89.55 76.71 89.14 76.94"/><polygon class="cls-59" points="86.58 74.83 86.59 75.58 86.89 75.75 86.89 75 86.58 74.83"/><g class="cls-11"><path class="cls-49" d="M149.82,86.63a.06.06,0,0,1-.08,0,.18.18,0,0,1-.08-.14.05.05,0,0,1,0-.06l.29,0C149.93,86.47,149.88,86.55,149.82,86.63Z" transform="translate(-58.56 -16.04)"/><path class="cls-49" d="M150,86.4c-.06.07-.11.15-.17.23a.43.43,0,0,0,0,0Z" transform="translate(-58.56 -16.04)"/><path class="cls-49" d="M149.7,86.43l.29,0-.16.18a.18.18,0,0,0-.09-.14Z" transform="translate(-58.56 -16.04)"/><path class="cls-60" d="M149.83,86.58c0,.06,0,.08-.09,0a.18.18,0,0,1-.08-.14s0-.07.08,0A.18.18,0,0,1,149.83,86.58Z" transform="translate(-58.56 -16.04)"/></g><g class="cls-11"><path class="cls-61" d="M149.83,86.58c0,.06,0,.08-.09,0a.18.18,0,0,1-.08-.14s0-.07.08,0A.18.18,0,0,1,149.83,86.58Z" transform="translate(-58.56 -16.04)"/><path class="cls-61" d="M149.64,86.85s-.08.05-.15,0a.37.37,0,0,1-.17-.28c0-.07,0-.12.08-.12l.3,0a.05.05,0,0,0,0,.06.18.18,0,0,0,.08.14.06.06,0,0,0,.08,0h0Z" transform="translate(-58.56 -16.04)"/><path class="cls-61" d="M149.82,86.63l-.09.11-.09.11a.19.19,0,0,0,0-.08l.17-.19A.43.43,0,0,1,149.82,86.63Z" transform="translate(-58.56 -16.04)"/><path class="cls-61" d="M149.4,86.47l.3,0h0a.18.18,0,0,1,.09.14l-.17.19a.35.35,0,0,0-.17-.28A.15.15,0,0,0,149.4,86.47Z" transform="translate(-58.56 -16.04)"/><path class="cls-61" d="M149.66,86.77c0,.1-.07.15-.17.1a.37.37,0,0,1-.17-.28c0-.11.07-.15.17-.1A.35.35,0,0,1,149.66,86.77Z" transform="translate(-58.56 -16.04)"/></g><g class="cls-11"><path class="cls-62" d="M149.66,86.77c0,.1-.07.15-.17.1a.37.37,0,0,1-.17-.28c0-.11.07-.15.17-.1A.35.35,0,0,1,149.66,86.77Z" transform="translate(-58.56 -16.04)"/><path class="cls-49" d="M145.7,89.05s-.07,0-.12,0a.34.34,0,0,1-.17-.28c0-.05,0-.09.05-.11l3.91-2.17a.12.12,0,0,0-.05.11.37.37,0,0,0,.17.28.17.17,0,0,0,.12,0Z" transform="translate(-58.56 -16.04)"/><path class="cls-49" d="M149.61,86.88l-3.91,2.17a.13.13,0,0,0,.05-.11l3.91-2.17A.13.13,0,0,1,149.61,86.88Z" transform="translate(-58.56 -16.04)"/><path class="cls-49" d="M145.46,88.65l3.91-2.17a.11.11,0,0,1,.12,0,.35.35,0,0,1,.17.28l-3.91,2.17a.35.35,0,0,0-.18-.28A.14.14,0,0,0,145.46,88.65Z" transform="translate(-58.56 -16.04)"/><path class="cls-59" d="M145.75,88.94c0,.11-.08.15-.17.1a.34.34,0,0,1-.17-.28c0-.1.07-.15.16-.1A.35.35,0,0,1,145.75,88.94Z" transform="translate(-58.56 -16.04)"/></g><g class="cls-11"><path class="cls-63" d="M150.37,87.11a0,0,0,0,1-.07,0,.18.18,0,0,1-.09-.14s0-.06,0-.06l.3,0Z" transform="translate(-58.56 -16.04)"/><path class="cls-63" d="M150.55,86.89l-.18.22s0,0,0,0Z" transform="translate(-58.56 -16.04)"/><path class="cls-63" d="M150.25,86.92l.3,0-.17.18a.2.2,0,0,0-.08-.14Z" transform="translate(-58.56 -16.04)"/><path class="cls-60" d="M150.38,87.07c0,.05,0,.07-.08.05a.18.18,0,0,1-.09-.14s0-.07.09,0A.2.2,0,0,1,150.38,87.07Z" transform="translate(-58.56 -16.04)"/></g><g class="cls-11"><path class="cls-61" d="M150.38,87.07c0,.05,0,.07-.08.05a.18.18,0,0,1-.09-.14s0-.07.09,0A.2.2,0,0,1,150.38,87.07Z" transform="translate(-58.56 -16.04)"/><path class="cls-61" d="M150.19,87.34s-.08,0-.14,0a.35.35,0,0,1-.17-.28c0-.07,0-.11.08-.11l.29,0s0,0,0,.06a.18.18,0,0,0,.09.14,0,0,0,0,0,.07,0v0Z" transform="translate(-58.56 -16.04)"/><path class="cls-61" d="M150.37,87.11l-.09.12-.09.11a.11.11,0,0,0,0-.08l.16-.19S150.38,87.1,150.37,87.11Z" transform="translate(-58.56 -16.04)"/><path class="cls-61" d="M150,87l.29,0h.05a.2.2,0,0,1,.08.14l-.16.19A.34.34,0,0,0,150,87,.09.09,0,0,0,150,87Z" transform="translate(-58.56 -16.04)"/><path class="cls-61" d="M150.22,87.26c0,.1-.08.14-.17.09a.35.35,0,0,1-.17-.28c0-.1.07-.14.16-.09A.34.34,0,0,1,150.22,87.26Z" transform="translate(-58.56 -16.04)"/></g><g class="cls-11"><path class="cls-62" d="M150.22,87.26c0,.1-.08.14-.17.09a.35.35,0,0,1-.17-.28c0-.1.07-.14.16-.09A.34.34,0,0,1,150.22,87.26Z" transform="translate(-58.56 -16.04)"/><path class="cls-63" d="M146.25,89.54a.17.17,0,0,1-.12,0,.37.37,0,0,1-.17-.28.12.12,0,0,1,0-.11L149.93,87a.1.1,0,0,0-.05.1.35.35,0,0,0,.17.28.11.11,0,0,0,.12,0Z" transform="translate(-58.56 -16.04)"/><path class="cls-63" d="M150.17,87.36l-3.92,2.18a.13.13,0,0,0,.05-.11l3.92-2.17A.1.1,0,0,1,150.17,87.36Z" transform="translate(-58.56 -16.04)"/><path class="cls-63" d="M146,89.14,149.93,87a.09.09,0,0,1,.11,0,.34.34,0,0,1,.18.28l-3.92,2.17a.35.35,0,0,0-.17-.28S146,89.12,146,89.14Z" transform="translate(-58.56 -16.04)"/><path class="cls-64" d="M146.3,89.43c0,.1-.07.15-.17.1a.37.37,0,0,1-.17-.28c0-.11.08-.15.17-.1A.35.35,0,0,1,146.3,89.43Z" transform="translate(-58.56 -16.04)"/></g><path class="cls-49" d="M128.4,66.35c1.34.74,1.35,1.94,0,2.68a5.55,5.55,0,0,1-4.84,0c-1.34-.74-1.34-1.94,0-2.68A5.53,5.53,0,0,1,128.4,66.35Z" transform="translate(-58.56 -16.04)"/><path class="cls-49" d="M129.41,67.69a3.42,3.42,0,0,0-6.83,0Z" transform="translate(-58.56 -16.04)"/><g class="cls-11"><g class="cls-11"><g class="cls-11"><path class="cls-65" d="M124.31,76.51v.54a1.3,1.3,0,0,1-.71,1v-.54a1.3,1.3,0,0,0,.71-1Z" transform="translate(-58.56 -16.04)"/><path class="cls-66" d="M123.6,77.55v.54l-.12.07a4.18,4.18,0,0,1-1.55.44v-.54a4,4,0,0,0,1.54-.44l.12-.07Z" transform="translate(-58.56 -16.04)"/><path class="cls-65" d="M121.94,78.06v.54a4.52,4.52,0,0,1-2.48-.44,1.34,1.34,0,0,1-.83-1.13V76.5a1.36,1.36,0,0,0,.84,1.12,4.49,4.49,0,0,0,2.48.44Z" transform="translate(-58.56 -16.04)"/></g></g><path class="cls-67" d="M123.47,75.39c1.11.62,1.12,1.62,0,2.23a4.58,4.58,0,0,1-4,0c-1.12-.61-1.12-1.61,0-2.23A4.67,4.67,0,0,1,123.47,75.39Z" transform="translate(-58.56 -16.04)"/></g><g class="cls-11"><g class="cls-11"><path class="cls-7" d="M122.94,76.24v.38a.65.65,0,0,1-.37.53v-.37a.68.68,0,0,0,.36-.54Z" transform="translate(-58.56 -16.04)"/><path class="cls-7" d="M122.58,76.78v.37l-.06,0a2.07,2.07,0,0,1-.8.23V77a2,2,0,0,0,.8-.23l.07,0Z" transform="translate(-58.56 -16.04)"/><path class="cls-7" d="M121.71,77v.38a2.37,2.37,0,0,1-1.29-.23.71.71,0,0,1-.44-.58v-.38a.71.71,0,0,0,.44.58,2.3,2.3,0,0,0,1.29.23Z" transform="translate(-58.56 -16.04)"/></g><path class="cls-49" d="M122.51,75.65c.58.32.58.84,0,1.16a2.4,2.4,0,0,1-2.09,0c-.58-.32-.58-.84,0-1.16A2.42,2.42,0,0,1,122.51,75.65Z" transform="translate(-58.56 -16.04)"/></g><g class="cls-11"><g class="cls-11"><path class="cls-65" d="M118,68.65l4,7.41a.26.26,0,0,1-.14.2l-4-7.4a.26.26,0,0,0,.14-.21Z" transform="translate(-58.56 -16.04)"/><path class="cls-65" d="M117.83,68.86l4,7.4h0a.75.75,0,0,1-.31.09l-4-7.4a.8.8,0,0,0,.31-.09Z" transform="translate(-58.56 -16.04)"/><path class="cls-65" d="M117.5,69l4,7.4a.64.64,0,0,1-.48-.09,1.67,1.67,0,0,1-.21-.28l-4-7.34a.26.26,0,0,0,.16.22,1,1,0,0,0,.49.09Z" transform="translate(-58.56 -16.04)"/></g><path class="cls-68" d="M117.8,68.43c.22.12.22.32,0,.44a.93.93,0,0,1-.8,0c-.22-.12-.22-.32,0-.44A.91.91,0,0,1,117.8,68.43Z" transform="translate(-58.56 -16.04)"/></g><g class="cls-11"><g class="cls-11"><path class="cls-65" d="M125.83,63.24,118,68.57a.27.27,0,0,1-.15.22l7.79-5.33a.27.27,0,0,0,.15-.22Z" transform="translate(-58.56 -16.04)"/><path class="cls-65" d="M125.33,63.57l-7.79,5.33a.9.9,0,0,1-.52-.09q-.18-.11-.18-.24l7.79-5.33a.3.3,0,0,0,.17.24.93.93,0,0,0,.53.09Z" transform="translate(-58.56 -16.04)"/></g><path class="cls-65" d="M125.65,63c.24.13.24.34,0,.47a1,1,0,0,1-.86,0c-.23-.13-.23-.34,0-.47A1,1,0,0,1,125.65,63Z" transform="translate(-58.56 -16.04)"/></g><path class="cls-65" d="M125.68,63.46l-7.79,5.33,0,0a.85.85,0,0,1-.33.09l7.79-5.33a.9.9,0,0,0,.33-.09l0,0Z" transform="translate(-58.56 -16.04)"/><g class="cls-11"><g class="cls-11"><path class="cls-59" d="M117.33,68.21l.35-.19a.54.54,0,0,0-.35-.08l-.34.19a.51.51,0,0,1,.34.08Z" transform="translate(-58.56 -16.04)"/><path class="cls-59" d="M117,68.13l.34-.19a.45.45,0,0,0-.11,0l-.34.2a.21.21,0,0,1,.11,0Z" transform="translate(-58.56 -16.04)"/></g><g class="cls-11"><path class="cls-59" d="M117.78,69.66l.35-.2a.42.42,0,0,0,.18-.39,1.08,1.08,0,0,0-.1-.45l-.35.19a1.1,1.1,0,0,1,.11.45.42.42,0,0,1-.19.4Z" transform="translate(-58.56 -16.04)"/><path class="cls-59" d="M117.86,68.81l.35-.19a1.36,1.36,0,0,0-.53-.6l-.35.19a1.36,1.36,0,0,1,.53.6Z" transform="translate(-58.56 -16.04)"/></g><path class="cls-7" d="M117.33,68.21c-.35-.2-.64,0-.64.35a1.3,1.3,0,0,0,.64,1c.35.2.64,0,.64-.35A1.34,1.34,0,0,0,117.33,68.21Z" transform="translate(-58.56 -16.04)"/></g><g class="cls-11"><g class="cls-11"><path class="cls-7" d="M127.4,62.44v2.32a.65.65,0,0,1-.35.51V63a.6.6,0,0,0,.35-.51Z" transform="translate(-58.56 -16.04)"/><path class="cls-7" d="M127.05,63v2.32l-.06,0a1.83,1.83,0,0,1-.76.22V63.21A2.09,2.09,0,0,0,127,63a.1.1,0,0,0,0,0Z" transform="translate(-58.56 -16.04)"/><path class="cls-7" d="M126.23,63.21v2.31A2.14,2.14,0,0,1,125,65.3a.67.67,0,0,1-.42-.55l0-2.31A.67.67,0,0,0,125,63a2.25,2.25,0,0,0,1.22.22Z" transform="translate(-58.56 -16.04)"/></g><path class="cls-49" d="M127,61.89c.55.3.55.8,0,1.1a2.31,2.31,0,0,1-2,0c-.55-.3-.55-.8,0-1.1A2.29,2.29,0,0,1,127,61.89Z" transform="translate(-58.56 -16.04)"/></g><g class="cls-11"><g class="cls-11"><g class="cls-11"><path class="cls-65" d="M126.79,62v.38a.33.33,0,0,1-.2.29v-.38a.35.35,0,0,0,.2-.29Z" transform="translate(-58.56 -16.04)"/><path class="cls-66" d="M126.59,62.31v.38l0,0a1,1,0,0,1-.43.12v-.38a1,1,0,0,0,.43-.12l0,0Z" transform="translate(-58.56 -16.04)"/><path class="cls-65" d="M126.13,62.45v.38a1.22,1.22,0,0,1-.69-.12.39.39,0,0,1-.23-.31V62a.36.36,0,0,0,.23.31,1.14,1.14,0,0,0,.69.12Z" transform="translate(-58.56 -16.04)"/></g></g><path class="cls-67" d="M126.56,61.71c.31.17.31.45,0,.62a1.29,1.29,0,0,1-1.12,0c-.31-.17-.31-.45,0-.62A1.29,1.29,0,0,1,126.56,61.71Z" transform="translate(-58.56 -16.04)"/></g><g class="cls-11"><path class="cls-57" d="M135.78,80.08l-2.9,1.6a.34.34,0,0,1,.32,0l2.9-1.6A.34.34,0,0,0,135.78,80.08Z" transform="translate(-58.56 -16.04)"/></g><path class="cls-50" d="M149.51,69.24,130.88,59a.7.7,0,0,0-.66-.06l-1.32.74a.68.68,0,0,1,.65.06l.88.48-.91.51a.37.37,0,0,0-.16.33l0,11.17-.74.41,7.29,4-.78.44a7.65,7.65,0,0,0,2,.92c1,.43,2,1,3,1.53s2.21,1,3.3,1.51c.31.15.68.3,1,.47v-.19l4.65,2.53v.48a.6.6,0,0,1-.26.56l1.33-.73a.61.61,0,0,0,.26-.56V81.88l0-11.13A1.93,1.93,0,0,0,149.51,69.24Z" transform="translate(-58.56 -16.04)"/><path class="cls-42" d="M148.94,70.84a2.13,2.13,0,0,0-.59-.76l-.17-.11-10.66-5.85-7.09-3.89h0l-.88-.48c-.51-.28-.92,0-.92.5l0,11.13v1.76a1.93,1.93,0,0,0,.91,1.51l18.63,10.22c.51.28.92,0,.93-.5V82.62l0-6.18,0-5A1.55,1.55,0,0,0,148.94,70.84Z" transform="translate(-58.56 -16.04)"/><g class="cls-11"><g class="cls-11"><g class="cls-11"><g class="cls-69"><path class="cls-70" d="M131.51,81.24v.42a.26.26,0,0,1-.16-.22V81a.26.26,0,0,0,.16.22Z" transform="translate(-58.56 -16.04)"/></g></g><g class="cls-11"><g class="cls-71"><path class="cls-70" d="M143.54,83.17v.42a.26.26,0,0,1-.16.21v-.42a.26.26,0,0,0,.16-.21Z" transform="translate(-58.56 -16.04)"/></g></g><polygon class="cls-70" points="84.82 67.33 84.82 67.75 81.23 69.74 81.23 69.31 84.82 67.33"/><polygon class="cls-70" points="80.46 69.31 80.46 69.74 72.95 65.61 72.95 65.19 80.46 69.31"/><g class="cls-11"><g class="cls-72"><path class="cls-70" d="M139.79,85.36v.42a.87.87,0,0,1-.77,0v-.42a.87.87,0,0,0,.77,0Z" transform="translate(-58.56 -16.04)"/></g></g><path class="cls-50" d="M143.38,83c.21.12.22.31,0,.43l-3.59,2a.87.87,0,0,1-.77,0l-7.51-4.12c-.21-.12-.21-.31,0-.43l3.59-2a.87.87,0,0,1,.77,0Z" transform="translate(-58.56 -16.04)"/></g><g class="cls-11"><g class="cls-73"><path class="cls-50" d="M135,74.27l.88-.48a.58.58,0,0,0-.24.27l-.88.49a.56.56,0,0,1,.24-.28Z" transform="translate(-58.56 -16.04)"/><path class="cls-50" d="M134.8,74.55l.88-.49a1,1,0,0,0-.07.36l-.89.48a1,1,0,0,1,.08-.35Z" transform="translate(-58.56 -16.04)"/><path class="cls-50" d="M134.72,74.9l.89-.48v0a2.2,2.2,0,0,0,.69,1.49l-.89.49a2.29,2.29,0,0,1-.69-1.49v0Z" transform="translate(-58.56 -16.04)"/><path class="cls-50" d="M135.41,76.43l.89-.49a1.93,1.93,0,0,0,.36.28l-.88.48a1.84,1.84,0,0,1-.37-.27Z" transform="translate(-58.56 -16.04)"/><path class="cls-50" d="M135.78,76.7l.88-.48,0,0-.88.48,0,0Z" transform="translate(-58.56 -16.04)"/></g></g><g class="cls-11"><g class="cls-74"><path class="cls-50" d="M135.81,76.72l.88-.48a.83.83,0,0,0,.78.07l-.89.49a.79.79,0,0,1-.77-.08Z" transform="translate(-58.56 -16.04)"/></g></g><polygon class="cls-50" points="79.25 60.13 80.13 59.65 80.11 68.16 79.23 68.65 79.25 60.13"/><g class="cls-11"><g class="cls-75"><path class="cls-50" d="M134.4,72.77l.88-.48a1.45,1.45,0,0,1,1.42.12l-.88.49a1.48,1.48,0,0,0-1.42-.13Z" transform="translate(-58.56 -16.04)"/></g></g><g class="cls-11"><g class="cls-76"><path class="cls-50" d="M135.82,72.9l.88-.49.06,0-.88.49-.06,0Z" transform="translate(-58.56 -16.04)"/><path class="cls-50" d="M135.88,72.94l.88-.49a2.92,2.92,0,0,1,.66.51l-.88.49a3.16,3.16,0,0,0-.66-.51Z" transform="translate(-58.56 -16.04)"/><path class="cls-50" d="M136.54,73.45l.88-.49a4.07,4.07,0,0,1,1.27,2.73l-.88.49a4.14,4.14,0,0,0-1.27-2.73Z" transform="translate(-58.56 -16.04)"/></g></g><path class="cls-70" d="M135.84,72.9a4.15,4.15,0,0,1,2,3.28l0,8.51-4-2.19,0-8.51C133.84,72.79,134.74,72.3,135.84,72.9Zm0,3.82c.6.33,1.09.07,1.09-.59a2.23,2.23,0,0,0-1.09-1.78c-.6-.34-1.09-.07-1.09.59a2.27,2.27,0,0,0,1.09,1.78Z" transform="translate(-58.56 -16.04)"/></g><polygon class="cls-50" points="89.17 62.86 85.95 61.09 85.95 65.44 89.17 67.21 89.17 62.86"/><polygon class="cls-77" points="97.56 72.79 97.56 72.79 97.7 72.87 97.56 72.79"/><g class="cls-11"><path class="cls-78" d="M158.63,82.91l-.19-.1.11-.19.12-.25.19.1c0,.09-.08.17-.13.26A1.62,1.62,0,0,1,158.63,82.91Z" transform="translate(-58.56 -16.04)"/><path class="cls-59" d="M159.65,80.59l.18.1h0s0,.16,0,.43a1.9,1.9,0,0,1-.94,1.33h0l-.19-.1h0a1.92,1.92,0,0,0,.94-1.33c.07-.27.06-.41,0-.44Z" transform="translate(-58.56 -16.04)"/><path class="cls-49" d="M159.86,80.24l.19.1a.57.57,0,0,0-.48.1l-.19-.11C159.55,80.24,159.74,80.17,159.86,80.24Z" transform="translate(-58.56 -16.04)"/><path class="cls-79" d="M159.1,81l-.19-.11c0-.12,0-.24.05-.37l.19.11C159.13,80.76,159.12,80.88,159.1,81Z" transform="translate(-58.56 -16.04)"/><path class="cls-49" d="M159.15,80.64l-.19-.11.42-.2.19.11C159.51,80.47,159.2,80.6,159.15,80.64Z" transform="translate(-58.56 -16.04)"/><path class="cls-7" d="M159.57,80.44c.35-.19.76-.27.54.63a2.51,2.51,0,0,1-1.23,1.72,1.42,1.42,0,0,1-.25.12,1.62,1.62,0,0,0,.1-.18c.05-.09.09-.17.13-.26h0a1.9,1.9,0,0,0,.94-1.33c.06-.27.05-.4,0-.43s-.13,0-.27.07a5.16,5.16,0,0,0-.47.24c0-.13,0-.25.05-.37S159.51,80.47,159.57,80.44Z" transform="translate(-58.56 -16.04)"/></g><g class="cls-11"><path class="cls-7" d="M159.23,80.22V83a.78.78,0,0,1-.46.61,2.61,2.61,0,0,1-2.22,0,.74.74,0,0,1-.46-.62V80.21a.74.74,0,0,0,.46.61,2.54,2.54,0,0,0,2.22,0A.73.73,0,0,0,159.23,80.22Z" transform="translate(-58.56 -16.04)"/><g class="cls-80"><g class="cls-11"><path class="cls-7" d="M159.23,80.22V83a.78.78,0,0,1-.46.61,2.14,2.14,0,0,1-.89.24V81.07a2.3,2.3,0,0,0,.89-.25.73.73,0,0,0,.45-.6Z" transform="translate(-58.56 -16.04)"/><path class="cls-7" d="M157.89,81.07v2.79a2.43,2.43,0,0,1-1.33-.24.74.74,0,0,1-.46-.62V80.21a.74.74,0,0,0,.46.61,2.52,2.52,0,0,0,1.33.25Z" transform="translate(-58.56 -16.04)"/></g></g><path class="cls-49" d="M158.77,79.6c.61.34.62.88,0,1.22a2.54,2.54,0,0,1-2.22,0c-.62-.34-.62-.88,0-1.22A2.54,2.54,0,0,1,158.77,79.6Z" transform="translate(-58.56 -16.04)"/><path class="cls-81" d="M158.59,79.7c.51.28.52.74,0,1a2.14,2.14,0,0,1-1.85,0c-.51-.28-.52-.74,0-1A2.16,2.16,0,0,1,158.59,79.7Z" transform="translate(-58.56 -16.04)"/><path class="cls-82" d="M156.74,80.72a2.14,2.14,0,0,0,1.85,0,.38.38,0,0,0,0-.76,2.1,2.1,0,0,0-1.86,0,.73.73,0,0,0-.36.38A.74.74,0,0,0,156.74,80.72Z" transform="translate(-58.56 -16.04)"/></g><path class="cls-83" d="M156.58,79.61a2.21,2.21,0,0,1,.19-.7.92.92,0,0,0,0-.71c.15.44.49.82.51,1.27a1.33,1.33,0,0,1,0,.4c0,.2-.11.6-.39.37A.87.87,0,0,1,156.58,79.61Z" transform="translate(-58.56 -16.04)"/><path class="cls-83" d="M157,78a1.2,1.2,0,0,0,.32.54,2.33,2.33,0,0,1,.38.51.91.91,0,0,1-.08.86,1,1,0,0,0-.14.22.63.63,0,0,0,0,.36.26.26,0,0,1,.1-.21l.21-.14a1.16,1.16,0,0,0,.29-.49.87.87,0,0,0,.08-.52.53.53,0,0,0-.16-.23c-.19-.21-.44-.37-.63-.59a1,1,0,0,1-.17-.28c0-.1,0-.22-.05-.31C157.07,77.44,157,77.88,157,78Z" transform="translate(-58.56 -16.04)"/><path class="cls-83" d="M158.1,78.74a3.27,3.27,0,0,1,.28.37,1,1,0,0,1,.1.41.78.78,0,0,1-.06.5c-.1.16-.28.25-.35.42l.27-.08a.77.77,0,0,0,.19-.08.6.6,0,0,0,.18-.41,1,1,0,0,0-.1-.75,2.11,2.11,0,0,0-.38-.35.63.63,0,0,1-.21-.3A.53.53,0,0,0,158.1,78.74Z" transform="translate(-58.56 -16.04)"/><path class="cls-45" d="M155.74,74.09l.21-.44a1.73,1.73,0,0,0-.35-.31,1.87,1.87,0,0,0-1.9.19,1.77,1.77,0,0,1-.29.21,6.15,6.15,0,0,0-.65.22c-.49.24-.87.64-1.35.89-.14.07-.64.25-.69.41a.12.12,0,0,0,.05.11c.36.4.83.1,1.2-.15-.14.16-.29.3-.44.46s-1.1,1.06-.86,1.26.29,0,.38-.11a12.22,12.22,0,0,0,1.15-1l-.88.93c-.13.15-.63.73-.39.92a.2.2,0,0,0,.24,0,4.94,4.94,0,0,0,.86-.85c-.16.2-.31.41-.47.62s-.21.28-.11.42.33,0,.43-.07a9,9,0,0,0,1.06-1.16c-.12.29-.62.93-.68,1.2,0,0,0,0,0,0s0,.11.09.1a.43.43,0,0,0,.27-.15l1.22-1.07a5.24,5.24,0,0,0,.63-.7c.19-.25.35-.44.55-.68a7.5,7.5,0,0,0,.47-.65Z" transform="translate(-58.56 -16.04)"/><path class="cls-50" d="M160.75,67.14s0-.34,0-.38h0A19.6,19.6,0,0,1,162.08,58a2.35,2.35,0,0,1,1.72-1.54h.1l.1.06c.9.53,1.32.92,1.33,1.91,0,1.37-.26,8-1.13,10.21a3.7,3.7,0,0,1-1.64,2c-.32.22-.41.32-.69.48h0l-6.26,4.17a2.34,2.34,0,0,1-.44-.42,20,20,0,0,1-1.41-1.61A42.86,42.86,0,0,1,160.75,67.14Z" transform="translate(-58.56 -16.04)"/><path class="cls-42" d="M157.63,73.49a30,30,0,0,0,3-2.09,18.23,18.23,0,0,0,2.58-2.21,6.21,6.21,0,0,0,.93-2.88,40,40,0,0,0,.78-7.24c0-.94-.15-2.32-1.17-2.64h.13l.1.06c.9.53,1.32.92,1.33,1.91,0,1.37-.26,8-1.13,10.21a3.7,3.7,0,0,1-1.64,2c-.32.22-.41.32-.69.48h0l-6.26,4.17s-.1-.07-.24-.21C156.09,74.49,156.84,74,157.63,73.49Z" transform="translate(-58.56 -16.04)"/><polygon class="cls-37" points="27.88 77.68 47.48 66.85 45.58 65.8 25.99 76.63 27.88 77.68"/><g class="cls-11"><polygon class="cls-84" points="47.48 68.32 27.88 79.15 27.88 90.02 27.88 90.01 27.88 96.4 47.47 85.57 47.48 74.71 47.48 74.71 47.48 68.32"/><polygon class="cls-39" points="27.88 79.15 25.99 78.1 25.98 88.97 25.98 88.97 25.98 95.35 27.88 96.4 27.88 85.54 27.88 85.54 27.88 79.15"/></g><g class="cls-11"><polygon class="cls-37" points="60.82 96.73 80.42 85.9 78.52 84.86 58.93 95.69 60.82 96.73"/><polygon class="cls-39" points="58.93 95.69 58.92 113.56 60.82 114.6 60.82 96.73 58.93 95.69"/></g><g class="cls-11"><polygon class="cls-38" points="80.42 84.93 60.82 95.75 60.82 97.44 60.82 97.43 60.82 114.6 80.41 103.77 80.42 85.9 80.42 85.91 80.42 84.93"/><polygon class="cls-55" points="80.42 84.93 60.82 95.75 25.99 76.63 45.58 65.8 56.43 71.76 66.85 77.48 70.32 79.38 70.79 79.64 80.42 84.93"/><polygon class="cls-39" points="25.99 76.63 25.98 78.31 60.82 97.44 60.82 95.75 25.99 76.63"/></g><polygon class="cls-42" points="67.08 88.67 61.81 91.56 56.53 88.67 61.81 85.77 67.08 88.67"/><path class="cls-85" d="M119.51,94.63l.8-.64a1.84,1.84,0,0,0,.72-1.46V87.45h-.26v5.08a1.6,1.6,0,0,1-.62,1.27l-.9.72Z" transform="translate(-58.56 -16.04)"/><polygon class="cls-38" points="59.66 79.38 59.66 79.38 59.66 79.55 60.95 78.58 60.96 78.58 60.83 78.5 60.8 78.52 59.66 79.38"/><polygon class="cls-85" points="59.66 79.38 59.66 79.38 59.66 79.55 60.95 78.58 60.96 78.58 60.96 78.4 60.87 78.47 60.83 78.5 60.8 78.52 59.66 79.38"/><path class="cls-39" d="M111.79,91.93l6.43,3.5,1.14-.86,0,0,0,0h0l.08-.06.72-.57,0,0a1.61,1.61,0,0,0,.63-1.26V87.67l-.12,0-4-2.11-1.43-1.23h-.25v5.08a.25.25,0,0,1,0,.09,1.6,1.6,0,0,1-.62,1.19l-.09.06C114,90.92,112.94,91.42,111.79,91.93Z" transform="translate(-58.56 -16.04)"/><path class="cls-38" d="M115.09,89.45l5.8,3.15V88c-.41-.38-.71-.64-.75-.59s-3.79-.87-5-1v3A.25.25,0,0,1,115.09,89.45Z" transform="translate(-58.56 -16.04)"/><polygon class="cls-86" points="59.66 79.38 53.23 75.89 53.23 76.06 59.66 79.55 59.66 79.38"/><path class="cls-87" d="M114.38,90.7l5.86,3.18,0,0a1.61,1.61,0,0,0,.63-1.26l-5.8-3.15a1.6,1.6,0,0,1-.62,1.19Z" transform="translate(-58.56 -16.04)"/><path class="cls-38" d="M108,69.48l.14,0h0l.29,0s0,.06,0,.1a1,1,0,0,0,0,.25l0,2.89.07,9.89a2.46,2.46,0,0,0,1.12,2L128.3,94.91l0,0-.14.49.63-.35a.82.82,0,0,0,.38-.72.66.66,0,0,0,0-.14l-.1-12.76v0a2.61,2.61,0,0,0-.59-1.54,1.89,1.89,0,0,0-.53-.46L109.3,69.21a.72.72,0,0,0-.7-.06h0l-.53.3Z" transform="translate(-58.56 -16.04)"/><path class="cls-13" d="M108.07,69.44l.06.07h0l.28.15,19.47,10.51.64-.28a1.89,1.89,0,0,0-.53-.46L109.3,69.21a.72.72,0,0,0-.7-.06h0Z" transform="translate(-58.56 -16.04)"/><path class="cls-38" d="M127.06,80.56l.69,1.62,1.36-.73v0a2.61,2.61,0,0,0-.59-1.54Z" transform="translate(-58.56 -16.04)"/><path class="cls-13" d="M107.6,70.34v1.28h0l0,1.62.07,9.88a2.49,2.49,0,0,0,1.12,2l6.85,3.69,7.35,4,.17.09,4.32,2.48a.67.67,0,0,0,1.06-.42,1.87,1.87,0,0,0,0-.25V93.09l0-3.74-.06-7.58a2.49,2.49,0,0,0-1.12-2l-7.71-4.16h0L117,74.12l-3.34-1.89h0l-3.86-2.09-1.12-.6a.66.66,0,0,0-1,.18A1.16,1.16,0,0,0,107.6,70.34Z" transform="translate(-58.56 -16.04)"/><polygon class="cls-43" points="69.33 65.37 69.33 78.39 62.99 74.86 56.84 71.45 56.81 71.44 54.11 69.94 54.11 69.93 49.79 67.53 49.79 54.51 55.05 57.44 56.54 58.26 60.15 60.27 63.56 62.16 69.33 65.37"/><polygon class="cls-85" points="50.06 54.67 50.06 67.39 69.33 78.09 69.33 78.39 49.79 67.53 49.79 54.51 50.06 54.67"/><polygon class="cls-39" points="69.33 78.39 49.79 67.53 50.06 67.39 69.33 78.09 69.33 78.39"/><path class="cls-38" d="M99.62,94.9c0,.1.07.21.21.29l.39.21v-.47l.76-.42.76.41-.43.24L101,95l-.33.19.32.18.77-.43v0l.36-.2a1,1,0,0,1,.14-.3l-.25-.13v-.47l.77-.43.17.1v-.19l.77-.42.17.09v-.19l.77-.42.75.41v.11l.1,0,.76.41v.12l.11-.06.75.41v.12l.11-.06.75.41v.11l.1,0,.76.41v.11l.1-.05.75.41v.11l.11-.05.75.41v.12l.1-.06.76.41v.12l.1-.06.75.41v.12l.11-.06.75.41v.12l.1-.06.76.41v.12l.1-.06.75.41v.12l.11-.06.75.41h0v.12l.1-.06.76.41v.43l.39-.22.75.42V100l.36-.2a.35.35,0,0,0,.22-.28V100a.36.36,0,0,1-.21.29l-4.38,2.42a1.28,1.28,0,0,1-1,0l-12.76-7a.37.37,0,0,1-.22-.29C99.61,95.21,99.61,95.05,99.62,94.9Z" transform="translate(-58.56 -16.04)"/><path class="cls-13" d="M99.83,94.63l4.38-2.42a1.21,1.21,0,0,1,1.05,0l12.76,7c.29.16.29.42,0,.58l-4.38,2.42a1.21,1.21,0,0,1-1,0l-12.76-7C99.54,95.05,99.54,94.79,99.83,94.63Z" transform="translate(-58.56 -16.04)"/><path class="cls-38" d="M113.12,102a.77.77,0,0,1-.36-.07l-12.76-7h0l0,0,4.37-2.42a.85.85,0,0,1,.72,0l12.76,7h0l0,0-4.37,2.42A.77.77,0,0,1,113.12,102Z" transform="translate(-58.56 -16.04)"/><polygon class="cls-39" points="46.32 76.63 45.59 77.03 46.3 77.42 47.03 77.02 46.32 76.63"/><polygon class="cls-39" points="47.13 77.07 46.4 77.47 47.11 77.86 47.84 77.46 47.13 77.07"/><polygon class="cls-39" points="47.93 77.52 47.21 77.92 47.92 78.31 48.64 77.91 47.93 77.52"/><polygon class="cls-39" points="46.24 77.56 45.52 77.96 46.23 78.35 46.95 77.95 46.24 77.56"/><polygon class="cls-39" points="44.54 77.61 43.82 78.01 44.53 78.4 45.25 78 44.54 77.61"/><polygon class="cls-39" points="48.74 77.96 48.02 78.36 48.73 78.75 49.45 78.35 48.74 77.96"/><polygon class="cls-39" points="45.35 78.05 44.63 78.45 45.34 78.84 46.06 78.44 45.35 78.05"/><polygon class="cls-39" points="49.55 78.41 48.83 78.81 49.54 79.19 50.26 78.8 49.55 78.41"/><polygon class="cls-39" points="46.16 78.5 45.44 78.9 46.15 79.29 46.87 78.89 46.16 78.5"/><polygon class="cls-39" points="50.36 78.85 49.63 79.25 50.35 79.64 51.07 79.24 50.36 78.85"/><polygon class="cls-39" points="48.2 78.64 47.48 79.04 49.46 80.13 50.19 79.73 48.2 78.64"/><polygon class="cls-39" points="51.98 79.74 51.25 80.14 51.96 80.53 52.69 80.13 51.98 79.74"/><polygon class="cls-39" points="50.28 79.78 49.56 80.18 50.27 80.57 50.99 80.17 50.28 79.78"/><polygon class="cls-39" points="47.25 79.17 46.41 79.63 45.93 79.89 45.69 80.03 46.89 80.69 47.61 80.29 47.24 80.08 48.08 79.62 47.25 79.17"/><polygon class="cls-39" points="52.79 80.18 52.06 80.58 52.77 80.97 53.5 80.57 52.79 80.18"/><polygon class="cls-39" points="51.09 80.23 50.37 80.63 51.08 81.02 51.8 80.62 51.09 80.23"/><polygon class="cls-39" points="49.94 80.57 49.22 80.97 49.93 81.36 50.65 80.96 49.94 80.57"/><polygon class="cls-39" points="53.6 80.63 52.87 81.03 53.58 81.42 54.31 81.02 53.6 80.63"/><polygon class="cls-39" points="51.9 80.67 51.18 81.07 51.89 81.46 52.61 81.06 51.9 80.67"/><polygon class="cls-39" points="50.74 81.01 50.02 81.41 50.73 81.8 51.45 81.4 50.74 81.01"/><polygon class="cls-39" points="54.4 81.07 53.68 81.47 54.39 81.86 55.12 81.46 54.4 81.07"/><polygon class="cls-39" points="52.71 81.11 51.99 81.52 52.7 81.91 53.42 81.5 52.71 81.11"/><polygon class="cls-39" points="47.22 81.04 46.5 81.44 47.91 82.21 48.64 81.81 47.22 81.04"/><polygon class="cls-39" points="51.54 81.45 50.82 81.85 51.53 82.24 52.25 81.84 51.54 81.45"/><polygon class="cls-39" points="55.21 81.51 54.49 81.91 55.2 82.3 55.92 81.9 55.21 81.51"/><polygon class="cls-39" points="53.52 81.56 52.79 81.96 53.51 82.35 54.23 81.95 53.52 81.56"/><polygon class="cls-39" points="52.34 81.89 51.62 82.29 52.33 82.68 53.05 82.28 52.34 81.89"/><polygon class="cls-39" points="56.02 81.96 55.3 82.36 56.01 82.75 56.73 82.35 56.02 81.96"/><polygon class="cls-39" points="54.33 82 53.6 82.4 54.31 82.79 55.04 82.39 54.33 82"/><polygon class="cls-39" points="53.14 82.33 52.42 82.73 53.13 83.12 53.85 82.72 53.14 82.33"/><polygon class="cls-39" points="56.83 82.4 56.11 82.8 56.82 83.19 57.54 82.79 56.83 82.4"/><polygon class="cls-39" points="55.13 82.45 54.41 82.85 55.12 83.24 55.84 82.84 55.13 82.45"/><polygon class="cls-39" points="53.94 82.77 53.22 83.17 53.93 83.56 54.65 83.16 53.94 82.77"/><polygon class="cls-39" points="57.91 82.99 57.18 83.39 57.89 83.78 58.62 83.38 57.91 82.99"/><polygon class="cls-39" points="54.74 83.21 54.02 83.61 54.73 83.99 55.45 83.59 54.74 83.21"/><polygon class="cls-39" points="48.73 81.86 48 82.26 51.48 84.17 52.2 83.77 48.73 81.86"/><polygon class="cls-39" points="55.98 82.91 55.26 83.31 57.01 84.27 57.73 83.87 55.98 82.91"/><polygon class="cls-39" points="55.54 83.64 54.82 84.05 56.12 84.76 56.84 84.36 55.54 83.64"/><polygon class="cls-39" points="52.31 83.83 51.59 84.23 52.79 84.89 53.51 84.49 52.31 83.83"/><polygon class="cls-39" points="53.66 84.57 52.93 84.97 54.34 85.74 55.07 85.34 53.66 84.57"/><polygon class="cls-39" points="45.43 77.12 44.71 77.52 45.42 77.91 46.14 77.51 45.43 77.12"/><polygon class="cls-39" points="47.05 78.01 46.32 78.41 47.03 78.8 47.76 78.4 47.05 78.01"/><polygon class="cls-39" points="42.87 78.64 42.15 79.04 42.85 79.43 43.58 79.03 42.87 78.64"/><polygon class="cls-39" points="43.67 79.08 43.58 79.13 42.95 79.48 43.66 79.87 44.38 79.47 44.31 79.43 43.67 79.08"/><polygon class="cls-39" points="44.46 78.64 44.36 78.69 43.73 79.04 44.44 79.43 45.17 79.03 45.09 78.99 44.46 78.64"/><polygon class="cls-39" points="51.17 79.29 50.44 79.69 51.16 80.08 51.88 79.68 51.17 79.29"/><polygon class="cls-39" points="44.46 79.51 43.73 79.91 44.44 80.3 45.17 79.9 44.46 79.51"/><polygon class="cls-39" points="48.34 79.69 47.62 80.09 48.33 80.48 49.05 80.08 48.34 79.69"/><polygon class="cls-39" points="49.14 80.13 48.42 80.53 49.13 80.92 49.85 80.52 49.14 80.13"/><polygon class="cls-39" points="45.61 80.15 44.89 80.55 46.35 81.36 47.08 80.96 45.61 80.15"/><polygon class="cls-39" points="53.4 83.44 52.68 83.85 53.39 84.24 54.11 83.83 53.4 83.44 53.4 83.44"/><polygon class="cls-39" points="53.32 83.4 52.61 83.01 51.88 83.41 52.59 83.8 53.32 83.4 53.32 83.4"/><polygon class="cls-39" points="52.52 82.96 51.81 82.57 51.09 82.97 51.8 83.36 52.52 82.96 52.52 82.96"/><polygon class="cls-39" points="51.73 82.53 51.02 82.14 50.3 82.54 51.01 82.93 51.73 82.53 51.73 82.53"/><polygon class="cls-39" points="50.9 82.08 50.19 81.69 49.47 82.08 50.18 82.47 50.9 82.08 50.9 82.08"/><polygon class="cls-39" points="50.11 81.64 49.4 81.25 48.68 81.65 49.39 82.04 50.11 81.64 50.11 81.64"/><polygon class="cls-39" points="49.31 81.2 48.6 80.81 47.88 81.21 48.59 81.6 49.31 81.2 49.31 81.2"/><polygon class="cls-39" points="48.52 80.77 47.81 80.38 47.09 80.78 47.8 81.17 48.52 80.77 48.52 80.77"/><polygon class="cls-39" points="55.96 84.85 54.21 83.89 53.48 84.29 55.23 85.25 55.96 84.85 55.96 84.85"/><polygon class="cls-38" points="61.55 88.13 61.15 88.34 61.15 90.01 63.61 88.67 63.59 88.13 61.55 88.13"/><path class="cls-39" d="M122,104.78a3.4,3.4,0,0,0-1.92,1,1,1,0,0,1-1.23.23.85.85,0,0,1-.53-.7.78.78,0,0,1,.1-.35,3.15,3.15,0,0,1,2.1-1.61,1.67,1.67,0,0,1,1.79.46.56.56,0,0,1,0,.08l0,.06C122.52,104.25,122.59,104.62,122,104.78Z" transform="translate(-58.56 -16.04)"/><path class="cls-13" d="M119.11,104.43a1.4,1.4,0,0,0-.32.6c-.06.27.11.62.44.57a2.26,2.26,0,0,0,.78-.34,4.91,4.91,0,0,0,1-.76c.15-.16.49-.45.41-.67C121.09,103,119.42,104.07,119.11,104.43Z" transform="translate(-58.56 -16.04)"/><path class="cls-38" d="M122.38,104a2.44,2.44,0,0,0-1.8.18s0,0,0,0a2,2,0,0,1,1.73-.31.56.56,0,0,1,0,.08Z" transform="translate(-58.56 -16.04)"/><polygon class="cls-41" points="45.14 100.64 43.03 115.34 43.92 114.85 45.96 100.64 45.14 100.64"/><polygon class="cls-41" points="55.75 96.8 54.78 96.8 56.73 108.19 57.62 107.7 55.75 96.8"/><polygon class="cls-42" points="44.32 100.64 42.27 114.92 43.03 115.34 45.14 100.64 44.32 100.64"/><polygon class="cls-42" points="54.78 96.8 54.09 96.8 55.97 107.77 56.73 108.19 54.78 96.8"/><polygon class="cls-41" points="33.91 96.18 32.02 109.31 32.92 108.83 34.74 96.18 33.91 96.18"/><polygon class="cls-42" points="33.1 96.18 31.27 108.89 32.02 109.31 33.91 96.18 33.1 96.18"/><g class="cls-11"><path class="cls-44" d="M106,109.61v9.65l-.48.27-.94.52a.77.77,0,0,1-.51.09,1.43,1.43,0,0,1-.27-.09l-.93-.51-11.39-6.26a.71.71,0,0,1-.38-.55h0v-1.91l2.7-.09,1.38-.76.65-.36Z" transform="translate(-58.56 -16.04)"/><path class="cls-43" d="M100.55,105.08a.69.69,0,0,1-.24.21l-8.85,4.89a.72.72,0,0,0,0,1.28l12.32,6.76a.83.83,0,0,0,.78,0l9.93-5.48Z" transform="translate(-58.56 -16.04)"/><path class="cls-44" d="M114.5,112.72v1.8c-.14.1-9.47,5.27-9.47,5.27V118h0Z" transform="translate(-58.56 -16.04)"/></g><path class="cls-40" d="M90.25,101.75l.12-7.4-.59-.4.85-.75,0,0h0a.81.81,0,0,1,.86,0l9.21,4.83a.74.74,0,0,1,.33.39l-10.53,5Z" transform="translate(-58.56 -16.04)"/><path class="cls-44" d="M101.07,98.33l0,.06h0v.06l2.33,11.16,2.06,9.92-.94.52a.77.77,0,0,1-.51.09l-.35-1.94L95.15,110,91,106l-.5-2.72Z" transform="translate(-58.56 -16.04)"/><path class="cls-43" d="M103.77,118.44s-2.61-13.7-3.53-18.78a1.36,1.36,0,0,0-.48-.87L90.55,94a.78.78,0,0,0-1.15.53l1.67,16.88S103.75,118.72,103.77,118.44Z" transform="translate(-58.56 -16.04)"/><g class="cls-11"><g class="cls-11"><path class="cls-8" d="M72.29,144.8l4.81-2.65c-2.69,1.48-4.36,4.64-4.37,9.13,0,9,6.66,20.05,14.93,24.59l-4.81,2.66c-8.27-4.54-15-15.55-14.93-24.59C67.93,149.45,69.6,146.29,72.29,144.8Z" transform="translate(-58.56 -16.04)"/><g class="cls-88"><g class="cls-11"><path class="cls-8" d="M72.29,144.8l4.81-2.65c-2.45,1.35-4,4.09-4.33,7.95L68,152.76c.28-3.86,1.88-6.6,4.33-8Z" transform="translate(-58.56 -16.04)"/><path class="cls-8" d="M68,152.76l4.81-2.66c0,.38,0,.78,0,1.18a21.9,21.9,0,0,0,.53,4.69l-4.81,2.66a21.28,21.28,0,0,1-.53-4.69c0-.4,0-.8,0-1.18Z" transform="translate(-58.56 -16.04)"/><path class="cls-8" d="M68.45,158.63,73.26,156c1.63,7.41,6.85,15.15,13.2,19.19l-4.81,2.66c-6.35-4-11.57-11.78-13.2-19.19Z" transform="translate(-58.56 -16.04)"/><path class="cls-8" d="M81.65,177.82l4.81-2.66c.4.25.8.49,1.2.71l-4.81,2.66c-.41-.22-.81-.46-1.2-.71Z" transform="translate(-58.56 -16.04)"/></g></g></g><g class="cls-11"><path class="cls-8" d="M98.32,176.86l-4.81,2.66c-2.72,1.51-6.5,1.3-10.66-1l4.81-2.66C91.83,178.16,95.6,178.37,98.32,176.86Z" transform="translate(-58.56 -16.04)"/><g class="cls-89"><path class="cls-8" d="M82.85,178.53l4.81-2.66a17.18,17.18,0,0,0,3.92,1.59l-4.81,2.65a16.51,16.51,0,0,1-3.92-1.58Z" transform="translate(-58.56 -16.04)"/><path class="cls-8" d="M86.77,180.11l4.81-2.65a9.11,9.11,0,0,0,6.74-.6l-4.81,2.66a9.06,9.06,0,0,1-6.74.59Z" transform="translate(-58.56 -16.04)"/></g></g><path class="cls-9" d="M67.8,137.46l4.81-2.66c3.88-2.14,9.25-1.84,15.17,1.41L83,138.87C77,135.62,71.67,135.31,67.8,137.46Z" transform="translate(-58.56 -16.04)"/><g class="cls-90"><g class="cls-11"><path class="cls-9" d="M67.8,137.46l4.81-2.66a12.92,12.92,0,0,1,9.6-.84l-4.81,2.65a13,13,0,0,0-9.6.85Z" transform="translate(-58.56 -16.04)"/><path class="cls-9" d="M77.4,136.61,82.21,134a23.49,23.49,0,0,1,5.57,2.25L83,138.87a24.33,24.33,0,0,0-5.57-2.26Z" transform="translate(-58.56 -16.04)"/></g></g><g class="cls-11"><path class="cls-9" d="M102.82,184.21,98,186.87c3.83-2.11,6.2-6.61,6.22-13,0-12.86-9.47-28.54-21.25-35l4.81-2.66c11.78,6.46,21.29,22.14,21.26,35C109,177.6,106.64,182.1,102.82,184.21Z" transform="translate(-58.56 -16.04)"/><g class="cls-91"><g class="cls-11"><path class="cls-9" d="M83,138.87l4.81-2.66c.58.32,1.15.65,1.71,1l-4.81,2.66c-.56-.36-1.14-.69-1.71-1Z" transform="translate(-58.56 -16.04)"/><path class="cls-92" d="M84.68,139.88l4.81-2.66c9,5.75,16.47,16.78,18.79,27.32l-4.81,2.66c-2.33-10.54-9.76-21.57-18.79-27.32Z" transform="translate(-58.56 -16.04)"/><path class="cls-9" d="M103.47,167.2l4.81-2.66a31.1,31.1,0,0,1,.76,6.67q0,.85-.06,1.68l-4.82,2.66q.06-.83.06-1.68a30.45,30.45,0,0,0-.75-6.67Z" transform="translate(-58.56 -16.04)"/><path class="cls-9" d="M104.16,175.55l4.82-2.66c-.4,5.5-2.68,9.4-6.16,11.32L98,186.87c3.49-1.92,5.77-5.82,6.16-11.32Z" transform="translate(-58.56 -16.04)"/></g></g></g><path class="cls-93" d="M83,138.87c11.78,6.46,21.29,22.14,21.25,35s-9.61,18.06-21.39,11.59-21.29-22.13-21.25-35S71.19,132.41,83,138.87Zm-.12,39.66c8.28,4.54,15,.9,15-8.14s-6.66-20-14.93-24.59-15-.9-15,8.14S74.58,174,82.85,178.53Z" transform="translate(-58.56 -16.04)"/></g><g class="cls-11"><g class="cls-11"><path class="cls-9" d="M109.89,171.83l8.77,4.85a2.4,2.4,0,0,0-2.31.22l-8.78-4.85A2.42,2.42,0,0,1,109.89,171.83Z" transform="translate(-58.56 -16.04)"/><g class="cls-94"><g class="cls-11"><path class="cls-95" d="M116.35,176.9l-8.78-4.85a3.63,3.63,0,0,1,.68-.3L117,176.6a3.63,3.63,0,0,0-.68.3Z" transform="translate(-58.56 -16.04)"/><path class="cls-95" d="M117,176.6l-8.78-4.85a2.72,2.72,0,0,1,1-.12l8.78,4.85a2.72,2.72,0,0,0-1,.12Z" transform="translate(-58.56 -16.04)"/><path class="cls-95" d="M118,176.48l-8.78-4.85a1.78,1.78,0,0,1,.69.2l8.77,4.85a1.69,1.69,0,0,0-.68-.2Z" transform="translate(-58.56 -16.04)"/></g></g></g><g class="cls-11"><path class="cls-9" d="M114.05,184.23l-8.78-4.85a2.14,2.14,0,0,1-.94-2,6.73,6.73,0,0,1,3.24-5.34l8.78,4.85a6.74,6.74,0,0,0-3.25,5.34A2.15,2.15,0,0,0,114.05,184.23Z" transform="translate(-58.56 -16.04)"/><g class="cls-96"><g class="cls-11"><path class="cls-95" d="M114.05,184.23l-8.78-4.85a2.14,2.14,0,0,1-.94-2,2.68,2.68,0,0,1,0-.49l8.78,4.85a4,4,0,0,0,0,.49,2.15,2.15,0,0,0,1,2Z" transform="translate(-58.56 -16.04)"/><path class="cls-95" d="M113.13,181.75l-8.78-4.85a6.09,6.09,0,0,1,.29-1.23l8.78,4.85a5,5,0,0,0-.29,1.23Z" transform="translate(-58.56 -16.04)"/><path class="cls-97" d="M113.42,180.52l-8.78-4.85a6.76,6.76,0,0,1,.78-1.54l8.77,4.85a7.15,7.15,0,0,0-.77,1.54Z" transform="translate(-58.56 -16.04)"/><path class="cls-9" d="M114.19,179l-8.77-4.85a6.53,6.53,0,0,1,1.54-1.68l8.78,4.85a6.58,6.58,0,0,0-1.55,1.68Z" transform="translate(-58.56 -16.04)"/><path class="cls-97" d="M115.74,177.3,107,172.45a4.56,4.56,0,0,1,.61-.4l8.78,4.85a4,4,0,0,0-.61.4Z" transform="translate(-58.56 -16.04)"/></g></g></g><path class="cls-9" d="M116.35,176.9c1.79-1,3.25-.2,3.26,1.77a6.75,6.75,0,0,1-3.24,5.34c-1.8,1-3.26.2-3.27-1.77A6.74,6.74,0,0,1,116.35,176.9Z" transform="translate(-58.56 -16.04)"/></g><g class="cls-11"><path class="cls-10" d="M121.71,173.78l34.36,19c-1.17-.65-2.79-.56-4.59.43l-34.35-19C118.92,173.22,120.54,173.13,121.71,173.78Z" transform="translate(-58.56 -16.04)"/><g class="cls-98"><g class="cls-11"><path class="cls-10" d="M151.48,193.19l-34.35-19a7.32,7.32,0,0,1,1.34-.59l34.36,19a7.71,7.71,0,0,0-1.35.59Z" transform="translate(-58.56 -16.04)"/><path class="cls-10" d="M152.83,192.6l-34.36-19a5,5,0,0,1,1.89-.24l34.36,19a5,5,0,0,0-1.89.24Z" transform="translate(-58.56 -16.04)"/><path class="cls-10" d="M154.72,192.36l-34.36-19a3.32,3.32,0,0,1,1.35.4l34.36,19a3.37,3.37,0,0,0-1.35-.4Z" transform="translate(-58.56 -16.04)"/></g></g><path class="cls-10" d="M146.94,207.7l-34.36-19c-1.15-.63-1.87-2-1.88-3.93,0-3.88,2.87-8.62,6.43-10.57l34.35,19c-3.56,1.95-6.43,6.69-6.42,10.58C145.07,205.7,145.78,207.06,146.94,207.7Z" transform="translate(-58.56 -16.04)"/><g class="cls-99"><g class="cls-11"><path class="cls-10" d="M146.94,207.7l-34.36-19c-1.15-.63-1.87-2-1.88-3.93a8.18,8.18,0,0,1,.06-1l34.36,19a8.18,8.18,0,0,0-.06,1c0,1.93.72,3.29,1.88,3.93Z" transform="translate(-58.56 -16.04)"/><path class="cls-10" d="M145.12,202.79l-34.36-19a11.4,11.4,0,0,1,.57-2.43l34.36,19a11,11,0,0,0-.57,2.44Z" transform="translate(-58.56 -16.04)"/><path class="cls-100" d="M145.69,200.35l-34.36-19a14.76,14.76,0,0,1,1.53-3.05l34.36,19a13.83,13.83,0,0,0-1.53,3Z" transform="translate(-58.56 -16.04)"/><path class="cls-100" d="M147.22,197.3l-34.36-19a13.57,13.57,0,0,1,3.06-3.33l34.36,19a13.57,13.57,0,0,0-3.06,3.33Z" transform="translate(-58.56 -16.04)"/><path class="cls-10" d="M150.28,194l-34.36-19a9.93,9.93,0,0,1,1.21-.78l34.35,19a9.82,9.82,0,0,0-1.2.78Z" transform="translate(-58.56 -16.04)"/></g></g><path class="cls-101" d="M151.48,193.19c3.56-2,6.46-.39,6.47,3.5s-2.86,8.63-6.42,10.58-6.46.39-6.47-3.5S147.92,195.14,151.48,193.19Z" transform="translate(-58.56 -16.04)"/></g><path class="cls-102" d="M84.29,178c8.27,4.54,15,.89,15-8.15s-6.66-20.05-14.94-24.59-15-.89-15,8.15S76,173.4,84.29,178Z" transform="translate(-58.56 -16.04)"/><path class="cls-102" d="M84.38,145.21l-.8-.42a21,21,0,0,1,5.94,5.84c3,5.72,3.28,16.38-3.83,18.46-5.27,1.53-9.19-3.87-14-5.67,2.64,6,7.3,11.61,12.62,14.53,8.27,4.54,15,.89,15-8.15S92.66,149.75,84.38,145.21Z" transform="translate(-58.56 -16.04)"/><path class="cls-103" d="M78.77,155.46c0,3.1-1.64,4.73-3.65,3.62s-3.64-4.52-3.64-7.62,1.63-4.73,3.64-3.63S78.77,152.35,78.77,155.46Z" transform="translate(-58.56 -16.04)"/><g class="cls-104"><path class="cls-105" d="M88.3,41.73c21.52,5.88,56.28,5.88,77.66,0s21.26-15.4-.25-21.28-56.28-5.88-77.66,0-21.26,15.41.25,21.28" transform="translate(-58.56 -16.04)"/><path class="cls-106" d="M88.49,49.72c21.41,6.36,56,6.36,77.28,0s21.15-16.67-.25-23-56-6.35-77.28,0-21.15,16.67.25,23" transform="translate(-58.56 -16.04)"/><path class="cls-107" d="M88.68,57.7c21.31,6.84,55.73,6.84,76.9,0s21-17.93-.26-24.76-55.72-6.84-76.89,0-21.05,17.92.25,24.76" transform="translate(-58.56 -16.04)"/><path class="cls-108" d="M88.88,65.69c21.19,7.32,55.45,7.32,76.5,0s21-19.19-.25-26.51-55.45-7.32-76.5,0-20.95,19.19.25,26.51" transform="translate(-58.56 -16.04)"/><path class="cls-109" d="M89.07,73.67c21.09,7.8,55.17,7.8,76.12,0s20.85-20.45-.25-28.25-55.17-7.8-76.12,0S68,65.87,89.07,73.67" transform="translate(-58.56 -16.04)"/><path class="cls-110" d="M89.26,81.66c21,8.28,54.89,8.28,75.74,0s20.74-21.72-.25-30-54.89-8.28-75.74,0-20.74,21.71.25,30" transform="translate(-58.56 -16.04)"/><path class="cls-111" d="M89.45,89.64c20.88,8.76,54.62,8.76,75.36,0s20.63-23-.25-31.74-54.62-8.76-75.36,0-20.63,23,.25,31.74" transform="translate(-58.56 -16.04)"/><path class="cls-112" d="M89.64,97.62c20.77,9.25,54.34,9.25,75,0s20.53-24.23-.25-33.48-54.34-9.24-75,0-20.53,24.24.25,33.48" transform="translate(-58.56 -16.04)"/><path class="cls-113" d="M89.83,105.61c20.66,9.73,54.06,9.73,74.6,0s20.42-25.5-.25-35.23-54.06-9.72-74.6,0-20.42,25.5.25,35.23" transform="translate(-58.56 -16.04)"/><path class="cls-114" d="M90,113.59c20.56,10.21,53.79,10.21,74.22,0s20.32-26.76-.25-37-53.79-10.21-74.22,0-20.32,26.75.25,37" transform="translate(-58.56 -16.04)"/><path class="cls-115" d="M90.21,121.58c20.45,10.69,53.51,10.69,73.83,0s20.22-28-.24-38.71-53.51-10.69-73.83,0-20.22,28,.24,38.71" transform="translate(-58.56 -16.04)"/><path class="cls-116" d="M90.4,129.56c20.35,11.17,53.23,11.17,73.45,0s20.11-29.28-.24-40.45-53.23-11.17-73.45,0-20.11,29.28.24,40.45" transform="translate(-58.56 -16.04)"/></g><g class="cls-117"><g class="cls-11"><g class="cls-118"><path class="cls-119" d="M131.49,29.33a4.58,4.58,0,0,0-3.13-.37,7.87,7.87,0,0,0-2.34.88,12.45,12.45,0,0,0-2.24,1.6l3.46,1.91a12.45,12.45,0,0,1,2.24-1.6,8.16,8.16,0,0,1,2.34-.88,4.58,4.58,0,0,1,3.13.37Z" transform="translate(-58.56 -16.04)"/></g><g class="cls-120"><path class="cls-121" d="M121.29,27.42a5.24,5.24,0,0,0-3.62-.43,9.73,9.73,0,0,0-2.7,1,15.81,15.81,0,0,0-4.31,3.59,18.81,18.81,0,0,0-4.45,9.48A8.19,8.19,0,0,0,104,42,13.84,13.84,0,0,0,100.25,45a15.45,15.45,0,0,0-3.94,9.52c0,2.3.86,3.92,2.24,4.68L102,61.15c-1.38-.76-2.24-2.38-2.24-4.68A15.5,15.5,0,0,1,103.7,47a14,14,0,0,1,3.73-3.09,8.52,8.52,0,0,1,2.24-.87,18.81,18.81,0,0,1,4.45-9.48,15.81,15.81,0,0,1,4.31-3.59,9.73,9.73,0,0,1,2.7-1,5.24,5.24,0,0,1,3.62.43Z" transform="translate(-58.56 -16.04)"/></g><g class="cls-122"><path class="cls-123" d="M118.43,29.92c4.45-2.44,8.15-.89,8.81,3.43a12.45,12.45,0,0,1,2.24-1.6c4.24-2.32,7.69-.46,7.71,4.18s-3.42,10.28-7.66,12.61l-22,12.11c-4.25,2.32-7.7.46-7.71-4.18s3.41-10.28,7.66-12.61a8.52,8.52,0,0,1,2.24-.87A18.76,18.76,0,0,1,118.43,29.92Z" transform="translate(-58.56 -16.04)"/></g></g></g></g></g></svg>