<svg xmlns="http://www.w3.org/2000/svg" xmlns:xlink="http://www.w3.org/1999/xlink" viewBox="0 0 225.32 224.72"><defs><style>.cls-1{mask:url(#mask);}.cls-132,.cls-2,.cls-4{mix-blend-mode:multiply;}.cls-2{fill:url(#linear-gradient);}.cls-3{mask:url(#mask-2);}.cls-4{fill:url(#linear-gradient-2);}.cls-5{isolation:isolate;}.cls-110,.cls-6{mix-blend-mode:screen;}.cls-7{fill:url(#linear-gradient-3);}.cls-8{fill:url(#linear-gradient-4);}.cls-9{fill:url(#linear-gradient-5);}.cls-10{fill:url(#linear-gradient-6);}.cls-11{fill:url(#linear-gradient-7);}.cls-12{fill:url(#linear-gradient-8);}.cls-13{fill:url(#linear-gradient-9);}.cls-14{fill:url(#linear-gradient-10);}.cls-15{fill:url(#linear-gradient-11);}.cls-16{fill:url(#linear-gradient-12);}.cls-17{fill:url(#linear-gradient-13);}.cls-18{fill:url(#linear-gradient-14);}.cls-19{fill:url(#linear-gradient-15);}.cls-20{fill:url(#linear-gradient-16);}.cls-21{fill:url(#linear-gradient-17);}.cls-22{fill:url(#linear-gradient-18);}.cls-23{fill:url(#linear-gradient-19);}.cls-125,.cls-24{opacity:0.9;}.cls-24{mix-blend-mode:overlay;}.cls-25{opacity:0;}.cls-26{fill:#fcfdfd;}.cls-27{opacity:0.09;}.cls-28{opacity:0.18;}.cls-29{fill:#fdfdfd;}.cls-30{opacity:0.27;}.cls-31{fill:#fdfefe;}.cls-32{opacity:0.36;}.cls-33{opacity:0.45;}.cls-34{opacity:0.55;}.cls-35{fill:#fefefe;}.cls-36{opacity:0.64;}.cls-37{opacity:0.73;}.cls-38{opacity:0.82;}.cls-39{fill:#feffff;}.cls-40{opacity:0.91;}.cls-41{fill:#fff;}.cls-42{fill:url(#linear-gradient-20);}.cls-43{fill:url(#linear-gradient-21);}.cls-44{fill:url(#linear-gradient-22);}.cls-45{fill:url(#linear-gradient-23);}.cls-46{fill:#d9e1ee;}.cls-47{fill:#96aac9;}.cls-48{fill:#19f7fb;}.cls-49{fill:url(#linear-gradient-24);}.cls-50{fill:#0eb5e3;}.cls-51{fill:#15c5f3;}.cls-52{fill:url(#linear-gradient-25);}.cls-53{fill:url(#linear-gradient-26);}.cls-54{fill:url(#linear-gradient-27);}.cls-55{fill:url(#linear-gradient-28);}.cls-56{fill:url(#linear-gradient-29);}.cls-57{fill:url(#linear-gradient-30);}.cls-58{fill:url(#linear-gradient-31);}.cls-59{fill:url(#linear-gradient-32);}.cls-60{fill:url(#linear-gradient-33);}.cls-61{fill:url(#linear-gradient-34);}.cls-62{fill:url(#linear-gradient-35);}.cls-63{fill:url(#linear-gradient-36);}.cls-64{fill:url(#linear-gradient-37);}.cls-65{fill:url(#linear-gradient-38);}.cls-66{fill:url(#linear-gradient-39);}.cls-67{fill:url(#linear-gradient-40);}.cls-68{fill:url(#linear-gradient-41);}.cls-69{fill:url(#linear-gradient-42);}.cls-70{fill:url(#linear-gradient-43);}.cls-71{fill:url(#linear-gradient-44);}.cls-72{fill:url(#linear-gradient-45);}.cls-73{fill:url(#linear-gradient-46);}.cls-74{fill:url(#linear-gradient-47);}.cls-75{fill:url(#linear-gradient-48);}.cls-76{fill:url(#linear-gradient-49);}.cls-77{fill:url(#linear-gradient-50);}.cls-78{fill:url(#linear-gradient-51);}.cls-79{fill:url(#linear-gradient-52);}.cls-80{fill:url(#linear-gradient-53);}.cls-81{fill:url(#linear-gradient-54);}.cls-82{fill:url(#linear-gradient-55);}.cls-83{fill:url(#linear-gradient-56);}.cls-84{fill:url(#linear-gradient-57);}.cls-85{fill:url(#linear-gradient-58);}.cls-86{fill:url(#linear-gradient-59);}.cls-87{fill:url(#linear-gradient-60);}.cls-88{fill:url(#linear-gradient-61);}.cls-89{fill:url(#linear-gradient-62);}.cls-90{fill:url(#linear-gradient-63);}.cls-91{fill:url(#linear-gradient-64);}.cls-92{fill:url(#linear-gradient-65);}.cls-93{fill:url(#linear-gradient-66);}.cls-94{fill:url(#linear-gradient-67);}.cls-95{fill:url(#linear-gradient-68);}.cls-96{fill:url(#linear-gradient-69);}.cls-97{fill:url(#linear-gradient-70);}.cls-98{fill:url(#linear-gradient-71);}.cls-99{fill:url(#linear-gradient-72);}.cls-100{fill:url(#linear-gradient-73);}.cls-101{fill:url(#linear-gradient-74);}.cls-102{fill:url(#linear-gradient-75);}.cls-103{fill:url(#linear-gradient-76);}.cls-104{fill:#ffd6bf;}.cls-105{fill:#1b1823;}.cls-106{fill:#f8f9fc;}.cls-107{fill:#0b0c0d;}.cls-108{fill:#30273b;}.cls-109,.cls-110{fill:#ad7e6c;}.cls-110{opacity:0.2;}.cls-111{fill:#393244;}.cls-112{fill:#f5c2a6;}.cls-113{fill:#8caed5;}.cls-114{fill:#171d23;}.cls-115{fill:#2744ac;}.cls-116{fill:#3857cc;}.cls-117{fill:#f0f4f9;}.cls-118{fill:#816e5d;}.cls-119{fill:#746150;}.cls-120{fill:#154902;}.cls-121{fill:#9cb5cc;}.cls-122{fill:url(#linear-gradient-77);}.cls-123{fill:#f2f2f2;}.cls-124{fill:#d7e7f7;}.cls-126{mask:url(#mask-3);}.cls-127{fill:url(#linear-gradient-78);}.cls-128{mask:url(#mask-4);}.cls-129{fill:url(#linear-gradient-79);}.cls-130{opacity:0.8;}.cls-131{fill:url(#linear-gradient-80);}.cls-132{fill:#123f5d;opacity:0.3;}.cls-133{fill:#260905;}.cls-134{fill:#ffc6a6;}.cls-135{fill:#0894f7;}.cls-136{fill:#15c6f3;}.cls-137{fill:#0edbfc;}.cls-138{fill:#ffcaab;}.cls-139{filter:url(#luminosity-noclip-4);}.cls-140{filter:url(#luminosity-noclip-3);}.cls-141{filter:url(#luminosity-noclip-2);}.cls-142{filter:url(#luminosity-noclip);}</style><filter id="luminosity-noclip" x="113.86" y="-8317" width="11.72" height="32766" filterUnits="userSpaceOnUse" color-interpolation-filters="sRGB"><feFlood flood-color="#fff" result="bg"/><feBlend in="SourceGraphic" in2="bg"/></filter><mask id="mask" x="113.86" y="-8317" width="11.72" height="32766" maskUnits="userSpaceOnUse"><g class="cls-142"/></mask><linearGradient id="linear-gradient" x1="125.3" y1="57.73" x2="118.78" y2="52.09" gradientUnits="userSpaceOnUse"><stop offset="0.23" stop-color="#fff"/><stop offset="0.42" stop-color="#fbfbfb"/><stop offset="0.59" stop-color="#f0f0f0"/><stop offset="0.76" stop-color="#ddd"/><stop offset="0.92" stop-color="#c2c2c2"/><stop offset="1" stop-color="#b3b3b3"/></linearGradient><filter id="luminosity-noclip-2" x="85.03" y="-8317" width="29.84" height="32766" filterUnits="userSpaceOnUse" color-interpolation-filters="sRGB"><feFlood flood-color="#fff" result="bg"/><feBlend in="SourceGraphic" in2="bg"/></filter><mask id="mask-2" x="85.03" y="-8317" width="29.84" height="32766" maskUnits="userSpaceOnUse"><g class="cls-141"/></mask><linearGradient id="linear-gradient-2" x1="107.78" y1="74.76" x2="94.44" y2="61.98" xlink:href="#linear-gradient"/><linearGradient id="linear-gradient-3" x1="59.26" y1="170.06" x2="187.23" y2="170.06" gradientUnits="userSpaceOnUse"><stop offset="0" stop-color="#21deff"/><stop offset="1" stop-color="#0ab4ef"/></linearGradient><linearGradient id="linear-gradient-4" x1="176" y1="178.74" x2="238.89" y2="178.74" xlink:href="#linear-gradient-3"/><linearGradient id="linear-gradient-5" x1="49.77" y1="149.13" x2="112.66" y2="149.13" xlink:href="#linear-gradient-3"/><linearGradient id="linear-gradient-6" x1="106.87" y1="201" x2="175.23" y2="201" xlink:href="#linear-gradient-3"/><linearGradient id="linear-gradient-7" x1="32.87" y1="177.42" x2="68.62" y2="177.42" xlink:href="#linear-gradient-3"/><linearGradient id="linear-gradient-8" x1="120.15" y1="204.31" x2="189.14" y2="204.31" xlink:href="#linear-gradient-3"/><linearGradient id="linear-gradient-9" x1="13.57" y1="220.05" x2="62.85" y2="220.05" xlink:href="#linear-gradient-3"/><linearGradient id="linear-gradient-10" x1="13.57" y1="202.95" x2="62.85" y2="202.95" xlink:href="#linear-gradient-3"/><linearGradient id="linear-gradient-11" x1="36.01" y1="166.21" x2="73.78" y2="166.21" xlink:href="#linear-gradient-3"/><linearGradient id="linear-gradient-12" x1="180.67" y1="119.62" x2="218.43" y2="119.62" xlink:href="#linear-gradient-3"/><linearGradient id="linear-gradient-13" x1="136.87" y1="208.57" x2="142.68" y2="208.57" xlink:href="#linear-gradient-3"/><linearGradient id="linear-gradient-14" x1="189.14" y1="169.85" x2="194.95" y2="169.85" xlink:href="#linear-gradient-3"/><linearGradient id="linear-gradient-15" x1="57.75" y1="212.62" x2="63.56" y2="212.62" xlink:href="#linear-gradient-3"/><linearGradient id="linear-gradient-16" x1="51.68" y1="220.7" x2="76.6" y2="220.7" xlink:href="#linear-gradient-3"/><linearGradient id="linear-gradient-17" x1="192.05" y1="151.73" x2="216.96" y2="151.73" xlink:href="#linear-gradient-3"/><linearGradient id="linear-gradient-18" x1="51.23" y1="155.71" x2="57.03" y2="155.71" xlink:href="#linear-gradient-3"/><linearGradient id="linear-gradient-19" x1="173.93" y1="123.86" x2="206.41" y2="123.86" xlink:href="#linear-gradient-3"/><linearGradient id="linear-gradient-20" x1="142.63" y1="140.49" x2="166.46" y2="140.49" gradientUnits="userSpaceOnUse"><stop offset="0.01" stop-color="#d9e1ee"/><stop offset="1" stop-color="#aabad6"/></linearGradient><linearGradient id="linear-gradient-21" x1="127.36" y1="150.5" x2="127.36" y2="118.2" gradientUnits="userSpaceOnUse"><stop offset="0" stop-color="#aabad6"/><stop offset="1" stop-color="#96aac9"/></linearGradient><linearGradient id="linear-gradient-22" x1="127.27" y1="121.97" x2="127.27" y2="146.88" xlink:href="#linear-gradient-21"/><linearGradient id="linear-gradient-23" x1="133.26" y1="127.17" x2="256.51" y2="141.82" gradientUnits="userSpaceOnUse"><stop offset="0.01" stop-color="#e4e9f2"/><stop offset="1" stop-color="#b4c2da"/></linearGradient><linearGradient id="linear-gradient-24" x1="146.5" y1="127.84" x2="166.01" y2="135.76" xlink:href="#linear-gradient-3"/><linearGradient id="linear-gradient-25" x1="142.63" y1="121.46" x2="166.46" y2="121.46" xlink:href="#linear-gradient-20"/><linearGradient id="linear-gradient-26" x1="127.36" y1="131.47" x2="127.36" y2="99.17" xlink:href="#linear-gradient-21"/><linearGradient id="linear-gradient-27" x1="127.27" y1="102.93" x2="127.27" y2="127.85" xlink:href="#linear-gradient-21"/><linearGradient id="linear-gradient-28" x1="133.26" y1="108.14" x2="256.51" y2="122.79" xlink:href="#linear-gradient-23"/><linearGradient id="linear-gradient-29" x1="146.5" y1="108.59" x2="166.01" y2="116.51" xlink:href="#linear-gradient-3"/><linearGradient id="linear-gradient-30" x1="142.63" y1="102.61" x2="166.46" y2="102.61" xlink:href="#linear-gradient-20"/><linearGradient id="linear-gradient-31" x1="127.36" y1="112.62" x2="127.36" y2="80.32" xlink:href="#linear-gradient-21"/><linearGradient id="linear-gradient-32" x1="127.27" y1="84.09" x2="127.27" y2="109" xlink:href="#linear-gradient-21"/><linearGradient id="linear-gradient-33" x1="133.45" y1="87.67" x2="256.71" y2="102.33" xlink:href="#linear-gradient-23"/><linearGradient id="linear-gradient-34" x1="146.5" y1="90.01" x2="166.01" y2="97.93" xlink:href="#linear-gradient-3"/><linearGradient id="linear-gradient-35" x1="142.63" y1="83.63" x2="166.46" y2="83.63" xlink:href="#linear-gradient-20"/><linearGradient id="linear-gradient-36" x1="127.36" y1="93.64" x2="127.36" y2="61.34" xlink:href="#linear-gradient-21"/><linearGradient id="linear-gradient-37" x1="127.27" y1="65.11" x2="127.27" y2="90.02" xlink:href="#linear-gradient-21"/><linearGradient id="linear-gradient-38" x1="133.45" y1="68.69" x2="256.71" y2="83.34" xlink:href="#linear-gradient-23"/><linearGradient id="linear-gradient-39" x1="48.42" y1="259.1" x2="72.28" y2="259.1" gradientTransform="translate(61.34 -99.51) rotate(-0.85)" xlink:href="#linear-gradient-20"/><linearGradient id="linear-gradient-40" x1="33.17" y1="269.13" x2="33.17" y2="236.87" gradientTransform="translate(61.34 -99.51) rotate(-0.85)" xlink:href="#linear-gradient-21"/><linearGradient id="linear-gradient-41" x1="33.08" y1="240.64" x2="33.08" y2="265.52" gradientTransform="translate(61.34 -99.51) rotate(-0.85)" xlink:href="#linear-gradient-21"/><linearGradient id="linear-gradient-42" x1="39.09" y1="245.79" x2="162.31" y2="260.45" gradientTransform="translate(61.34 -99.51) rotate(-0.85)" xlink:href="#linear-gradient-23"/><linearGradient id="linear-gradient-43" x1="52.32" y1="246.45" x2="71.82" y2="254.37" gradientTransform="translate(61.34 -99.51) rotate(-0.85)" xlink:href="#linear-gradient-3"/><linearGradient id="linear-gradient-44" x1="48.44" y1="240.07" x2="72.3" y2="240.07" gradientTransform="translate(61.34 -99.51) rotate(-0.85)" xlink:href="#linear-gradient-20"/><linearGradient id="linear-gradient-45" x1="33.19" y1="250.1" x2="33.19" y2="217.84" gradientTransform="translate(61.34 -99.51) rotate(-0.85)" xlink:href="#linear-gradient-21"/><linearGradient id="linear-gradient-46" x1="33.1" y1="221.6" x2="33.1" y2="246.48" gradientTransform="translate(61.34 -99.51) rotate(-0.85)" xlink:href="#linear-gradient-21"/><linearGradient id="linear-gradient-47" x1="39.11" y1="226.76" x2="162.33" y2="241.42" gradientTransform="translate(61.34 -99.51) rotate(-0.85)" xlink:href="#linear-gradient-23"/><linearGradient id="linear-gradient-48" x1="52.34" y1="227.2" x2="71.85" y2="235.12" gradientTransform="translate(61.34 -99.51) rotate(-0.85)" xlink:href="#linear-gradient-3"/><linearGradient id="linear-gradient-49" x1="48.46" y1="221.23" x2="72.32" y2="221.23" gradientTransform="translate(61.34 -99.51) rotate(-0.85)" xlink:href="#linear-gradient-20"/><linearGradient id="linear-gradient-50" x1="33.21" y1="231.25" x2="33.21" y2="199" gradientTransform="translate(61.34 -99.51) rotate(-0.85)" xlink:href="#linear-gradient-21"/><linearGradient id="linear-gradient-51" x1="33.12" y1="202.76" x2="33.12" y2="227.64" gradientTransform="translate(61.34 -99.51) rotate(-0.85)" xlink:href="#linear-gradient-21"/><linearGradient id="linear-gradient-52" x1="39.32" y1="206.3" x2="162.55" y2="220.96" gradientTransform="translate(61.34 -99.51) rotate(-0.85)" xlink:href="#linear-gradient-23"/><linearGradient id="linear-gradient-53" x1="52.36" y1="208.62" x2="71.87" y2="216.54" gradientTransform="translate(61.34 -99.51) rotate(-0.85)" xlink:href="#linear-gradient-3"/><linearGradient id="linear-gradient-54" x1="48.48" y1="202.24" x2="72.34" y2="202.24" gradientTransform="translate(61.34 -99.51) rotate(-0.85)" xlink:href="#linear-gradient-20"/><linearGradient id="linear-gradient-55" x1="33.23" y1="212.27" x2="33.23" y2="180.01" gradientTransform="translate(61.34 -99.51) rotate(-0.85)" xlink:href="#linear-gradient-21"/><linearGradient id="linear-gradient-56" x1="33.14" y1="183.78" x2="33.14" y2="208.66" gradientTransform="translate(61.34 -99.51) rotate(-0.85)" xlink:href="#linear-gradient-21"/><linearGradient id="linear-gradient-57" x1="39.34" y1="187.32" x2="162.57" y2="201.97" gradientTransform="translate(61.34 -99.51) rotate(-0.85)" xlink:href="#linear-gradient-23"/><linearGradient id="linear-gradient-58" x1="82.32" y1="179.3" x2="106.15" y2="179.3" xlink:href="#linear-gradient-20"/><linearGradient id="linear-gradient-59" x1="67.05" y1="189.31" x2="67.05" y2="157.01" xlink:href="#linear-gradient-21"/><linearGradient id="linear-gradient-60" x1="66.96" y1="160.77" x2="66.96" y2="185.69" xlink:href="#linear-gradient-21"/><linearGradient id="linear-gradient-61" x1="72.95" y1="165.97" x2="196.21" y2="180.63" xlink:href="#linear-gradient-23"/><linearGradient id="linear-gradient-62" x1="86.19" y1="166.65" x2="105.7" y2="174.57" xlink:href="#linear-gradient-3"/><linearGradient id="linear-gradient-63" x1="82.32" y1="160.27" x2="106.15" y2="160.27" xlink:href="#linear-gradient-20"/><linearGradient id="linear-gradient-64" x1="67.05" y1="170.28" x2="67.05" y2="137.98" xlink:href="#linear-gradient-21"/><linearGradient id="linear-gradient-65" x1="66.96" y1="141.74" x2="66.96" y2="166.66" xlink:href="#linear-gradient-21"/><linearGradient id="linear-gradient-66" x1="72.95" y1="146.94" x2="196.21" y2="161.6" xlink:href="#linear-gradient-23"/><linearGradient id="linear-gradient-67" x1="86.19" y1="147.39" x2="105.7" y2="155.31" xlink:href="#linear-gradient-3"/><linearGradient id="linear-gradient-68" x1="82.32" y1="141.42" x2="106.15" y2="141.42" xlink:href="#linear-gradient-20"/><linearGradient id="linear-gradient-69" x1="67.05" y1="151.43" x2="67.05" y2="119.13" xlink:href="#linear-gradient-21"/><linearGradient id="linear-gradient-70" x1="66.96" y1="122.89" x2="66.96" y2="147.81" xlink:href="#linear-gradient-21"/><linearGradient id="linear-gradient-71" x1="73.15" y1="126.48" x2="196.4" y2="141.13" xlink:href="#linear-gradient-23"/><linearGradient id="linear-gradient-72" x1="86.19" y1="128.82" x2="105.7" y2="136.74" xlink:href="#linear-gradient-3"/><linearGradient id="linear-gradient-73" x1="82.32" y1="122.44" x2="106.15" y2="122.44" xlink:href="#linear-gradient-20"/><linearGradient id="linear-gradient-74" x1="67.05" y1="132.45" x2="67.05" y2="100.15" xlink:href="#linear-gradient-21"/><linearGradient id="linear-gradient-75" x1="66.96" y1="103.91" x2="66.96" y2="128.83" xlink:href="#linear-gradient-21"/><linearGradient id="linear-gradient-76" x1="73.15" y1="107.49" x2="196.4" y2="122.15" xlink:href="#linear-gradient-23"/><linearGradient id="linear-gradient-77" x1="154.29" y1="163.89" x2="157.23" y2="163.89" xlink:href="#linear-gradient-3"/><filter id="luminosity-noclip-3" x="113.86" y="49.92" width="11.72" height="5.37" filterUnits="userSpaceOnUse" color-interpolation-filters="sRGB"><feFlood flood-color="#fff" result="bg"/><feBlend in="SourceGraphic" in2="bg"/></filter><mask id="mask-3" x="100.29" y="35.58" width="11.72" height="5.37" maskUnits="userSpaceOnUse"><g class="cls-140"><g transform="translate(-13.57 -14.34)"><g class="cls-1"><path class="cls-2" d="M122,50.51a4.29,4.29,0,0,0-3.29-.46,8.23,8.23,0,0,0-2.45,1.06,13.32,13.32,0,0,0-2.35,1.9l3.63,2.28a13.32,13.32,0,0,1,2.35-1.9,8.23,8.23,0,0,1,2.45-1.06,4.26,4.26,0,0,1,3.28.45Z"/></g></g></g></mask><linearGradient id="linear-gradient-78" x1="125.3" y1="57.73" x2="118.78" y2="52.09" gradientUnits="userSpaceOnUse"><stop offset="0.23" stop-color="#19f7fb"/><stop offset="0.34" stop-color="#1df7fb"/><stop offset="0.45" stop-color="#28f8fb"/><stop offset="0.54" stop-color="#3bf8fc"/><stop offset="0.64" stop-color="#56f9fc"/><stop offset="0.74" stop-color="#78fafd"/><stop offset="0.83" stop-color="#a3fcfd"/><stop offset="0.93" stop-color="#d4fdfe"/><stop offset="1" stop-color="#fff"/></linearGradient><filter id="luminosity-noclip-4" x="85.03" y="47.55" width="29.84" height="40.9" filterUnits="userSpaceOnUse" color-interpolation-filters="sRGB"><feFlood flood-color="#fff" result="bg"/><feBlend in="SourceGraphic" in2="bg"/></filter><mask id="mask-4" x="71.46" y="33.21" width="29.84" height="40.9" maskUnits="userSpaceOnUse"><g class="cls-139"><g transform="translate(-13.57 -14.34)"><g class="cls-3"><path class="cls-4" d="M111.25,48.23a4.92,4.92,0,0,0-3.8-.52,9.22,9.22,0,0,0-2.84,1.22,17.49,17.49,0,0,0-4.52,4.28,23.84,23.84,0,0,0-4.67,11.3,8.15,8.15,0,0,0-2.35,1,15,15,0,0,0-3.9,3.69A19.81,19.81,0,0,0,85,80.58c0,2.75.91,4.68,2.35,5.59L91,88.44c-1.44-.9-2.34-2.83-2.35-5.58a19.87,19.87,0,0,1,4.13-11.35,15.24,15.24,0,0,1,3.91-3.69,8.15,8.15,0,0,1,2.35-1,23.79,23.79,0,0,1,4.67-11.3,17.32,17.32,0,0,1,4.52-4.28A9.52,9.52,0,0,1,111.08,50a4.92,4.92,0,0,1,3.8.53Z"/></g></g></g></mask><linearGradient id="linear-gradient-79" x1="107.78" y1="74.76" x2="94.44" y2="61.98" xlink:href="#linear-gradient-78"/><linearGradient id="linear-gradient-80" x1="111.34" y1="85.12" x2="104.4" y2="52.1" gradientUnits="userSpaceOnUse"><stop offset="0.01" stop-color="#19f7fb"/><stop offset="1" stop-color="#b5dff2"/></linearGradient></defs><g class="cls-5"><g id="Layer_1" data-name="Layer 1"><g class="cls-6"><path class="cls-7" d="M93.74,210.15a18.06,18.06,0,0,1-9.37-2.41l-21.1-13.17c-2.58-1.61-4-3.78-4-6.11s1.43-4.5,4-6.11l80.12-50c5.16-3.22,13.56-3.22,18.73,0l21.1,13.17c2.59,1.61,4,3.78,4,6.11s-1.42,4.5-4,6.11l-.21-.4.21.4-80.12,50A18,18,0,0,1,93.74,210.15Zm59-79.28a17.15,17.15,0,0,0-8.93,2.31l-80.12,50c-2.31,1.44-3.58,3.32-3.58,5.3s1.27,3.87,3.58,5.31l21.1,13.16c4.93,3.08,12.94,3.08,17.87,0l80.12-50c2.31-1.44,3.58-3.32,3.58-5.3s-1.27-3.87-3.58-5.31l-21.1-13.16A17.18,17.18,0,0,0,152.75,130.87Z" transform="translate(-13.57 -14.34)"/><path class="cls-8" d="M238.89,185.88l-.43.81-18.83-11.75a10.11,10.11,0,0,0-9.8,0,11,11,0,0,1-10.68,0l-6.38-4a3.45,3.45,0,0,1,.23,1.24,4.34,4.34,0,0,1-2.34,3.6l-6.51,4.06a3,3,0,0,0,0,5.58l16.63,10.37-.43.81-16.63-10.37a3.95,3.95,0,0,1,0-7.2l6.51-4.06a3,3,0,0,0,0-5.58l-12.84-8,.86-.54,8.34,5.2v0l13,8.1a10.12,10.12,0,0,0,9.81,0,11.06,11.06,0,0,1,10.67,0Z" transform="translate(-13.57 -14.34)"/><path class="cls-9" d="M112.66,156.27l-.43.81L93.4,145.33a10.11,10.11,0,0,0-9.8,0,11,11,0,0,1-10.68,0l-6.38-4a3.54,3.54,0,0,1,.23,1.24,4.34,4.34,0,0,1-2.34,3.6l-6.51,4.06a3,3,0,0,0,0,5.58L74.55,166.2l-.43.81L57.49,156.64a3.94,3.94,0,0,1,0-7.19L64,145.38a3,3,0,0,0,0-5.58l-12.84-8,.86-.54,8.34,5.2v0l13,8.1a10.18,10.18,0,0,0,9.81,0,11,11,0,0,1,10.66,0Z" transform="translate(-13.57 -14.34)"/><path class="cls-10" d="M126.81,215.53a10.24,10.24,0,0,1-5.34-1.38l-14.6-9.1.43-.81,14.6,9.11a10.15,10.15,0,0,0,9.81,0l43.09-26.88.43.8-43.09,26.88A10.23,10.23,0,0,1,126.81,215.53Z" transform="translate(-13.57 -14.34)"/><path class="cls-11" d="M43.34,185.19a5.44,5.44,0,0,1-2.88-.76l-7.59-4.73.43-.81,7.59,4.74a5.11,5.11,0,0,0,4.89,0l22.4-14,.44.81-22.41,14A5.42,5.42,0,0,1,43.34,185.19Z" transform="translate(-13.57 -14.34)"/><path class="cls-12" d="M148.7,212.66a10,10,0,0,1-5.25-1.36l-23.3-14.53.43-.81,23.3,14.54a10,10,0,0,0,9.65,0L170.42,200a10.85,10.85,0,0,1,10.51,0l8.21,5.12-.43.81-8.21-5.13a10,10,0,0,0-9.64,0L154,211.3A10.06,10.06,0,0,1,148.7,212.66Z" transform="translate(-13.57 -14.34)"/><path class="cls-13" d="M51.68,218.15a11.21,11.21,0,0,1-9-.77,10.12,10.12,0,0,0-9.81,0L14,229.12l-.43-.8L32.4,216.57a11.06,11.06,0,0,1,10.67,0,10.12,10.12,0,0,0,9.81,0l5.14-3.2,3.84-2.4a3.27,3.27,0,0,1,.85.37l.14.09L58.75,214l-5.44,3.4a8.43,8.43,0,0,1-1.63.77Z" transform="translate(-13.57 -14.34)"/><path class="cls-14" d="M51.68,201.05a11.17,11.17,0,0,1-9-.77,10.12,10.12,0,0,0-9.81,0L14,212l-.43-.81L32.4,199.47a11.06,11.06,0,0,1,10.67,0,10.12,10.12,0,0,0,9.81,0l5.14-3.2,3.84-2.4a3.27,3.27,0,0,1,.85.37l.14.09-4.1,2.55-5.44,3.4a8.43,8.43,0,0,1-1.63.77Z" transform="translate(-13.57 -14.34)"/><path class="cls-15" d="M73.35,173.69l-13.44-8.38a7.08,7.08,0,0,0-6.88,0,8,8,0,0,1-7.75,0L36,159.53l.44-.81,9.27,5.78a7.08,7.08,0,0,0,6.88,0,8,8,0,0,1,7.74,0l13.44,8.39Z" transform="translate(-13.57 -14.34)"/><path class="cls-16" d="M218,127.11l-13.44-8.39a7.13,7.13,0,0,0-6.88,0,8,8,0,0,1-7.74,0l-9.27-5.78.43-.8,9.27,5.78a7.13,7.13,0,0,0,6.88,0,8,8,0,0,1,7.74,0l13.44,8.38Z" transform="translate(-13.57 -14.34)"/><path class="cls-17" d="M141.83,207.29a4.28,4.28,0,0,0-4.11,0,1.39,1.39,0,0,0,0,2.56,4.23,4.23,0,0,0,4.11,0A1.39,1.39,0,0,0,141.83,207.29Z" transform="translate(-13.57 -14.34)"/><path class="cls-18" d="M194.1,168.57a4.23,4.23,0,0,0-4.11,0,1.39,1.39,0,0,0,0,2.56,4.23,4.23,0,0,0,4.11,0A1.39,1.39,0,0,0,194.1,168.57Z" transform="translate(-13.57 -14.34)"/><path class="cls-19" d="M62.71,213.9a4.23,4.23,0,0,1-4,.08l-.15-.08a2,2,0,0,1-.58-.53,1.35,1.35,0,0,1,.58-2,4.26,4.26,0,0,1,3.26-.37,3.27,3.27,0,0,1,.85.37l.14.09A1.37,1.37,0,0,1,62.71,213.9Z" transform="translate(-13.57 -14.34)"/><path class="cls-20" d="M71.08,225.09a4.34,4.34,0,0,1-2.34,3.6L52.11,239.06l-.43-.81,16.63-10.37a3,3,0,0,0,0-5.58l-6.51-4.06a3.94,3.94,0,0,1,0-7.2l13.94-8.69.86.53-14.37,9a3,3,0,0,0,0,5.58l6.51,4.06A4.34,4.34,0,0,1,71.08,225.09Z" transform="translate(-13.57 -14.34)"/><path class="cls-21" d="M211.44,156.12a4.34,4.34,0,0,1-2.34,3.6l-16.62,10.37-.43-.81,16.62-10.37a3,3,0,0,0,0-5.58l-6.51-4.06a3.94,3.94,0,0,1,0-7.2l13.94-8.69.86.53-14.37,9a3,3,0,0,0,0,5.58l6.51,4.06A4.34,4.34,0,0,1,211.44,156.12Z" transform="translate(-13.57 -14.34)"/><ellipse class="cls-22" cx="54.13" cy="155.71" rx="2.9" ry="1.81"/><path class="cls-23" d="M178,142.45l-.43-.81,11.9-7.42a2.58,2.58,0,0,0,0-4.81L176,121a3.52,3.52,0,0,1,0-6.42l13-8.13a9.76,9.76,0,0,1,9.43,0l7.94,5-.43.8-7.94-5a8.88,8.88,0,0,0-8.57,0l-13,8.13a2.57,2.57,0,0,0,0,4.8l13.43,8.38a3.52,3.52,0,0,1,0,6.42Z" transform="translate(-13.57 -14.34)"/></g><g class="cls-24"><g class="cls-25"><path class="cls-26" d="M178.52,37.2l-20.66,13a2.53,2.53,0,0,1-2.7,0l-28-17.44a3,3,0,0,1,0-5l20.66-13a2.51,2.51,0,0,1,2.7,0l28,17.43A3,3,0,0,1,178.52,37.2Z" transform="translate(-13.57 -14.34)"/></g><g class="cls-27"><path class="cls-26" d="M178.52,42,157.86,55a2.51,2.51,0,0,1-2.7,0l-28-17.44a3,3,0,0,1,0-5l20.66-13a2.51,2.51,0,0,1,2.7,0l28,17.43A3,3,0,0,1,178.52,42Z" transform="translate(-13.57 -14.34)"/></g><g class="cls-28"><path class="cls-29" d="M178.52,46.88l-20.66,13a2.51,2.51,0,0,1-2.7,0l-28-17.44a3,3,0,0,1,0-5l20.66-13a2.51,2.51,0,0,1,2.7,0l28,17.43A3,3,0,0,1,178.52,46.88Z" transform="translate(-13.57 -14.34)"/></g><g class="cls-30"><path class="cls-31" d="M178.52,51.72l-20.66,13a2.51,2.51,0,0,1-2.7,0l-28-17.44a3,3,0,0,1,0-5l20.66-13a2.51,2.51,0,0,1,2.7,0l28,17.44A3,3,0,0,1,178.52,51.72Z" transform="translate(-13.57 -14.34)"/></g><g class="cls-32"><path class="cls-31" d="M178.52,56.56l-20.66,13a2.51,2.51,0,0,1-2.7,0l-28-17.44a3,3,0,0,1,0-5l20.66-13a2.51,2.51,0,0,1,2.7,0l28,17.44A3,3,0,0,1,178.52,56.56Z" transform="translate(-13.57 -14.34)"/></g><g class="cls-33"><path class="cls-31" d="M178.52,61.4l-20.66,13a2.51,2.51,0,0,1-2.7,0L127.17,57a3,3,0,0,1,0-5l20.66-13a2.51,2.51,0,0,1,2.7,0l28,17.44A3,3,0,0,1,178.52,61.4Z" transform="translate(-13.57 -14.34)"/></g><g class="cls-34"><path class="cls-35" d="M178.52,66.24l-20.66,13a2.51,2.51,0,0,1-2.7,0l-28-17.43a3,3,0,0,1,0-5l20.66-13a2.51,2.51,0,0,1,2.7,0l28,17.44A3,3,0,0,1,178.52,66.24Z" transform="translate(-13.57 -14.34)"/></g><g class="cls-36"><path class="cls-35" d="M178.52,71.08l-20.66,13a2.51,2.51,0,0,1-2.7,0l-28-17.43a3,3,0,0,1,0-5l20.66-13a2.51,2.51,0,0,1,2.7,0l28,17.44A3,3,0,0,1,178.52,71.08Z" transform="translate(-13.57 -14.34)"/></g><g class="cls-37"><path class="cls-35" d="M178.52,75.92l-20.66,13a2.51,2.51,0,0,1-2.7,0l-28-17.43a3,3,0,0,1,0-5l20.66-13a2.53,2.53,0,0,1,2.7,0l28,17.44A3,3,0,0,1,178.52,75.92Z" transform="translate(-13.57 -14.34)"/></g><g class="cls-38"><path class="cls-39" d="M178.52,80.76l-20.66,13a2.51,2.51,0,0,1-2.7,0l-28-17.43a3,3,0,0,1,0-5l20.66-13a2.53,2.53,0,0,1,2.7,0l28,17.44A3,3,0,0,1,178.52,80.76Z" transform="translate(-13.57 -14.34)"/></g><g class="cls-40"><path class="cls-41" d="M178.52,85.6l-20.66,13a2.53,2.53,0,0,1-2.7,0l-28-17.43a3,3,0,0,1,0-5l20.66-13a2.53,2.53,0,0,1,2.7,0l28,17.44A3,3,0,0,1,178.52,85.6Z" transform="translate(-13.57 -14.34)"/></g><path class="cls-41" d="M178.52,90.44l-20.66,13a2.53,2.53,0,0,1-2.7,0L127.17,86a3,3,0,0,1,0-5l20.66-13a2.53,2.53,0,0,1,2.7,0l28,17.44A3,3,0,0,1,178.52,90.44Z" transform="translate(-13.57 -14.34)"/></g><g class="cls-5"><polygon class="cls-42" points="166.46 128.27 166.45 137.75 142.63 152.71 142.63 143.23 166.46 128.27"/><polygon class="cls-43" points="142.63 143.23 142.63 152.71 112.08 133.69 112.09 124.21 142.63 143.23"/><polygon class="cls-44" points="113.13 133.02 113.31 126.5 141.41 144 141.23 150.52 113.13 133.02"/><polygon class="cls-45" points="166.46 128.27 142.63 143.23 112.09 124.21 142.48 113.31 166.46 128.27"/></g><polygon class="cls-46" points="143.42 143.87 165.97 129.81 165.97 137.21 143.42 151.27 143.42 143.87"/><polygon class="cls-47" points="144.07 144.06 153.54 138.13 153.54 144.45 144.07 150.38 144.07 144.06"/><polygon class="cls-48" points="147.12 144 144.55 145.61 144.55 148.85 147.12 147.24 147.12 144"/><polygon class="cls-48" points="150.13 142.13 147.56 143.74 147.56 146.97 150.13 145.37 150.13 142.13"/><polygon class="cls-48" points="153.06 140.28 150.49 141.89 150.49 145.13 153.06 143.52 153.06 140.28"/><polygon class="cls-47" points="161.13 139.81 161.72 139.44 161.72 133 161.13 133.37 161.13 139.81"/><polygon class="cls-47" points="159.94 140.55 160.53 140.18 160.53 133.75 159.94 134.11 159.94 140.55"/><polygon class="cls-47" points="158.75 141.29 159.34 140.93 159.34 134.49 158.75 134.85 158.75 141.29"/><polygon class="cls-47" points="157.57 142.03 158.15 141.67 158.15 135.23 157.57 135.59 157.57 142.03"/><polygon class="cls-47" points="156.38 142.77 156.97 142.41 156.97 135.97 156.38 136.34 156.38 142.77"/><polygon class="cls-47" points="155.19 143.51 155.78 143.15 155.78 136.71 155.19 137.08 155.19 143.51"/><polygon class="cls-47" points="154 144.26 154.59 143.89 154.59 137.45 154 137.82 154 144.26"/><g class="cls-5"><polygon class="cls-49" points="164.76 119.43 164.76 128.19 142.62 142.09 142.62 133.33 164.76 119.43"/><polygon class="cls-50" points="142.62 133.33 142.62 142.09 113.78 124.13 113.78 115.36 142.62 133.33"/><polygon class="cls-51" points="164.76 119.43 142.62 133.33 113.78 115.36 142.48 105.53 164.76 119.43"/></g><g class="cls-5"><polygon class="cls-52" points="166.46 109.24 166.45 118.72 142.63 133.68 142.63 124.2 166.46 109.24"/><polygon class="cls-53" points="142.63 124.2 142.63 133.68 112.08 114.65 112.09 105.18 142.63 124.2"/><polygon class="cls-54" points="113.13 113.99 113.31 107.47 141.41 124.96 141.23 131.48 113.13 113.99"/><polygon class="cls-55" points="166.46 109.24 142.63 124.2 112.09 105.18 142.48 94.28 166.46 109.24"/></g><polygon class="cls-46" points="143.42 124.84 165.97 110.78 165.97 118.18 143.42 132.24 143.42 124.84"/><polygon class="cls-47" points="144.07 125.03 153.54 119.1 153.54 125.42 144.07 131.35 144.07 125.03"/><polygon class="cls-48" points="147.12 124.97 144.55 126.58 144.55 129.81 147.12 128.21 147.12 124.97"/><polygon class="cls-48" points="150.13 123.1 147.56 124.7 147.56 127.94 150.13 126.34 150.13 123.1"/><polygon class="cls-48" points="153.06 121.25 150.49 122.86 150.49 126.09 153.06 124.49 153.06 121.25"/><polygon class="cls-47" points="161.13 120.78 161.72 120.41 161.72 113.97 161.13 114.34 161.13 120.78"/><polygon class="cls-47" points="159.94 121.52 160.53 121.15 160.53 114.71 159.94 115.08 159.94 121.52"/><polygon class="cls-47" points="158.75 122.26 159.34 121.89 159.34 115.45 158.75 115.82 158.75 122.26"/><polygon class="cls-47" points="157.57 123 158.15 122.63 158.15 116.2 157.57 116.56 157.57 123"/><polygon class="cls-47" points="156.38 123.74 156.97 123.38 156.97 116.94 156.38 117.3 156.38 123.74"/><polygon class="cls-47" points="155.19 124.48 155.78 124.11 155.78 117.68 155.19 118.05 155.19 124.48"/><polygon class="cls-47" points="154 125.22 154.59 124.86 154.59 118.42 154 118.79 154 125.22"/><g class="cls-5"><polygon class="cls-56" points="164.76 100.17 164.76 108.94 142.62 122.84 142.62 114.07 164.76 100.17"/><polygon class="cls-50" points="142.62 114.07 142.62 122.84 113.78 104.87 113.78 96.11 142.62 114.07"/><polygon class="cls-51" points="164.76 100.17 142.62 114.07 113.78 96.11 142.48 86.28 164.76 100.17"/></g><g class="cls-5"><polygon class="cls-57" points="166.46 90.39 166.45 99.87 142.63 114.83 142.63 105.35 166.46 90.39"/><polygon class="cls-58" points="142.63 105.35 142.63 114.83 112.08 95.81 112.09 86.33 142.63 105.35"/><polygon class="cls-59" points="113.13 95.14 113.31 88.62 141.41 106.12 141.23 112.64 113.13 95.14"/><polygon class="cls-60" points="166.46 90.39 142.63 105.35 112.09 86.33 135.91 71.37 166.46 90.39"/></g><polygon class="cls-46" points="143.42 105.99 165.97 91.93 165.97 99.33 143.42 113.39 143.42 105.99"/><polygon class="cls-47" points="144.07 106.19 153.54 100.25 153.54 106.57 144.07 112.5 144.07 106.19"/><polygon class="cls-48" points="147.12 106.13 144.55 107.73 144.55 110.97 147.12 109.36 147.12 106.13"/><polygon class="cls-48" points="150.13 104.25 147.56 105.86 147.56 109.1 150.13 107.49 150.13 104.25"/><polygon class="cls-48" points="153.06 102.41 150.49 104.01 150.49 107.25 153.06 105.64 153.06 102.41"/><polygon class="cls-47" points="161.13 101.93 161.72 101.56 161.72 95.13 161.13 95.49 161.13 101.93"/><polygon class="cls-47" points="159.94 102.67 160.53 102.31 160.53 95.87 159.94 96.23 159.94 102.67"/><polygon class="cls-47" points="158.75 103.41 159.34 103.05 159.34 96.61 158.75 96.97 158.75 103.41"/><polygon class="cls-47" points="157.57 104.15 158.15 103.79 158.15 97.35 157.57 97.72 157.57 104.15"/><polygon class="cls-47" points="156.38 104.89 156.97 104.53 156.97 98.09 156.38 98.46 156.38 104.89"/><polygon class="cls-47" points="155.19 105.64 155.78 105.27 155.78 98.83 155.19 99.2 155.19 105.64"/><polygon class="cls-47" points="154 106.38 154.59 106.01 154.59 99.57 154 99.94 154 106.38"/><g class="cls-5"><polygon class="cls-61" points="164.76 81.6 164.76 90.36 142.62 104.26 142.62 95.5 164.76 81.6"/><polygon class="cls-50" points="142.62 95.5 142.62 104.26 113.78 86.3 113.78 77.53 142.62 95.5"/><polygon class="cls-51" points="164.76 81.6 142.62 95.5 113.78 77.53 135.91 63.63 164.76 81.6"/></g><g class="cls-5"><polygon class="cls-62" points="166.46 71.41 166.45 80.89 142.63 95.85 142.63 86.37 166.46 71.41"/><polygon class="cls-63" points="142.63 86.37 142.63 95.85 112.08 76.82 112.09 67.35 142.63 86.37"/><polygon class="cls-64" points="113.13 76.16 113.31 69.64 141.41 87.13 141.23 93.65 113.13 76.16"/><polygon class="cls-65" points="166.46 71.41 142.63 86.37 112.09 67.35 135.91 52.39 166.46 71.41"/></g><polygon class="cls-46" points="143.42 87.01 165.97 72.94 165.97 80.35 143.42 94.41 143.42 87.01"/><polygon class="cls-47" points="144.07 87.2 153.54 81.27 153.54 87.59 144.07 93.52 144.07 87.2"/><polygon class="cls-48" points="147.12 87.14 144.55 88.75 144.55 91.98 147.12 90.38 147.12 87.14"/><polygon class="cls-48" points="150.13 85.27 147.56 86.88 147.56 90.11 150.13 88.51 150.13 85.27"/><polygon class="cls-48" points="153.06 83.42 150.49 85.03 150.49 88.26 153.06 86.66 153.06 83.42"/><polygon class="cls-47" points="161.13 82.95 161.72 82.58 161.72 76.14 161.13 76.51 161.13 82.95"/><polygon class="cls-47" points="159.94 83.69 160.53 83.32 160.53 76.89 159.94 77.25 159.94 83.69"/><polygon class="cls-47" points="158.75 84.43 159.34 84.06 159.34 77.63 158.75 77.99 158.75 84.43"/><polygon class="cls-47" points="157.57 85.17 158.15 84.8 158.15 78.37 157.57 78.73 157.57 85.17"/><polygon class="cls-47" points="156.38 85.91 156.97 85.55 156.97 79.11 156.38 79.47 156.38 85.91"/><polygon class="cls-47" points="155.19 86.65 155.78 86.28 155.78 79.85 155.19 80.22 155.19 86.65"/><polygon class="cls-47" points="154 87.39 154.59 87.03 154.59 80.59 154 80.96 154 87.39"/><g class="cls-24"><g class="cls-25"><path class="cls-26" d="M148.66,55.6,128,68.58a2.53,2.53,0,0,1-2.7,0l-28-17.43a3,3,0,0,1,0-5l20.66-13a2.53,2.53,0,0,1,2.7,0l28,17.44A3,3,0,0,1,148.66,55.6Z" transform="translate(-13.57 -14.34)"/></g><g class="cls-27"><path class="cls-26" d="M148.66,60.44,128,73.42a2.53,2.53,0,0,1-2.7,0L97.31,56a3,3,0,0,1,0-5L118,38a2.53,2.53,0,0,1,2.7,0l28,17.44A3,3,0,0,1,148.66,60.44Z" transform="translate(-13.57 -14.34)"/></g><g class="cls-28"><path class="cls-29" d="M148.66,65.28,128,78.26a2.53,2.53,0,0,1-2.7,0l-28-17.43a3,3,0,0,1,0-5l20.66-13a2.53,2.53,0,0,1,2.7,0l28,17.43A3,3,0,0,1,148.66,65.28Z" transform="translate(-13.57 -14.34)"/></g><g class="cls-30"><path class="cls-31" d="M148.66,70.12,128,83.1a2.53,2.53,0,0,1-2.7,0l-28-17.43a3,3,0,0,1,0-5l20.66-13a2.53,2.53,0,0,1,2.7,0l28,17.43A3,3,0,0,1,148.66,70.12Z" transform="translate(-13.57 -14.34)"/></g><g class="cls-32"><path class="cls-31" d="M148.66,75,128,87.94a2.53,2.53,0,0,1-2.7,0l-28-17.43a3,3,0,0,1,0-5L118,52.5a2.53,2.53,0,0,1,2.7,0l28,17.43A3,3,0,0,1,148.66,75Z" transform="translate(-13.57 -14.34)"/></g><g class="cls-33"><path class="cls-31" d="M148.66,79.8,128,92.78a2.53,2.53,0,0,1-2.7,0l-28-17.43a3,3,0,0,1,0-5l20.66-13a2.53,2.53,0,0,1,2.7,0l28,17.43A3,3,0,0,1,148.66,79.8Z" transform="translate(-13.57 -14.34)"/></g><g class="cls-34"><path class="cls-35" d="M148.66,84.65,128,97.62a2.53,2.53,0,0,1-2.7,0l-28-17.43a3,3,0,0,1,0-5l20.66-13a2.53,2.53,0,0,1,2.7,0l28,17.43A3,3,0,0,1,148.66,84.65Z" transform="translate(-13.57 -14.34)"/></g><g class="cls-36"><path class="cls-35" d="M148.66,89.49l-20.66,13a2.53,2.53,0,0,1-2.7,0L97.31,85a3,3,0,0,1,0-5L118,67a2.53,2.53,0,0,1,2.7,0l28,17.43A3,3,0,0,1,148.66,89.49Z" transform="translate(-13.57 -14.34)"/></g><g class="cls-37"><path class="cls-35" d="M148.66,94.33,128,107.3a2.53,2.53,0,0,1-2.7,0l-28-17.43a3,3,0,0,1,0-5l20.66-13a2.53,2.53,0,0,1,2.7,0l28,17.43A3,3,0,0,1,148.66,94.33Z" transform="translate(-13.57 -14.34)"/></g><g class="cls-38"><path class="cls-39" d="M148.66,99.17l-20.66,13a2.53,2.53,0,0,1-2.7,0l-28-17.43a3,3,0,0,1,0-5L118,76.7a2.53,2.53,0,0,1,2.7,0l28,17.43A3,3,0,0,1,148.66,99.17Z" transform="translate(-13.57 -14.34)"/></g><g class="cls-40"><path class="cls-41" d="M148.66,104,128,117a2.53,2.53,0,0,1-2.7,0l-28-17.43a3,3,0,0,1,0-5l20.66-13a2.53,2.53,0,0,1,2.7,0l28,17.43A3,3,0,0,1,148.66,104Z" transform="translate(-13.57 -14.34)"/></g><path class="cls-41" d="M148.66,108.85l-20.66,13a2.51,2.51,0,0,1-2.7,0l-28-17.43a3,3,0,0,1,0-5l20.66-13a2.53,2.53,0,0,1,2.7,0l28,17.43A3,3,0,0,1,148.66,108.85Z" transform="translate(-13.57 -14.34)"/></g><g class="cls-5"><polygon class="cls-66" points="137.27 146.26 137.39 155.74 113.77 171.08 113.65 161.6 137.27 146.26"/><polygon class="cls-67" points="113.65 161.6 113.77 171.08 82.97 152.55 82.84 143.07 113.65 161.6"/><polygon class="cls-68" points="84.01 151.87 84.1 145.34 112.43 162.39 112.35 168.91 84.01 151.87"/><polygon class="cls-69" points="137.27 146.26 113.65 161.6 82.84 143.07 113.08 131.69 137.27 146.26"/></g><polygon class="cls-46" points="114.45 162.23 136.8 147.81 136.9 155.21 114.55 169.63 114.45 162.23"/><polygon class="cls-47" points="115.1 162.41 124.48 156.33 124.57 162.65 115.19 168.73 115.1 162.41"/><polygon class="cls-48" points="118.14 162.3 115.59 163.95 115.64 167.19 118.19 165.54 118.14 162.3"/><polygon class="cls-48" points="121.13 160.38 118.58 162.03 118.62 165.27 121.17 163.62 121.13 160.38"/><polygon class="cls-48" points="124.04 158.49 121.49 160.13 121.53 163.37 124.08 161.72 124.04 158.49"/><polygon class="cls-47" points="132.1 157.88 132.68 157.51 132.59 151.07 132.01 151.45 132.1 157.88"/><polygon class="cls-47" points="130.92 158.64 131.5 158.27 131.41 151.83 130.83 152.21 130.92 158.64"/><polygon class="cls-47" points="129.74 159.4 130.32 159.03 130.24 152.59 129.65 152.97 129.74 159.4"/><polygon class="cls-47" points="128.56 160.16 129.15 159.79 129.06 153.35 128.48 153.73 128.56 160.16"/><polygon class="cls-47" points="127.39 160.92 127.97 160.55 127.88 154.11 127.3 154.49 127.39 160.92"/><polygon class="cls-47" points="126.21 161.69 126.79 161.31 126.7 154.87 126.12 155.25 126.21 161.69"/><polygon class="cls-47" points="125.03 162.45 125.61 162.07 125.52 155.63 124.94 156.01 125.03 162.45"/><g class="cls-5"><polygon class="cls-70" points="135.44 137.45 135.56 146.21 113.62 160.46 113.5 151.7 135.44 137.45"/><polygon class="cls-50" points="113.5 151.7 113.62 160.46 84.53 142.96 84.41 134.2 113.5 151.7"/><polygon class="cls-51" points="135.44 137.45 113.5 151.7 84.41 134.2 112.98 123.91 135.44 137.45"/></g><g class="cls-5"><polygon class="cls-71" points="137.01 127.23 137.13 136.71 113.51 152.05 113.39 142.57 137.01 127.23"/><polygon class="cls-72" points="113.39 142.57 113.51 152.05 82.71 133.52 82.58 124.04 113.39 142.57"/><polygon class="cls-73" points="83.75 132.84 83.83 126.31 112.17 143.36 112.09 149.88 83.75 132.84"/><polygon class="cls-74" points="137.01 127.23 113.39 142.57 82.58 124.04 112.82 112.66 137.01 127.23"/></g><polygon class="cls-46" points="114.19 143.2 136.53 128.78 136.64 136.18 114.29 150.6 114.19 143.2"/><polygon class="cls-47" points="114.84 143.38 124.22 137.3 124.31 143.62 114.92 149.7 114.84 143.38"/><polygon class="cls-48" points="117.88 143.27 115.33 144.92 115.38 148.16 117.93 146.51 117.88 143.27"/><polygon class="cls-48" points="120.87 141.35 118.32 143 118.36 146.24 120.91 144.59 120.87 141.35"/><polygon class="cls-48" points="123.78 139.46 121.23 141.1 121.27 144.34 123.82 142.7 123.78 139.46"/><polygon class="cls-47" points="131.84 138.85 132.42 138.48 132.33 132.04 131.75 132.42 131.84 138.85"/><polygon class="cls-47" points="130.66 139.61 131.24 139.24 131.15 132.8 130.57 133.18 130.66 139.61"/><polygon class="cls-47" points="129.48 140.37 130.06 140 129.97 133.56 129.39 133.94 129.48 140.37"/><polygon class="cls-47" points="128.3 141.13 128.88 140.76 128.8 134.32 128.22 134.7 128.3 141.13"/><polygon class="cls-47" points="127.13 141.9 127.71 141.52 127.62 135.08 127.04 135.46 127.13 141.9"/><polygon class="cls-47" points="125.95 142.66 126.53 142.28 126.44 135.84 125.86 136.22 125.95 142.66"/><polygon class="cls-47" points="124.77 143.42 125.35 143.04 125.26 136.6 124.68 136.98 124.77 143.42"/><g class="cls-5"><polygon class="cls-75" points="135.18 118.2 135.3 126.96 113.36 141.21 113.24 132.45 135.18 118.2"/><polygon class="cls-50" points="113.24 132.45 113.36 141.21 84.27 123.71 84.15 114.95 113.24 132.45"/><polygon class="cls-51" points="135.18 118.2 113.24 132.45 84.15 114.95 112.71 104.66 135.18 118.2"/></g><g class="cls-5"><polygon class="cls-76" points="136.75 108.39 136.87 117.87 113.25 133.21 113.13 123.73 136.75 108.39"/><polygon class="cls-77" points="113.13 123.73 113.25 133.21 82.45 114.67 82.33 105.2 113.13 123.73"/><polygon class="cls-78" points="83.49 113.99 83.58 107.47 111.91 124.51 111.83 131.03 83.49 113.99"/><polygon class="cls-79" points="136.75 108.39 113.13 123.73 82.33 105.2 105.94 89.86 136.75 108.39"/></g><polygon class="cls-46" points="113.93 124.35 136.28 109.93 136.38 117.34 114.03 131.76 113.93 124.35"/><polygon class="cls-47" points="114.58 124.54 123.96 118.45 124.05 124.77 114.67 130.85 114.58 124.54"/><polygon class="cls-48" points="117.62 124.43 115.07 126.07 115.12 129.31 117.67 127.67 117.62 124.43"/><polygon class="cls-48" points="120.61 122.51 118.06 124.16 118.1 127.39 120.65 125.75 120.61 122.51"/><polygon class="cls-48" points="123.52 120.61 120.97 122.26 121.01 125.5 123.56 123.85 123.52 120.61"/><polygon class="cls-47" points="131.58 120.01 132.16 119.63 132.07 113.2 131.49 113.57 131.58 120.01"/><polygon class="cls-47" points="130.4 120.77 130.98 120.39 130.89 113.96 130.31 114.33 130.4 120.77"/><polygon class="cls-47" points="129.22 121.53 129.8 121.15 129.72 114.72 129.13 115.09 129.22 121.53"/><polygon class="cls-47" points="128.04 122.29 128.63 121.92 128.54 115.48 127.96 115.85 128.04 122.29"/><polygon class="cls-47" points="126.87 123.05 127.45 122.67 127.36 116.24 126.78 116.61 126.87 123.05"/><polygon class="cls-47" points="125.69 123.81 126.27 123.43 126.18 117 125.6 117.38 125.69 123.81"/><polygon class="cls-47" points="124.51 124.57 125.09 124.19 125 117.76 124.42 118.13 124.51 124.57"/><g class="cls-5"><polygon class="cls-80" points="134.93 99.62 135.05 108.39 113.1 122.64 112.98 113.87 134.93 99.62"/><polygon class="cls-50" points="112.98 113.87 113.1 122.64 84.01 105.14 83.89 96.37 112.98 113.87"/><polygon class="cls-51" points="134.93 99.62 112.98 113.87 83.89 96.38 105.84 82.12 134.93 99.62"/></g><g class="cls-5"><polygon class="cls-81" points="136.49 89.41 136.61 98.89 112.99 114.23 112.87 104.75 136.49 89.41"/><polygon class="cls-82" points="112.87 104.75 112.99 114.22 82.19 95.69 82.06 86.22 112.87 104.75"/><polygon class="cls-83" points="83.23 95.01 83.32 88.49 111.65 105.53 111.57 112.05 83.23 95.01"/><polygon class="cls-84" points="136.49 89.41 112.87 104.75 82.06 86.22 105.68 70.88 136.49 89.41"/></g><polygon class="cls-46" points="113.67 105.37 136.02 90.95 136.12 98.36 113.77 112.78 113.67 105.37"/><polygon class="cls-47" points="114.32 105.56 123.7 99.47 123.79 105.79 114.41 111.87 114.32 105.56"/><polygon class="cls-48" points="117.36 105.45 114.81 107.09 114.86 110.33 117.41 108.69 117.36 105.45"/><polygon class="cls-48" points="120.35 103.53 117.8 105.17 117.84 108.41 120.39 106.77 120.35 103.53"/><polygon class="cls-48" points="123.26 101.63 120.71 103.28 120.75 106.52 123.3 104.87 123.26 101.63"/><polygon class="cls-47" points="131.32 101.03 131.9 100.65 131.81 94.22 131.23 94.59 131.32 101.03"/><polygon class="cls-47" points="130.14 101.79 130.72 101.41 130.63 94.98 130.05 95.35 130.14 101.79"/><polygon class="cls-47" points="128.96 102.55 129.54 102.17 129.46 95.74 128.87 96.11 128.96 102.55"/><polygon class="cls-47" points="127.78 103.31 128.37 102.93 128.28 96.5 127.7 96.87 127.78 103.31"/><polygon class="cls-47" points="126.61 104.07 127.19 103.69 127.1 97.26 126.52 97.63 126.61 104.07"/><polygon class="cls-47" points="125.43 104.83 126.01 104.45 125.92 98.02 125.34 98.39 125.43 104.83"/><polygon class="cls-47" points="124.25 105.59 124.83 105.21 124.74 98.78 124.16 99.15 124.25 105.59"/><g class="cls-24"><g class="cls-25"><path class="cls-26" d="M118.21,76.36l-20.66,13a2.49,2.49,0,0,1-2.69,0l-28-17.43a3,3,0,0,1,0-5l20.66-13a2.53,2.53,0,0,1,2.7,0l28,17.44A3,3,0,0,1,118.21,76.36Z" transform="translate(-13.57 -14.34)"/></g><g class="cls-27"><path class="cls-26" d="M118.21,81.2l-20.66,13a2.49,2.49,0,0,1-2.69,0l-28-17.43a3,3,0,0,1,0-5l20.66-13a2.53,2.53,0,0,1,2.7,0l28,17.44A3,3,0,0,1,118.21,81.2Z" transform="translate(-13.57 -14.34)"/></g><g class="cls-28"><path class="cls-29" d="M118.21,86,97.55,99a2.51,2.51,0,0,1-2.69,0l-28-17.43a3,3,0,0,1,0-5l20.66-13a2.53,2.53,0,0,1,2.7,0l28,17.44A3,3,0,0,1,118.21,86Z" transform="translate(-13.57 -14.34)"/></g><g class="cls-30"><path class="cls-31" d="M118.21,90.88l-20.66,13a2.51,2.51,0,0,1-2.69,0l-28-17.43a3,3,0,0,1,0-5l20.66-13a2.53,2.53,0,0,1,2.7,0l28,17.44A3,3,0,0,1,118.21,90.88Z" transform="translate(-13.57 -14.34)"/></g><g class="cls-32"><path class="cls-31" d="M118.21,95.72l-20.66,13a2.51,2.51,0,0,1-2.69,0l-28-17.43a3,3,0,0,1,0-5l20.66-13a2.53,2.53,0,0,1,2.7,0l28,17.44A3,3,0,0,1,118.21,95.72Z" transform="translate(-13.57 -14.34)"/></g><g class="cls-33"><path class="cls-31" d="M118.21,100.56l-20.66,13a2.51,2.51,0,0,1-2.69,0l-28-17.43a3,3,0,0,1,0-5l20.66-13a2.53,2.53,0,0,1,2.7,0l28,17.43A3,3,0,0,1,118.21,100.56Z" transform="translate(-13.57 -14.34)"/></g><g class="cls-34"><path class="cls-35" d="M118.21,105.4l-20.66,13a2.51,2.51,0,0,1-2.69,0L66.86,101a3,3,0,0,1,0-5l20.66-13a2.53,2.53,0,0,1,2.7,0l28,17.43A3,3,0,0,1,118.21,105.4Z" transform="translate(-13.57 -14.34)"/></g><g class="cls-36"><path class="cls-35" d="M118.21,110.24l-20.66,13a2.51,2.51,0,0,1-2.69,0l-28-17.43a3,3,0,0,1,0-5l20.66-13a2.53,2.53,0,0,1,2.7,0l28,17.43A3,3,0,0,1,118.21,110.24Z" transform="translate(-13.57 -14.34)"/></g><g class="cls-37"><path class="cls-35" d="M118.21,115.08l-20.66,13a2.51,2.51,0,0,1-2.69,0l-28-17.43a3,3,0,0,1,0-5l20.66-13a2.53,2.53,0,0,1,2.7,0l28,17.43A3,3,0,0,1,118.21,115.08Z" transform="translate(-13.57 -14.34)"/></g><g class="cls-38"><path class="cls-39" d="M118.21,119.93l-20.66,13a2.51,2.51,0,0,1-2.69,0l-28-17.43a3,3,0,0,1,0-5l20.66-13a2.53,2.53,0,0,1,2.7,0l28,17.43A3,3,0,0,1,118.21,119.93Z" transform="translate(-13.57 -14.34)"/></g><g class="cls-40"><path class="cls-41" d="M118.21,124.77l-20.66,13a2.51,2.51,0,0,1-2.69,0l-28-17.43a3,3,0,0,1,0-5l20.66-13a2.53,2.53,0,0,1,2.7,0l28,17.43A3,3,0,0,1,118.21,124.77Z" transform="translate(-13.57 -14.34)"/></g><path class="cls-41" d="M118.21,129.61l-20.66,13a2.51,2.51,0,0,1-2.69,0l-28-17.43a3,3,0,0,1,0-5l20.66-13a2.53,2.53,0,0,1,2.7,0l28,17.43A3,3,0,0,1,118.21,129.61Z" transform="translate(-13.57 -14.34)"/></g><g class="cls-5"><polygon class="cls-85" points="106.15 167.08 106.14 176.56 82.32 191.52 82.33 182.04 106.15 167.08"/><polygon class="cls-86" points="82.33 182.04 82.32 191.51 51.77 172.49 51.78 163.01 82.33 182.04"/><polygon class="cls-87" points="52.83 171.83 53 165.31 81.1 182.8 80.92 189.32 52.83 171.83"/><polygon class="cls-88" points="106.15 167.08 82.33 182.04 51.78 163.01 82.17 152.12 106.15 167.08"/></g><polygon class="cls-46" points="83.12 182.67 105.66 168.61 105.66 176.02 83.12 190.08 83.12 182.67"/><polygon class="cls-47" points="83.76 182.87 93.23 176.94 93.23 183.25 83.76 189.19 83.76 182.87"/><polygon class="cls-48" points="86.81 182.81 84.24 184.41 84.24 187.65 86.81 186.05 86.81 182.81"/><polygon class="cls-48" points="89.82 180.94 87.25 182.54 87.25 185.78 89.82 184.18 89.82 180.94"/><polygon class="cls-48" points="92.75 179.09 90.18 180.69 90.18 183.93 92.75 182.33 92.75 179.09"/><polygon class="cls-47" points="100.82 178.61 101.41 178.25 101.41 171.81 100.82 172.18 100.82 178.61"/><polygon class="cls-47" points="99.63 179.35 100.22 178.99 100.22 172.55 99.63 172.92 99.63 179.35"/><polygon class="cls-47" points="98.45 180.1 99.03 179.73 99.03 173.29 98.45 173.66 98.45 180.1"/><polygon class="cls-47" points="97.26 180.84 97.84 180.47 97.84 174.03 97.26 174.4 97.26 180.84"/><polygon class="cls-47" points="96.07 181.58 96.66 181.21 96.66 174.78 96.07 175.14 96.07 181.58"/><polygon class="cls-47" points="94.88 182.32 95.47 181.95 95.47 175.52 94.88 175.88 94.88 182.32"/><polygon class="cls-47" points="93.69 183.06 94.28 182.69 94.28 176.26 93.69 176.62 93.69 183.06"/><g class="cls-5"><polygon class="cls-89" points="104.45 158.23 104.45 167 82.31 180.9 82.31 172.13 104.45 158.23"/><polygon class="cls-50" points="82.31 172.13 82.31 180.9 53.47 162.93 53.47 154.17 82.31 172.13"/><polygon class="cls-51" points="104.45 158.23 82.31 172.13 53.47 154.17 82.17 144.34 104.45 158.23"/></g><g class="cls-5"><polygon class="cls-90" points="106.15 148.05 106.14 157.53 82.32 172.48 82.33 163.01 106.15 148.05"/><polygon class="cls-91" points="82.33 163 82.32 172.48 51.77 153.46 51.78 143.98 82.33 163"/><polygon class="cls-92" points="52.83 152.79 53 146.27 81.1 163.77 80.92 170.29 52.83 152.79"/><polygon class="cls-93" points="106.15 148.05 82.33 163.01 51.78 143.98 82.17 133.09 106.15 148.05"/></g><polygon class="cls-46" points="83.12 163.64 105.66 149.58 105.66 156.99 83.12 171.05 83.12 163.64"/><polygon class="cls-47" points="83.76 163.84 93.23 157.91 93.23 164.22 83.76 170.16 83.76 163.84"/><polygon class="cls-48" points="86.81 163.78 84.24 165.38 84.24 168.62 86.81 167.01 86.81 163.78"/><polygon class="cls-48" points="89.82 161.91 87.25 163.51 87.25 166.75 89.82 165.14 89.82 161.91"/><polygon class="cls-48" points="92.75 160.06 90.18 161.66 90.18 164.9 92.75 163.29 92.75 160.06"/><polygon class="cls-47" points="100.82 159.58 101.41 159.22 101.41 152.78 100.82 153.15 100.82 159.58"/><polygon class="cls-47" points="99.63 160.32 100.22 159.96 100.22 153.52 99.63 153.89 99.63 160.32"/><polygon class="cls-47" points="98.45 161.06 99.03 160.7 99.03 154.26 98.45 154.63 98.45 161.06"/><polygon class="cls-47" points="97.26 161.81 97.84 161.44 97.84 155 97.26 155.37 97.26 161.81"/><polygon class="cls-47" points="96.07 162.55 96.66 162.18 96.66 155.74 96.07 156.11 96.07 162.55"/><polygon class="cls-47" points="94.88 163.29 95.47 162.92 95.47 156.49 94.88 156.85 94.88 163.29"/><polygon class="cls-47" points="93.69 164.03 94.28 163.66 94.28 157.23 93.69 157.59 93.69 164.03"/><g class="cls-5"><polygon class="cls-94" points="104.45 138.98 104.45 147.74 82.31 161.64 82.31 152.88 104.45 138.98"/><polygon class="cls-50" points="82.31 152.88 82.31 161.64 53.47 143.68 53.47 134.91 82.31 152.88"/><polygon class="cls-51" points="104.45 138.98 82.31 152.88 53.47 134.92 82.17 125.08 104.45 138.98"/></g><g class="cls-5"><polygon class="cls-95" points="106.15 129.2 106.14 138.68 82.32 153.64 82.33 144.16 106.15 129.2"/><polygon class="cls-96" points="82.33 144.16 82.32 153.64 51.77 134.61 51.78 125.14 82.33 144.16"/><polygon class="cls-97" points="52.83 133.95 53 127.43 81.1 144.92 80.92 151.44 52.83 133.95"/><polygon class="cls-98" points="106.15 129.2 82.33 144.16 51.78 125.14 75.6 110.18 106.15 129.2"/></g><polygon class="cls-46" points="83.12 144.8 105.66 130.73 105.66 138.14 83.12 152.2 83.12 144.8"/><polygon class="cls-47" points="83.76 144.99 93.23 139.06 93.23 145.38 83.76 151.31 83.76 144.99"/><polygon class="cls-48" points="86.81 144.93 84.24 146.53 84.24 149.77 86.81 148.17 86.81 144.93"/><polygon class="cls-48" points="89.82 143.06 87.25 144.66 87.25 147.9 89.82 146.3 89.82 143.06"/><polygon class="cls-48" points="92.75 141.21 90.18 142.81 90.18 146.05 92.75 144.45 92.75 141.21"/><polygon class="cls-47" points="100.82 140.74 101.41 140.37 101.41 133.93 100.82 134.3 100.82 140.74"/><polygon class="cls-47" points="99.63 141.48 100.22 141.11 100.22 134.67 99.63 135.04 99.63 141.48"/><polygon class="cls-47" points="98.45 142.22 99.03 141.85 99.03 135.41 98.45 135.78 98.45 142.22"/><polygon class="cls-47" points="97.26 142.96 97.84 142.59 97.84 136.16 97.26 136.52 97.26 142.96"/><polygon class="cls-47" points="96.07 143.7 96.66 143.34 96.66 136.9 96.07 137.26 96.07 143.7"/><polygon class="cls-47" points="94.88 144.44 95.47 144.07 95.47 137.64 94.88 138.01 94.88 144.44"/><polygon class="cls-47" points="93.69 145.18 94.28 144.81 94.28 138.38 93.69 138.75 93.69 145.18"/><g class="cls-5"><polygon class="cls-99" points="104.45 120.4 104.45 129.17 82.31 143.07 82.31 134.3 104.45 120.4"/><polygon class="cls-50" points="82.31 134.3 82.31 143.07 53.47 125.1 53.47 116.34 82.31 134.3"/><polygon class="cls-51" points="104.45 120.4 82.31 134.3 53.47 116.34 75.6 102.44 104.45 120.4"/></g><g class="cls-5"><polygon class="cls-100" points="106.15 110.22 106.14 119.69 82.32 134.66 82.33 125.18 106.15 110.22"/><polygon class="cls-101" points="82.33 125.17 82.32 134.65 51.77 115.63 51.78 106.15 82.33 125.17"/><polygon class="cls-102" points="52.83 114.96 53 108.44 81.1 125.94 80.92 132.46 52.83 114.96"/><polygon class="cls-103" points="106.15 110.22 82.33 125.18 51.78 106.15 75.6 91.19 106.15 110.22"/></g><polygon class="cls-46" points="83.12 125.81 105.66 111.75 105.66 119.16 83.12 133.22 83.12 125.81"/><polygon class="cls-47" points="83.76 126.01 93.23 120.08 93.23 126.39 83.76 132.33 83.76 126.01"/><polygon class="cls-48" points="86.81 125.95 84.24 127.55 84.24 130.79 86.81 129.19 86.81 125.95"/><polygon class="cls-48" points="89.82 124.08 87.25 125.68 87.25 128.92 89.82 127.31 89.82 124.08"/><polygon class="cls-48" points="92.75 122.23 90.18 123.83 90.18 127.07 92.75 125.47 92.75 122.23"/><polygon class="cls-47" points="100.82 121.75 101.41 121.39 101.41 114.95 100.82 115.31 100.82 121.75"/><polygon class="cls-47" points="99.63 122.49 100.22 122.13 100.22 115.69 99.63 116.06 99.63 122.49"/><polygon class="cls-47" points="98.45 123.23 99.03 122.87 99.03 116.43 98.45 116.8 98.45 123.23"/><polygon class="cls-47" points="97.26 123.98 97.84 123.61 97.84 117.17 97.26 117.54 97.26 123.98"/><polygon class="cls-47" points="96.07 124.72 96.66 124.35 96.66 117.91 96.07 118.28 96.07 124.72"/><polygon class="cls-47" points="94.88 125.46 95.47 125.09 95.47 118.66 94.88 119.02 94.88 125.46"/><polygon class="cls-47" points="93.69 126.2 94.28 125.83 94.28 119.4 93.69 119.76 93.69 126.2"/><path class="cls-104" d="M181.12,143.72c.18-.23-.21-.36-.31-.64-.22-.61-.05-1.25-.82-2-.09-.09-.17-.26-.3-.3-.5-.17-.64.11-.67.51-.84-.39-2.18-2.41-2.39-1.55-.11.41,1.28,1.48,1.5,1.79,0-.06-.45-.33-.51-.38-.23-.19-.67-.52-.79-.13s.12.48.31.67c0,0,.35.34.29.31-.24-.12-.63-.5-.75,0a.46.46,0,0,0,.16.44,3,3,0,0,0,.3.31c-.36-.15-.66.23-.32.56a6.92,6.92,0,0,0,3.07,1.76s0,0,.06,0,0,0,0-.07l.09-.13c.09-.14.13-.08.22-.22S180.91,144,181.12,143.72Z" transform="translate(-13.57 -14.34)"/><path class="cls-105" d="M194.52,153.17c-.66-1.69-6.63-5.39-6.63-5.39-.93-.73-4-3.05-6.43-4.93a3.7,3.7,0,0,0-2.53,2.47,46.34,46.34,0,0,1,3.26,4.29,15.15,15.15,0,0,0,2.9,2.64l.07,0,2.07,1.72c2.09,1.38,4.22,2.88,6.64,2.87C193.87,156.86,195.18,154.86,194.52,153.17Z" transform="translate(-13.57 -14.34)"/><path class="cls-104" d="M186.9,150.55v.23l0,2a2.54,2.54,0,0,0,.44.56h.15c1.36-.16,3.05-.48,3.05-1.55l0,0-.08-1.53h-.16l-2.45.23Z" transform="translate(-13.57 -14.34)"/><path class="cls-106" d="M191,151.51a9,9,0,0,1,.09,2.56c-.07.83-.19-.35-.91,0a3.63,3.63,0,0,1-2.28.13,1.33,1.33,0,0,1-.92-.48c-.3-.34-.3-1.71,0-1.74s.89,0,1.16,0a4,4,0,0,0,1.86-.33C190.4,151.46,190.56,151,191,151.51Z" transform="translate(-13.57 -14.34)"/><path class="cls-107" d="M194.34,199.68s.24,2.18-.45,2.8c-.19.18-.9.11-1.68-.24-.51-.23-1-.71-1.54-.89-1.51-.54-1.8-1.39-2.3-2.49-1.06-2.34,1.32-1.25,2.85-.29A7.33,7.33,0,0,0,194.34,199.68Z" transform="translate(-13.57 -14.34)"/><path class="cls-105" d="M188.91,183.77c.14,1.24.37,2.47.56,3.7.11.71.07,1.25.19,2,.23,1.41.17,8,.17,10.29,0,.46,4.57,1.92,4.69,1.25a55.63,55.63,0,0,0,.21-8.06c-.17-1.49-.52-15.67-.43-16.61.14-1.51,0-4.06-1.18-4.86-1.79-1.19-4,1.47-4.53,2.64C187.88,175.74,188.33,178.17,188.91,183.77Z" transform="translate(-13.57 -14.34)"/><path class="cls-107" d="M188.71,202.65s.74,2,.22,2.84c-.14.23-.84.38-1.67.28-.55-.07-1.16-.37-1.7-.39-1.58-.06-2.05-.78-2.79-1.69-1.58-1.93,1-1.62,2.67-1.15A7.17,7.17,0,0,0,188.71,202.65Z" transform="translate(-13.57 -14.34)"/><path class="cls-108" d="M183.47,183.82h0c1.43,12.33.91,10.68.95,19.44,0,.72.17.59,2.19.92a4.47,4.47,0,0,0,1.31.08c1.32-.17,1.51-1.23,1.54-2.38s.35-15.65-2.69-15.67C186.25,186.21,183.87,184.16,183.47,183.82Z" transform="translate(-13.57 -14.34)"/><path class="cls-108" d="M183.16,175.49c.13,3.14.14,6.15.31,8.33h0a10,10,0,0,0,1.2,4.45c.46,1.13.4,2,1,2.53a1.35,1.35,0,0,0,1.67.08c.52-.33,1.2,2.35,1.39,1.71a32.94,32.94,0,0,0,.27-3.46c.23-5.42,2.38-9,1.91-13.43C190.88,175.47,183.16,175.49,183.16,175.49Z" transform="translate(-13.57 -14.34)"/><path class="cls-108" d="M181.94,156.38s.13.85.29,2.06l0,.22c.24,1.8.55,4.29.7,6.09,0,.59.08,1.11.09,1.51,0,2-.25,7.35-.34,9.05a.92.92,0,0,0,.39.83,8.5,8.5,0,0,0,.8.46,5.77,5.77,0,0,0,1.41.44,11.32,11.32,0,0,0,1.14.15,18,18,0,0,0,4.8-.22,6.54,6.54,0,0,0,3.1-1.42,1,1,0,0,0,.33-.72h0c0-1.85-.86-7-.87-8.93,0-3.4,1.13-9.12,1.05-11-.06-1.59-.59-3.52-3.8-3.08l-4.22,1C186,153.37,182.29,154.08,181.94,156.38Z" transform="translate(-13.57 -14.34)"/><path class="cls-104" d="M185.65,149.21a3.07,3.07,0,0,0,1.25,1.57,2,2,0,0,0,.67.24l.13,0a1.13,1.13,0,0,0,.65-.12c.39-.21,1.81.06,2-.39a2.82,2.82,0,0,0,.07-.31c.16-1.16-.59-2.9-.76-4a4.7,4.7,0,0,0-1.46-2.64,5.81,5.81,0,0,0-2.11-1.3l-.4.52-.32.42a14.42,14.42,0,0,1,0,3A7.27,7.27,0,0,0,185.65,149.21Z" transform="translate(-13.57 -14.34)"/><path class="cls-104" d="M185.33,146.23a14.42,14.42,0,0,0,0-3l.32-.42.13.65a11.47,11.47,0,0,0,0,4.81,3.7,3.7,0,0,0,.71,1.66,1.36,1.36,0,0,0,1.55.46l-.09.07a1.34,1.34,0,0,0-.35.57,2.2,2.2,0,0,0-.1.57c0,.12,0,.25,0,.37a1.11,1.11,0,0,0-.48,0h-.07l0-1.19a3.07,3.07,0,0,1-1.25-1.57A7.27,7.27,0,0,1,185.33,146.23Z" transform="translate(-13.57 -14.34)"/><path class="cls-109" d="M184.8,143c.08.61.56.57.86,1.1s.36,1.14.7,1.74c.13.22.63,2.3,1.2,1.94.85-.54-.12,1.93,1.44,2.82a2.74,2.74,0,0,0,1.3,0,.87.87,0,0,0,.43-.33l0,0a18.37,18.37,0,0,0,2.41-3,6.52,6.52,0,0,0,.36-2.47,4.18,4.18,0,0,0-.82-2,4.36,4.36,0,0,0-1.5-1.49,5.81,5.81,0,0,0-3.64-.54l-.47.08a8.19,8.19,0,0,0-.81.23l-.34.19c-1.15.69-1.13,1.4-1.14,1.45S184.79,142.87,184.8,143Z" transform="translate(-13.57 -14.34)"/><path class="cls-104" d="M187.64,147.63a1,1,0,0,0,0,1.35c.32.27.86.11,1.2-.36a1,1,0,0,0,0-1.35C188.52,147,188,147.16,187.64,147.63Z" transform="translate(-13.57 -14.34)"/><path class="cls-108" d="M187.23,152.37a4.22,4.22,0,0,0-.76.25.7.7,0,0,0-.34.53,12,12,0,0,0,3.8-.38,3.38,3.38,0,0,0,1.83-1c.34-.61-1.74.05-2,.12-.84.25-1.73.26-2.57.46Z" transform="translate(-13.57 -14.34)"/><path class="cls-110" d="M192.91,145.06a5.62,5.62,0,0,1-1.7,4.42,1.31,1.31,0,0,0-.44.58.52.52,0,0,0,0,.11,18.37,18.37,0,0,0,2.41-3,6.52,6.52,0,0,0,.36-2.47,4.18,4.18,0,0,0-.82-2,4.36,4.36,0,0,0-1.5-1.49,5.81,5.81,0,0,0-3.64-.54,7.83,7.83,0,0,1,2.86.56A4.72,4.72,0,0,1,192.91,145.06Z" transform="translate(-13.57 -14.34)"/><path class="cls-104" d="M180.05,175.72l-1.14-.15-.13,1.2a6.13,6.13,0,0,0-.42.54c-.27.48-.38,1-.64,1.53-.08.14-.4.56-.36.74a.16.16,0,0,0,.1.08c.5.18.73-.35.91-.77,0,.22-.09.43-.14.66s-.35,1.56-.06,1.61.22-.19.26-.3a13.3,13.3,0,0,0,.42-1.53c-.08.45-.16.88-.24,1.32,0,.2-.14,1,.15,1a.18.18,0,0,0,.18-.14,5.58,5.58,0,0,0,.27-1.24c0,.27-.05.54-.07.82s0,.37.13.44.28-.16.31-.29a9.8,9.8,0,0,0,.28-1.62,13.69,13.69,0,0,0,.06,1.46h0c0,.09.06.11.13.05a.45.45,0,0,0,.15-.28c.17-.63.27-1,.45-1.63a6.31,6.31,0,0,0,.15-1c0-.33.06-.6.11-.92s0-.43,0-.7h0s.09-.27.23-.72A8.41,8.41,0,0,0,180.05,175.72Z" transform="translate(-13.57 -14.34)"/><path class="cls-111" d="M184.67,155.66a1.44,1.44,0,0,0-1.89-.74,2.35,2.35,0,0,0-.84,1.33l-2,9.77c-.22,1.22-1.25,7.22-1.79,10.42a3.49,3.49,0,0,0,3.15,1.42c1-2.75,2.17-6,2.6-7.05a17.38,17.38,0,0,0,1-4s0,0,0-.08l.56-2.75C185.71,161.14,186.1,158.15,184.67,155.66Z" transform="translate(-13.57 -14.34)"/><path class="cls-112" d="M156,160.67a8.61,8.61,0,0,1,1.23.36,15.6,15.6,0,0,1,2.47,1.85c.69.49,5.33,1.32,6.11,1.48.05-.61-.81,4-.83,4.09s-4.32-3.26-4.68-3.41a6.23,6.23,0,0,0-1.63-.3,4.08,4.08,0,0,0-.32-1.18,2.36,2.36,0,0,0-1.15-1c-.24-.35-.36-.63-.52-.72a4,4,0,0,0-.68-.28Z" transform="translate(-13.57 -14.34)"/><path class="cls-113" d="M172.78,167.34c-17.57,41.08-2.73,3.63-4.24,5.42-2.46-.11-3.25-2.34-3.4-3.76a69.08,69.08,0,0,1,4.6-5.25C171.26,162.08,173.8,165,172.78,167.34Z" transform="translate(-13.57 -14.34)"/><path class="cls-114" d="M163.42,214.5c1,.45,2.18,1.4,3.24.66.77-.54.39-1.82,0-2.72a2.59,2.59,0,0,0-1.6-1.7c-.25-.09-.72-.19-.93,0-.75.81-2.37.7-3.39.67a2.9,2.9,0,0,0-.93.06c-.85.24-1.11,1.29.14,2C161.51,214.43,162.44,214.05,163.42,214.5Z" transform="translate(-13.57 -14.34)"/><path class="cls-114" d="M171,209.74s.82,2,.29,2.85a2.39,2.39,0,0,1-1.79.31c-.59-.06-1.25-.35-1.82-.36a4.74,4.74,0,0,1-3.6-1.75c-1.71-1.9,1-1.63,2.85-1.2A13.18,13.18,0,0,0,171,209.74Z" transform="translate(-13.57 -14.34)"/><path class="cls-115" d="M167.83,210l-2.37-23.66a2.84,2.84,0,0,1,2.15-3.36c1.49-.2,4.31-.38,4.55,1.22.67,4.56-2.15,6.41-1.18,11.54.65,3.41.16,12.59,0,14.05S168.46,211.14,167.83,210Z" transform="translate(-13.57 -14.34)"/><path class="cls-116" d="M163.53,211.32c-.39-2.68-1.4-6.59-1.52-10.39-.1-3.15-.54-12.66-.54-12.66,0-1.62.12-7.07,1.5-7.07s7.57.08,7.57,3.42c0,2.11.48,2.77-1.52,5.95-1.34,2.12-1.86,6.08-1.7,8.84a69.22,69.22,0,0,1-.79,12.05C166.4,212.88,163.65,212.14,163.53,211.32Z" transform="translate(-13.57 -14.34)"/><path class="cls-117" d="M161.9,176.17c.19,2.53-.7,7.19-.52,9s10.74,2,11.2-.46c.36-1.95-1-6.12-.86-7.95.38-3.87.89-9.06.85-10.82a2.71,2.71,0,0,0-.57-1.86c-.64-.66-1.86-.92-3.47-.72l-3.13.49c-.77.47-4.18,1-4.52,3.13a9.39,9.39,0,0,1,.44,2C161.5,170.6,161.87,175.81,161.9,176.17Z" transform="translate(-13.57 -14.34)"/><path class="cls-104" d="M163.65,160.43h.06c.19-.46,1.55-.46,2-.47a14.19,14.19,0,0,1,2.44.08l.15.71h0a4.61,4.61,0,0,1,.08,1.48,4.17,4.17,0,0,0,.19,1.37c.18.5.23,1-.35,1.29-1.51.81-3.34.66-3.71,0-.26-.45.25-1.1,0-2.21s-.92-1.91-.86-2.22Z" transform="translate(-13.57 -14.34)"/><path class="cls-104" d="M162.42,157.08c-.16,2.26-.13,4.59,1,5.55a1.65,1.65,0,0,0,1.39.26l.31-.07a5.11,5.11,0,0,0,1.48-.67c.51-.34,1.11-2.38,1.26-3.07.48-2.21-1.06-2.41-2.35-3.48S162.58,154.81,162.42,157.08Z" transform="translate(-13.57 -14.34)"/><path class="cls-118" d="M163.67,153.78a6,6,0,0,1,2-.86,4.77,4.77,0,0,1,.92-.15,3.11,3.11,0,0,1,2.62,1.78s4.13,2.33-.24,7.62a1.81,1.81,0,0,0-.38.84,4.43,4.43,0,0,1-2.1-.08,2.18,2.18,0,0,1-.64-.88c-.15-.35-.25-.71-.4-1.05a1.67,1.67,0,0,0-.35-.55c-.26-.24-.63-.3-.86-.57a1.38,1.38,0,0,1-.27-1c0-.22,0-.44.05-.67a.37.37,0,0,1,0-.11,1.53,1.53,0,0,0-.41-1c-.43-.39-.89-.32-1.22-.94S162.44,154.71,163.67,153.78Z" transform="translate(-13.57 -14.34)"/><path class="cls-118" d="M163.67,153.78a6,6,0,0,1,2-.86,4.77,4.77,0,0,1,.92-.15,3.11,3.11,0,0,1,2.62,1.78,3.81,3.81,0,0,1,1.6,4.38c-1.43-2.06-4.14-2.12-6.25-1.32a2.16,2.16,0,0,0-.59.29,1.28,1.28,0,0,0-.37-.74c-.43-.39-.89-.32-1.22-.94S162.44,154.71,163.67,153.78Z" transform="translate(-13.57 -14.34)"/><path class="cls-119" d="M170.81,158.93a8.91,8.91,0,0,1-1.84,3.24,1.81,1.81,0,0,0-.38.84,4.43,4.43,0,0,1-2.1-.08c-.59-.44-.76-1.29-1-1.93a1.84,1.84,0,0,0-.35-.55c-.26-.24-.63-.3-.86-.57a1.38,1.38,0,0,1-.27-1c0-.22,0-.44.05-.67a.37.37,0,0,1,0-.11,2,2,0,0,0,0-.24,2.16,2.16,0,0,1,.59-.29C166.67,156.81,169.38,156.87,170.81,158.93Z" transform="translate(-13.57 -14.34)"/><path class="cls-104" d="M164.39,160a1,1,0,0,0,.16,1.26c.34.19.82,0,1.07-.54a1,1,0,0,0-.16-1.25C165.12,159.28,164.64,159.52,164.39,160Z" transform="translate(-13.57 -14.34)"/><path class="cls-112" d="M164.76,160.23a.39.39,0,0,0,.06.5c.14.08.33,0,.43-.21a.4.4,0,0,0-.06-.51C165.05,159.93,164.86,160,164.76,160.23Z" transform="translate(-13.57 -14.34)"/><path class="cls-120" d="M156.15,165l-.07-.05a.16.16,0,0,0,.07.15l.07,0a.15.15,0,0,1-.07-.14Z" transform="translate(-13.57 -14.34)"/><path class="cls-121" d="M156,166.71s.08,0,.08,0v.35a.18.18,0,0,1-.07.15l-.28.19c-.05,0-.08,0-.09,0v-.36a.19.19,0,0,1,.08-.15Z" transform="translate(-13.57 -14.34)"/><polygon class="cls-121" points="142.45 146.29 142.45 146.38 141.72 146.88 141.72 146.79 142.45 146.29"/><path class="cls-122" d="M156.89,160.21c.08-.06.15,0,.15.09l.19,5.33a.4.4,0,0,1-.14.29l-2.46,1.66c-.08,0-.15,0-.16-.09l-.18-5.33a.41.41,0,0,1,.14-.3Z" transform="translate(-13.57 -14.34)"/><path class="cls-123" d="M156.8,159.8c.19-.14.36,0,.37.21l.21,6.08a.86.86,0,0,1-.34.69l-2.31,1.56c-.2.13-.36,0-.37-.21l-.22-6.08a.92.92,0,0,1,.34-.69Zm.35,5.74-.18-5c0-.1-.06-.14-.14-.08L154.5,162a.35.35,0,0,0-.14.27l.18,5.06c0,.1.07.14.15.08l2.32-1.57a.37.37,0,0,0,.14-.28Zm-1.06,1.57v-.35c0-.06,0-.08-.08,0l-.28.19a.19.19,0,0,0-.08.15v.36c0,.05,0,.07.09,0l.28-.19a.18.18,0,0,0,.07-.15Zm-.81-6v.09l.73-.5v-.09l-.74.5Z" transform="translate(-13.57 -14.34)"/><path class="cls-124" d="M156.7,159.55a.19.19,0,0,0-.15,0l-.11.05-2.31,1.56a.69.69,0,0,0-.17.17.87.87,0,0,0-.17.52l.21,6.08a.31.31,0,0,0,.11.25l.36.21a.27.27,0,0,1-.11-.25l-.22-6.08a.93.93,0,0,1,.18-.52.66.66,0,0,1,.16-.17l2.32-1.56a.16.16,0,0,1,.11-.05.17.17,0,0,1,.14,0Z" transform="translate(-13.57 -14.34)"/><path class="cls-104" d="M153.35,163.06c.17-.2.41-.28.49,0s-.14,1.78.3,2.28c.09.1.33.56.72.14a7.23,7.23,0,0,0,.56-.92c.25-.44.59-.11.42.22a4.62,4.62,0,0,0-.36,1c-.07.53-.59.95-.66,1.22,0,.08,0,.27,0,.26.21.34.93,2.89,1.87,3,1.52.16,4.52-4.39,4.52-4.39a1.82,1.82,0,0,1,2.2-.46,3.15,3.15,0,0,1,.76.68c1.07,1.4-.07,2.68-.82,3.35a3.93,3.93,0,0,1-1.07,1.24c-1.85,1.45-5.12,4.44-7,3.38-1.23-.71-1.74-3.8-1.91-4.37-.39-1.26-.42-2.45-.81-3.71a3.39,3.39,0,0,1-.3-1.12C152.28,164.4,153.25,163.18,153.35,163.06Z" transform="translate(-13.57 -14.34)"/><path class="cls-112" d="M158.62,164.74a1.42,1.42,0,0,1-.63-.23,2.14,2.14,0,0,0-1-.44,1.94,1.94,0,0,1-1-.26c-.24-.19-.26-.49.06-.59s.83.21,1.23.14.16-.41-.05-.72a2,2,0,0,1,1,.92A4.08,4.08,0,0,1,158.62,164.74Z" transform="translate(-13.57 -14.34)"/><path class="cls-26" d="M157.33,169.51l3.92-3.66a1.82,1.82,0,0,1,2.2-.46,3.15,3.15,0,0,1,.76.68,3.38,3.38,0,0,1-.39,4.12h0l-4.43,3.24A5.45,5.45,0,0,1,157.33,169.51Z" transform="translate(-13.57 -14.34)"/><g class="cls-125"><g class="cls-5"><g class="cls-126"><path class="cls-127" d="M122,50.51a4.29,4.29,0,0,0-3.29-.46,8.23,8.23,0,0,0-2.45,1.06,13.32,13.32,0,0,0-2.35,1.9l3.63,2.28a13.32,13.32,0,0,1,2.35-1.9,8.23,8.23,0,0,1,2.45-1.06,4.26,4.26,0,0,1,3.28.45Z" transform="translate(-13.57 -14.34)"/></g><g class="cls-128"><path class="cls-129" d="M111.25,48.23a4.92,4.92,0,0,0-3.8-.52,9.22,9.22,0,0,0-2.84,1.22,17.49,17.49,0,0,0-4.52,4.28,23.84,23.84,0,0,0-4.67,11.3,8.15,8.15,0,0,0-2.35,1,15,15,0,0,0-3.9,3.69A19.81,19.81,0,0,0,85,80.58c0,2.75.91,4.68,2.35,5.59L91,88.44c-1.44-.9-2.34-2.83-2.35-5.58a19.87,19.87,0,0,1,4.13-11.35,15.24,15.24,0,0,1,3.91-3.69,8.15,8.15,0,0,1,2.35-1,23.79,23.79,0,0,1,4.67-11.3,17.32,17.32,0,0,1,4.52-4.28A9.52,9.52,0,0,1,111.08,50a4.92,4.92,0,0,1,3.8.53Z" transform="translate(-13.57 -14.34)"/></g><g class="cls-130"><path class="cls-131" d="M108.24,51.21c4.68-2.92,8.55-1.06,9.25,4.08a13.32,13.32,0,0,1,2.35-1.9c4.45-2.78,8.07-.55,8.09,5s-3.59,12.26-8,15L96.75,87.84c-4.45,2.77-8.07.55-8.09-5s3.59-12.26,8-15a8.15,8.15,0,0,1,2.35-1C99.71,60.8,103.57,54.12,108.24,51.21Z" transform="translate(-13.57 -14.34)"/></g></g></g><path class="cls-105" d="M82.44,146.59c0-1.11-.08-2.26-.17-3.43H85.4c-.21.73-.42,1.44-.59,2.12-.16,1.71,1,2.22.2,4a1.65,1.65,0,0,1-.76.69,2,2,0,0,0-1.16,1.22,2.63,2.63,0,0,1-.55.86c-.94.86-3.08.71-3.51-.08-.63-1.1,2.39-3.28,3.34-5.23A.4.4,0,0,0,82.44,146.59Z" transform="translate(-13.57 -14.34)"/><path class="cls-105" d="M73.48,138.37a6.69,6.69,0,0,1-.89-.65q-.32.61-.63,1.2l-.13.08c-1.86,1.18-5.7,1.34-5.7,2.71,0,1,1.84,2.39,3.13,2.17a2.46,2.46,0,0,0,.94-.44,1.86,1.86,0,0,1,1.67-.41,1.68,1.68,0,0,0,1-.17c1.6-1.08.87-2.21,1.8-3.63C74.28,138.94,73.87,138.63,73.48,138.37Z" transform="translate(-13.57 -14.34)"/><path class="cls-108" d="M82.14,133.32a15.48,15.48,0,0,1,1.66-6.21,20.38,20.38,0,0,1,4.23-5s6.49,2.7,6.14,3.48c-.19.44-7,7.3-7.1,7.63a2.34,2.34,0,0,0-.2,1.55c.41,2.55-.7,9.78-1.26,12.05a7.3,7.3,0,0,1-4.06-.27c0-.17.49-11.53.59-13.24Z" transform="translate(-13.57 -14.34)"/><path class="cls-132" d="M82.13,133.44a.49.49,0,0,1,0-.12C82.06,134.74,82.11,133.79,82.13,133.44Z" transform="translate(-13.57 -14.34)"/><path class="cls-132" d="M82.13,133.44v-.12A.49.49,0,0,0,82.13,133.44Z" transform="translate(-13.57 -14.34)"/><path class="cls-111" d="M91.65,132c-4.28-.48-8-1.32-8-1.32C82,135.86,75,140.25,74.12,140.9a7.94,7.94,0,0,1-2.61-2.25c1.38-2.3,8-11.86,10-13.25,1.27-.87,12.48-.2,12.5-.77,0-.24,2.61-.47,2.8-.46C99,124.22,99.23,132.83,91.65,132Z" transform="translate(-13.57 -14.34)"/><path class="cls-133" d="M91.4,99.58c0,1,.49,2.09.11,3a8.1,8.1,0,0,1-1,1.42,3.25,3.25,0,0,0-.42,2.65c.17.59.51,1.12.66,1.73a5,5,0,0,1-.3,2.78,11.76,11.76,0,0,0-.76,2.71A1.28,1.28,0,0,0,90,115a1,1,0,0,0,1,0,4,4,0,0,0,1.82-1.83c.7-1.43.55-3.14.7-4.75.1-1.16.36-2.3.51-3.45a8.57,8.57,0,0,0-.13-3.46,11.49,11.49,0,0,1-.91-3,6.06,6.06,0,0,1,.23-1.34c0-.27,0-.42-.31-.43-.64,0-1.13.94-1.33,1.48A3.21,3.21,0,0,0,91.4,99.58Z" transform="translate(-13.57 -14.34)"/><path class="cls-134" d="M89.09,111.55a4.29,4.29,0,0,0,2.26,1.55l-3,3.86c-.74-.54-2.15-1.11-2.37-2.28.5-1,1.83-2.78,2.76-4.26A4.85,4.85,0,0,0,89.09,111.55Z" transform="translate(-13.57 -14.34)"/><path class="cls-135" d="M89.39,112.92a2.85,2.85,0,0,1-1.28-1.79c1.27-2.53,2.63-4.95,2.63-4.95a2.26,2.26,0,0,1,2.64-.74,4.33,4.33,0,0,1,0,2.25l-2.59,5.58A8.8,8.8,0,0,1,89.39,112.92Z" transform="translate(-13.57 -14.34)"/><path class="cls-134" d="M98.63,107.84a1.94,1.94,0,0,1-.67,1.27,1.68,1.68,0,0,1-1.31.4l-4.48,1.64c-.52-.07-.23-2.51-.51-2.94a.86.86,0,0,0,.26-.52,2.94,2.94,0,0,1,.49-1.22,12.13,12.13,0,0,1,.87-1l.55-.15.25,0,2.54.28.1.09h0C98.35,107,97.57,106.12,98.63,107.84Z" transform="translate(-13.57 -14.34)"/><path class="cls-134" d="M96.83,104.75l-.08.63,0,.28-.12.93a2.61,2.61,0,0,1-.36.38h0l-.17.12a1.41,1.41,0,0,1-.57.24,3.39,3.39,0,0,1-.72.06l-.29,0a.81.81,0,0,1-.29-.09.76.76,0,0,1-.4-.39s0-.06,0-.09a1.56,1.56,0,0,1-.09-.44l.17-1.08.07-.44.12-.74.26.06Z" transform="translate(-13.57 -14.34)"/><path class="cls-136" d="M89.83,116.86c-.17,2.42-1,3.64-1.84,6.12.23.16.45.36.65.52a4,4,0,0,0,1.85.78,2.62,2.62,0,0,1,1.47.54c.24.25.26.63.48.9a2.25,2.25,0,0,0,1.1.64c2,.63,4.27,1.49,5.5-.37.77-1.18-.24-1.17-.37-2.58a23.32,23.32,0,0,1,.25-5.89,36.72,36.72,0,0,1,1.14-4.85c.2-.74,1.67-1.7,1.61-2.5-.13-1.57-3.33-3.22-4.46-4-.38,1.85-1.45,4.26-3.5,4.17-3.18-.14-1.21-3.65-.06-5.06-1.79-.17-2.57,1.38-3.41,3.27A27,27,0,0,0,88.92,111C88.29,113.37,90,114.14,89.83,116.86Z" transform="translate(-13.57 -14.34)"/><path class="cls-104" d="M97.77,113.91c-.28,2.16-.46,4.43-.55,6l-.32,0c-1.36.21-2.78.67-3.54.82A17,17,0,0,0,90.13,122h0a2.34,2.34,0,0,1-.51,0,1.21,1.21,0,0,1-.45-.16c-.07-.07-.38-.33-.44-.37-.38-.23-.82-.32-1.21-.55-.11-.07-.45-.35-.59-.31a.12.12,0,0,0-.05.09c-.13.46.28.66.62.81l-.52-.1c-.2,0-1.23-.29-1.26,0s.15.19.24.23a9.73,9.73,0,0,0,1.2.35l-1-.19c-.16,0-.79-.11-.82.15a.16.16,0,0,0,.11.17,4,4,0,0,0,1,.22l-.65,0c-.1,0-.29,0-.34.12s.13.25.23.28a8,8,0,0,0,1.28.22,10,10,0,0,0-1.14.08h0c-.07,0-.08,0,0,.11a.34.34,0,0,0,.22.13l1.3.38a4.69,4.69,0,0,0,.75.12l.73.07a6.12,6.12,0,0,0,.66,0l.15,0c2.73-.11,5-.16,7.78-.28a3.67,3.67,0,0,0,2.49-.65h0v0a1.48,1.48,0,0,0,.4-.83,48.86,48.86,0,0,0,1.18-7.65Z" transform="translate(-13.57 -14.34)"/><path class="cls-137" d="M98.65,116.59a3.62,3.62,0,0,1-1.22-.9,46.17,46.17,0,0,1,.9-6,1.71,1.71,0,0,1,2.23-1.31,2.42,2.42,0,0,1,1.24,2.21c0,.17,0,.55,0,1.08,0,0-.2,2.39-.51,4.92A3.64,3.64,0,0,1,98.65,116.59Z" transform="translate(-13.57 -14.34)"/><path class="cls-134" d="M97,104.65l-.07.56-.13,1.07a2,2,0,0,1-.35.32h0l-.16.1a1.45,1.45,0,0,1-.56.21,2.54,2.54,0,0,1-1,0,1,1,0,0,1-.29-.08.79.79,0,0,1-.44-.44,1.59,1.59,0,0,1-.09-.39l.21-1.34.11-.65Z" transform="translate(-13.57 -14.34)"/><path class="cls-133" d="M98.67,102.69c-1.91,1.58-2.53,3-4.1,1.58a7.83,7.83,0,0,1-1.87-7.13c.73-2.64,4-2.65,5.89-1.14A4.27,4.27,0,0,1,98.67,102.69Z" transform="translate(-13.57 -14.34)"/><path class="cls-104" d="M92.43,98.93c-.28,2.45-.36,5,.82,6.07a1.78,1.78,0,0,0,1.49.36,2,2,0,0,0,.34-.06,5.49,5.49,0,0,0,1.64-.65c.56-.34,1.3-2.51,1.5-3.26.63-2.37-1-2.67-2.38-3.9S92.71,96.49,92.43,98.93Z" transform="translate(-13.57 -14.34)"/><path class="cls-104" d="M98.17,101.48c-.28.62-.61,1-1,.85s-.52-.56-.37-1.22.76-1.08,1.13-1S98.48,100.79,98.17,101.48Z" transform="translate(-13.57 -14.34)"/><path class="cls-133" d="M95,99.14c-.78-.26-1.85-.5-2.25-1.37a2,2,0,0,1-.17-.56c.39-1,.78-1,2.16-1.61.94-.44,1.72-.83,2.32.42.1.22.39.35.22.39-1.14,1.91,1.46,4-.32,4.67C96.86,100.12,95.73,99.39,95,99.14Z" transform="translate(-13.57 -14.34)"/><path class="cls-104" d="M97.49,102.27c-.35.51-.7.76-1,.6s-.39-.61-.14-1.18.86-.85,1.18-.69S97.88,101.7,97.49,102.27Z" transform="translate(-13.57 -14.34)"/><path class="cls-133" d="M98.47,95.91a6.59,6.59,0,0,1,1,1c.21.58.6,1.09.76,1.7a4.75,4.75,0,0,1,0,1.95,5.6,5.6,0,0,1-.68,2.38l-3.28-.44A11.14,11.14,0,0,0,96,97.43,1.53,1.53,0,0,1,98.47,95.91Z" transform="translate(-13.57 -14.34)"/><path class="cls-133" d="M94.75,117.21c-.59-.68-1.29-1.19-1.23-2.23a3.68,3.68,0,0,1,.67-1.72,1.56,1.56,0,0,0,.57-.68,1.31,1.31,0,0,0,.07-.44,1.94,1.94,0,0,0-.07-.9,2.27,2.27,0,0,1-.3-.92,1.35,1.35,0,0,1,.65-1,9.33,9.33,0,0,0,1-.66.42.42,0,0,0,.15-.22.45.45,0,0,0-.14-.34,3.94,3.94,0,0,1-.66-.86,1.69,1.69,0,0,1,0-1.25,2.9,2.9,0,0,1,.73-1c.24-.22.51-.48.47-.81s-.39-.5-.62-.75a1.86,1.86,0,0,1-.32-1.43A5.21,5.21,0,0,1,98,98.11a1.37,1.37,0,0,1,1.5-.16l0-.75a6.51,6.51,0,0,1,.82,4.45,4.57,4.57,0,0,1-.44,1.76,7.91,7.91,0,0,0-.8,1.34,2.73,2.73,0,0,0,.14,1.64,2,2,0,0,1,.16,1.23,1.31,1.31,0,0,1-.78.73,4.42,4.42,0,0,0-1,.47,2.39,2.39,0,0,0-.53,2.47c.16.61.41,1.33,0,1.81a2.35,2.35,0,0,1-.53.41,2,2,0,0,0-.79,2c.14.61.59,1.17.48,1.78a2.48,2.48,0,0,1-.65,1.07,2.71,2.71,0,0,0-.24.35A3.18,3.18,0,0,0,94.75,117.21Z" transform="translate(-13.57 -14.34)"/><path class="cls-134" d="M87.87,115c-.69-1.15-.35-1.41-1.4-.66l-7.26,2c0,.53,0,1.08,0,1.61,0,.22,0,.45,0,.67,0,0,7.79.36,9.18-1.65C88.86,116.24,88.57,116.16,87.87,115Z" transform="translate(-13.57 -14.34)"/><path class="cls-111" d="M88.69,119.59l-9.38-6a.33.33,0,0,0-.34,0l-.46.29a.32.32,0,0,1,.33,0l.49.31,0,0h0l-.28.17-.19.11a.21.21,0,0,0-.08.19l-.08,6.22a.68.68,0,0,0,.27.53l.22-.14h0l-.22.14,9,5.76a.19.19,0,0,0,.2,0l.46-.28v.61a.37.37,0,0,1-.14.33l.24-.15.23-.14a.36.36,0,0,0,.14-.32l.09-6.79A1.15,1.15,0,0,0,88.69,119.59Z" transform="translate(-13.57 -14.34)"/><path class="cls-105" d="M88.22,119.88l-9.38-6c-.26-.17-.47,0-.47.28L78.28,121a1.12,1.12,0,0,0,.46.87l9.38,6c.26.16.47,0,.47-.29l.09-6.78A1.14,1.14,0,0,0,88.22,119.88Z" transform="translate(-13.57 -14.34)"/><path class="cls-138" d="M79.9,119c0-.15-.2-.37-.18-.41s.24-.2-.13-.54a2.36,2.36,0,0,0-.45-.33,3,3,0,0,1-.41-.29,1.8,1.8,0,0,1-.39-.69.56.56,0,0,0-.35.53c0,.13,0,.27,0,.4a3.15,3.15,0,0,0-.09.86,3.85,3.85,0,0,1,.08.47c0,.59,1,1.6,1.22,1,.23,0,.35-.06.34-.34,0-.09-.16-.23-.14-.25C79.5,119.14,79.89,119.49,79.9,119Z" transform="translate(-13.57 -14.34)"/></g></g></svg>