<svg xmlns="http://www.w3.org/2000/svg" xmlns:xlink="http://www.w3.org/1999/xlink" viewBox="0 0 184.83 225.32"><defs><style>.cls-1{fill:none;}.cls-2{isolation:isolate;}.cls-3,.cls-34{opacity:0.2;}.cls-3{mix-blend-mode:multiply;}.cls-4{fill:#fff;}.cls-5{fill:#ebeaf8;}.cls-6{fill:#d6d5f2;}.cls-7{fill:#c2bfeb;}.cls-8{fill:#adaae4;}.cls-9{fill:#9995dd;}.cls-10{fill:#8480d7;}.cls-11{fill:#706bd0;}.cls-12{fill:#5b56c9;}.cls-13{fill:#4740c2;}.cls-14{fill:#322bbc;}.cls-15{fill:#1e16b5;}.cls-16{opacity:0.8;}.cls-17,.cls-41,.cls-45{fill:#fcfdfd;}.cls-17{opacity:0.6;}.cls-18{fill:#119ced;}.cls-19{fill:#19f7fb;}.cls-20{fill:#e8ecf2;}.cls-21{fill:#997efa;}.cls-22{fill:#55595f;}.cls-23{fill:#7c93b8;}.cls-24{fill:#d9e1ee;}.cls-25{fill:#f4fafa;}.cls-26{fill:url(#linear-gradient);}.cls-27{fill:url(#linear-gradient-2);}.cls-28{fill:url(#linear-gradient-3);}.cls-29{fill:#f5c2a6;}.cls-30{fill:#ffd6bf;}.cls-31{fill:#42395a;}.cls-32{fill:#30273b;}.cls-33{fill:#ffd453;}.cls-34{fill:#bf66a4;mix-blend-mode:screen;}.cls-35{fill:#f02031;}.cls-36{fill:#995033;}.cls-37{fill:#66311c;}.cls-38{fill:#951616;}.cls-39{fill:#3c3f53;}.cls-40{clip-path:url(#clip-path);}.cls-41{opacity:0.5;}.cls-42{fill:#45c5d4;}.cls-43{fill:#ffb700;}.cls-44{clip-path:url(#clip-path-2);}</style><linearGradient id="linear-gradient" x1="114.26" y1="158.55" x2="156.64" y2="157.19" gradientUnits="userSpaceOnUse"><stop offset="0" stop-color="#15c6f3"/><stop offset="1" stop-color="#009ce3"/></linearGradient><linearGradient id="linear-gradient-2" x1="114.26" y1="148.53" x2="156.64" y2="147.17" xlink:href="#linear-gradient"/><linearGradient id="linear-gradient-3" x1="114.26" y1="138.51" x2="156.64" y2="137.15" xlink:href="#linear-gradient"/><clipPath id="clip-path" transform="translate(-33.1 -15.89)"><path class="cls-1" d="M201.65,169.67c0-10.84-7.05-21.68-21.15-30.1l-.32-112.29c14.1,8.41,21.12,19.25,21.15,30.09C201.43,91.06,201.56,136,201.65,169.67Z"/></clipPath><clipPath id="clip-path-2" transform="translate(-33.1 -15.89)"><path class="cls-1" d="M49.7,170.11l-.32-112.3c0,10.84,7,21.68,21.15,30.09C99.58,105.24,147.68,105.72,178,89c15.58-8.62,23.41-20.12,23.37-31.61l.32,112.3c0,11.49-7.79,23-23.37,31.6C148,218,99.9,217.53,70.85,200.2,56.75,191.78,49.73,181,49.7,170.11Z"/></clipPath></defs><g class="cls-2"><g id="Layer_1" data-name="Layer 1"><g class="cls-3"><path class="cls-4" d="M191.07,225.84c-36,20.59-94.49,20.49-130.69-.23S24,171.39,60,150.79s94.49-20.49,130.69.24S227,205.25,191.07,225.84Z" transform="translate(-33.1 -15.89)"/><path class="cls-5" d="M187.44,223.76c-34,19.45-89.26,19.36-123.45-.22s-34.37-51.22-.39-70.67,89.26-19.35,123.45.22S221.42,204.31,187.44,223.76Z" transform="translate(-33.1 -15.89)"/><path class="cls-6" d="M183.81,221.68c-32,18.31-84,18.22-116.21-.21S35.24,173.26,67.23,155s84-18.22,116.22.21S215.8,203.37,183.81,221.68Z" transform="translate(-33.1 -15.89)"/><path class="cls-7" d="M180.19,219.6c-30,17.18-78.79,17.09-109-.19S40.87,174.2,70.87,157s78.79-17.09,109,.19S210.18,202.43,180.19,219.6Z" transform="translate(-33.1 -15.89)"/><path class="cls-8" d="M176.56,217.52c-28,16-73.56,15.95-101.74-.18S46.5,175.13,74.5,159.1s73.56-15.95,101.74.18S204.57,201.49,176.56,217.52Z" transform="translate(-33.1 -15.89)"/><path class="cls-9" d="M172.93,215.44c-26,14.9-68.32,14.82-94.5-.17s-26.31-39.2-.29-54.09,68.32-14.82,94.5.17S199,200.55,172.93,215.44Z" transform="translate(-33.1 -15.89)"/><path class="cls-10" d="M169.3,213.36c-24,13.76-63.09,13.69-87.26-.15s-24.29-36.2-.27-50,63.09-13.68,87.26.15S193.33,199.61,169.3,213.36Z" transform="translate(-33.1 -15.89)"/><ellipse class="cls-11" cx="125.54" cy="188.31" rx="32.39" ry="56.59" transform="translate(-96.54 296.95) rotate(-89.69)"/><ellipse class="cls-12" cx="125.54" cy="188.31" rx="29.46" ry="51.47" transform="translate(-96.53 296.95) rotate(-89.69)"/><ellipse class="cls-13" cx="125.55" cy="188.31" rx="26.53" ry="46.35" transform="translate(-96.53 296.95) rotate(-89.69)"/><path class="cls-14" d="M154.8,205.05c-16.05,9.19-42.16,9.14-58.31-.11s-16.24-24.19-.19-33.38,42.16-9.14,58.31.11S170.85,195.86,154.8,205.05Z" transform="translate(-33.1 -15.89)"/><path class="cls-15" d="M151.17,203c-14.06,8.05-36.92,8-51.07-.09s-14.22-21.19-.16-29.24,36.92-8,51.07.09S165.23,194.92,151.17,203Z" transform="translate(-33.1 -15.89)"/></g><g class="cls-16"><path class="cls-17" d="M175.7,121.7v-2.3c-28.51-14.32-71.52-14.32-100.24.26V122c28.72-14.59,71.72-14.58,100.24-.26Zm0-4.61v-2.3c-28.52-14.31-71.52-14.32-100.24.27v2.3c28.71-14.59,71.72-14.58,100.24-.27ZM82.38,103.31l0-6.13c-2,.77-3.84,1.61-5.69,2.51l0,6.13c1.84-.9,3.74-1.73,5.69-2.51Zm93.79-43.78,0-6.13q-2.68-1.38-5.54-2.59l0,6.14q2.85,1.2,5.54,2.58ZM161.1,58.07A43.4,43.4,0,0,0,150,38.63c-7.15,6.6-14.37,13.38-24.11,23.64l-.25,0A292.94,292.94,0,0,0,98.11,42.54a43.77,43.77,0,0,0-5,8.15c-1.32-.92-3.09-2.15-4.43-3.06A92,92,0,0,0,76,52.72v.44a91.85,91.85,0,0,1,12.5-5l4.4,3c-2.93,6.63-5.6,16.69-1.73,27A145.56,145.56,0,0,1,125.5,62.24,148,148,0,0,0,91.22,78.15c1.83,4.38,5.08,9.94,14,14.11-2,2.18-4.53,5.08-6.44,7.29a98.4,98.4,0,0,0-22.53,7.72v.44A98.43,98.43,0,0,1,98.92,100c2-2.26,4.63-5.27,6.65-7.5a50.48,50.48,0,0,0,19.6,3.93c27.49.29,41.64-14.54,36.06-37.78l3.21-2.22a88.9,88.9,0,0,1,11.74,4.95v-.44a87.82,87.82,0,0,0-11.92-5l-3.16,2.19Zm-79.4-8.8V43.14c-1.94.79-3.83,1.63-5.66,2.54v6.14q2.76-1.37,5.66-2.55ZM175,39.53l0-6.14q-2.72-1.34-5.6-2.51V37c1.92.78,3.79,1.61,5.61,2.51Zm-25.83-7.36C131.7,16,109.06,22.05,98.09,36.92a291.71,291.71,0,0,1,27.57,19.71h.25C131.32,51,138.06,44,150,33l-.3-.3a99.59,99.59,0,0,1,25.75,8.47v-.44a99.51,99.51,0,0,0-26.32-8.57ZM72.94,28.05c29.63-16.29,76.18-16.15,105.34.06l.28,97.19c-29.16-16.21-75.72-16.34-105.34,0l-.28-97.2Z" transform="translate(-33.1 -15.89)"/><path class="cls-18" d="M125.5,62.24l.17,0h0l.25,0-.75,34.11a51.87,51.87,0,0,1-19.6-3.93c1.26-1.34,2.92-3.14,4.19-4.47l-.34-.26c-1.24,1.33-2.6,3.46-4.15,4.43-.18.12-.19.12-1.78-.72A25.2,25.2,0,0,1,91.22,78.15c21-12.75,34.18-15.9,34.28-15.91Z" transform="translate(-33.1 -15.89)"/><path class="cls-19" d="M125.83,22.52c3.26.06,13.15.23,23.32,9.65-1.41-.27-2.84-.51-4.28-.72-5.32,4.22-5.75,4.56-9.12,7.37l.34.34c5.45-4.48,5.67-4.65,9-7.24,1.56.23,3.11.5,4.65.79l.3.3c-7.15,6.6-14.37,13.37-24.11,23.63h-.25A292,292,0,0,0,98.09,36.92c2.46-3.35,11.74-14.3,27.74-14.4Z" transform="translate(-33.1 -15.89)"/><path class="cls-20" d="M98.11,42.54a293.78,293.78,0,0,1,27.56,19.71h0l-.17,0A148,148,0,0,0,91.22,78.15c-4.11-10.94-.68-21.61,1.73-27,2.1,1.49,4.88,3.49,7,5l.33-.38c-2.12-1.53-4.94-3.57-7.08-5.09a43.77,43.77,0,0,1,5-8.15Z" transform="translate(-33.1 -15.89)"/><path class="cls-21" d="M150,38.63A43.4,43.4,0,0,1,161.1,58.07c-4.61,3.26-5.7,4-10.28,7.43l.33.37c5-3.7,5.67-4.18,10.08-7.27,5.51,22.95-9,38.13-36.06,37.78l.75-34.11c5.42-5.65,12.16-12.68,24.11-23.64Z" transform="translate(-33.1 -15.89)"/><path class="cls-22" d="M76,52.72a92,92,0,0,1,12.69-5.09l4.43,3.06c2.13,1.52,5,3.55,7.08,5.09l-.33.38c-2.08-1.51-4.86-3.51-7-5-1.32-.91-3.07-2.13-4.4-3a91.85,91.85,0,0,0-12.5,5v-.44Z" transform="translate(-33.1 -15.89)"/><path class="cls-22" d="M164.26,55.88a87.82,87.82,0,0,1,11.92,5v.44a88.9,88.9,0,0,0-11.74-4.95l-3.21,2.22c-4.57,3.23-5.66,4-10.08,7.27l-.33-.37c5-3.66,5.71-4.22,10.28-7.43l3.16-2.19Z" transform="translate(-33.1 -15.89)"/><path class="cls-22" d="M144.87,31.45c1.44.21,2.87.45,4.28.72a99.51,99.51,0,0,1,26.32,8.57v.44a99.59,99.59,0,0,0-25.75-8.47c-1.54-.29-3.09-.56-4.65-.79-5.29,4.18-5.72,4.53-9,7.24l-.34-.34c5.48-4.51,5.7-4.69,9.12-7.37Z" transform="translate(-33.1 -15.89)"/><path class="cls-22" d="M109.42,87.72l.34.26c-1.26,1.34-2.94,3.11-4.19,4.47-2,2.23-4.68,5.23-6.65,7.5a98.43,98.43,0,0,0-22.72,7.76v-.44a98.4,98.4,0,0,1,22.53-7.72c1.92-2.2,4.48-5.12,6.44-7.29,1.28-1.36,3-3.19,4.25-4.54Z" transform="translate(-33.1 -15.89)"/><path class="cls-19" d="M169.36,30.88q2.88,1.17,5.6,2.51l0,6.14c-1.82-.9-3.69-1.73-5.61-2.51V30.88Z" transform="translate(-33.1 -15.89)"/><path class="cls-19" d="M170.61,50.81q2.85,1.21,5.54,2.59l0,6.13q-2.68-1.38-5.54-2.58l0-6.14Z" transform="translate(-33.1 -15.89)"/><path class="cls-20" d="M76,45.68c1.83-.91,3.72-1.75,5.66-2.54v6.13Q78.8,50.46,76,51.82V45.68Z" transform="translate(-33.1 -15.89)"/><path class="cls-18" d="M76.67,99.69c1.85-.9,3.74-1.74,5.69-2.51l0,6.13c-1.95.78-3.85,1.61-5.69,2.51l0-6.13Z" transform="translate(-33.1 -15.89)"/><path class="cls-23" d="M75.44,115.06c28.72-14.59,71.72-14.58,100.24-.27v2.3c-28.52-14.31-71.53-14.32-100.24.27v-2.3Z" transform="translate(-33.1 -15.89)"/><path class="cls-23" d="M75.45,119.66c28.72-14.58,71.73-14.58,100.24-.26v2.3c-28.52-14.32-71.52-14.33-100.24.26v-2.3Z" transform="translate(-33.1 -15.89)"/></g><g class="cls-2"><path class="cls-24" d="M148.62,132.59c12.2,7,12.27,18.31.14,25.3s-31.85,7-44.06,0-12.27-18.32-.14-25.3S136.41,125.6,148.62,132.59Z" transform="translate(-33.1 -15.89)"/></g><g class="cls-2"><path class="cls-25" d="M148.62,132c12.2,7,12.27,18.32.14,25.31s-31.85,7-44.06,0S92.43,139,104.56,132,136.41,125,148.62,132Z" transform="translate(-33.1 -15.89)"/></g><g class="cls-2"><path class="cls-24" d="M148.62,142.64c12.2,7,12.27,18.32.14,25.3s-31.85,7-44.06,0-12.27-18.31-.14-25.3S136.41,135.66,148.62,142.64Z" transform="translate(-33.1 -15.89)"/></g><g class="cls-2"><path class="cls-25" d="M148.62,142c12.2,7,12.27,18.32.14,25.3s-31.85,7-44.06,0S92.43,149,104.56,142,136.41,135.06,148.62,142Z" transform="translate(-33.1 -15.89)"/></g><path class="cls-26" d="M157.81,145.32l0,9c0,4.55-3,9.1-9,12.57-12.13,7-31.85,7-44.06,0-6.14-3.52-9.21-8.13-9.2-12.74l0-9c0,4.61,3,9.22,9.19,12.74,12.21,7,31.93,7,44.06,0C154.78,154.42,157.8,149.87,157.81,145.32Z" transform="translate(-33.1 -15.89)"/><g class="cls-2"><path class="cls-24" d="M148.62,122.57c12.2,7,12.27,18.31.14,25.3s-31.85,7-44.06,0-12.27-18.32-.14-25.3S136.41,115.58,148.62,122.57Z" transform="translate(-33.1 -15.89)"/></g><g class="cls-2"><path class="cls-25" d="M148.62,122c12.2,7,12.27,18.31.14,25.3s-31.85,7-44.06,0S92.43,129,104.56,122,136.41,115,148.62,122Z" transform="translate(-33.1 -15.89)"/></g><path class="cls-27" d="M157.81,135.31l0,9c0,4.55-3,9.09-9,12.56-12.13,7-31.85,7-44.06,0-6.14-3.52-9.21-8.13-9.2-12.74l0-9c0,4.61,3,9.22,9.19,12.74,12.21,7,31.93,7,44.06,0C154.78,144.4,157.8,139.86,157.81,135.31Z" transform="translate(-33.1 -15.89)"/><g class="cls-2"><path class="cls-24" d="M148.62,112.55c12.2,7,12.27,18.31.14,25.3s-31.85,7-44.06,0-12.27-18.31-.14-25.3S136.41,105.56,148.62,112.55Z" transform="translate(-33.1 -15.89)"/></g><g class="cls-2"><path class="cls-25" d="M148.62,112c12.2,7,12.27,18.31.14,25.3s-31.85,7-44.06,0-12.27-18.31-.14-25.3S136.41,105,148.62,112Z" transform="translate(-33.1 -15.89)"/></g><path class="cls-28" d="M157.81,125.29l0,9c0,4.55-3,9.09-9,12.56-12.13,7-31.85,7-44.06,0-6.14-3.51-9.21-8.13-9.2-12.74l0-9c0,4.61,3,9.23,9.19,12.74,12.21,7,31.93,7,44.06,0C154.78,134.38,157.8,129.84,157.81,125.29Z" transform="translate(-33.1 -15.89)"/><path class="cls-29" d="M129.08,132.53c-.4-.06-.4-5.93-1.27-7.57-1.4-2.65-3.66-8.25-4.7-10.25a13.06,13.06,0,0,1,.06-6.57l6.19-.87c.12,1.88-1.57,4.2-1.25,5.64,1.92,2.45,2.2,6.6,2.53,9.33a26.89,26.89,0,0,1,.16,3.07C130.35,126,130.15,132.68,129.08,132.53Z" transform="translate(-33.1 -15.89)"/><path class="cls-30" d="M117.62,129.29c.86.31,1.66.38,1.83-.74.77-4.87-.36-6-.78-10.85,0-.55-1.14-4.49-1.75-9.25l8.5-.39a29.94,29.94,0,0,1-1.61,6.5c1.35,4.65-.78,12.44-1.31,14.77,0,.34.83,1.33.15,2.12-.26.31-8.25-.72-7.12-2A2.31,2.31,0,0,1,117.62,129.29Z" transform="translate(-33.1 -15.89)"/><path class="cls-31" d="M123.17,132.06a.25.25,0,0,0,0,.07,1.27,1.27,0,0,1-.81.9,2,2,0,0,1-.49,0,2.29,2.29,0,0,1-.52,0,3.28,3.28,0,0,1-.52-.2,3.32,3.32,0,0,1-.49-.37,2.85,2.85,0,0,0-1.59-.41,4.8,4.8,0,0,1-1.65-.2c-.24-.1-1.93-.67-2.3-1.53a1.52,1.52,0,0,1,0-1.05,1.09,1.09,0,0,1,.91-.66,3.18,3.18,0,0,1,1.14.16c.57.16,1,.32,1.57.47a1.6,1.6,0,0,0,.67.1c-.26.3-1.4.13-2,.19a.39.39,0,0,0-.27.11c-.12.14,0,.37.1.5a1.51,1.51,0,0,0,.49.29,7.6,7.6,0,0,0,3,.5c.36,0,2.2.3,2.33-1.13a1.77,1.77,0,0,1,.48,1.05A3.13,3.13,0,0,1,123.17,132.06Z" transform="translate(-33.1 -15.89)"/><path class="cls-32" d="M129.28,88.79h0Z" transform="translate(-33.1 -15.89)"/><path class="cls-31" d="M115.06,107c.16-2.47.61-4.92.72-7.39a16.45,16.45,0,0,1,1.82-8c.68-1.49,1.31-2.78,3.08-3.15,2.11-.44,5-1.09,7,.07a7.39,7.39,0,0,1,2.22,2.81c2.28,3.73,2,8.29,2,14.61,0,1.42.07,3.43-2.21,4.74a10.32,10.32,0,0,1-2.61.59c-5.45,1.34-7.39.51-9.87-.72C115.33,109.6,114.94,108.93,115.06,107Z" transform="translate(-33.1 -15.89)"/><path class="cls-33" d="M118.14,80c-2.13-6-.7-5.15,3.51-7.5l4.59-.8c4.21-.56,5.12,3.74,4.56,6.31-.2,1-1.88,7.17-1.56,12.15.17,2.53-8.81,3.06-11,.9C117.48,90.24,118.38,80.63,118.14,80Z" transform="translate(-33.1 -15.89)"/><path class="cls-34" d="M134.39,80.24l-.26,0A.82.82,0,0,1,134.39,80.24Z" transform="translate(-33.1 -15.89)"/><path class="cls-30" d="M118,64.17c0,8.07,2.67,5.8,3.13,7.25.07.21,0,.19-.11,1.73,0,1.06,4.89.54,4.68-1L125.33,70a26.3,26.3,0,0,1-.24-3.79c.39-2.85-1.44-2.94-3-4.17S118,61.28,118,64.17Z" transform="translate(-33.1 -15.89)"/><path class="cls-35" d="M125.78,69.73a3.44,3.44,0,0,1-1.18.52,5.92,5.92,0,0,1-1.46-.1,3.7,3.7,0,0,1-1.44-.47c-1-.71-.9-1.66-1.2-2.15-.5-.84-1.57-.67-2.23-1.85a4.73,4.73,0,0,1-.62-2.17,5.64,5.64,0,0,1,.19-1.75,3,3,0,0,1,.88-1,5.94,5.94,0,0,1,6.75-.82c1.74,1,2.6,2.1,2.87,3.15a1.21,1.21,0,0,1,0,.18C129.31,66.12,125.93,69.61,125.78,69.73Z" transform="translate(-33.1 -15.89)"/><path class="cls-36" d="M118.72,60.74a5.94,5.94,0,0,1,6.75-.82c1.74,1,2.6,2.1,2.87,3.15a1.21,1.21,0,0,1,0,.18,4.12,4.12,0,0,1-.11,2.57,1.83,1.83,0,0,1-1.6-.33c-2.57-1.94-5.26-3.88-8.56-3.27a2.83,2.83,0,0,0-.41.14,2.58,2.58,0,0,1,.13-.6A3,3,0,0,1,118.72,60.74Z" transform="translate(-33.1 -15.89)"/><path class="cls-37" d="M126.68,65.49a1.83,1.83,0,0,0,1.6.33,11.2,11.2,0,0,1-2.5,3.91,3.44,3.44,0,0,1-1.18.52,5.92,5.92,0,0,1-1.46-.1,3.7,3.7,0,0,1-1.44-.47c-1-.71-.9-1.66-1.2-2.15-.5-.84-1.57-.67-2.23-1.85a4.73,4.73,0,0,1-.62-2.17,6.91,6.91,0,0,1,.06-1.15,2.83,2.83,0,0,1,.41-.14C121.42,61.61,124.11,63.55,126.68,65.49Z" transform="translate(-33.1 -15.89)"/><path class="cls-30" d="M121.14,67.87c-.38.61-.8.92-1.21.77s-.52-.66-.27-1.33a1.32,1.32,0,0,1,1.41-.88C121.48,66.58,121.59,67.18,121.14,67.87Z" transform="translate(-33.1 -15.89)"/><path class="cls-29" d="M120.77,67.68c-.17.26-.35.4-.53.33s-.23-.28-.12-.57a.59.59,0,0,1,.61-.39C120.91,67.12,121,67.38,120.77,67.68Z" transform="translate(-33.1 -15.89)"/><path class="cls-36" d="M126.73,61.93c.46-1,2.07.08,2.8,1a10.69,10.69,0,0,1,1.75,4.95,16.43,16.43,0,0,1,0,5,22.67,22.67,0,0,0-.74,3.46,4,4,0,0,0,.21,1.86,3.26,3.26,0,0,0,2.64,2c-.39-.14-.8.17-1.18.28a8.2,8.2,0,0,1-2,.33,5.36,5.36,0,0,1-2.11,0,5.94,5.94,0,0,1-2.45-2.24,6.37,6.37,0,0,1-1-4.13,5.82,5.82,0,0,1,.81-3.3,8.5,8.5,0,0,0,1.37-3.33,10.26,10.26,0,0,0,.33-1.65c0-.34,0-.68,0-1C127.34,64.14,126.21,63,126.73,61.93Z" transform="translate(-33.1 -15.89)"/><path class="cls-38" d="M133.38,80.18l-.24,0A.5.5,0,0,1,133.38,80.18Z" transform="translate(-33.1 -15.89)"/><path class="cls-37" d="M124.69,74.44a5.82,5.82,0,0,1,.81-3.3,8.5,8.5,0,0,0,1.37-3.33,10.26,10.26,0,0,0,.33-1.65c0-.34,0-.68,0-1,.12-1-1-2.13-.49-3.22h0c2.13,1.73,1.41,5.34.69,7.37-1.26,3.73-2.26,8.71,1.63,10.58a6.48,6.48,0,0,0,3.44.47,2.12,2.12,0,0,1-.29.11,8.2,8.2,0,0,1-2,.33,5.36,5.36,0,0,1-2.11,0,5.94,5.94,0,0,1-2.45-2.24A6.37,6.37,0,0,1,124.69,74.44Z" transform="translate(-33.1 -15.89)"/><path class="cls-31" d="M128.75,130.62a6.41,6.41,0,0,0,.4,2.42,1.66,1.66,0,0,0,.44.48c.22.17.52-.16.71-.37,2.54-2.84,1.2-3.82,1.44-4.93.12-.56.64-1,.58-1.61a1.88,1.88,0,0,0-.35-.9,1.61,1.61,0,0,0-1.66-.68c-.53.11-.92.89-1.06,1.25a5.17,5.17,0,0,0-.19,2.07,15.33,15.33,0,0,1-.28,2Z" transform="translate(-33.1 -15.89)"/><path class="cls-39" d="M129.2,132.64c0,.12,0,.23,0,.35a1.66,1.66,0,0,0,.44.48c.22.17.52-.16.71-.37,2.54-2.84,1.2-3.82,1.44-4.93.12-.56.64-1,.58-1.61a1.82,1.82,0,0,0-.35-.89,1.56,1.56,0,0,0-.56-.12,1,1,0,0,0-.8.25.93.93,0,0,0-.2.56c0,.61.16,1.23.09,1.85a4.24,4.24,0,0,1-.25.91c-.2.59-.4,1.18-.61,1.77-.11.31-.22.62-.34.93a2.19,2.19,0,0,0-.15.43A2.55,2.55,0,0,0,129.2,132.64Z" transform="translate(-33.1 -15.89)"/><path class="cls-29" d="M106,65.22,105.16,63l-1.09-1.5c-.12-.13-.65-.84-1.15-.77-.33,0-2.18.49-1.91,1.08.18.4,1.95,3.06,1.95,3.06a3.44,3.44,0,0,1,1.31,1.17l.18,1Z" transform="translate(-33.1 -15.89)"/><path class="cls-33" d="M110.77,70.59c-1.14-.59-2.67-.59-3.27.53h0a2.29,2.29,0,0,0,1,3.09l8.37,5.13a2.91,2.91,0,0,0,3.91-1.21h0a2.85,2.85,0,0,0-1.24-3.86Z" transform="translate(-33.1 -15.89)"/><path class="cls-33" d="M106.1,64.74c-.7-.93-3.34-.13-2.8.69l3.46,7.42a2.55,2.55,0,0,0,3.43,1.05h0c1.24-.65,1.42-1.47.76-2.7Z" transform="translate(-33.1 -15.89)"/><g class="cls-2"><g class="cls-2"><g class="cls-40"><path class="cls-41" d="M201.41,82.69l-.12-5.13c.07.74.11,1.48.11,2.22v2.91Zm-.74-8.86a26.14,26.14,0,0,1,.59,3.35l-.39-.73-.2-2.62ZM194.42,90.1c4.7,5.79,7,12,7.06,18.3v-.18c0-6.26-2.36-12.51-7.06-18.3v.18Zm-.36-.62c4.93,5.91,7.4,12.32,7.42,18.74l-.08-28.61c0-.79,0-1.57-.12-2.36a25.84,25.84,0,0,0-.63-3.67l-.59-6.29-.49-.19-1-5.84-1.36-.09c-.61-1.5-1.37-3.51-2-5l-.89,2.56-.34-.37.09,31.11ZM194,53.07c4.94,5.91,7.41,12.32,7.42,18.74v-.18c0-6.41-2.48-12.83-7.42-18.74v.18Zm-4.4,35.17-.13-45.42c8,7.11,11.92,15.25,11.94,23.39l.13,45.43c0-8.14-4-16.28-11.94-23.4Z" transform="translate(-33.1 -15.89)"/><path class="cls-22" d="M200.65,73.58a25.84,25.84,0,0,1,.63,3.67l0-.07a26.14,26.14,0,0,0-.59-3.35l0-.25Zm.64,4v-.31c.08.79.11,1.57.12,2.36v.17c0-.74,0-1.48-.11-2.22ZM194.42,90.1v-.18c4.7,5.79,7,12,7.06,18.3v.18c0-6.26-2.36-12.51-7.06-18.3Zm-.47-37v-.18c4.94,5.91,7.41,12.33,7.42,18.74v.18c0-6.42-2.48-12.83-7.42-18.74Z" transform="translate(-33.1 -15.89)"/><path class="cls-18" d="M201.12,80.6l-.25-4.15.39.73,0,.07v.31l.12,5.13v.54c-.08-.79-.19-1.84-.29-2.63Zm-2.53-19.34,1,5.84-.52-.16c-.53-1.74-1.21-4.06-1.82-5.77l1.36.09Z" transform="translate(-33.1 -15.89)"/><path class="cls-19" d="M197.35,62.68c-.89-1.2-2.07-2.8-3-3.94l.89-2.56c.61,1.5,1.47,3.47,2,5,.55,1.73,1.34,4,1.82,5.77l.52.16.49.19.59,6.29,0,.25.2,2.62.25,4.15c.1.79.27,1.84.29,2.63v5.48l-.09-5.48A28.35,28.35,0,0,0,200.5,80l-.74-6.29c-.65-3.32-1-8-2.41-11Z" transform="translate(-33.1 -15.89)"/><path class="cls-42" d="M194.06,89.48c4.93,5.91,7.4,12.32,7.42,18.74l-.06-19.51-.09-5.48A28.35,28.35,0,0,0,200.5,80l-.74-6.29c-.65-3.32-1.61-7.74-2.41-11-.89-1.2-2.07-2.8-3-3.94l-.34-.37.09,31.11Z" transform="translate(-33.1 -15.89)"/><path class="cls-41" d="M198.6,125.79a3.07,3.07,0,0,0-.14.67c.3,16,.3,16,.76,17.11a26.83,26.83,0,0,1,2.34,9.27c0,.51.05,1,.05,1.53l-.07-25.83c0-.44,0-.44,0-.71,0,.06,0,.15,0,.22l0,.95c-1.14-7.5-2.54-9.06-2.56-9.07-.18.22-.18.22-.2.61l0,.86-.29-.57c0,1.49.68,3.56.17,5Zm-2.73,21-.12-44a28.42,28.42,0,0,1,5.76,16.61l.13,44A29.61,29.61,0,0,0,196,147a2.31,2.31,0,0,1-.14-.19Z" transform="translate(-33.1 -15.89)"/><path class="cls-43" d="M198.72,121.4a26.74,26.74,0,0,1,2.83,11.75v-4.93a3.89,3.89,0,0,0,0-.39,5.43,5.43,0,0,0-.06,1.17c-.69-4.57-.73-4.84-2.31-8.75-.08-.16-.3-.58-.41-.12a8,8,0,0,0,0,1.27Z" transform="translate(-33.1 -15.89)"/><path class="cls-24" d="M198.6,125.79l.08,0s1.82,2,2.83,10l.05,1.53v-4.17a26.74,26.74,0,0,0-2.83-11.75l-.29-.57.17,5Z" transform="translate(-33.1 -15.89)"/><path class="cls-19" d="M198.73,141.2a7.36,7.36,0,0,0,.49,2.37,26.83,26.83,0,0,1,2.34,9.27c0,.51.05,1,.05,1.53l-.05-17.05-.05-1.53c-.64-4.88-.65-5-2.53-9.66-.17-.32-.17-.32-.38-.34-.24.42-.06,8.61.13,15.41Z" transform="translate(-33.1 -15.89)"/></g></g><g class="cls-2"><path class="cls-17" d="M51.5,123.76a29.85,29.85,0,0,1,1.44-3.11l-.4,2.47-1,.64Zm-1.9,13v-3.21a26.54,26.54,0,0,1,1.77-9.46l-.78,5.58-.35,1L50,133.89a25.61,25.61,0,0,0-.35,2.89Zm.07,24c0-8.42,4.17-16.83,12.52-24.12v-.17c-8.36,7.29-12.54,15.7-12.52,24.12v.17Zm0-.17c0-8.42,4.16-16.83,12.52-24.12l.46-.39,0-6.43,0-7.69,0-10.65v-4.8l-.43.33L61,104.35l-2.67,4.58-2,0-1.48,5.47-.82.13L53,120.41a29.64,29.64,0,0,0-1.57,3.41,26.25,26.25,0,0,0-1.82,9.58l.08,27.2ZM49.57,126c.55-8.59,2.85-15.36,13-24.51v-.17c-8.66,7.38-13,16-13,24.51V126Zm.11,37.86-.12-43.18c0-10.2,6.14-20.41,18.43-28.6l.12,43.17c-12.29,8.19-18.46,18.4-18.43,28.61Z" transform="translate(-33.1 -15.89)"/><path class="cls-22" d="M51.41,123.82A29.64,29.64,0,0,1,53,120.41l0,.24a29.85,29.85,0,0,0-1.44,3.11l-.09.06Zm-1.74,37v-.17c0-8.42,4.16-16.83,12.52-24.12v.17c-8.35,7.29-12.54,15.7-12.52,24.12Zm-.08-27.2v-.17a26.25,26.25,0,0,1,1.82-9.58l0,.29a26.54,26.54,0,0,0-1.77,9.46Zm0-7.58v-.17c0-8.56,4.32-17.13,13-24.51v.17C54.67,108.8,50,115.16,49.57,126Z" transform="translate(-33.1 -15.89)"/><path class="cls-42" d="M49.62,140.69l0-3.91a27.8,27.8,0,0,1,.35-2.89c-.1,2-.26,4.64-.31,6.63l0-.1v.27Zm1.79-16.87.09-.06,1-.64L52,127c-.43.8-1,1.83-1.38,2.66l.78-5.58,0-.29Zm5-14.92,2,0c-.79,1.6-1.88,3.7-2.61,5.33l-.82.11,1.48-5.47Z" transform="translate(-33.1 -15.89)"/><path class="cls-19" d="M61,104.35l1.16,2.5c-1.21,1-2.84,2.4-4,3.51-1.12,3.06-2.56,7.16-3.54,10.27l-1.28,5.91c-.64.87-1.5,2-2.05,3-.39,3.42-.86,8-1.15,11.4a2.07,2.07,0,0,1-.5-.38c.09-2,.17-4.64.31-6.63l.28-3.24.35-1c.4-.8.9-1.89,1.38-2.66l.58-3.91.4-2.47,0-.24,1.08-5.91.82-.13.82-.11c.78-1.6,1.77-3.76,2.61-5.33L61,104.35Z" transform="translate(-33.1 -15.89)"/><path class="cls-18" d="M49.67,160.6c0-8.57,4.32-17.14,13-24.51l0-6.43-.06-21.9v-1.24l-.43.33c-1.21,1-2.84,2.4-4,3.51-1.12,3.06-2.56,7.16-3.54,10.27l-1.28,5.91c-.64.87-1.5,2-2.05,3-.39,3.42-.86,8-1.15,11.4a2.07,2.07,0,0,1-.5-.38l0-.1v.27l.05,19.91Z" transform="translate(-33.1 -15.89)"/><path class="cls-17" d="M60,57.49a18.18,18.18,0,0,0,.06-3.61c0-.18-.21-.72-.85-.13-5.31,6-5.45,6.9-5.7,8.47l-.22,1.69c-1.53,3-3.43,6.83-3.47,10.52v.77l-.09.56c0,1.25,0,1.25,0,5.37.12,13.39.12,13.39.15,13.71l.18-.22a29.45,29.45,0,0,1,3.54-8.78,38.62,38.62,0,0,1,5.66-7.22,3.63,3.63,0,0,0,.91-2.19c.4-14.62.4-14.62.11-14.77l.28-4.72-.58.55Zm-10.5,51.35L49.4,66.65c0-9.38,5.19-18.76,15.57-26.58l.12,42.18C54.71,90.07,49.5,99.46,49.52,108.84Z" transform="translate(-33.1 -15.89)"/><path class="cls-43" d="M59.23,53.75c.48-.45.84-.3.87.36L60,57.49C54.36,63,51,69,49.85,75.2A14.14,14.14,0,0,1,50,72.27a29.41,29.41,0,0,1,3.28-8.36c.3-2.26.39-3,.95-3.94a63.29,63.29,0,0,1,5-6.22Z" transform="translate(-33.1 -15.89)"/><path class="cls-4" d="M49.76,75.76l.09-.56C51,69,54.36,63,60,57.49l.58-.55c-.08,1.41-.2,3.3-.28,4.72-.16,0-.35-.07-.7.27-3.72,4-3.94,4.28-6,7.56-1.31,2.5-3.5,6.69-3.78,10.45l-.06-4.18Z" transform="translate(-33.1 -15.89)"/><path class="cls-43" d="M53.6,69.49c1.53-2.27,6.58-9.49,7-7.41a1,1,0,0,1,0,.25c-.43,15.28-.43,15.28-1.3,16.29a38.62,38.62,0,0,0-5.66,7.22,29.45,29.45,0,0,0-3.54,8.78A3.59,3.59,0,0,1,50,95a1.39,1.39,0,0,1-.09-.62c-.13-14.59-.13-14.59.07-15.64,1-3.74,1.56-5.8,3.64-9.22Z" transform="translate(-33.1 -15.89)"/></g><g class="cls-2"><g class="cls-44"><path class="cls-17" d="M78.75,113.55v-1.73c.06-1.34.9-1.89,2.19-1.42,2.18.9,4.43,1.73,6.73,2.48s4.66,1.43,7.06,2a3.32,3.32,0,0,1,2.47,3l0,8.77a1.84,1.84,0,0,1-2.45,1.79c-1-.25-1.93-.5-2.89-.77l.84,2.67c.5,1.59.5,1.59.48,1.78-.19.06-.19.06-.41-.12-1.53-1.35-3.58-3.13-5.08-4.51v3.63a2,2,0,0,1-2.93,2q-3.19-1.17-6.23-2.53a.77.77,0,0,1-.19.08l-1.84.36c-6.12,1-6.12,1-5.93.21l.19-.59,1.14-3.42-1.28-.74c-.57-.34-1.12-.68-1.67-1a6,6,0,0,1-2.32-4.55l0-11.13c.06-1.71.92-2.25,2.31-1.46.54.35,1.09.69,1.66,1,1.88,1.12,3.85,2.17,5.88,3.16q1.13.54,2.28,1Zm24.51-5.33c-12.06-2.07-23.36-5.9-32.7-11.48a60.38,60.38,0,0,1-8-5.62l.12,42.19a62.31,62.31,0,0,0,8,5.62c9.34,5.57,20.64,9.4,32.7,11.48l-.12-42.19Z" transform="translate(-33.1 -15.89)"/><path class="cls-21" d="M78.75,113.55q-1.16-.51-2.28-1c-2-1-4-2-5.88-3.16-.57-.34-1.12-.68-1.66-1-1.39-.79-2.25-.25-2.31,1.46l0,11.13A6,6,0,0,0,69,125.45c.55.35,1.1.69,1.67,1l1.28.74-1.14,3.42c-.24.76-.4,1.26.22,1.23,1.66-.24,3.87-.57,5.52-.85,1.93-.37,1.93-.37,2-.44q3,1.36,6.23,2.53a2,2,0,0,0,2.93-2v-3.63A17.81,17.81,0,0,1,86,125.8q-2.55-.89-5-1.89a3.89,3.89,0,0,1-2.2-3.32l0-7Z" transform="translate(-33.1 -15.89)"/><path class="cls-33" d="M94.72,114.92c-2.4-.61-4.76-1.29-7.06-2s-4.55-1.58-6.73-2.48c-1.29-.47-2.13.08-2.19,1.42v1.73l0,7a3.89,3.89,0,0,0,2.2,3.32q2.44,1,5,1.89a1.46,1.46,0,0,0,.16.19l1.58,1.49c5.29,4.72,5.29,4.72,5.49,4.64a.51.51,0,0,0,0-.34l-.46-1.45-.84-2.67c1,.27,1.92.52,2.89.77a1.84,1.84,0,0,0,2.45-1.79l0-8.77a3.32,3.32,0,0,0-2.47-3Z" transform="translate(-33.1 -15.89)"/><path class="cls-17" d="M71.15,172.78l-.38-.22a57.15,57.15,0,0,1-11.08-8.46l1,1.65a106,106,0,0,0,7.75,12.37c.81-1.6,1.9-3.74,2.73-5.34ZM76.66,168v-1.14c-2-1-4-2-5.91-3.17-14.1-8.42-21.12-19.25-21.16-30.09v3.21l0,.59c.17,2.55.46,5.95.8,8.48a44.38,44.38,0,0,0,2,4.25c.81,1.54,1.9,3.6,2.84,5.07,1.2,2.6,2.86,6,4.22,8.55a57.05,57.05,0,0,0,11.3,8.68l.45.26,1-1.93c1.33-.82,3.1-1.93,4.42-2.76ZM77,194.15c-2.13-1-4.19-2.12-6.16-3.29-14.09-8.42-21.12-19.25-21.15-30.09v-.17c0,10.84,7,21.67,21.15,30.09q2.85,1.69,5.91,3.17-3.06-1.47-5.91-3.17c-14.1-8.42-21.12-19.25-21.15-30.09l-.08-27.2c0,10.84,7.06,21.68,21.16,30.1q2.84,1.68,5.91,3.17l0-7.41c-6.67-3.5-27-14.14-27.06-33.27v-.17c0,10.84,7,21.68,21.15,30.1q2.85,1.68,5.91,3.17v-1.46l.25.12.1,36.4ZM81,199l-.12-43.18a78.72,78.72,0,0,1-10.19-5.09c-14.1-8.41-21.12-19.25-21.15-30.09l.12,43.18c0,10.84,7,21.67,21.15,30.09A79.37,79.37,0,0,0,81,199Z" transform="translate(-33.1 -15.89)"/><path class="cls-22" d="M71.22,172.66l-.45-.26a57.05,57.05,0,0,1-11.3-8.68l.22.38a57.15,57.15,0,0,0,11.08,8.46l.38.22.07-.12ZM77,194.15l-.1-36.4-.25-.12v1.46q-3.06-1.49-5.91-3.17c-14.1-8.42-21.12-19.26-21.15-30.1V126c.36,5.17,1.45,20.9,27.06,33.27l0,7.41q-3.07-1.48-5.91-3.17c-14.1-8.42-21.13-19.26-21.16-30.1v.17c0,10.84,7.06,21.67,21.16,30.09,1.89,1.13,3.86,2.18,5.91,3.17V168l0,19.46,0,6.43q-3.06-1.47-5.91-3.17c-14.1-8.42-21.12-19.25-21.15-30.09v.17c0,10.84,7.06,21.67,21.15,30.09,2,1.17,4,2.27,6.16,3.29Z" transform="translate(-33.1 -15.89)"/><path class="cls-42" d="M76.71,187.43l0-19.46c-1.33.83-3.09,1.94-4.42,2.76l-1,1.93-.07.12c-.82,1.6-1.93,3.73-2.73,5.34a106.31,106.31,0,0,1-7.75-12.37l-1-1.65-.22-.38c-1.33-2.53-3-5.94-4.22-8.55-.9-1.5-2.08-3.5-2.84-5.07a43.13,43.13,0,0,1-2-4.25c-.31-2.54-.66-5.93-.8-8.48l0-.59,0,3.91.11,5.07a16.4,16.4,0,0,0,.79,2.12c.51,3,1.25,7,1.91,9.92.89,1.3,2.11,3,3.12,4.22l.8-.75.72,2.34,1.38,1.27c1.16,2.65,2.73,6.18,4,8.78L66,176.79c1.67,2.75,4,6.4,5.74,9.09,1.49.47,3.47,1.13,5,1.55Z" transform="translate(-33.1 -15.89)"/><path class="cls-33" d="M58.45,164.88l-1.38-1.27a171.7,171.7,0,0,0,8,20.36c1.38.34,3.21.8,4.59,1.09,2.07,2.68,4.89,6.21,7.06,8.8l0-6.43c-1.49-.46-3.49-1-5-1.55-1.77-2.7-4.09-6.32-5.74-9.09l-3.56-3.13c-1.23-2.62-2.32-6.41-4-8.78Zm-7.93-17a16.4,16.4,0,0,1-.79-2.12c.2,2.88.48,6.71.79,9.58.34.5.75,1.19,1.14,1.65.63,2,1.48,4.77,2.22,6.77.5-.52,1.16-1.23,1.67-1.74-1-1.23-2.27-2.9-3.12-4.22-.64-3-1.07-7-1.91-9.92Z" transform="translate(-33.1 -15.89)"/><path class="cls-18" d="M49.67,160.6l-.05-19.91.11,5.07c.2,2.88.48,6.71.79,9.58.34.5.75,1.19,1.14,1.65.63,2,1.48,4.77,2.22,6.77.5-.52,1.16-1.23,1.67-1.74l.8-.75.72,2.34a171.7,171.7,0,0,0,8,20.36c1.38.34,3.21.8,4.59,1.09,2.07,2.68,4.89,6.21,7.06,8.8q-3.06-1.47-5.91-3.17c-14.1-8.42-21.12-19.25-21.15-30.09Z" transform="translate(-33.1 -15.89)"/><path class="cls-17" d="M182.05,118.36q-1.91,1.23-4,2.39a83.58,83.58,0,0,1-11.29,5.16c1,1.82,2.42,4.24,3.45,6.06a137.64,137.64,0,0,0,10.43-12l1.41-1.63Zm-22,9.61,0-8,0,8Zm41.32-45.28V79.78c0,11.5-7.8,23-23.38,31.61a90.12,90.12,0,0,1-18,7.39V120c1.6,1.09,3.74,2.54,5.36,3.61l1.25,2.19a84.17,84.17,0,0,0,11.37-5.19q2.26-1.26,4.32-2.59c2-2.5,4.52-5.89,6.33-8.49,1.45-1.46,3.36-3.43,4.7-5,1.23-1.22,2.82-2.88,3.93-4.22.86-2.6,1.93-6.11,2.61-8.77a31,31,0,0,0,1.26-3.62l.15-3.41.06-1v-.77Zm0-10.88c0,11.5-7.79,23-23.37,31.61a89.63,89.63,0,0,1-18,7.39l0,7.8a89.56,89.56,0,0,0,18-7.4c15.58-8.61,23.41-20.11,23.38-31.6l.08,28.61c0,11.49-7.8,23-23.38,31.61a90.12,90.12,0,0,1-17.95,7.39l0-9.71,0,8.35v1.36a90.12,90.12,0,0,0,17.95-7.39c15.58-8.62,23.41-20.12,23.38-31.61v.18c0,11.49-7.8,23-23.38,31.61a90.8,90.8,0,0,1-18.25,7.48l-.11-38.3.3-.09v1.53a89.63,89.63,0,0,0,18-7.39c15.58-8.61,23.41-20.11,23.37-31.61v.18Zm.12,39.83-.13-45.43c0,11.5-7.8,23-23.38,31.61a93.62,93.62,0,0,1-23,8.76l.13,45.42a93.6,93.6,0,0,0,23-8.75c15.58-8.62,23.41-20.12,23.38-31.61Z" transform="translate(-33.1 -15.89)"/><path class="cls-22" d="M182.37,118q-2.06,1.33-4.32,2.59a84.17,84.17,0,0,1-11.37,5.19l.08.14a83.58,83.58,0,0,0,11.29-5.16q2.1-1.16,4-2.39l.32-.37Zm19-46.18v-.18c0,11.5-7.79,23-23.37,31.61a89.63,89.63,0,0,1-18,7.39V109.1l-.3.09.11,38.3A90.8,90.8,0,0,0,178.1,140c15.58-8.62,23.41-20.12,23.38-31.61v-.18c0,11.49-7.8,23-23.38,31.61a90.12,90.12,0,0,1-17.95,7.39l0-9.71v-.17l0-9.2V128l0-9.19a90.12,90.12,0,0,0,18-7.39c15.58-8.62,23.41-20.11,23.38-31.61v-.17c0,11.49-7.8,23-23.38,31.6a89.56,89.56,0,0,1-18,7.4l0-7.8a89.63,89.63,0,0,0,18-7.39c15.58-8.62,23.41-20.11,23.37-31.61Z" transform="translate(-33.1 -15.89)"/><path class="cls-21" d="M160.07,120l0,8v.17l0,9.2v.17l0,8.35v-5.4c1.8-.25,4.21-.55,6-.86,2.2-2.57,5.09-6,7.21-8.67,1.45-.85,3.41-1.93,4.84-2.82,1.75-2.61,4.06-6.1,5.7-8.78l2.05-1.17,1.09-2.37,1.25.89c1.58-1.17,3.67-2.78,5.15-4.07,1.18-3,2.68-7.1,3.7-10.19.7-.61,1.65-1.42,2.28-2.1l.88-5.57.32.12c.19-2.09.47-4.88.6-7a31,31,0,0,1-1.26,3.62c-.7,2.66-1.73,6.18-2.61,8.77-1.13,1.32-2.69,3-3.93,4.22-1.37,1.53-3.22,3.55-4.7,5-1.83,2.59-4.35,6-6.33,8.49l-.32.37L180.64,120a139.63,139.63,0,0,1-10.43,12c-1-1.82-2.41-4.24-3.45-6.06l-.08-.14-1.25-2.19c-1.61-1.08-3.76-2.52-5.36-3.61Zm41.34-36.74v0Z" transform="translate(-33.1 -15.89)"/><path class="cls-19" d="M183.88,119.33c-1.67,2.66-3.93,6.19-5.7,8.78-1.45.84-3.36,2-4.84,2.82-2.13,2.63-5,6.11-7.21,8.67-1.8.27-4.19.65-6,.86v6.76c2.6-2.4,6-5.65,8.52-8.15,1.78-.12,4.16-.27,5.93-.45a176.3,176.3,0,0,0,11.33-20.46l-2.05,1.17Zm13.24-16.91c-1,3.08-2.5,7.16-3.7,10.19-1.5,1.27-3.55,2.92-5.15,4.07.81.6,1.9,1.4,2.7,2,1.19-2,2.78-4.75,3.86-6.85.72-.47,1.69-1.06,2.36-1.57.72-3,1.62-7,2.21-10a19,19,0,0,0-2.28,2.1Zm4.3-13.71V83.46l-.06,1-.15,3.41c-.17,2.09-.37,4.88-.6,7a5.18,5.18,0,0,1,.73.4c0-2,.1-4.59.09-6.56Z" transform="translate(-33.1 -15.89)"/><path class="cls-33" d="M201.48,108.22c0,11.49-7.8,23-23.38,31.61a90.12,90.12,0,0,1-17.95,7.39c2.6-2.4,6-5.65,8.52-8.15,1.78-.12,4.16-.27,5.93-.45a176.3,176.3,0,0,0,11.33-20.46l1.09-2.37,1.25.89c.81.6,1.9,1.4,2.7,2,1.19-2,2.78-4.75,3.86-6.85.72-.47,1.69-1.06,2.36-1.57.72-3,1.62-7,2.21-10l.88-5.57.32.12a5.18,5.18,0,0,1,.73.4c0-2,.1-4.59.09-6.56l.06,19.51Z" transform="translate(-33.1 -15.89)"/><path class="cls-17" d="M98,188.9l-1.24-.29,0,8.2,1.23.28,0-8.19Zm24.42,2.88c-4-.09-8-.36-12-.81l0,8.19c1.86.21,3.72.38,5.6.52v-1.41q3.19.22,6.41.3V200l0-8.19Zm12.07-.28q-2.81.19-5.64.27l0,8.19c1.89-.05,3.77-.14,5.65-.27l0-8.19Zm18.08-2.56q-2.69.59-5.42,1.05l0,8.19q2.74-.47,5.42-1.05l0-8.19Zm16.79-5.16c-1.61.66-3.26,1.27-4.94,1.85l0,8.19c1.68-.58,3.33-1.19,5-1.85l0-8.19Zm14.46-7.67q-2.61,1.8-5.61,3.46c-1.14.63-2.3,1.23-3.49,1.81l0,8.19,0-4.33c1.19-.58,2.35-1.18,3.49-1.81.53-.29,1.05-.59,1.57-.89v4.33q2.13-1.25,4.05-2.57l0-8.19ZM98,181l-1.24-.28,0,7.75,1.24.28L98,181Zm24.42,2.89a128.59,128.59,0,0,1-18.28-1.7l0,7.75,0-3.54q3.12.51,6.28.88v3.54c4,.46,8,.73,12,.82l0-7.75Zm18.44-.88c-4,.47-8,.76-12,.86l0,7.75c1.88-.05,3.77-.13,5.64-.26v-5.69q3.19-.22,6.36-.6l0,5.69,0-7.75Zm11.71-2c-1.79.39-3.6.75-5.42,1.06l0,7.75c1.82-.31,3.63-.67,5.42-1.06l0-7.75Zm31.25-12.82c-1.74,1.19-3.62,2.35-5.62,3.45a90.81,90.81,0,0,1-19.61,7.87l0,7.75,0-7.59c2-.55,3.92-1.16,5.83-1.81l0,7.59q2.52-.85,4.94-1.85v-5.37q2.74-1.11,5.36-2.39v5.36c1.19-.57,2.35-1.18,3.48-1.81,2-1.1,3.88-2.26,5.62-3.45l0-7.75Zm-43,6.89a129.92,129.92,0,0,1-44.1-2.28l0,7.74,1.24.28,0-5.09q3,.68,6.15,1.19V182a128.59,128.59,0,0,0,18.28,1.7v-1.83c2.15.05,4.29,0,6.43,0v1.83c4-.11,8-.4,12-.87l0-7.75Zm43-14.79q-2.62,1.8-5.62,3.46a99.11,99.11,0,0,1-31.06,10.42l0,7.75c1.83-.31,3.64-.67,5.43-1.06l0-5.09q3.06-.68,6-1.5l0,5.1a91.34,91.34,0,0,0,19.61-7.88c2-1.1,3.88-2.26,5.62-3.45l0-7.75ZM96.62,196.91l-.09-32.29.17,0V166c27,6.29,59.06,3.32,81.44-9.05a58.07,58.07,0,0,0,14.06-10.55v.15a58.07,58.07,0,0,1-14.06,10.55c-22.38,12.37-54.48,15.34-81.44,9.05l0,6.57A129.88,129.88,0,0,0,140.82,175v-3.42c2.12-.25,4.22-.56,6.29-.91v3.42a99.11,99.11,0,0,0,31.06-10.42q3-1.66,5.62-3.46v-.23q2.18-1.5,4.1-3.07v-1.53q1.91-1.58,3.56-3.23v1.76l.54-.54v.15l-.54.54,0,7.75.53-.55v.15c-.17.19-.35.37-.53.55l0,7.75.53-.55v.15l-.53.54,0,8.19.54-.54v.15a59,59,0,0,1-13.82,10.3c-22.43,12.39-54.62,15.34-81.62,9Zm98.48-59c-3.89,5.1-9.55,9.85-17,14-24.44,13.51-60.47,15.8-88.74,7.08l.12,43.17c28.27,8.73,64.31,6.43,88.74-7.07,7.42-4.11,13.08-8.86,17-14l-.13-43.18Z" transform="translate(-33.1 -15.89)"/><path class="cls-22" d="M122.43,191.64c-4-.09-8-.36-12-.82V191c4,.45,8,.72,12,.81v-.14Zm12.07-.28c-1.87.13-3.76.21-5.64.26v.15q2.83-.08,5.64-.27v-.14Zm18.08-2.57c-1.79.39-3.6.75-5.42,1.06V190q2.73-.47,5.42-1.05v-.15Zm16.79-5.16q-2.42,1-4.94,1.85v.15c1.68-.58,3.33-1.19,4.94-1.85v-.15ZM183.83,176c-1.74,1.19-3.61,2.35-5.62,3.45-1.13.63-2.29,1.24-3.48,1.81v.15c1.19-.58,2.35-1.18,3.49-1.81q3-1.66,5.61-3.46V176Zm8.2-6.85-.53.55v.14l.53-.54v-.15Zm-69.62,14.62a128.59,128.59,0,0,1-18.28-1.7v.15a128.59,128.59,0,0,0,18.28,1.7v-.15Zm18.44-.88c-4,.47-8,.76-12,.87v.14c4-.1,8-.39,12-.86v-.15Zm11.71-2c-1.79.39-3.6.75-5.43,1.06v.15c1.82-.31,3.63-.67,5.42-1.06v-.15Zm31.25-12.82c-1.74,1.19-3.62,2.35-5.62,3.45a91.34,91.34,0,0,1-19.61,7.88v.14a90.81,90.81,0,0,0,19.61-7.87c2-1.1,3.88-2.26,5.62-3.45v-.15Zm8.2-6.85-.53.55v.15c.18-.18.36-.36.53-.55v-.15Zm-8.22-1.05q-2.62,1.8-5.62,3.46a99.11,99.11,0,0,1-31.06,10.42v.15a99.11,99.11,0,0,0,31.06-10.42q3-1.67,5.62-3.46v-.15Zm8.2-6.84-.54.54V154l.54-.54v-.15ZM96.7,164.66l-.17,0,.09,32.29c27,6.34,59.19,3.39,81.62-9a59,59,0,0,0,13.82-10.3v-.15l-.54.54v.15c-1.1,1.1-2.28,2.17-3.56,3.22v0c-1.28,1.06-2.64,2.08-4.1,3.08v-.15q-1.92,1.32-4.05,2.57V187l-1.57.9c-1.14.62-2.3,1.23-3.48,1.81v0q-2.61,1.28-5.36,2.39V192c-1.62.66-3.27,1.27-5,1.85V194c-1.9.65-3.85,1.25-5.82,1.81v0q-3,.83-6,1.49v-.14q-2.67.59-5.42,1.05v.15c-2.08.36-4.17.66-6.29.91v0q-3.16.38-6.36.6v-.15c-1.88.13-3.76.22-5.65.27v.15c-2.14,0-4.28.06-6.42,0v0c-2.15-.05-4.28-.15-6.41-.3v-.14c-1.88-.14-3.74-.31-5.6-.52v.14q-3.17-.36-6.27-.88v0q-3.11-.51-6.15-1.19v-.14l-1.23-.28,0-8.2,1.24.29v-.15l-1.24-.28,0-7.75L98,181v-.15l-1.24-.28,0-7.74a129.92,129.92,0,0,0,44.1,2.28V175a129.88,129.88,0,0,1-44.09-2.28l0-6.57c27,6.29,59.06,3.32,81.44-9.05a58.07,58.07,0,0,0,14.06-10.55v-.15a58.07,58.07,0,0,1-14.06,10.55c-22.38,12.37-54.48,15.34-81.44,9.05v-1.3Z" transform="translate(-33.1 -15.89)"/><path class="cls-21" d="M104.12,177q-3.11-.51-6.15-1.19l0,5.09V181l0,7.75v.15l0,8.19v.14q3,.68,6.15,1.19v-.14l0-8.34,0-7.75V177Z" transform="translate(-33.1 -15.89)"/><path class="cls-33" d="M110.42,187.28q-3.17-.37-6.28-.88l0,3.54,0,8.34v.14q3.1.53,6.27.88v-.14l0-8.19v-3.69Z" transform="translate(-33.1 -15.89)"/><path class="cls-21" d="M122.45,198.57q-3.21-.07-6.41-.3v1.55c2.13.15,4.26.25,6.41.3v-1.55Z" transform="translate(-33.1 -15.89)"/><path class="cls-33" d="M128.83,181.9c-2.14,0-4.28.06-6.43,0v2l0,7.75v.14l0,8.19v.15c2.14,0,4.28,0,6.42,0V200l0-8.19v-.15l0-7.75v-2Z" transform="translate(-33.1 -15.89)"/><path class="cls-21" d="M140.85,185.07q-3.16.38-6.36.6v5.83l0,8.19v.15q3.19-.22,6.36-.6v-.15l0-8.33,0-5.69Z" transform="translate(-33.1 -15.89)"/><path class="cls-33" d="M147.1,170.63c-2.07.35-4.17.66-6.29.91v3.57l0,7.75V183l0,7.75,0,8.33v.15c2.12-.25,4.21-.55,6.29-.91v-.15l0-8.19v-.14l0-7.75V182l0-7.75v-3.57Z" transform="translate(-33.1 -15.89)"/><path class="cls-21" d="M158.56,174.3q-3,.82-6,1.5l0,5.09V181l0,7.75v.15l0,8.19v.14q3.06-.66,6-1.49v-.15l0-8.34,0-7.75v-.14l0-5.1Z" transform="translate(-33.1 -15.89)"/><path class="cls-33" d="M164.41,177.89c-1.91.65-3.85,1.26-5.83,1.81l0,7.59,0,8.34v.15c2-.56,3.92-1.16,5.82-1.81v-.15l0-8.19v-.15l0-7.59Z" transform="translate(-33.1 -15.89)"/><path class="cls-21" d="M174.72,175.87q-2.61,1.27-5.36,2.39v5.52l0,8.19v.14q2.74-1.11,5.36-2.39v-.15l0-8.19v-5.51Z" transform="translate(-33.1 -15.89)"/><path class="cls-33" d="M179.8,182.54c-.52.3-1,.6-1.57.89-1.14.63-2.3,1.23-3.49,1.81l0,4.33v.15c1.18-.58,2.34-1.19,3.48-1.81l1.57-.9v-4.47Z" transform="translate(-33.1 -15.89)"/><path class="cls-21" d="M187.89,156.87q-1.92,1.57-4.1,3.07v.38l0,7.75v.15l0,7.75v.14l0,8.19v.15c1.46-1,2.82-2,4.1-3.08v-.14l-.07-24.13v-.23Z" transform="translate(-33.1 -15.89)"/><path class="cls-33" d="M191.45,152.11q-1.65,1.65-3.56,3.23v1.76l.07,24.13v.14c1.28-1.05,2.46-2.12,3.56-3.22V178l0-8.19v-.14l0-7.75v-.15l0-7.75v-1.91Z" transform="translate(-33.1 -15.89)"/><path class="cls-45" d="M49.53,109.09,49.41,66.9a2.09,2.09,0,0,1,0-.25l.12,42.19a2.09,2.09,0,0,0,0,.25Z" transform="translate(-33.1 -15.89)"/><path class="cls-41" d="M201.61,154.37a25.36,25.36,0,0,1-.84,6.57,2,2,0,0,1-.16.36,1,1,0,0,1-.14-.65c-.2-14.28-.2-14.28-.1-15.08l-.11-4.3c.07-.21.13-.43.2-.65-.05-4.36-.05-4.36.23-5.58a56.94,56.94,0,0,0,.85-6.5l.07,25.83Zm0,9-.13-44a27,27,0,0,1-3.13,12.51l.12,44c1.88-4.23,3-6.78,3.14-12.51Z" transform="translate(-33.1 -15.89)"/><path class="cls-43" d="M201.55,133.15a25.93,25.93,0,0,1-1.09,7.47l0-3.34a10.18,10.18,0,0,1,.27-2.24,56.94,56.94,0,0,0,.85-6.5v4.61Z" transform="translate(-33.1 -15.89)"/><path class="cls-24" d="M201.56,137.32c-.28,4.39-.29,4.56-1,7-.09.37-.15.69-.23,1.22,0-1.29-.08-3-.11-4.3.07-.21.13-.43.2-.65a25.93,25.93,0,0,0,1.09-7.47v4.17Z" transform="translate(-33.1 -15.89)"/><path class="cls-19" d="M201.61,154.37a25.36,25.36,0,0,1-.84,6.57,2.83,2.83,0,0,1-.11.31l-.14,0c0-.21,0-.21-.24-14.36,0-3.23,1.27-6.3,1.28-9.54l.05,17.05Z" transform="translate(-33.1 -15.89)"/></g></g></g></g></g></svg>