<svg xmlns="http://www.w3.org/2000/svg" xmlns:xlink="http://www.w3.org/1999/xlink" viewBox="0 0 218.8 210.21"><defs><style>.cls-1{mask:url(#mask);}.cls-10,.cls-12,.cls-2,.cls-4,.cls-6,.cls-8{mix-blend-mode:multiply;}.cls-2{fill:url(#linear-gradient);}.cls-3{mask:url(#mask-2);}.cls-4{fill:url(#linear-gradient-2);}.cls-5{mask:url(#mask-3);}.cls-6{fill:url(#linear-gradient-3);}.cls-7{mask:url(#mask-4);}.cls-8{fill:url(#linear-gradient-4);}.cls-9{mask:url(#mask-5);}.cls-10{fill:url(#linear-gradient-5);}.cls-11{mask:url(#mask-6);}.cls-12{fill:url(#linear-gradient-6);}.cls-13,.cls-48{fill:#e3eefa;}.cls-14{isolation:isolate;}.cls-106,.cls-107,.cls-108,.cls-111,.cls-112,.cls-15{opacity:0.6;}.cls-120,.cls-15,.cls-86{mix-blend-mode:screen;}.cls-101,.cls-16{fill:#fcfdfd;}.cls-16{opacity:0;}.cls-17{fill:#e6fafd;opacity:0.09;}.cls-18{fill:#d1f7fd;opacity:0.18;}.cls-19{fill:#bbf4fd;opacity:0.27;}.cls-20{fill:#a5f1fd;opacity:0.36;}.cls-21{fill:#90eefd;opacity:0.45;}.cls-22{fill:#7aeafc;opacity:0.55;}.cls-23{fill:#65e7fc;opacity:0.64;}.cls-24{fill:#4fe4fc;opacity:0.73;}.cls-25{fill:#39e1fc;opacity:0.82;}.cls-26{fill:#24defc;opacity:0.91;}.cls-27{fill:#0edbfc;}.cls-28{fill:#1b1c1e;}.cls-29{fill:url(#linear-gradient-7);}.cls-30{fill:url(#linear-gradient-8);}.cls-31{fill:url(#linear-gradient-9);}.cls-32{fill:url(#linear-gradient-10);}.cls-33{fill:#86e9ee;}.cls-34{fill:#51cfe3;}.cls-35{fill:url(#linear-gradient-11);}.cls-36{fill:url(#linear-gradient-12);}.cls-37{fill:url(#linear-gradient-13);}.cls-38{fill:url(#linear-gradient-14);}.cls-39,.cls-40,.cls-48,.cls-49,.cls-52,.cls-53,.cls-54,.cls-55,.cls-56,.cls-57,.cls-58,.cls-59,.cls-60{fill-rule:evenodd;}.cls-39{fill:url(#linear-gradient-15);}.cls-40{fill:url(#linear-gradient-16);}.cls-41{clip-path:url(#clip-path);}.cls-42{fill:url(#linear-gradient-17);}.cls-43{fill:#f8fbfe;}.cls-44{clip-path:url(#clip-path-2);}.cls-45{fill:url(#linear-gradient-18);}.cls-46{fill:url(#linear-gradient-19);}.cls-47{clip-path:url(#clip-path-3);}.cls-49{fill:url(#linear-gradient-20);}.cls-50{fill:url(#linear-gradient-21);}.cls-51{fill:url(#linear-gradient-22);}.cls-52{fill:url(#linear-gradient-23);}.cls-53{fill:url(#linear-gradient-24);}.cls-54{fill:url(#linear-gradient-25);}.cls-55{fill:url(#linear-gradient-26);}.cls-56{fill:url(#linear-gradient-27);}.cls-57{fill:url(#linear-gradient-28);}.cls-58{fill:url(#linear-gradient-29);}.cls-59{fill:url(#linear-gradient-30);}.cls-60{fill:url(#linear-gradient-31);}.cls-61{fill:url(#linear-gradient-32);}.cls-62{fill:url(#linear-gradient-33);}.cls-63{fill:url(#linear-gradient-34);}.cls-64{mask:url(#mask-7);}.cls-65{fill:url(#linear-gradient-35);}.cls-66{mask:url(#mask-8);}.cls-67{fill:url(#linear-gradient-36);}.cls-68{opacity:0.8;}.cls-69{fill:url(#linear-gradient-37);}.cls-70{mask:url(#mask-9);}.cls-71{fill:url(#linear-gradient-38);}.cls-72{mask:url(#mask-10);}.cls-73{fill:url(#linear-gradient-39);}.cls-74{fill:url(#linear-gradient-40);}.cls-75{mask:url(#mask-11);}.cls-76{fill:url(#linear-gradient-41);}.cls-77{mask:url(#mask-12);}.cls-78{fill:url(#linear-gradient-42);}.cls-79{fill:url(#linear-gradient-43);}.cls-80{fill:#ffd6bf;}.cls-81{fill:#1b1823;}.cls-82{fill:#f8f9fc;}.cls-83{fill:#0b0c0d;}.cls-84{fill:#30273b;}.cls-85,.cls-86{fill:#ad7e6c;}.cls-86{opacity:0.2;}.cls-87{fill:#393244;}.cls-88{fill:#f5c2a6;}.cls-89{fill:#8caed5;}.cls-90{fill:#171d23;}.cls-91{fill:#2744ac;}.cls-92{fill:#3857cc;}.cls-93{fill:#f0f4f9;}.cls-94{fill:#816e5d;}.cls-95{fill:#746150;}.cls-96{fill:#154902;}.cls-97{fill:#9cb5cc;}.cls-98{fill:url(#linear-gradient-44);}.cls-99{fill:#f2f2f2;}.cls-100{fill:#d7e7f7;}.cls-102{opacity:0.4;}.cls-103{fill:#8ef5f3;}.cls-104{fill:#60d4d2;}.cls-105{fill:#b6fffe;}.cls-106,.cls-114{fill:#46c7c7;}.cls-107,.cls-116{fill:#025a82;}.cls-108,.cls-110{fill:#ff5454;}.cls-109{opacity:0.5;}.cls-111,.cls-115{fill:#ffc104;}.cls-113{fill:#fff9fc;}.cls-117{fill:#ebf1f5;opacity:0.7;}.cls-118{fill:#ffdfcd;}.cls-119{fill:#d7e2e8;}.cls-120{fill:#2b0d04;opacity:0.3;}.cls-121{filter:url(#luminosity-noclip-12);}.cls-122{filter:url(#luminosity-noclip-11);}.cls-123{filter:url(#luminosity-noclip-10);}.cls-124{filter:url(#luminosity-noclip-9);}.cls-125{filter:url(#luminosity-noclip-8);}.cls-126{filter:url(#luminosity-noclip-7);}.cls-127{filter:url(#luminosity-noclip-6);}.cls-128{filter:url(#luminosity-noclip-5);}.cls-129{filter:url(#luminosity-noclip-4);}.cls-130{filter:url(#luminosity-noclip-3);}.cls-131{filter:url(#luminosity-noclip-2);}.cls-132{filter:url(#luminosity-noclip);}</style><filter id="luminosity-noclip" x="66.12" y="-8317" width="12.27" height="32766" filterUnits="userSpaceOnUse" color-interpolation-filters="sRGB"><feFlood flood-color="#fff" result="bg"/><feBlend in="SourceGraphic" in2="bg"/></filter><mask id="mask" x="66.12" y="-8317" width="12.27" height="32766" maskUnits="userSpaceOnUse"><g class="cls-132"/></mask><linearGradient id="linear-gradient" x1="-8708.1" y1="103.64" x2="-8714.96" y2="97.7" gradientTransform="matrix(-1, 0, 0, 1, -8641.72, 0)" gradientUnits="userSpaceOnUse"><stop offset="0.23" stop-color="#fff"/><stop offset="0.42" stop-color="#fbfbfb"/><stop offset="0.59" stop-color="#f0f0f0"/><stop offset="0.76" stop-color="#ddd"/><stop offset="0.92" stop-color="#c2c2c2"/><stop offset="1" stop-color="#b3b3b3"/></linearGradient><filter id="luminosity-noclip-2" x="170.83" y="-8317" width="31.26" height="32766" filterUnits="userSpaceOnUse" color-interpolation-filters="sRGB"><feFlood flood-color="#fff" result="bg"/><feBlend in="SourceGraphic" in2="bg"/></filter><mask id="mask-2" x="170.83" y="-8317" width="31.26" height="32766" maskUnits="userSpaceOnUse"><g class="cls-131"/></mask><linearGradient id="linear-gradient-2" x1="-8823.6" y1="142.64" x2="-8832.38" y2="134.24" xlink:href="#linear-gradient"/><filter id="luminosity-noclip-3" x="77.33" y="-8317" width="31.26" height="32766" filterUnits="userSpaceOnUse" color-interpolation-filters="sRGB"><feFlood flood-color="#fff" result="bg"/><feBlend in="SourceGraphic" in2="bg"/></filter><mask id="mask-3" x="77.33" y="-8317" width="31.26" height="32766" maskUnits="userSpaceOnUse"><g class="cls-130"/></mask><linearGradient id="linear-gradient-3" x1="-8730.1" y1="113.73" x2="-8738.88" y2="105.32" xlink:href="#linear-gradient"/><filter id="luminosity-noclip-4" x="151.15" y="-8317" width="9.18" height="32766" filterUnits="userSpaceOnUse" color-interpolation-filters="sRGB"><feFlood flood-color="#fff" result="bg"/><feBlend in="SourceGraphic" in2="bg"/></filter><mask id="mask-4" x="151.15" y="-8317" width="9.18" height="32766" maskUnits="userSpaceOnUse"><g class="cls-129"/></mask><linearGradient id="linear-gradient-4" x1="-8793.06" y1="92.42" x2="-8798.19" y2="87.98" xlink:href="#linear-gradient"/><filter id="luminosity-noclip-5" x="159.53" y="-8317" width="23.38" height="32766" filterUnits="userSpaceOnUse" color-interpolation-filters="sRGB"><feFlood flood-color="#fff" result="bg"/><feBlend in="SourceGraphic" in2="bg"/></filter><mask id="mask-5" x="159.53" y="-8317" width="23.38" height="32766" maskUnits="userSpaceOnUse"><g class="cls-128"/></mask><linearGradient id="linear-gradient-5" x1="-8809.51" y1="99.97" x2="-8816.08" y2="93.68" xlink:href="#linear-gradient"/><filter id="luminosity-noclip-6" x="159.62" y="-8317" width="12.27" height="32766" filterUnits="userSpaceOnUse" color-interpolation-filters="sRGB"><feFlood flood-color="#fff" result="bg"/><feBlend in="SourceGraphic" in2="bg"/></filter><mask id="mask-6" x="159.62" y="-8317" width="12.27" height="32766" maskUnits="userSpaceOnUse"><g class="cls-127"/></mask><linearGradient id="linear-gradient-6" x1="-8801.6" y1="132.55" x2="-8808.46" y2="126.61" xlink:href="#linear-gradient"/><linearGradient id="linear-gradient-7" x1="80.58" y1="162.67" x2="197.03" y2="198.39" gradientUnits="userSpaceOnUse"><stop offset="0.01" stop-color="#d9e1ee"/><stop offset="1" stop-color="#aabad6"/></linearGradient><linearGradient id="linear-gradient-8" x1="44.05" y1="183.3" x2="98.36" y2="183.3" gradientUnits="userSpaceOnUse"><stop offset="0" stop-color="#aabad6"/><stop offset="1" stop-color="#96aac9"/></linearGradient><linearGradient id="linear-gradient-9" x1="107.01" y1="188.48" x2="119.14" y2="222.07" xlink:href="#linear-gradient-8"/><linearGradient id="linear-gradient-10" x1="43.99" y1="163.48" x2="174.82" y2="163.48" gradientUnits="userSpaceOnUse"><stop offset="0.01" stop-color="#e4e9f2"/><stop offset="1" stop-color="#b4c2da"/></linearGradient><linearGradient id="linear-gradient-11" x1="87.32" y1="149.03" x2="189.53" y2="187.08" xlink:href="#linear-gradient-7"/><linearGradient id="linear-gradient-12" x1="44.05" y1="171.56" x2="98.36" y2="171.56" xlink:href="#linear-gradient-8"/><linearGradient id="linear-gradient-13" x1="109.84" y1="184.57" x2="123.71" y2="222.97" xlink:href="#linear-gradient-8"/><linearGradient id="linear-gradient-14" x1="112.89" y1="153.79" x2="262.67" y2="230.7" xlink:href="#linear-gradient-10"/><linearGradient id="linear-gradient-15" x1="110.87" y1="147.03" x2="127.56" y2="147.03" xlink:href="#linear-gradient-8"/><linearGradient id="linear-gradient-16" x1="139.56" y1="147.03" x2="156.24" y2="147.03" xlink:href="#linear-gradient-8"/><clipPath id="clip-path" transform="translate(-21.92 -19.14)"><path class="cls-13" d="M150,118.09l-.29,34.74c0,1.79-1.49,3.57-4.47,4.94-6,2.74-15.71,2.74-21.74,0-3-1.39-4.55-3.2-4.54-5l.28-34.74c0,1.82,1.51,3.63,4.54,5,6,2.75,15.76,2.75,21.75,0C148.45,121.67,149.94,119.88,150,118.09Z"/></clipPath><linearGradient id="linear-gradient-17" x1="114.6" y1="138.93" x2="165.44" y2="138.93" gradientUnits="userSpaceOnUse"><stop offset="0" stop-color="#21deff"/><stop offset="1" stop-color="#0ab4ef"/></linearGradient><clipPath id="clip-path-2" transform="translate(-21.92 -19.14)"><path class="cls-13" d="M149.53,84l-.27,33.6c0,1.73-1.45,3.46-4.32,4.78-5.79,2.66-15.21,2.66-21,0-2.93-1.33-4.4-3.09-4.39-4.84l.27-33.6c0,1.75,1.46,3.5,4.39,4.84,5.83,2.66,15.25,2.66,21,0C148.09,87.49,149.53,85.76,149.53,84Z"/></clipPath><linearGradient id="linear-gradient-18" x1="115.34" y1="104.19" x2="164.52" y2="104.19" xlink:href="#linear-gradient-10"/><linearGradient id="linear-gradient-19" x1="121.59" y1="74.74" x2="147.24" y2="74.74" xlink:href="#linear-gradient-17"/><clipPath id="clip-path-3" transform="translate(-21.92 -19.14)"><path class="cls-13" d="M149.29,57.08l0,13.3c0,1.73-1.45,3.46-4.32,4.78-5.79,2.66-15.21,2.66-21,0-2.93-1.34-4.4-3.1-4.39-4.85l0-13.3c0,1.75,1.46,3.51,4.39,4.84,5.83,2.66,15.25,2.66,21,0C147.85,60.53,149.29,58.81,149.29,57.08Z"/></clipPath><linearGradient id="linear-gradient-20" x1="126.13" y1="42.35" x2="142.53" y2="42.35" xlink:href="#linear-gradient-17"/><linearGradient id="linear-gradient-21" x1="119.51" y1="67.48" x2="149.29" y2="67.48" xlink:href="#linear-gradient-17"/><linearGradient id="linear-gradient-22" x1="119.51" y1="62.3" x2="149.29" y2="62.3" xlink:href="#linear-gradient-17"/><linearGradient id="linear-gradient-23" x1="111.98" y1="143.11" x2="121.48" y2="166.98" xlink:href="#linear-gradient-10"/><linearGradient id="linear-gradient-24" x1="110.85" y1="173.56" x2="127.4" y2="173.56" xlink:href="#linear-gradient-17"/><linearGradient id="linear-gradient-25" x1="113.27" y1="174.32" x2="126.08" y2="174.32" xlink:href="#linear-gradient-17"/><linearGradient id="linear-gradient-26" x1="140.27" y1="145.24" x2="152.53" y2="168.94" xlink:href="#linear-gradient-10"/><linearGradient id="linear-gradient-27" x1="139.74" y1="173.51" x2="156.28" y2="173.51" xlink:href="#linear-gradient-17"/><linearGradient id="linear-gradient-28" x1="142.15" y1="174.27" x2="154.96" y2="174.27" xlink:href="#linear-gradient-17"/><linearGradient id="linear-gradient-29" x1="123.35" y1="150.1" x2="147.38" y2="184.09" xlink:href="#linear-gradient-10"/><linearGradient id="linear-gradient-30" x1="125.51" y1="179.88" x2="142.24" y2="179.88" xlink:href="#linear-gradient-17"/><linearGradient id="linear-gradient-31" x1="127.95" y1="180.65" x2="140.91" y2="180.65" xlink:href="#linear-gradient-17"/><linearGradient id="linear-gradient-32" x1="115.34" y1="115.24" x2="164.52" y2="115.24" xlink:href="#linear-gradient-17"/><linearGradient id="linear-gradient-33" x1="115.34" y1="107.84" x2="164.52" y2="107.84" xlink:href="#linear-gradient-17"/><linearGradient id="linear-gradient-34" x1="115.34" y1="100.05" x2="164.52" y2="100.05" xlink:href="#linear-gradient-17"/><filter id="luminosity-noclip-7" x="66.12" y="96.27" width="12.27" height="4.11" filterUnits="userSpaceOnUse" color-interpolation-filters="sRGB"><feFlood flood-color="#fff" result="bg"/><feBlend in="SourceGraphic" in2="bg"/></filter><mask id="mask-7" x="44.2" y="77.12" width="12.27" height="4.11" maskUnits="userSpaceOnUse"><g class="cls-126"><g transform="translate(-21.92 -19.14)"><g class="cls-1"><path class="cls-2" d="M69.92,96.72a5.86,5.86,0,0,1,3.44-.35,10.39,10.39,0,0,1,2.57.81,13.63,13.63,0,0,1,2.46,1.46l-3.8,1.74a13.93,13.93,0,0,0-2.46-1.45,10,10,0,0,0-2.57-.81,5.86,5.86,0,0,0-3.44.34Z"/></g></g></g></mask><linearGradient id="linear-gradient-35" x1="-8708.1" y1="103.64" x2="-8714.96" y2="97.7" gradientTransform="matrix(-1, 0, 0, 1, -8641.72, 0)" gradientUnits="userSpaceOnUse"><stop offset="0.23" stop-color="#19f7fb"/><stop offset="0.34" stop-color="#1df7fb"/><stop offset="0.45" stop-color="#28f8fb"/><stop offset="0.54" stop-color="#3bf8fc"/><stop offset="0.64" stop-color="#56f9fc"/><stop offset="0.74" stop-color="#78fafd"/><stop offset="0.83" stop-color="#a3fcfd"/><stop offset="0.93" stop-color="#d4fdfe"/><stop offset="1" stop-color="#fff"/></linearGradient><filter id="luminosity-noclip-8" x="77.33" y="94.45" width="31.26" height="31.32" filterUnits="userSpaceOnUse" color-interpolation-filters="sRGB"><feFlood flood-color="#fff" result="bg"/><feBlend in="SourceGraphic" in2="bg"/></filter><mask id="mask-8" x="55.4" y="75.31" width="31.26" height="31.32" maskUnits="userSpaceOnUse"><g class="cls-125"><g transform="translate(-21.92 -19.14)"><g class="cls-5"><path class="cls-6" d="M81.13,95a6.84,6.84,0,0,1,4-.4,12.28,12.28,0,0,1,3,.94,17.09,17.09,0,0,1,4.73,3.28,16,16,0,0,1,4.89,8.65,10.51,10.51,0,0,1,2.47.79,14.92,14.92,0,0,1,4.09,2.83c2.59,2.49,4.34,5.8,4.33,8.69a4.39,4.39,0,0,1-2.47,4.27l-3.8,1.75a4.39,4.39,0,0,0,2.46-4.28c0-2.88-1.73-6.2-4.33-8.69A14.83,14.83,0,0,0,96.37,110a10.51,10.51,0,0,0-2.47-.79A16.09,16.09,0,0,0,89,100.53a17.36,17.36,0,0,0-4.74-3.28,11.62,11.62,0,0,0-3-.93,6.76,6.76,0,0,0-4,.4Z"/></g></g></g></mask><linearGradient id="linear-gradient-36" x1="-8730.1" y1="113.73" x2="-8738.88" y2="105.32" xlink:href="#linear-gradient-35"/><linearGradient id="linear-gradient-37" x1="-8723.77" y1="122.44" x2="-8728.89" y2="98.07" gradientTransform="matrix(-1, 0, 0, 1, -8641.72, 0)" gradientUnits="userSpaceOnUse"><stop offset="0.01" stop-color="#19f7fb"/><stop offset="1" stop-color="#b5dff2"/></linearGradient><filter id="luminosity-noclip-9" x="151.15" y="86.91" width="9.18" height="3.08" filterUnits="userSpaceOnUse" color-interpolation-filters="sRGB"><feFlood flood-color="#fff" result="bg"/><feBlend in="SourceGraphic" in2="bg"/></filter><mask id="mask-9" x="129.22" y="67.77" width="9.18" height="3.08" maskUnits="userSpaceOnUse"><g class="cls-124"><g transform="translate(-21.92 -19.14)"><g class="cls-7"><path class="cls-8" d="M154,87.25a4.4,4.4,0,0,1,2.57-.26,7.45,7.45,0,0,1,1.92.61,10.68,10.68,0,0,1,1.84,1.08L157.48,90a10.12,10.12,0,0,0-1.84-1.09,7.86,7.86,0,0,0-1.92-.61,4.48,4.48,0,0,0-2.57.26Z"/></g></g></g></mask><linearGradient id="linear-gradient-38" x1="-8793.06" y1="92.42" x2="-8798.19" y2="87.98" xlink:href="#linear-gradient-35"/><filter id="luminosity-noclip-10" x="159.53" y="85.55" width="23.38" height="23.42" filterUnits="userSpaceOnUse" color-interpolation-filters="sRGB"><feFlood flood-color="#fff" result="bg"/><feBlend in="SourceGraphic" in2="bg"/></filter><mask id="mask-10" x="137.6" y="66.41" width="23.38" height="23.42" maskUnits="userSpaceOnUse"><g class="cls-123"><g transform="translate(-21.92 -19.14)"><g class="cls-9"><path class="cls-10" d="M162.37,85.94a5.22,5.22,0,0,1,3-.3,9,9,0,0,1,2.23.71,12.84,12.84,0,0,1,3.54,2.45,12.07,12.07,0,0,1,3.66,6.47,7.67,7.67,0,0,1,1.84.59A11.31,11.31,0,0,1,179.67,98a9.74,9.74,0,0,1,3.24,6.5,3.29,3.29,0,0,1-1.85,3.2L178.22,109a3.29,3.29,0,0,0,1.84-3.2,9.68,9.68,0,0,0-3.24-6.5,10.9,10.9,0,0,0-3-2.11,7.65,7.65,0,0,0-1.85-.6,12,12,0,0,0-3.65-6.47,13,13,0,0,0-3.55-2.45,9.13,9.13,0,0,0-2.22-.7,5,5,0,0,0-3,.3Z"/></g></g></g></mask><linearGradient id="linear-gradient-39" x1="-8809.51" y1="99.97" x2="-8816.08" y2="93.68" xlink:href="#linear-gradient-35"/><linearGradient id="linear-gradient-40" x1="-8804.78" y1="106.49" x2="-8808.61" y2="88.26" xlink:href="#linear-gradient-37"/><filter id="luminosity-noclip-11" x="159.62" y="125.18" width="12.27" height="4.11" filterUnits="userSpaceOnUse" color-interpolation-filters="sRGB"><feFlood flood-color="#fff" result="bg"/><feBlend in="SourceGraphic" in2="bg"/></filter><mask id="mask-11" x="137.7" y="106.04" width="12.27" height="4.11" maskUnits="userSpaceOnUse"><g class="cls-122"><g transform="translate(-21.92 -19.14)"><g class="cls-11"><path class="cls-12" d="M163.42,125.63a5.94,5.94,0,0,1,3.44-.34,10,10,0,0,1,2.57.81,14,14,0,0,1,2.47,1.45l-3.81,1.75a14,14,0,0,0-2.46-1.46,10.83,10.83,0,0,0-2.57-.81,5.86,5.86,0,0,0-3.44.35Z"/></g></g></g></mask><linearGradient id="linear-gradient-41" x1="-8801.6" y1="132.55" x2="-8808.46" y2="126.61" xlink:href="#linear-gradient-35"/><filter id="luminosity-noclip-12" x="170.83" y="123.37" width="31.26" height="31.32" filterUnits="userSpaceOnUse" color-interpolation-filters="sRGB"><feFlood flood-color="#fff" result="bg"/><feBlend in="SourceGraphic" in2="bg"/></filter><mask id="mask-12" x="148.9" y="104.22" width="31.26" height="31.32" maskUnits="userSpaceOnUse"><g class="cls-121"><g transform="translate(-21.92 -19.14)"><g class="cls-3"><path class="cls-4" d="M174.63,123.89a6.86,6.86,0,0,1,4-.4,12.28,12.28,0,0,1,3,.94,17.25,17.25,0,0,1,4.74,3.27,16.11,16.11,0,0,1,4.88,8.66,10.51,10.51,0,0,1,2.47.79,15.1,15.1,0,0,1,4.09,2.82c2.59,2.5,4.34,5.81,4.33,8.7a4.4,4.4,0,0,1-2.47,4.27l-3.8,1.75a4.41,4.41,0,0,0,2.47-4.28c0-2.88-1.74-6.2-4.33-8.69a15.14,15.14,0,0,0-4.09-2.83,10.51,10.51,0,0,0-2.47-.79,16,16,0,0,0-4.89-8.65,17.21,17.21,0,0,0-4.74-3.28,12.08,12.08,0,0,0-3-.94,6.85,6.85,0,0,0-4,.4Z"/></g></g></g></mask><linearGradient id="linear-gradient-42" x1="-8823.6" y1="142.64" x2="-8832.38" y2="134.24" xlink:href="#linear-gradient-35"/><linearGradient id="linear-gradient-43" x1="-8817.27" y1="151.36" x2="-8822.39" y2="126.99" xlink:href="#linear-gradient-37"/><linearGradient id="linear-gradient-44" x1="160.71" y1="191.85" x2="163.63" y2="191.85" xlink:href="#linear-gradient-17"/></defs><g class="cls-14"><g id="Layer_1" data-name="Layer 1"><g class="cls-15"><path class="cls-16" d="M54.22,61.26c42.86,9.64,112.13,9.64,154.71,0s42.36-25.25-.5-34.89-112.13-9.63-154.72,0-42.35,25.26.51,34.89" transform="translate(-21.92 -19.14)"/><path class="cls-17" d="M57.23,73.21C98.42,83,165,83,205.9,73.21s40.71-25.62-.48-35.39-107.75-9.77-148.68,0S16,63.44,57.23,73.21" transform="translate(-21.92 -19.14)"/><path class="cls-18" d="M60.24,85.16c39.51,9.91,103.37,9.91,142.63,0s39-26-.46-35.89S99,39.36,59.77,49.27s-39.05,26,.47,35.89" transform="translate(-21.92 -19.14)"/><path class="cls-19" d="M63.25,97.11c37.84,10,99,10,136.59,0s37.4-26.34-.44-36.39-99-10-136.6,0-37.39,26.34.45,36.39" transform="translate(-21.92 -19.14)"/><path class="cls-20" d="M66.26,109.06c36.17,10.19,94.62,10.19,130.55,0s35.75-26.7-.42-36.89S101.77,62,65.83,72.17s-35.74,26.7.43,36.89" transform="translate(-21.92 -19.14)"/><path class="cls-21" d="M69.27,121c34.49,10.33,90.24,10.33,124.51,0s34.09-27.06-.4-37.39-90.25-10.32-124.52,0-34.09,27.07.41,37.39" transform="translate(-21.92 -19.14)"/><path class="cls-22" d="M72.28,133c32.82,10.46,85.86,10.46,118.47,0s32.44-27.43-.38-37.89-85.87-10.46-118.48,0S39.45,122.5,72.28,133" transform="translate(-21.92 -19.14)"/><path class="cls-23" d="M75.29,144.91c31.15,10.6,81.49,10.6,112.44,0s30.78-27.79-.37-38.39-81.49-10.6-112.44,0-30.78,27.79.37,38.39" transform="translate(-21.92 -19.14)"/><path class="cls-24" d="M78.3,156.86c29.47,10.74,77.11,10.74,106.4,0s29.13-28.15-.35-38.89S107.24,107.23,78,118s-29.13,28.15.35,38.89" transform="translate(-21.92 -19.14)"/><path class="cls-25" d="M81.31,168.81c27.8,10.88,72.73,10.88,100.36,0s27.47-28.51-.33-39.39-72.74-10.88-100.36,0-27.48,28.51.33,39.39" transform="translate(-21.92 -19.14)"/><path class="cls-26" d="M84.32,180.76c26.13,11,68.36,11,94.32,0s25.82-28.87-.31-39.89-68.36-11-94.32,0-25.83,28.87.31,39.89" transform="translate(-21.92 -19.14)"/><path class="cls-27" d="M87.33,192.71c24.45,11.15,64,11.15,88.28,0s24.17-29.24-.29-40.39-64-11.15-88.28,0-24.17,29.24.29,40.39" transform="translate(-21.92 -19.14)"/></g><g class="cls-14"><polygon class="cls-28" points="44.06 168.63 44.05 173.21 43.98 162.91 43.99 158.34 44.06 168.63"/><polygon class="cls-29" points="174.82 168.63 174.81 173.21 120.86 197.97 120.87 193.4 174.82 168.63"/><polygon class="cls-30" points="98.36 193.4 98.35 197.97 44.05 173.21 44.06 168.63 98.36 193.4"/><polygon class="cls-31" points="120.87 193.4 120.86 197.97 98.35 197.97 98.36 193.4 120.87 193.4"/><polygon class="cls-32" points="174.75 158.33 174.82 168.63 120.87 193.4 98.36 193.4 44.06 168.63 43.99 158.34 97.94 133.57 120.45 133.57 174.75 158.33"/></g><g class="cls-14"><polygon class="cls-33" points="44.06 162.06 44.05 167.53 43.98 156.34 43.99 151.76 44.06 162.06"/><polygon class="cls-34" points="174.82 162.06 174.81 167.53 120.86 192.29 120.87 186.82 174.82 162.06"/><polygon class="cls-34" points="98.36 186.82 98.35 192.29 44.05 167.53 44.06 162.06 98.36 186.82"/><polygon class="cls-33" points="120.87 186.82 120.86 192.29 98.35 192.29 98.36 186.82 120.87 186.82"/><polygon class="cls-33" points="174.75 151.76 174.82 162.06 120.87 186.82 98.36 186.82 44.06 162.06 43.99 151.76 97.94 127 120.45 127 174.75 151.76"/><path class="cls-33" d="M121.77,202.85h-.42L69.92,179.4l0-6.7,51.05-23.43h20.39l51.42,23.44,0,6.71-51.06,23.43ZM73.07,178l49.12,22.4h18.69L189.62,178l0-3.83-49.12-22.4H121.78L73,174.13Z" transform="translate(-21.92 -19.14)"/></g><g class="cls-14"><polygon class="cls-28" points="44.06 157.15 44.05 161.21 43.98 151.42 43.99 146.85 44.06 157.15"/><polygon class="cls-35" points="174.82 157.15 174.81 161.21 120.86 185.97 120.87 181.91 174.82 157.15"/><polygon class="cls-36" points="98.36 181.91 98.35 185.97 44.05 161.21 44.06 157.15 98.36 181.91"/><polygon class="cls-37" points="120.87 181.91 120.86 185.97 98.35 185.97 98.36 181.91 120.87 181.91"/><polygon class="cls-38" points="174.75 146.85 174.82 157.15 120.87 181.91 98.36 181.91 44.06 157.15 43.99 146.85 97.94 122.09 120.45 122.09 174.75 146.85"/><path class="cls-34" d="M121.77,197.94h-.42L69.92,174.49l0-6.71,51.05-23.43h20.39l51.42,23.45,0,6.7-51.06,23.44ZM73.07,173l49.12,22.4h18.69l48.74-22.37,0-3.83-49.12-22.4H121.78L73,169.21Z" transform="translate(-21.92 -19.14)"/></g><path class="cls-39" d="M127.56,164.24c-.32-50.86-16.39-50.68-16.69,0,.74,2.08,4.2,3.66,8.35,3.66S126.82,166.32,127.56,164.24Z" transform="translate(-21.92 -19.14)"/><path class="cls-40" d="M156.24,164.24c-.31-50.86-16.38-50.68-16.68,0,.74,2.08,4.2,3.66,8.34,3.66S155.51,166.32,156.24,164.24Z" transform="translate(-21.92 -19.14)"/><g class="cls-14"><g class="cls-14"><path class="cls-13" d="M150,118.09l-.29,34.74c0,1.79-1.49,3.57-4.47,4.94-6,2.74-15.71,2.74-21.74,0-3-1.39-4.55-3.2-4.54-5l.28-34.74c0,1.82,1.51,3.63,4.54,5,6,2.75,15.76,2.75,21.75,0C148.45,121.67,149.94,119.88,150,118.09Z" transform="translate(-21.92 -19.14)"/><g class="cls-41"><path class="cls-42" d="M149.84,118.9h0c-.37,1.47-1.76,2.9-4.18,4l-.18.08a20.21,20.21,0,0,1-3.37,1.17,31.46,31.46,0,0,1-9.67.82,25.32,25.32,0,0,1-8.71-2c-3-1.38-4.54-3.19-4.54-5l-.28,34.74c0,1.81,1.51,3.62,4.54,5a25.55,25.55,0,0,0,8.71,2,31.77,31.77,0,0,0,9.67-.82,20.09,20.09,0,0,0,3.36-1.17l.19-.09c2.41-1.15,3.81-2.57,4.18-4.05l.16-1.11-.16,1.11a3.13,3.13,0,0,0,.1-.8l.29-34.74A3.22,3.22,0,0,1,149.84,118.9Z" transform="translate(-21.92 -19.14)"/></g></g><path class="cls-43" d="M145.41,113.08c6,2.75,6.05,7.21.07,10s-15.72,2.75-21.75,0-6-7.2-.07-9.94S139.38,110.34,145.41,113.08Z" transform="translate(-21.92 -19.14)"/></g><g class="cls-14"><g class="cls-14"><path class="cls-13" d="M149.53,84l-.27,33.6c0,1.73-1.45,3.46-4.32,4.78-5.79,2.66-15.21,2.66-21,0-2.93-1.33-4.4-3.09-4.39-4.84l.27-33.6c0,1.75,1.46,3.5,4.39,4.84,5.83,2.66,15.25,2.66,21,0C148.09,87.49,149.53,85.76,149.53,84Z" transform="translate(-21.92 -19.14)"/><g class="cls-44"><path class="cls-45" d="M149.43,84.81h0c-.36,1.43-1.71,2.81-4,3.92l-.18.08A18.91,18.91,0,0,1,142,89.94a30.65,30.65,0,0,1-9.35.8,24.73,24.73,0,0,1-8.43-1.93c-2.93-1.34-4.39-3.09-4.39-4.84l-.27,33.6c0,1.75,1.46,3.51,4.39,4.84a24.45,24.45,0,0,0,8.43,1.93,30.68,30.68,0,0,0,9.35-.79,19.22,19.22,0,0,0,3.26-1.14l.18-.08c2.33-1.11,3.68-2.49,4-3.92l.16-1.08-.16,1.08a3.47,3.47,0,0,0,.1-.78l.27-33.6A3,3,0,0,1,149.43,84.81Z" transform="translate(-21.92 -19.14)"/></g></g><path class="cls-43" d="M145.14,79.19c5.83,2.66,5.86,7,.07,9.62s-15.21,2.66-21,0-5.86-7-.07-9.62S139.31,76.53,145.14,79.19Z" transform="translate(-21.92 -19.14)"/></g><path class="cls-46" d="M143.43,62.32c-5-2.28-13.13-2.28-18.11,0-4,1.84-3.73,4.11-3.73,4.11V83c0,5.25,14.16,7.89,22.12,4.07,1.7-.83,3.22-2,3.46-3.6.05-.33,0,1.07,0-17C147.21,67,147.81,64.32,143.43,62.32Z" transform="translate(-21.92 -19.14)"/><g class="cls-14"><g class="cls-14"><path class="cls-13" d="M149.29,57.08l0,13.3c0,1.73-1.45,3.46-4.32,4.78-5.79,2.66-15.21,2.66-21,0-2.93-1.34-4.4-3.1-4.39-4.85l0-13.3c0,1.75,1.46,3.51,4.39,4.84,5.83,2.66,15.25,2.66,21,0C147.85,60.53,149.29,58.81,149.29,57.08Z" transform="translate(-21.92 -19.14)"/><g class="cls-47"><g class="cls-14"><path class="cls-13" d="M149.29,57.08l0,13.3a3.47,3.47,0,0,1-.1.78l0-13.31a3,3,0,0,0,.1-.77Z" transform="translate(-21.92 -19.14)"/><path class="cls-13" d="M149.19,57.85l0,13.31c-.36,1.42-1.71,2.8-4,3.91l0-13.3c2.34-1.11,3.68-2.49,4-3.92Z" transform="translate(-21.92 -19.14)"/><path class="cls-13" d="M141.71,63l0,13.3a30.37,30.37,0,0,1-9.35.79l0-13.3a30.65,30.65,0,0,0,9.35-.79Z" transform="translate(-21.92 -19.14)"/><path class="cls-13" d="M132.36,63.78l0,13.3a24.68,24.68,0,0,1-8.43-1.92c-2.93-1.34-4.4-3.1-4.39-4.85l0-13.3c0,1.75,1.46,3.51,4.39,4.84a24.5,24.5,0,0,0,8.43,1.93Z" transform="translate(-21.92 -19.14)"/></g></g></g><path class="cls-13" d="M144.9,52.23c5.83,2.66,5.86,7,.07,9.62s-15.21,2.66-21,0-5.85-7-.06-9.62S139.07,49.57,144.9,52.23Z" transform="translate(-21.92 -19.14)"/></g><path class="cls-48" d="M149.29,58C148.73,33.1,120,33.4,119.51,58c1.32,3.45,7.48,6.06,14.89,6.06S148,61.49,149.29,58Z" transform="translate(-21.92 -19.14)"/><path class="cls-48" d="M142.53,42.25A12.65,12.65,0,0,1,132,45.05c-2.26-.51-4.52-1-5.85-2.63-3.74,3-6.46,8.19-6.62,15.62,1.32,3.45,7.48,6.06,14.89,6.06S148,61.49,149.29,58C149.12,50.44,146.33,45.19,142.53,42.25Z" transform="translate(-21.92 -19.14)"/><path class="cls-49" d="M132,45.05a12.65,12.65,0,0,0,10.55-2.8,13.11,13.11,0,0,0-16.4.17C127.46,44,129.72,44.54,132,45.05Z" transform="translate(-21.92 -19.14)"/><g class="cls-14"><g class="cls-14"><path class="cls-13" d="M149.29,57.08l0,13.3c0,1.73-1.45,3.46-4.32,4.78-5.79,2.66-15.21,2.66-21,0-2.93-1.34-4.4-3.1-4.39-4.85l0-13.3c0,1.75,1.46,3.51,4.39,4.84,5.83,2.66,15.25,2.66,21,0C147.85,60.53,149.29,58.81,149.29,57.08Z" transform="translate(-21.92 -19.14)"/><g class="cls-47"><g class="cls-14"><path class="cls-13" d="M149.29,57.08l0,13.3a3.47,3.47,0,0,1-.1.78l0-13.31a3,3,0,0,0,.1-.77Z" transform="translate(-21.92 -19.14)"/><path class="cls-13" d="M149.19,57.85l0,13.31c-.36,1.42-1.71,2.8-4,3.91l0-13.3c2.34-1.11,3.68-2.49,4-3.92Z" transform="translate(-21.92 -19.14)"/><path class="cls-13" d="M141.71,63l0,13.3a30.37,30.37,0,0,1-9.35.79l0-13.3a30.65,30.65,0,0,0,9.35-.79Z" transform="translate(-21.92 -19.14)"/><path class="cls-13" d="M132.36,63.78l0,13.3a24.68,24.68,0,0,1-8.43-1.92c-2.93-1.34-4.4-3.1-4.39-4.85l0-13.3c0,1.75,1.46,3.51,4.39,4.84a24.5,24.5,0,0,0,8.43,1.93Z" transform="translate(-21.92 -19.14)"/></g></g></g><path class="cls-13" d="M144.9,52.23c5.83,2.66,5.86,7,.07,9.62s-15.21,2.66-21,0-5.85-7-.06-9.62S139.07,49.57,144.9,52.23Z" transform="translate(-21.92 -19.14)"/></g><path class="cls-50" d="M149.24,65.33c0-.12,0-.24,0-.36h0l0-1.68c0,.12,0,.24,0,.36a.36.36,0,0,1,0,.11,1.84,1.84,0,0,1-.05.25c0,.06,0,.12,0,.18l0,.1-.09.24a.14.14,0,0,0,0,.06l-.14.29,0,.08a2.39,2.39,0,0,1-.13.21l-.06.11-.14.19-.08.1a1.46,1.46,0,0,1-.16.19.39.39,0,0,1-.08.1l-.23.24,0,0-.3.27-.09.08-.24.19-.12.1-.24.17-.13.1-.27.17-.13.09-.41.24h0c-.14.09-.3.17-.45.25l-.15.07-.41.2a18.88,18.88,0,0,1-3.45,1.17l-.44.11-.79.16-.48.09-.81.13-.47.07-.93.1-.36,0q-.66.06-1.32.09h-.24q-.54,0-1.08,0h-.46c-.29,0-.58,0-.88,0l-.5,0c-.28,0-.57,0-.85-.06l-.46,0-.95-.11-.34,0c-.42-.06-.84-.12-1.25-.2l-.26,0c-.32-.07-.64-.13-1-.21l-.4-.1c-.27-.06-.53-.13-.79-.21l-.41-.12-.77-.26L125,68.5c-.36-.14-.71-.28-1-.43-2.93-1.34-4.39-3.1-4.39-4.85l0,1.68c0,1.76,1.46,3.51,4.39,4.85.33.15.68.29,1,.43l.35.12.77.26.41.12q.39.12.78.21l.41.11,1,.2.27,0c.41.08.83.14,1.25.2l.33,0,1,.11.45,0,.46,0,.4,0,.5,0,.88,0h.45l1.09,0h.24c.44,0,.88,0,1.31-.09l.37,0,.93-.11.47-.07.81-.13.48-.08.79-.17.44-.1.19-.05h0a19.2,19.2,0,0,0,3.26-1.12l.18-.09h0l.23-.12.14-.07.46-.24h0l.42-.24.12-.08.27-.18.14-.1.23-.17.13-.09.23-.19.1-.08.29-.28,0,0,.23-.25.08-.09.16-.2.08-.1.13-.19.07-.1.13-.22a.59.59,0,0,0,0-.08,2.59,2.59,0,0,0,.14-.29.14.14,0,0,0,0-.06,1.17,1.17,0,0,0,.09-.24l0-.1s0-.08,0-.12,0,0,0-.06,0-.16.05-.24A.5.5,0,0,1,149.24,65.33Z" transform="translate(-21.92 -19.14)"/><path class="cls-51" d="M149.24,60.15c0-.12,0-.24,0-.36h0l0-1.68c0,.12,0,.24,0,.36a.36.36,0,0,1,0,.11,1.84,1.84,0,0,1-.05.25c0,.06,0,.12,0,.18l0,.1-.09.24a.14.14,0,0,0,0,.06l-.14.29,0,.08a2.39,2.39,0,0,1-.13.21l-.06.11-.14.19-.08.1a1.46,1.46,0,0,1-.16.19.39.39,0,0,1-.08.1l-.23.24,0,0-.3.27-.09.08-.24.19-.12.1-.24.17-.13.1-.27.17a.57.57,0,0,1-.13.08c-.13.09-.27.17-.41.25h0c-.14.09-.3.17-.45.25l-.15.07-.41.2a18.88,18.88,0,0,1-3.45,1.17l-.44.11-.79.16-.48.09-.81.13-.47.07-.93.1-.36,0q-.66.06-1.32.09h-.24q-.54,0-1.08,0h-.46l-.88,0-.5,0c-.28,0-.57,0-.85-.06l-.46,0-.95-.11-.34,0-1.25-.2-.26,0-1-.21-.4-.1c-.27-.06-.53-.13-.79-.21l-.41-.12-.77-.26-.34-.12c-.36-.14-.71-.28-1-.43-2.93-1.34-4.39-3.1-4.39-4.85l0,1.68c0,1.76,1.46,3.51,4.39,4.85.33.15.68.29,1,.43l.35.12.77.26.41.12q.39.12.78.21l.41.1c.31.08.63.15,1,.21l.27,0c.41.08.83.14,1.25.2l.33,0,1,.11.45,0,.46,0,.4,0,.5,0h1.33l1.09,0h.24c.44,0,.88,0,1.31-.09l.37,0,.93-.1.47-.07.81-.13.48-.08.79-.17.44-.1.19,0h0a20.12,20.12,0,0,0,3.26-1.12l.18-.09h0l.23-.11.14-.07.46-.24h0l.42-.24.12-.08.27-.18.14-.1.23-.17.13-.09.23-.19.1-.09.29-.27,0,0,.23-.25.08-.09.16-.2.08-.1.13-.19a.86.86,0,0,1,.07-.1l.13-.22a.59.59,0,0,0,0-.08,2.59,2.59,0,0,0,.14-.29.14.14,0,0,0,0-.06,1.17,1.17,0,0,0,.09-.24l0-.1s0-.08,0-.12,0,0,0-.06,0-.16.05-.24A.5.5,0,0,1,149.24,60.15Z" transform="translate(-21.92 -19.14)"/><path class="cls-52" d="M127.56,172.7c-.32-50.85-16.39-50.68-16.69,0,.74,2.08,4.2,3.66,8.35,3.66S126.82,174.78,127.56,172.7Z" transform="translate(-21.92 -19.14)"/><path class="cls-53" d="M127.4,173.06c0-.8,0-1.59,0-2.36-.8,1.87-4.18,3.28-8.23,3.28s-7.45-1.41-8.24-3.28l0,2.36c.73,1.92,4.16,3.36,8.28,3.36s7.53-1.44,8.27-3.36Z" transform="translate(-21.92 -19.14)"/><path class="cls-54" d="M126,172.22a12.46,12.46,0,0,1-6.89,1.76,14,14,0,0,1-5.81-1.14c0,.79,0,1.6,0,2.42a14,14,0,0,0,5.86,1.16,12.43,12.43,0,0,0,7-1.8Q126.05,173.41,126,172.22Z" transform="translate(-21.92 -19.14)"/><path class="cls-55" d="M156.24,172.7c-.31-50.85-16.38-50.68-16.68,0,.74,2.08,4.2,3.66,8.34,3.66S155.51,174.78,156.24,172.7Z" transform="translate(-21.92 -19.14)"/><path class="cls-56" d="M156.28,173c0-.8,0-1.59,0-2.36-.8,1.87-4.19,3.28-8.24,3.28s-7.44-1.41-8.24-3.28l0,2.36c.73,1.91,4.15,3.36,8.27,3.36s7.54-1.45,8.27-3.36Z" transform="translate(-21.92 -19.14)"/><path class="cls-57" d="M154.9,172.17a12.54,12.54,0,0,1-6.89,1.76,14.17,14.17,0,0,1-5.81-1.14c0,.79,0,1.6,0,2.42a14,14,0,0,0,5.86,1.16,12.4,12.4,0,0,0,7-1.8C154.94,173.76,154.92,173,154.9,172.17Z" transform="translate(-21.92 -19.14)"/><path class="cls-58" d="M142.23,179c-.32-50.85-16.38-50.67-16.68,0,.73,2.09,4.19,3.67,8.34,3.67S141.49,181.1,142.23,179Z" transform="translate(-21.92 -19.14)"/><path class="cls-59" d="M142.24,179.37c0-.81,0-1.61,0-2.39-.81,1.9-4.23,3.32-8.33,3.32s-7.53-1.42-8.34-3.32l0,2.39c.74,1.94,4.2,3.4,8.37,3.4s7.62-1.46,8.36-3.4Z" transform="translate(-21.92 -19.14)"/><path class="cls-60" d="M140.85,178.52a12.64,12.64,0,0,1-7,1.78,14.31,14.31,0,0,1-5.88-1.15c0,.8,0,1.61,0,2.44a14.12,14.12,0,0,0,5.93,1.18,12.58,12.58,0,0,0,7-1.82C140.89,180.13,140.87,179.31,140.85,178.52Z" transform="translate(-21.92 -19.14)"/><path class="cls-61" d="M149.43,111.6h0c-.36,1.42-1.71,2.81-4,3.91l-.18.09a18.91,18.91,0,0,1-3.26,1.13,30.34,30.34,0,0,1-9.35.79,24.73,24.73,0,0,1-8.43-1.92c-2.93-1.34-4.39-3.09-4.39-4.85l-.27,2.14c0,1.75,1.46,3.51,4.39,4.85a24.68,24.68,0,0,0,8.43,1.92,30.37,30.37,0,0,0,9.35-.79,20.13,20.13,0,0,0,3.26-1.13l.18-.09c2.33-1.11,3.68-2.49,4-3.91l.16-1.08-.16,1.08a3.47,3.47,0,0,0,.1-.78l.27-2.14A3,3,0,0,1,149.43,111.6Z" transform="translate(-21.92 -19.14)"/><path class="cls-62" d="M149.43,104.19h0c-.36,1.42-1.71,2.8-4,3.91l-.18.09a19.8,19.8,0,0,1-3.26,1.13,30.65,30.65,0,0,1-9.35.79,24.73,24.73,0,0,1-8.43-1.92c-2.93-1.34-4.39-3.1-4.39-4.85l-.27,2.14c0,1.75,1.46,3.51,4.39,4.84a24.45,24.45,0,0,0,8.43,1.93,30.68,30.68,0,0,0,9.35-.79,19.22,19.22,0,0,0,3.26-1.14l.18-.08c2.33-1.11,3.68-2.49,4-3.92l.16-1.07-.16,1.07a3.39,3.39,0,0,0,.1-.77l.27-2.14A2.86,2.86,0,0,1,149.43,104.19Z" transform="translate(-21.92 -19.14)"/><path class="cls-63" d="M149.43,96.4h0c-.36,1.43-1.71,2.81-4,3.92l-.18.08a18.92,18.92,0,0,1-3.26,1.14,30.65,30.65,0,0,1-9.35.79,24.5,24.5,0,0,1-8.43-1.93c-2.93-1.33-4.39-3.09-4.39-4.84l-.27,2.14c0,1.75,1.46,3.5,4.39,4.84a24.68,24.68,0,0,0,8.43,1.93,30.68,30.68,0,0,0,9.35-.8,19.21,19.21,0,0,0,3.26-1.13l.18-.08c2.33-1.11,3.68-2.49,4-3.92l.16-1.08-.16,1.08a3.47,3.47,0,0,0,.1-.78l.27-2.14A3,3,0,0,1,149.43,96.4Z" transform="translate(-21.92 -19.14)"/><g class="cls-14"><g class="cls-64"><path class="cls-65" d="M69.92,96.72a5.86,5.86,0,0,1,3.44-.35,10.39,10.39,0,0,1,2.57.81,13.63,13.63,0,0,1,2.46,1.46l-3.8,1.74a13.93,13.93,0,0,0-2.46-1.45,10,10,0,0,0-2.57-.81,5.86,5.86,0,0,0-3.44.34Z" transform="translate(-21.92 -19.14)"/></g><g class="cls-66"><path class="cls-67" d="M81.13,95a6.84,6.84,0,0,1,4-.4,12.28,12.28,0,0,1,3,.94,17.09,17.09,0,0,1,4.73,3.28,16,16,0,0,1,4.89,8.65,10.51,10.51,0,0,1,2.47.79,14.92,14.92,0,0,1,4.09,2.83c2.59,2.49,4.34,5.8,4.33,8.69a4.39,4.39,0,0,1-2.47,4.27l-3.8,1.75a4.39,4.39,0,0,0,2.46-4.28c0-2.88-1.73-6.2-4.33-8.69A14.83,14.83,0,0,0,96.37,110a10.51,10.51,0,0,0-2.47-.79A16.09,16.09,0,0,0,89,100.53a17.36,17.36,0,0,0-4.74-3.28,11.62,11.62,0,0,0-3-.93,6.76,6.76,0,0,0-4,.4Z" transform="translate(-21.92 -19.14)"/></g><g class="cls-68"><path class="cls-69" d="M84.27,97.25c-4.89-2.23-9-.81-9.68,3.13a13.93,13.93,0,0,0-2.46-1.45c-4.66-2.13-8.46-.43-8.47,3.81s3.75,9.39,8.42,11.51l24.23,11c4.66,2.13,8.46.42,8.47-3.81S101,112.1,96.37,110a10.51,10.51,0,0,0-2.47-.79C93.21,104.6,89.17,99.49,84.27,97.25Z" transform="translate(-21.92 -19.14)"/></g></g><g class="cls-14"><g class="cls-70"><path class="cls-71" d="M154,87.25a4.4,4.4,0,0,1,2.57-.26,7.45,7.45,0,0,1,1.92.61,10.68,10.68,0,0,1,1.84,1.08L157.48,90a10.12,10.12,0,0,0-1.84-1.09,7.86,7.86,0,0,0-1.92-.61,4.48,4.48,0,0,0-2.57.26Z" transform="translate(-21.92 -19.14)"/></g><g class="cls-72"><path class="cls-73" d="M162.37,85.94a5.22,5.22,0,0,1,3-.3,9,9,0,0,1,2.23.71,12.84,12.84,0,0,1,3.54,2.45,12.07,12.07,0,0,1,3.66,6.47,7.67,7.67,0,0,1,1.84.59A11.31,11.31,0,0,1,179.67,98a9.74,9.74,0,0,1,3.24,6.5,3.29,3.29,0,0,1-1.85,3.2L178.22,109a3.29,3.29,0,0,0,1.84-3.2,9.68,9.68,0,0,0-3.24-6.5,10.9,10.9,0,0,0-3-2.11,7.65,7.65,0,0,0-1.85-.6,12,12,0,0,0-3.65-6.47,13,13,0,0,0-3.55-2.45,9.13,9.13,0,0,0-2.22-.7,5,5,0,0,0-3,.3Z" transform="translate(-21.92 -19.14)"/></g><g class="cls-68"><path class="cls-74" d="M164.72,87.65C161.06,86,158,87,157.48,90a10.12,10.12,0,0,0-1.84-1.09c-3.49-1.59-6.33-.31-6.34,2.85s2.81,7,6.3,8.61l18.12,8.27c3.49,1.59,6.33.31,6.34-2.85s-2.81-7-6.29-8.61a7.65,7.65,0,0,0-1.85-.6C171.4,93.14,168.38,89.32,164.72,87.65Z" transform="translate(-21.92 -19.14)"/></g></g><g class="cls-14"><g class="cls-75"><path class="cls-76" d="M163.42,125.63a5.94,5.94,0,0,1,3.44-.34,10,10,0,0,1,2.57.81,14,14,0,0,1,2.47,1.45l-3.81,1.75a14,14,0,0,0-2.46-1.46,10.83,10.83,0,0,0-2.57-.81,5.86,5.86,0,0,0-3.44.35Z" transform="translate(-21.92 -19.14)"/></g><g class="cls-77"><path class="cls-78" d="M174.63,123.89a6.86,6.86,0,0,1,4-.4,12.28,12.28,0,0,1,3,.94,17.25,17.25,0,0,1,4.74,3.27,16.11,16.11,0,0,1,4.88,8.66,10.51,10.51,0,0,1,2.47.79,15.1,15.1,0,0,1,4.09,2.82c2.59,2.5,4.34,5.81,4.33,8.7a4.4,4.4,0,0,1-2.47,4.27l-3.8,1.75a4.41,4.41,0,0,0,2.47-4.28c0-2.88-1.74-6.2-4.33-8.69a15.14,15.14,0,0,0-4.09-2.83,10.51,10.51,0,0,0-2.47-.79,16,16,0,0,0-4.89-8.65,17.21,17.21,0,0,0-4.74-3.28,12.08,12.08,0,0,0-3-.94,6.85,6.85,0,0,0-4,.4Z" transform="translate(-21.92 -19.14)"/></g><g class="cls-68"><path class="cls-79" d="M177.77,126.17c-4.89-2.23-9-.81-9.68,3.13a14,14,0,0,0-2.46-1.46c-4.66-2.12-8.46-.42-8.47,3.82s3.75,9.38,8.42,11.51l24.23,11.05c4.66,2.13,8.46.42,8.48-3.81s-3.76-9.39-8.42-11.52a10.51,10.51,0,0,0-2.47-.79C186.71,133.52,182.67,128.4,177.77,126.17Z" transform="translate(-21.92 -19.14)"/></g></g><path class="cls-80" d="M187.41,177.17c.19-.16-.21-.26-.31-.47-.21-.44,0-.9-.81-1.45-.09-.07-.17-.2-.3-.23-.5-.12-.64.09-.66.38-.84-.29-2.17-1.76-2.39-1.13-.11.3,1.28,1.08,1.5,1.3a5,5,0,0,0-.51-.27c-.23-.14-.67-.38-.79-.1s.12.35.31.49.35.24.29.22c-.24-.09-.62-.36-.75,0-.05.14,0,.24.16.33s.27.21.31.22c-.36-.11-.66.17-.32.41a7.91,7.91,0,0,0,3.05,1.28l.06,0,0,0,.08-.1c.09-.1.14-.06.22-.16S187.2,177.36,187.41,177.17Z" transform="translate(-21.92 -19.14)"/><path class="cls-81" d="M200.75,184.05c-.65-1.23-6.6-3.92-6.6-3.92-.93-.54-4-2.22-6.4-3.59a3.4,3.4,0,0,0-2.51,1.79,42.57,42.57,0,0,1,3.24,3.12,14.78,14.78,0,0,0,2.88,1.93h.07l2.06,1.25c2.09,1,4.21,2.1,6.61,2.09C200.1,186.73,201.41,185.28,200.75,184.05Z" transform="translate(-21.92 -19.14)"/><path class="cls-80" d="M193.16,182.14v.17l0,1.46a2.64,2.64,0,0,0,.44.41h.15c1.36-.11,3-.34,3-1.13l0,0-.07-1.12h-.16l-2.44.17Z" transform="translate(-21.92 -19.14)"/><path class="cls-82" d="M197.27,182.84c.2.16.11,1.63.09,1.86-.07.61-.2-.25-.91,0a5,5,0,0,1-2.27.1,1.61,1.61,0,0,1-.92-.35c-.3-.25-.3-1.25,0-1.27a11.11,11.11,0,0,1,1.15,0,5.45,5.45,0,0,0,1.85-.25C196.65,182.81,196.81,182.49,197.27,182.84Z" transform="translate(-21.92 -19.14)"/><path class="cls-83" d="M200.57,217.89s.24,1.58-.45,2a2.74,2.74,0,0,1-1.67-.18c-.51-.17-1-.51-1.54-.65a3.11,3.11,0,0,1-2.28-1.8c-1.06-1.71,1.31-.92,2.83-.22A9.23,9.23,0,0,0,200.57,217.89Z" transform="translate(-21.92 -19.14)"/><path class="cls-81" d="M195.17,206.31c.13.9.37,1.8.55,2.7.11.51.07.9.19,1.42.23,1,.17,5.84.17,7.49,0,.33,4.55,1.4,4.67.91A30.29,30.29,0,0,0,201,213c-.17-1.09-.52-11.41-.43-12.09.14-1.1,0-2.95-1.17-3.53-1.78-.88-4,1.06-4.51,1.91C194.14,200.47,194.59,202.24,195.17,206.31Z" transform="translate(-21.92 -19.14)"/><path class="cls-83" d="M195,220.05s.73,1.48.22,2.07a2.85,2.85,0,0,1-1.67.2c-.54,0-1.15-.27-1.69-.28a3.53,3.53,0,0,1-2.78-1.23c-1.56-1.41,1-1.18,2.67-.84A9.66,9.66,0,0,0,195,220.05Z" transform="translate(-21.92 -19.14)"/><path class="cls-84" d="M189.75,206.35h0c1.41,9,.9,7.77.94,14.15,0,.52.16.42,2.18.66a5.68,5.68,0,0,0,1.3.07c1.31-.13,1.5-.9,1.53-1.74s.35-11.38-2.67-11.4A16.71,16.71,0,0,1,189.75,206.35Z" transform="translate(-21.92 -19.14)"/><path class="cls-84" d="M189.44,200.29c.13,2.28.14,4.47.31,6.06h0a5.77,5.77,0,0,0,1.19,3.24c.46.82.4,1.43,1,1.84a1.77,1.77,0,0,0,1.66.06c.51-.24,1.19,1.71,1.38,1.24a16.18,16.18,0,0,0,.26-2.51c.24-3.95,2.37-6.55,1.91-9.77C197.13,200.28,189.44,200.29,189.44,200.29Z" transform="translate(-21.92 -19.14)"/><path class="cls-84" d="M188.23,186.39l.29,1.49,0,.17c.23,1.3.55,3.11.69,4.42,0,.43.08.81.09,1.1,0,1.42-.25,5.35-.34,6.59a.63.63,0,0,0,.4.6,7.52,7.52,0,0,0,.79.34,7.73,7.73,0,0,0,1.4.32c.35.05.72.08,1.13.1a24.59,24.59,0,0,0,4.78-.15,7.79,7.79,0,0,0,3.09-1,.69.69,0,0,0,.33-.53h0c0-1.35-.86-5.05-.87-6.5,0-2.47,1.13-6.63,1.05-8-.07-1.16-.59-2.56-3.78-2.24l-4.2.76C192.23,184.19,188.58,184.71,188.23,186.39Z" transform="translate(-21.92 -19.14)"/><path class="cls-80" d="M191.92,181.17a2.54,2.54,0,0,0,1.25,1.14,2.37,2.37,0,0,0,.66.17l.13,0a1.58,1.58,0,0,0,.65-.09c.39-.16,1.8,0,1.94-.28a1.55,1.55,0,0,0,.07-.23c.15-.84-.58-2.11-.75-2.91a3.35,3.35,0,0,0-1.46-1.92,6.22,6.22,0,0,0-2.11-.94l-.39.37-.31.3a8.1,8.1,0,0,1,0,2.2A4.05,4.05,0,0,0,191.92,181.17Z" transform="translate(-21.92 -19.14)"/><path class="cls-80" d="M191.6,179a8.1,8.1,0,0,0,0-2.2l.31-.3.13.47a6.13,6.13,0,0,0,0,3.5,2.41,2.41,0,0,0,.7,1.21,1.69,1.69,0,0,0,1.55.34l-.09,0a1,1,0,0,0-.35.41,1.29,1.29,0,0,0-.1.42,2.44,2.44,0,0,0,0,.27,1.55,1.55,0,0,0-.48,0l-.07,0,0-.87a2.54,2.54,0,0,1-1.25-1.14A4.05,4.05,0,0,1,191.6,179Z" transform="translate(-21.92 -19.14)"/><path class="cls-85" d="M191.08,176.63c.07.44.55.41.85.79s.36.83.7,1.27c.12.17.62,1.68,1.2,1.41.84-.39-.12,1.41,1.43,2.06a3.74,3.74,0,0,0,1.29,0,1,1,0,0,0,.43-.24l0,0a14.7,14.7,0,0,0,2.39-2.18,3.41,3.41,0,0,0,.36-1.8,2.66,2.66,0,0,0-.81-1.5,4,4,0,0,0-1.49-1.08,7.81,7.81,0,0,0-3.62-.4l-.47.06-.81.17-.34.14c-1.14.5-1.12,1-1.13,1.05A1.44,1.44,0,0,0,191.08,176.63Z" transform="translate(-21.92 -19.14)"/><path class="cls-80" d="M193.9,180c-.34.34-.35.78,0,1a1,1,0,0,0,1.2-.27c.34-.34.35-.78,0-1A1,1,0,0,0,193.9,180Z" transform="translate(-21.92 -19.14)"/><path class="cls-84" d="M193.49,183.47a4.56,4.56,0,0,0-.75.18.56.56,0,0,0-.35.39,16.83,16.83,0,0,0,3.8-.28,3.88,3.88,0,0,0,1.81-.71c.34-.45-1.73,0-1.95.08-.83.18-1.72.19-2.56.34Z" transform="translate(-21.92 -19.14)"/><path class="cls-86" d="M199.15,178.15a3.57,3.57,0,0,1-1.7,3.21c-.17.12-.37.25-.43.42a.15.15,0,0,0,0,.09,14.7,14.7,0,0,0,2.39-2.18,3.41,3.41,0,0,0,.36-1.8,2.66,2.66,0,0,0-.81-1.5,4,4,0,0,0-1.49-1.08,7.81,7.81,0,0,0-3.62-.4,10.59,10.59,0,0,1,2.84.42A3.56,3.56,0,0,1,199.15,178.15Z" transform="translate(-21.92 -19.14)"/><path class="cls-80" d="M186.35,200.46l-1.14-.12-.13.88a5.24,5.24,0,0,0-.41.39c-.27.35-.38.76-.65,1.12-.07.1-.39.41-.35.54a.12.12,0,0,0,.1,0c.49.13.73-.25.9-.56,0,.16-.09.32-.13.48s-.35,1.14-.06,1.18.21-.15.25-.23a6.49,6.49,0,0,0,.42-1.11c-.07.33-.16.65-.23,1,0,.15-.14.73.14.77a.21.21,0,0,0,.19-.1,3.52,3.52,0,0,0,.26-.91l-.06.6c0,.09,0,.27.12.32s.28-.11.31-.21a5.47,5.47,0,0,0,.28-1.18,9,9,0,0,0,.05,1.06h0c0,.06.06.08.13,0a.34.34,0,0,0,.14-.2c.17-.47.28-.74.45-1.2a2.84,2.84,0,0,0,.16-.7c0-.24.06-.43.1-.67s0-.32.05-.51h0l.24-.52C187.1,200.57,186.73,200.5,186.35,200.46Z" transform="translate(-21.92 -19.14)"/><path class="cls-87" d="M191,185.86a1.68,1.68,0,0,0-1.88-.54,1.76,1.76,0,0,0-.84,1l-2,7.11c-.22.89-1.25,5.25-1.78,7.58a4.08,4.08,0,0,0,3.13,1c1-2,2.17-4.36,2.59-5.12a10.05,10.05,0,0,0,1-2.89l0-.05.56-2C192,189.84,192.37,187.67,191,185.86Z" transform="translate(-21.92 -19.14)"/><path class="cls-88" d="M162.36,189.51c.56.09,1.11.22,1.23.25a18.29,18.29,0,0,1,2.46,1.35,49.79,49.79,0,0,0,6.08,1.08c0-.44-.81,2.94-.83,3s-4.3-2.37-4.66-2.48a9,9,0,0,0-1.62-.21,2.52,2.52,0,0,0-.32-.86,2.25,2.25,0,0,0-1.14-.7c-.24-.26-.37-.46-.53-.53a6.55,6.55,0,0,0-.67-.2Z" transform="translate(-21.92 -19.14)"/><path class="cls-89" d="M179.11,194.36c-17.48,29.89-2.72,2.64-4.22,3.95a3.21,3.21,0,0,1-3.38-2.75c1-1.07,3.15-2.67,4.57-3.82S180.13,192.62,179.11,194.36Z" transform="translate(-21.92 -19.14)"/><path class="cls-90" d="M169.79,228.67c1,.33,2.17,1,3.23.48.76-.39.38-1.32,0-2a2.26,2.26,0,0,0-1.59-1.24,1.29,1.29,0,0,0-.93,0c-.75.59-2.35.51-3.37.49a4.12,4.12,0,0,0-.93,0c-.85.18-1.1.94.14,1.47C167.9,228.62,168.82,228.35,169.79,228.67Z" transform="translate(-21.92 -19.14)"/><path class="cls-90" d="M177.33,225.21s.82,1.47.28,2.07a3.09,3.09,0,0,1-1.78.23c-.58,0-1.23-.25-1.81-.26a5.51,5.51,0,0,1-3.58-1.27c-1.7-1.39,1-1.19,2.84-.88A17.92,17.92,0,0,0,177.33,225.21Z" transform="translate(-21.92 -19.14)"/><path class="cls-91" d="M174.19,225.36l-2.37-17.21A2.18,2.18,0,0,1,174,205.7c1.49-.14,4.29-.28,4.53.89.67,3.32-2.14,4.66-1.17,8.4.65,2.48.16,9.16,0,10.22S174.81,226.23,174.19,225.36Z" transform="translate(-21.92 -19.14)"/><path class="cls-92" d="M169.91,226.36c-.39-2-1.4-4.8-1.52-7.56-.1-2.29-.53-9.21-.53-9.21,0-1.18.11-5.15,1.49-5.15s7.54.06,7.54,2.49c0,1.54.47,2-1.52,4.33-1.33,1.54-1.85,4.42-1.69,6.43a36.92,36.92,0,0,1-.79,8.77C172.76,227.5,170,227,169.91,226.36Z" transform="translate(-21.92 -19.14)"/><path class="cls-93" d="M168.28,200.78c.19,1.84-.69,5.24-.51,6.54s10.69,1.45,11.14-.34c.36-1.42-1-4.45-.85-5.78.38-2.82.88-6.59.85-7.87a1.71,1.71,0,0,0-.57-1.36,5.29,5.29,0,0,0-3.46-.52l-3.12.35c-.76.35-4.16.73-4.5,2.28a4.94,4.94,0,0,1,.44,1.43C167.88,196.73,168.25,200.52,168.28,200.78Z" transform="translate(-21.92 -19.14)"/><path class="cls-80" d="M170,189.33h.06c.18-.33,1.54-.34,2-.34a17.74,17.74,0,0,1,2.42.06l.15.52h0a2.29,2.29,0,0,1,.08,1.07,2.31,2.31,0,0,0,.19,1c.18.36.23.71-.34.94-1.51.59-3.33.48-3.7,0-.26-.32.24-.8,0-1.61s-.91-1.39-.86-1.61Z" transform="translate(-21.92 -19.14)"/><path class="cls-80" d="M168.8,186.89c-.16,1.65-.13,3.34,1,4a2.11,2.11,0,0,0,1.39.19l.3-.05a6.08,6.08,0,0,0,1.48-.49c.5-.25,1.1-1.73,1.25-2.23.48-1.61-1-1.76-2.33-2.54S169,185.24,168.8,186.89Z" transform="translate(-21.92 -19.14)"/><path class="cls-94" d="M170.05,184.49a7.11,7.11,0,0,1,2-.62,5.52,5.52,0,0,1,.91-.11c2.13.24,2.61,1.29,2.61,1.29s4.11,1.7-.24,5.55a1.13,1.13,0,0,0-.38.61,6.17,6.17,0,0,1-2.09-.06,1.68,1.68,0,0,1-.63-.64c-.15-.25-.26-.51-.4-.76a1.27,1.27,0,0,0-.36-.41c-.25-.17-.62-.22-.85-.41a.83.83,0,0,1-.27-.7c0-.16,0-.32,0-.48s0-.06,0-.08A1,1,0,0,0,170,187c-.42-.28-.88-.24-1.21-.68S168.82,185.17,170.05,184.49Z" transform="translate(-21.92 -19.14)"/><path class="cls-94" d="M170.05,184.49a7.11,7.11,0,0,1,2-.62,5.52,5.52,0,0,1,.91-.11c2.13.24,2.61,1.29,2.61,1.29s2.41,1,1.59,3.19c-1.42-1.5-4.12-1.54-6.22-1a2.75,2.75,0,0,0-.59.21A.86.86,0,0,0,170,187c-.42-.28-.88-.24-1.21-.68S168.82,185.17,170.05,184.49Z" transform="translate(-21.92 -19.14)"/><path class="cls-95" d="M177.15,188.24a6.39,6.39,0,0,1-1.83,2.36,1.13,1.13,0,0,0-.38.61,6.17,6.17,0,0,1-2.09-.06c-.59-.32-.76-.94-1-1.4a1.27,1.27,0,0,0-.36-.41c-.25-.17-.62-.22-.85-.41a.83.83,0,0,1-.27-.7c0-.16,0-.32,0-.48s0-.06,0-.08a1.16,1.16,0,0,0,0-.18,2.75,2.75,0,0,1,.59-.21C173,186.7,175.73,186.74,177.15,188.24Z" transform="translate(-21.92 -19.14)"/><path class="cls-80" d="M170.76,189a.59.59,0,0,0,.16.91.94.94,0,0,0,1.06-.39.57.57,0,0,0-.16-.91A.93.93,0,0,0,170.76,189Z" transform="translate(-21.92 -19.14)"/><path class="cls-88" d="M171.13,189.18a.24.24,0,0,0,.06.37.37.37,0,0,0,.43-.16.23.23,0,0,0-.07-.36A.37.37,0,0,0,171.13,189.18Z" transform="translate(-21.92 -19.14)"/><path class="cls-96" d="M162.56,192.65l-.07,0a.11.11,0,0,0,.07.1l.07,0a.1.1,0,0,1-.07-.1Z" transform="translate(-21.92 -19.14)"/><path class="cls-97" d="M162.41,193.9s.08,0,.08,0v.26a.14.14,0,0,1-.07.11l-.28.14c-.05,0-.08,0-.08,0l0-.26a.15.15,0,0,1,.08-.11Z" transform="translate(-21.92 -19.14)"/><polygon class="cls-97" points="140.5 170.33 140.51 170.4 139.78 170.76 139.77 170.69 140.5 170.33"/><path class="cls-98" d="M163.29,189.17c.09,0,.16,0,.16.06l.18,3.88a.26.26,0,0,1-.14.22l-2.44,1.2c-.09,0-.15,0-.16-.06l-.18-3.88a.26.26,0,0,1,.14-.22Z" transform="translate(-21.92 -19.14)"/><path class="cls-99" d="M163.2,188.87c.2-.1.36,0,.37.15l.21,4.43a.61.61,0,0,1-.33.5l-2.31,1.14c-.19.09-.36,0-.37-.16l-.21-4.42a.6.6,0,0,1,.34-.5Zm.36,4.18-.18-3.68c0-.07-.07-.1-.15-.06l-2.31,1.15a.23.23,0,0,0-.14.2l.18,3.68c0,.07.06.1.14.06l2.32-1.15a.24.24,0,0,0,.14-.2Zm-1.06,1.14v-.26s0-.05-.08,0l-.28.14a.15.15,0,0,0-.08.11l0,.26s0,.05.08,0l.28-.14a.14.14,0,0,0,.07-.11Zm-.8-4.35v.06l.73-.36v-.06l-.73.36Z" transform="translate(-21.92 -19.14)"/><path class="cls-100" d="M163.1,188.69a.32.32,0,0,0-.14,0l-.11,0-2.3,1.14a.66.66,0,0,0-.17.12.53.53,0,0,0-.17.38l.21,4.42a.18.18,0,0,0,.11.18l.36.15a.19.19,0,0,1-.12-.18l-.21-4.42a.62.62,0,0,1,.17-.38.66.66,0,0,1,.17-.12l2.3-1.14.11,0a.35.35,0,0,1,.15,0Z" transform="translate(-21.92 -19.14)"/><path class="cls-80" d="M159.77,191.24c.17-.14.41-.2.49,0s-.14,1.3.3,1.66a.47.47,0,0,0,.71.11,6.34,6.34,0,0,0,.56-.68c.25-.31.59-.08.42.17a2.67,2.67,0,0,0-.36.69c-.07.39-.58.69-.66.89a.28.28,0,0,0,0,.19c.22.25.93,2.1,1.87,2.17,1.51.11,4.5-3.19,4.5-3.19a2.26,2.26,0,0,1,2.18-.34,2.63,2.63,0,0,1,.76.49c1.07,1-.07,2-.81,2.45a3.4,3.4,0,0,1-1.07.9c-1.85,1.05-5.1,3.23-6.95,2.45-1.23-.51-1.72-2.76-1.9-3.18-.38-.91-.42-1.78-.81-2.69a2.33,2.33,0,0,1-.3-.82C158.71,192.22,159.68,191.33,159.77,191.24Z" transform="translate(-21.92 -19.14)"/><path class="cls-88" d="M165,192.47a1.74,1.74,0,0,1-.63-.17,2.43,2.43,0,0,0-1-.32,2.54,2.54,0,0,1-1-.19c-.24-.14-.26-.36.06-.43s.83.15,1.22.1.16-.3-.05-.52a1.93,1.93,0,0,1,1,.67A2.52,2.52,0,0,1,165,192.47Z" transform="translate(-21.92 -19.14)"/><path class="cls-101" d="M163.73,195.94l3.91-2.66a2.26,2.26,0,0,1,2.18-.34,2.63,2.63,0,0,1,.76.49,2,2,0,0,1-.39,3h0l-4.41,2.36A3.81,3.81,0,0,1,163.73,195.94Z" transform="translate(-21.92 -19.14)"/><g class="cls-102"><polygon class="cls-103" points="9.31 138.48 9.31 176.99 71.24 205.27 71.24 166.77 9.31 138.48"/><polygon class="cls-104" points="71.24 205.27 74.16 203.93 74.16 165.42 71.24 166.77 71.24 205.27"/><polygon class="cls-105" points="74.16 165.42 71.24 166.77 9.31 138.48 12.23 137.14 74.16 165.42"/></g><path class="cls-106" d="M61,191.33c0-.34.3-.48.67-.31a1.14,1.14,0,0,1,.66.92c0,.33-.29.47-.66.3A1.15,1.15,0,0,1,61,191.33Z" transform="translate(-21.92 -19.14)"/><path class="cls-107" d="M87.46,206.6c0-.34.3-.48.66-.31a1.15,1.15,0,0,1,.67.92c0,.33-.3.47-.67.3A1.16,1.16,0,0,1,87.46,206.6Z" transform="translate(-21.92 -19.14)"/><path class="cls-108" d="M87.46,212c0-.34.3-.48.66-.31a1.15,1.15,0,0,1,.67.91c0,.34-.3.48-.67.31A1.16,1.16,0,0,1,87.46,212Z" transform="translate(-21.92 -19.14)"/><path class="cls-108" d="M82.8,204.64c0-.34.3-.48.67-.31a1.15,1.15,0,0,1,.67.92c0,.33-.3.47-.67.3A1.15,1.15,0,0,1,82.8,204.64Z" transform="translate(-21.92 -19.14)"/><path class="cls-108" d="M77.86,199.34c0-.33.3-.47.67-.3a1.15,1.15,0,0,1,.67.91c0,.34-.3.48-.67.31A1.15,1.15,0,0,1,77.86,199.34Z" transform="translate(-21.92 -19.14)"/><path class="cls-108" d="M65.51,194.32c0-.34.3-.47.67-.3a1.13,1.13,0,0,1,.67.91c0,.34-.3.47-.67.3A1.13,1.13,0,0,1,65.51,194.32Z" transform="translate(-21.92 -19.14)"/><path class="cls-108" d="M69.84,187.42c0-.33.3-.47.67-.3a1.15,1.15,0,0,1,.67.91c0,.34-.3.47-.67.31A1.15,1.15,0,0,1,69.84,187.42Z" transform="translate(-21.92 -19.14)"/><g class="cls-109"><path class="cls-110" d="M56.16,190.35c0-.34.3-.47.67-.3a1.13,1.13,0,0,1,.67.91c0,.34-.3.47-.67.3A1.13,1.13,0,0,1,56.16,190.35Z" transform="translate(-21.92 -19.14)"/></g><path class="cls-106" d="M55.26,198.49c0-.34.3-.47.67-.3a1.13,1.13,0,0,1,.66.91c0,.34-.3.47-.66.3A1.13,1.13,0,0,1,55.26,198.49Z" transform="translate(-21.92 -19.14)"/><path class="cls-106" d="M71.8,207.66c0-.33.3-.47.67-.3a1.14,1.14,0,0,1,.67.91c0,.34-.3.47-.67.31A1.15,1.15,0,0,1,71.8,207.66Z" transform="translate(-21.92 -19.14)"/><path class="cls-106" d="M87.52,216.35c0-.34.3-.47.67-.31a1.16,1.16,0,0,1,.66.92c0,.33-.3.47-.66.3A1.14,1.14,0,0,1,87.52,216.35Z" transform="translate(-21.92 -19.14)"/><path class="cls-111" d="M87.46,202.54c0-.34.3-.48.66-.31a1.15,1.15,0,0,1,.67.92c0,.33-.3.47-.67.3A1.16,1.16,0,0,1,87.46,202.54Z" transform="translate(-21.92 -19.14)"/><path class="cls-111" d="M81.47,211.25c0-.34.3-.48.67-.31a1.14,1.14,0,0,1,.66.91c0,.34-.29.48-.66.31A1.15,1.15,0,0,1,81.47,211.25Z" transform="translate(-21.92 -19.14)"/><path class="cls-111" d="M75.28,197.85c0-.34.3-.47.67-.31a1.15,1.15,0,0,1,.67.92c0,.33-.3.47-.67.3A1.15,1.15,0,0,1,75.28,197.85Z" transform="translate(-21.92 -19.14)"/><path class="cls-111" d="M63.51,202.45c0-.34.29-.48.66-.31a1.15,1.15,0,0,1,.67.91c0,.34-.3.48-.67.31A1.14,1.14,0,0,1,63.51,202.45Z" transform="translate(-21.92 -19.14)"/><g class="cls-112"><polygon class="cls-113" points="67.97 200.22 67.97 170.37 67.47 170.37 67.47 199.54 14.77 175.5 14.52 175.85 67.97 200.22"/></g><g class="cls-112"><path class="cls-114" d="M87.93,216.54h.13l.3.13c0-.09,0-.38-6.4-10l-.13-.19-9.35,1.35L61.61,191.25l-5.76,7.34L43.8,185.39l-1.16-12.83-.43-.16,1.17,13,.09.09L56,199.25,61.7,192l10.7,16.38L81.76,207C84.11,210.54,87.76,216.09,87.93,216.54Z" transform="translate(-21.92 -19.14)"/></g><g class="cls-112"><path class="cls-115" d="M82.13,212.16c.23.1.72-.31,6.06-9.18l-.4-.34c-1.92,3.19-4.78,7.84-5.6,8.9-.86-2.3-5.12-11.42-6-13.41l-.13-.29-11.7,4.65-9.52-21-12,8.7.35.39,11.54-8.39,9.46,20.84,11.71-4.65c2.44,5.2,6,12.87,6,13.41V212l.18.13Z" transform="translate(-21.92 -19.14)"/></g><g class="cls-112"><path class="cls-116" d="M59.21,201.6l2.4-12.18,3.29-1.88,5.51,9,9.08-4.15c3.27,5.53,8.06,13.74,8.2,14.34l.43.17c0-.53-5.9-10.56-8.44-14.84l-.15-.26-9.08,4.16-5.52-9-3.73,2.12L59,200.35,52.87,188,39,177.23l-.14.31,13.74,10.63Z" transform="translate(-21.92 -19.14)"/></g><g class="cls-112"><polygon class="cls-110" points="22.97 175.64 34.99 171.8 44.56 175.84 48.66 168.94 56.53 180.6 61.32 185.84 65.97 193.18 66.31 193.09 61.59 185.65 56.8 180.41 48.53 168.15 44.27 175.32 34.83 171.33 34.77 171.35 23.04 175.1 13.48 159.53 13.13 159.62 22.97 175.64"/></g><g class="cls-112"><path class="cls-110" d="M44.24,194.17c0-.34.3-.48.67-.31a1.14,1.14,0,0,1,.66.92c0,.33-.29.47-.66.3A1.15,1.15,0,0,1,44.24,194.17Z" transform="translate(-21.92 -19.14)"/></g><g class="cls-112"><path class="cls-110" d="M34.67,178.46c0-.33.3-.47.67-.3a1.16,1.16,0,0,1,.66.91c0,.34-.3.48-.66.31A1.15,1.15,0,0,1,34.67,178.46Z" transform="translate(-21.92 -19.14)"/></g><g class="cls-112"><path class="cls-114" d="M43.08,185.27c0-.33.3-.47.67-.3a1.16,1.16,0,0,1,.66.91c0,.34-.3.48-.66.31A1.15,1.15,0,0,1,43.08,185.27Z" transform="translate(-21.92 -19.14)"/></g><g class="cls-112"><path class="cls-114" d="M41.74,172.46c0-.34.3-.47.67-.31a1.15,1.15,0,0,1,.67.92c0,.33-.3.47-.67.3A1.14,1.14,0,0,1,41.74,172.46Z" transform="translate(-21.92 -19.14)"/></g><g class="cls-112"><path class="cls-115" d="M42.61,190c0-.34.3-.47.67-.31a1.15,1.15,0,0,1,.67.92c0,.33-.3.47-.67.3A1.14,1.14,0,0,1,42.61,190Z" transform="translate(-21.92 -19.14)"/></g><g class="cls-112"><path class="cls-115" d="M54.14,181.76c0-.33.3-.47.67-.3a1.13,1.13,0,0,1,.66.91c0,.34-.29.47-.66.31A1.15,1.15,0,0,1,54.14,181.76Z" transform="translate(-21.92 -19.14)"/></g><path class="cls-107" d="M69.76,195.65c0-.34.3-.47.67-.31a1.16,1.16,0,0,1,.66.92c0,.33-.3.47-.66.3A1.15,1.15,0,0,1,69.76,195.65Z" transform="translate(-21.92 -19.14)"/><path class="cls-107" d="M78.76,192c0-.34.29-.47.66-.31a1.15,1.15,0,0,1,.67.92c0,.33-.3.47-.67.3A1.14,1.14,0,0,1,78.76,192Z" transform="translate(-21.92 -19.14)"/><path class="cls-107" d="M64.17,187.08c0-.34.3-.47.67-.3a1.13,1.13,0,0,1,.67.91c0,.34-.3.47-.67.3A1.13,1.13,0,0,1,64.17,187.08Z" transform="translate(-21.92 -19.14)"/><path class="cls-107" d="M60.79,188.79c0-.34.29-.48.66-.31a1.15,1.15,0,0,1,.67.91c0,.34-.3.48-.67.31A1.14,1.14,0,0,1,60.79,188.79Z" transform="translate(-21.92 -19.14)"/><path class="cls-107" d="M58.33,200.59c0-.33.3-.47.67-.3a1.15,1.15,0,0,1,.67.91c0,.34-.3.47-.67.31A1.15,1.15,0,0,1,58.33,200.59Z" transform="translate(-21.92 -19.14)"/><g class="cls-109"><path class="cls-116" d="M52,187.71c0-.33.3-.47.67-.3a1.14,1.14,0,0,1,.67.91c0,.34-.3.47-.67.31A1.15,1.15,0,0,1,52,187.71Z" transform="translate(-21.92 -19.14)"/></g><path class="cls-107" d="M83.08,184.08c1-.48,2.77.3,3.83,1.75s1.06,3,0,3.5-2.78-.3-3.83-1.75S82,184.56,83.08,184.08Z" transform="translate(-21.92 -19.14)"/><path class="cls-108" d="M75.83,180.78c1.06-.48,2.78.3,3.84,1.75s1.06,3,0,3.5-2.78-.3-3.84-1.75S74.78,181.26,75.83,180.78Z" transform="translate(-21.92 -19.14)"/><path class="cls-111" d="M68.59,177.48c1.06-.49,2.78.3,3.84,1.75s1.06,3,0,3.49-2.78-.3-3.84-1.75S67.53,178,68.59,177.48Z" transform="translate(-21.92 -19.14)"/><path class="cls-106" d="M61.35,174.18c1.06-.49,2.78.3,3.84,1.74s1.06,3,0,3.5-2.78-.3-3.84-1.75S60.29,174.66,61.35,174.18Z" transform="translate(-21.92 -19.14)"/><polygon class="cls-117" points="12.91 147.86 34.39 157.65 34.39 152.72 12.91 142.92 12.91 147.86"/><path class="cls-118" d="M48.21,202.34l1,.45a14.06,14.06,0,0,0,0,1.59,9.63,9.63,0,0,1,.1,1.31c0,.43.41.57.09.93a3.35,3.35,0,0,1-1.27-1.44,3,3,0,0,1-.56-1.31A2.64,2.64,0,0,1,48.21,202.34Z" transform="translate(-21.92 -19.14)"/><path class="cls-81" d="M49.29,202.18a5.36,5.36,0,0,1-.44,1.59,2,2,0,0,1-1.45.12c-.26-.09-1.11-12.8-.67-14.11a3.7,3.7,0,0,1,1-1.52,2.58,2.58,0,0,1,.77-.51,7.72,7.72,0,0,1,1.16-.34c-.1,0-.24.19-.29.25a.36.36,0,0,0-.12.28,5.09,5.09,0,0,0,0,.55c0,.23.12.48.16.7q.14,3.18.16,6.36v1.69a2.56,2.56,0,0,1-.05.55,2.18,2.18,0,0,1,.17,1.07A24.71,24.71,0,0,1,49.29,202.18Z" transform="translate(-21.92 -19.14)"/><path class="cls-81" d="M49.33,187.66a.89.89,0,0,1,.32-.25,9.54,9.54,0,0,0-1.19.34,2.46,2.46,0,0,0-.57.34,4.19,4.19,0,0,0,0,2.43c.68,2.6-.15,11.36-.53,13.28a.25.25,0,0,0,.07.09,2,2,0,0,0,1.45-.12,5.36,5.36,0,0,0,.44-1.59,24.71,24.71,0,0,0,.32-3.32,2.18,2.18,0,0,0-.17-1.07,2.56,2.56,0,0,0,.05-.55v-1.69q0-3.18-.16-6.36c0-.22-.14-.47-.16-.7a5.09,5.09,0,0,1,0-.55A.36.36,0,0,1,49.33,187.66Z" transform="translate(-21.92 -19.14)"/><path class="cls-118" d="M55.22,186.54v.15l0,1.37a2.36,2.36,0,0,1-.42.37h-.14c-1.26-.11-2.83-.32-2.83-1l0,0,.07-1H52l2.27.16Z" transform="translate(-21.92 -19.14)"/><path class="cls-119" d="M51.4,187.18c-.2.15-.11,1.53-.09,1.74.06.57.18-.23.85,0a4.72,4.72,0,0,0,2.12.09,1.5,1.5,0,0,0,.85-.33c.28-.24.28-1.17,0-1.18s-.82,0-1.07,0a4.8,4.8,0,0,1-1.73-.23C52,187.15,51.82,186.86,51.4,187.18Z" transform="translate(-21.92 -19.14)"/><path class="cls-83" d="M48.82,220.42s-.22,1.48.42,1.91a2.57,2.57,0,0,0,1.55-.17c.48-.16,1-.48,1.44-.61a2.88,2.88,0,0,0,2.13-1.68c1-1.59-1.23-.85-2.65-.2A8.77,8.77,0,0,1,48.82,220.42Z" transform="translate(-21.92 -19.14)"/><path class="cls-83" d="M50.29,221.67l0-.28L49,221.27v0l-.32.35.06.6s.72.53.88.51h.08l1.27-.48,0-.2c.25,0,1-.87,1-.87Z" transform="translate(-21.92 -19.14)"/><path class="cls-81" d="M53.29,209.69c-.12.84-.34,1.67-.51,2.51a50.26,50.26,0,0,0-.34,8.31c0,.31-4.24,1.31-4.36.85a28.25,28.25,0,0,1-.18-5.47c.15-1,.48-10.63.39-11.27-.13-1,0-2.75,1.09-3.3,1.67-.81,3.77,1,4.21,1.79C54.24,204.21,53.86,205.71,53.29,209.69Z" transform="translate(-21.92 -19.14)"/><path class="cls-81" d="M49.72,212.2c-.9,0-.71.11-1.62.06l0-.55c.53,0,1.34.18,1.88.14a7.21,7.21,0,0,0-1.49.11Z" transform="translate(-21.92 -19.14)"/><path class="cls-81" d="M53.93,204.64c0,.13,0,.26,0,.39s0,.25,0,.37c0,.41-.1.82-.15,1.24l-.09.59c-.13.82-.24,1.64-.36,2.46s-.34,1.67-.51,2.51c-.11.48-.07.85-.18,1.33-.21,1-.16,5.45-.16,7a8.09,8.09,0,0,1-2.88.86l.6-.24a3.94,3.94,0,0,0,1.52-.93,3,3,0,0,0,.25-2.51,10.91,10.91,0,0,1,.32-4.88,5.51,5.51,0,0,0,.32-1.49,4.39,4.39,0,0,0-.22-1.18c-.37-1.33-.75-2.66-1.13-4a1.9,1.9,0,0,0-.46-.93,2.82,2.82,0,0,0-.95-.52l-1.56-.62a4.86,4.86,0,0,1,0-.84,2.41,2.41,0,0,1,1.09-1.92,2.59,2.59,0,0,1,1.78-.07,4.38,4.38,0,0,1,1.4.79l.1.08a3.79,3.79,0,0,1,.93,1A2.93,2.93,0,0,1,53.93,204.64Z" transform="translate(-21.92 -19.14)"/><path class="cls-83" d="M53.54,222.07s-.69,1.37-.21,1.93a2.64,2.64,0,0,0,1.56.18c.5,0,1.07-.25,1.57-.26a3.26,3.26,0,0,0,2.59-1.15c1.47-1.31-.9-1.09-2.48-.78A9,9,0,0,1,53.54,222.07Z" transform="translate(-21.92 -19.14)"/><path class="cls-83" d="M54.82,223.67l0-.28-1.37-.12v0l-.32.35.07.6s.72.53.88.51l.08,0,1.27-.47,0-.11.77-.16h0l.35-.08.06,0Z" transform="translate(-21.92 -19.14)"/><path class="cls-84" d="M58.4,209.11h0s-.07.44-.16,1h0c-.26,1.73-.75,5.13-.77,6.29,0,2,.06,3.9.05,5.87a.42.42,0,0,1-.1.32.72.72,0,0,1-.34.11l-.47,0-1.12.14a5.58,5.58,0,0,1-1.22.06,1.4,1.4,0,0,1-1.43-1.62c0-1.2,0-2.39,0-3.59s.17-2.17.32-3.24c.05-.3.09-.58.15-.85a8.39,8.39,0,0,1,.59-1.75c.27-.59.68-1.2,1.41-1.2a8.3,8.3,0,0,0,2.1-1Z" transform="translate(-21.92 -19.14)"/><path class="cls-84" d="M58.69,203.46c-.12,2.13-.13,4.17-.29,5.65h0a8.44,8.44,0,0,1-.16,1h0a3.39,3.39,0,0,1-.23.72c-.2.44-.49.84-.72,1.26a3.43,3.43,0,0,0-.3.68,1.84,1.84,0,0,1-.62,1,1.66,1.66,0,0,1-1.55.06c-.48-.23-1.12,1.59-1.29,1.15a6.7,6.7,0,0,1-.18-1.24.57.57,0,0,0,0-.13c0-.33,0-.67-.06-1s0-.48,0-.64,0-.13,0-.18,0-.24,0-.36a22.91,22.91,0,0,0-1.06-3.63,13.39,13.39,0,0,1-.66-3,6.36,6.36,0,0,1,0-1.31C51.52,203.45,58.69,203.46,58.69,203.46Z" transform="translate(-21.92 -19.14)"/><path class="cls-84" d="M58.8,197.19c0,1.33.23,5,.31,6.15a.58.58,0,0,1-.37.56,6.23,6.23,0,0,1-2,.61c-.33.05-.68.08-1.06.1a22.9,22.9,0,0,1-4.46-.14,7.23,7.23,0,0,1-2.88-1A.61.61,0,0,1,48,203h0c0-1.25.8-4.71.8-6.06,0-2.31-1-6.19-1-7.47.06-1.09.55-2.4,3.52-2.1l3.92.71c.82.36,4.23.84,4.55,2.4,0,0-.11.58-.26,1.4-.23,1.23-.54,3-.68,4.28A8.88,8.88,0,0,0,58.8,197.19Z" transform="translate(-21.92 -19.14)"/><path class="cls-118" d="M56.38,185.63a2.32,2.32,0,0,1-1.16,1.06,2.18,2.18,0,0,1-.62.16l-.12,0a1.56,1.56,0,0,1-.61-.08c-.36-.15-1.68,0-1.81-.27a.65.65,0,0,1-.06-.21c-.15-.79.54-2,.7-2.71a3.1,3.1,0,0,1,1.36-1.79,5.83,5.83,0,0,1,2-.88l.37.34.29.29a7.41,7.41,0,0,0,0,2.05A3.81,3.81,0,0,1,56.38,185.63Z" transform="translate(-21.92 -19.14)"/><path class="cls-118" d="M56.68,183.61a7.41,7.41,0,0,1,0-2.05l-.29-.29-.12.45a5.74,5.74,0,0,1,0,3.26,2.26,2.26,0,0,1-.66,1.13,1.55,1.55,0,0,1-1.44.31l.08.05a.92.92,0,0,1,.33.38,1.38,1.38,0,0,1,.09.39,2.09,2.09,0,0,1,0,.25,1.62,1.62,0,0,1,.44,0h.07l0-.81a2.32,2.32,0,0,0,1.16-1.06A3.81,3.81,0,0,0,56.68,183.61Z" transform="translate(-21.92 -19.14)"/><path class="cls-85" d="M57.17,181.39c-.07.42-.52.39-.8.75s-.33.77-.65,1.18c-.12.15-.18.51-.72.27-.78-.36-.29,2.36-1.73,3a3.53,3.53,0,0,1-1.21,0,.73.73,0,0,1-.39-.22l0,0a15,15,0,0,1-2.23-2,3.38,3.38,0,0,1-.34-1.68,2.52,2.52,0,0,1,.77-1.4,3.67,3.67,0,0,1,1.38-1,7.32,7.32,0,0,1,3.38-.37l.44.06a6.69,6.69,0,0,1,.75.16l.32.13c1.07.46,1,1,1.06,1A2.34,2.34,0,0,1,57.17,181.39Z" transform="translate(-21.92 -19.14)"/><path class="cls-118" d="M55,183.59c.3.3.31.68,0,.85a.91.91,0,0,1-1-.23c-.3-.3-.31-.68,0-.85A.89.89,0,0,1,55,183.59Z" transform="translate(-21.92 -19.14)"/><path class="cls-118" d="M54.73,183.76c.13.13.14.31,0,.39a.42.42,0,0,1-.48-.11c-.13-.14-.14-.31,0-.39A.42.42,0,0,1,54.73,183.76Z" transform="translate(-21.92 -19.14)"/><path class="cls-81" d="M54.92,187.77a5.49,5.49,0,0,1,.7.17.5.5,0,0,1,.32.36A14.61,14.61,0,0,1,52.4,188a3.5,3.5,0,0,1-1.69-.66c-.32-.42,1.62,0,1.82.08.78.17,1.6.18,2.39.31Z" transform="translate(-21.92 -19.14)"/><path class="cls-118" d="M68,192.51c-.16.23-.24.41-.13.48a2.66,2.66,0,0,0,.57.33c.13.06.5.22.64.13.44-.25.94-.44,1.35-.72a3,3,0,0,0,.93-1.28.3.3,0,0,0,.05-.15.15.15,0,0,0-.1-.14.3.3,0,0,0-.25.1c0-.21.09-.79-.35-.43-.23.18-.31.54-.46.77a1,1,0,0,1-.94.41.84.84,0,0,1,.26-.4,1.15,1.15,0,0,0,.27-.27.22.22,0,0,0-.06-.31C69.56,190.93,68.41,191.88,68,192.51Z" transform="translate(-21.92 -19.14)"/><path class="cls-120" d="M49.64,182.81a3.34,3.34,0,0,0,1.58,3,1,1,0,0,1,.41.39.22.22,0,0,1,0,.08,15,15,0,0,1-2.23-2,3.38,3.38,0,0,1-.34-1.68,2.52,2.52,0,0,1,.77-1.4,3.67,3.67,0,0,1,1.38-1,7.32,7.32,0,0,1,3.38-.37,10,10,0,0,0-2.65.39A3.33,3.33,0,0,0,49.64,182.81Z" transform="translate(-21.92 -19.14)"/><path class="cls-87" d="M63.82,195.9a1.33,1.33,0,0,1-.48.46,2.66,2.66,0,0,1-1.63.43h0l-5.54-4.45h0a1.89,1.89,0,0,1,.35-2.89,3.12,3.12,0,0,1,.84-.35,2.06,2.06,0,0,1,2,.64l3.77,3.82.21.22.21.21,0,0,.27.27h0c0,.06.05.13.08.21A1.69,1.69,0,0,1,63.82,195.9Z" transform="translate(-21.92 -19.14)"/><path class="cls-87" d="M69.58,193.82h0c-.23.13-4.92,2.85-7.09,3.06a1.64,1.64,0,0,1-.81-.11s.11-.4.16-.72.13-.77.15-.81l-.61-.76,1.24-.47.66-.25.2-.08,4.14-1.58a10.74,10.74,0,0,1,1.71,1.45Z" transform="translate(-21.92 -19.14)"/></g></g></svg>